<svg width="519" height="400" viewBox="0 0 519 400" fill="none" xmlns="http://www.w3.org/2000/svg">
<path d="M148.738 335.105C148.249 335.059 147.764 334.969 147.291 334.837C145.922 334.46 144.626 333.856 143.457 333.05C141.604 331.778 140.032 330.138 138.838 328.234C137.285 325.703 136.148 322.939 135.469 320.049C134.556 316.574 134.209 312.974 134.441 309.389C134.668 305.226 136.078 301.215 138.507 297.826C139.826 296.003 141.471 294.44 143.359 293.215C144.342 292.594 145.388 292.076 146.477 291.669C147.596 291.278 148.752 291.003 149.927 290.847C152.286 290.517 154.698 290.561 157.075 290.418C159.518 290.367 161.924 289.814 164.143 288.792C165.234 288.29 166.196 287.546 166.958 286.617C167.719 285.688 168.26 284.599 168.539 283.431C168.794 282.313 168.79 281.152 168.528 280.036C168.266 278.919 167.752 277.878 167.027 276.99C166.301 276.103 165.383 275.392 164.341 274.913C163.299 274.435 162.162 274.2 161.016 274.227C159.932 274.286 158.891 274.672 158.031 275.335C157.625 275.65 157.299 276.058 157.081 276.524C156.864 276.99 156.761 277.502 156.78 278.016C156.89 279.022 157.349 279.958 158.077 280.662C158.805 281.365 159.756 281.792 160.765 281.867C161.734 281.885 162.695 281.688 163.578 281.291C164.462 280.894 165.247 280.307 165.877 279.571C167.072 278.158 167.934 276.493 168.396 274.701C168.841 273.052 169.184 271.378 169.424 269.688C170.065 264.558 170.224 259.38 169.898 254.221C169.808 252.433 169.737 250.995 169.683 250.012C169.683 249.547 169.665 249.181 169.63 248.913C169.618 248.788 169.618 248.662 169.63 248.537C169.659 248.661 169.677 248.786 169.683 248.913C169.683 249.181 169.737 249.538 169.781 250.003C169.853 250.968 169.969 252.38 170.076 254.212C170.477 259.384 170.366 264.582 169.746 269.733C169.514 271.441 169.177 273.133 168.736 274.799C168.278 276.638 167.414 278.351 166.207 279.812C165.541 280.595 164.708 281.221 163.77 281.643C162.832 282.065 161.812 282.273 160.783 282.251C159.67 282.175 158.62 281.709 157.817 280.934C157.015 280.159 156.511 279.126 156.396 278.016C156.371 277.432 156.485 276.85 156.729 276.319C156.973 275.788 157.34 275.322 157.799 274.96C158.724 274.235 159.851 273.814 161.025 273.754C162.55 273.738 164.049 274.156 165.345 274.96C166.642 275.764 167.683 276.92 168.347 278.294C169.012 279.667 169.271 281.201 169.097 282.717C168.922 284.233 168.319 285.667 167.36 286.853C166.535 287.83 165.515 288.624 164.366 289.185C162.089 290.238 159.619 290.81 157.111 290.865C154.671 291.008 152.268 290.964 149.962 291.276C148.819 291.429 147.693 291.696 146.603 292.072C145.543 292.463 144.527 292.966 143.573 293.573C141.73 294.76 140.119 296.274 138.82 298.04C136.434 301.36 135.039 305.289 134.799 309.371C134.567 312.925 134.905 316.494 135.799 319.942C136.459 322.803 137.563 325.544 139.07 328.064C140.22 329.951 141.74 331.587 143.538 332.871C144.686 333.681 145.956 334.302 147.3 334.712C147.755 334.846 148.113 334.926 148.354 334.98C148.487 335.006 148.616 335.048 148.738 335.105Z" fill="#D8CFC5"/>
<path d="M216.551 67.4586C216.551 66.708 216.65 64.7243 216.65 63.8844C216.65 60.2476 215.363 58.6035 211.976 58.523C210.377 58.4247 209.43 57.4776 209.43 56.1283C209.43 54.779 210.377 53.8408 211.976 53.7425C215.363 53.5906 216.65 51.9554 216.65 48.3097C216.65 47.4161 216.551 45.4682 216.551 44.7355C216.551 39.9013 218.598 36.8096 226.318 35.1208C226.848 34.9842 227.409 35.0544 227.889 35.3169C228.369 35.5795 228.731 36.0148 228.902 36.5345C229.072 37.0542 229.039 37.6194 228.808 38.1152C228.577 38.6111 228.166 39.0005 227.658 39.2044C222.833 40.6966 222.136 42.2424 222.136 45.629C222.136 46.6298 222.234 48.3097 222.234 49.3194C222.234 53.1974 220.34 55.0918 217.052 56.1372C220.394 57.2363 222.234 59.077 222.234 62.964C222.234 64.0095 222.136 65.6447 222.136 66.6455C222.136 70.0321 222.833 71.5779 227.658 73.0701C228.193 73.2546 228.633 73.6417 228.884 74.1479C229.135 74.6541 229.178 75.2388 229.002 75.7759C228.826 76.3129 228.446 76.7593 227.944 77.0188C227.442 77.2782 226.858 77.3299 226.318 77.1626C218.598 75.4291 216.551 72.3374 216.551 67.4586Z" fill="#F0F0F0"/>
<path d="M245.744 44.6997C245.744 45.4414 245.646 47.434 245.646 48.2739C245.646 51.9643 246.986 53.5549 250.372 53.7068C250.699 53.6868 251.025 53.7338 251.333 53.8449C251.64 53.956 251.921 54.1289 252.16 54.3528C252.398 54.5767 252.587 54.8469 252.717 55.1469C252.847 55.4469 252.913 55.7702 252.913 56.097C252.913 56.4238 252.847 56.7472 252.717 57.0471C252.587 57.3471 252.398 57.6174 252.16 57.8413C251.921 58.0652 251.64 58.238 251.333 58.3491C251.025 58.4602 250.699 58.5072 250.372 58.4873C246.986 58.5856 245.646 60.2297 245.646 63.8486C245.646 64.7422 245.744 66.6812 245.744 67.4229C245.744 72.3017 243.698 75.3934 235.977 77.0911C235.435 77.2629 234.846 77.2121 234.341 76.9499C233.835 76.6876 233.455 76.2354 233.283 75.6927C233.111 75.15 233.162 74.5613 233.424 74.0561C233.687 73.5508 234.139 73.1705 234.682 72.9986C239.462 71.5064 240.159 69.9606 240.159 66.574C240.159 65.5821 240.061 63.8933 240.061 62.8925C240.061 59.0056 241.955 57.1112 245.243 56.0658C241.902 54.9756 240.061 53.126 240.061 49.2479C240.061 48.2025 240.159 46.5673 240.159 45.5575C240.159 42.171 239.462 40.6251 234.682 39.1329C234.165 38.9413 233.742 38.5582 233.5 38.0631C233.258 37.568 233.216 36.9987 233.383 36.4735C233.55 35.9483 233.912 35.5074 234.395 35.2422C234.878 34.977 235.445 34.908 235.977 35.0493C243.698 36.7917 245.744 39.8656 245.744 44.6997Z" fill="#F0F0F0"/>
<path d="M367.864 341.171H355.595V341.524H367.864V341.171Z" fill="#EBEBEB"/>
<path d="M72.505 344.793H69.481" stroke="#EAE4DC" stroke-width="0.446778" stroke-linecap="round" stroke-linejoin="round"/>
<path d="M167.578 311.035C166.761 312.279 166.212 313.645 165.919 315.054L163.675 315.265L163.675 319.612L165.919 319.823C166.212 321.232 166.761 322.598 167.578 323.842L166.144 325.573L169.218 328.647L170.949 327.213C172.193 328.03 173.559 328.579 174.968 328.871L175.179 331.116L179.525 331.116L179.737 328.872C181.146 328.579 182.512 328.03 183.756 327.213L185.487 328.647L188.56 325.573L187.127 323.842C187.943 322.598 188.493 321.232 188.785 319.823L191.029 319.612L191.03 315.265L188.785 315.054C188.493 313.645 187.943 312.279 187.127 311.035L188.56 309.304L185.487 306.231L183.755 307.664C182.511 306.847 181.145 306.298 179.737 306.005L179.525 303.761L175.179 303.761L174.968 306.005C173.559 306.298 172.193 306.847 170.949 307.664L169.218 306.23L166.144 309.304L167.578 311.035ZM181.513 313.278C183.81 315.576 183.81 319.301 181.513 321.599C179.215 323.897 175.489 323.897 173.192 321.599C170.894 319.301 170.894 315.576 173.192 313.278C175.49 310.981 179.215 310.981 181.513 313.278Z" fill="#F5F5F5"/>
<path d="M467.275 201.255C467.559 201.55 467.752 201.921 467.83 202.323C467.907 202.726 467.865 203.142 467.71 203.521C467.554 203.9 467.292 204.226 466.954 204.458C466.617 204.691 466.219 204.82 465.809 204.83C465.236 204.835 464.683 204.62 464.263 204.231L454.863 194.688C454.765 194.688 454.729 194.589 454.693 194.491C454.665 194.462 454.632 194.437 454.595 194.42C454.549 194.336 454.516 194.245 454.497 194.152C454.47 194.139 454.447 194.121 454.43 194.097C454.413 194.074 454.402 194.046 454.398 194.017C454.398 193.955 454.398 193.857 454.327 193.821C454.255 193.785 454.264 193.687 454.264 193.651V193.419C454.264 193.356 454.264 193.32 454.264 193.222C454.264 193.124 454.264 193.088 454.264 193.052V192.82C454.264 192.749 454.327 192.713 454.327 192.686C454.327 192.659 454.327 192.516 454.398 192.418C454.47 192.32 454.398 192.418 454.398 192.347C454.444 192.244 454.498 192.146 454.559 192.052C454.559 192.033 454.567 192.015 454.58 192.001C454.594 191.988 454.612 191.98 454.631 191.98C454.674 191.886 454.742 191.806 454.827 191.748L464.228 182.214C464.633 181.826 465.172 181.61 465.733 181.61C466.294 181.61 466.833 181.826 467.239 182.214C467.438 182.411 467.596 182.645 467.704 182.903C467.812 183.162 467.867 183.439 467.867 183.719C467.867 183.999 467.812 184.277 467.704 184.535C467.596 184.793 467.438 185.028 467.239 185.225L459.313 193.267L467.275 201.255Z" fill="#F0F0F0"/>
<path d="M475.808 202.318L484.011 182.812C484.107 182.588 484.247 182.385 484.422 182.215C484.596 182.046 484.803 181.912 485.03 181.822C485.257 181.733 485.499 181.689 485.743 181.693C485.986 181.697 486.227 181.75 486.45 181.847C486.67 181.939 486.868 182.075 487.035 182.245C487.201 182.415 487.332 182.617 487.419 182.838C487.507 183.06 487.549 183.296 487.544 183.534C487.538 183.772 487.486 184.007 487.389 184.224L479.186 203.757C479.042 204.089 478.803 204.371 478.499 204.568C478.196 204.765 477.841 204.869 477.479 204.865C477.252 204.868 477.026 204.822 476.818 204.731C476.588 204.646 476.377 204.515 476.2 204.345C476.023 204.175 475.883 203.971 475.788 203.744C475.693 203.518 475.646 203.275 475.65 203.029C475.653 202.784 475.707 202.542 475.808 202.318Z" fill="#F0F0F0"/>
<path d="M503.58 194.455C503.514 194.544 503.436 194.622 503.347 194.688L493.947 204.231C493.541 204.616 493.002 204.831 492.442 204.831C491.881 204.831 491.343 204.616 490.936 204.231C490.737 204.034 490.579 203.799 490.471 203.541C490.363 203.283 490.307 203.005 490.307 202.725C490.307 202.445 490.363 202.168 490.471 201.909C490.579 201.651 490.737 201.416 490.936 201.22L498.862 193.178L490.936 185.136C490.737 184.939 490.579 184.704 490.471 184.446C490.363 184.187 490.307 183.91 490.307 183.63C490.307 183.35 490.363 183.073 490.471 182.814C490.579 182.556 490.737 182.321 490.936 182.124C491.342 181.737 491.881 181.521 492.442 181.521C493.002 181.521 493.542 181.737 493.947 182.124L503.347 191.658C503.434 191.727 503.512 191.805 503.58 191.891V191.962C503.644 192.056 503.701 192.155 503.75 192.257C503.75 192.257 503.75 192.257 503.75 192.329C503.767 192.431 503.8 192.531 503.848 192.624C503.848 192.624 503.848 192.624 503.848 192.731V192.963C503.848 192.963 503.848 193.097 503.848 193.133C503.848 193.169 503.848 193.267 503.848 193.294V193.562C503.848 193.562 503.848 193.562 503.848 193.633C503.805 193.728 503.773 193.827 503.75 193.928C503.75 193.928 503.75 193.928 503.75 194.035C503.75 194.143 503.651 194.321 503.58 194.455Z" fill="#F0F0F0"/>
<path d="M518.809 376.022C518.809 378.862 404.46 381.165 263.404 381.165C122.348 381.165 8 378.862 8 376.022C8 373.181 122.348 370.877 263.404 370.877C404.46 370.877 518.809 373.181 518.809 376.022Z" fill="#F5F5F5"/>
<path d="M186.133 293.286H147.416V376.628H186.133V293.286Z" fill="#263238"/>
<path d="M182.809 367.854C182.809 367.854 182.809 367.729 182.809 367.487C182.809 367.246 182.809 366.898 182.809 366.451C182.809 365.557 182.809 364.19 182.809 362.466C182.809 358.981 182.809 353.932 182.747 347.579C182.747 334.873 182.684 316.984 182.64 296.173L182.863 296.387H150.472L150.704 296.155C150.704 323.998 150.704 349.286 150.641 367.836L150.472 367.666L174.124 367.756L180.593 367.8H182.282C182.666 367.8 182.872 367.8 182.872 367.8H182.318H180.656H174.231L150.472 367.89H150.311V367.72C150.311 349.17 150.311 323.882 150.239 296.039V295.806H183.095V296.03C183.095 316.903 183.015 334.846 182.988 347.588C182.988 353.914 182.988 358.954 182.926 362.421C182.926 364.128 182.926 365.45 182.926 366.362C182.926 366.799 182.926 367.13 182.926 367.371C182.926 367.613 182.809 367.854 182.809 367.854Z" fill="#455A64"/>
<path d="M180.808 302.24C180.808 302.24 180.808 301.928 180.808 301.347C180.808 300.766 180.808 299.953 180.754 298.934L180.853 299.032C175.84 299.113 165.099 299.166 152.688 299.166L152.92 298.934V300.596C152.92 301.141 152.92 301.686 152.92 302.213L152.697 301.981C160.569 301.981 167.574 302.035 172.641 302.079L178.637 302.142H180.272C180.468 302.122 180.665 302.122 180.861 302.142C180.686 302.155 180.51 302.155 180.334 302.142H178.744L172.811 302.205C167.753 302.258 160.667 302.303 152.697 302.303H152.464V298.791L152.705 298.559C165.117 298.559 175.858 298.612 180.87 298.693H180.906V298.791C180.906 299.837 180.906 300.659 180.853 301.266C180.858 301.592 180.844 301.917 180.808 302.24Z" fill="#455A64"/>
<path d="M155.475 304.599C155.475 304.724 154.895 304.832 154.18 304.832C153.465 304.832 152.875 304.724 152.875 304.599C152.875 304.474 153.456 304.367 154.18 304.367C154.904 304.367 155.475 304.465 155.475 304.599Z" fill="#455A64"/>
<path d="M180.057 308.897C180.057 309.022 174.062 309.129 166.654 309.129C159.246 309.129 153.251 309.022 153.251 308.897C153.251 308.772 159.238 308.665 166.654 308.665C174.071 308.665 180.057 308.772 180.057 308.897Z" fill="#455A64"/>
<path d="M180.173 314.089C180.173 314.223 174.276 314.321 167.011 314.321C159.747 314.321 153.849 314.223 153.849 314.089C153.849 313.955 159.738 313.856 167.011 313.856C174.285 313.856 180.173 313.964 180.173 314.089Z" fill="#455A64"/>
<path d="M166.663 328.359C167.837 328.359 168.789 327.407 168.789 326.232C168.789 325.058 167.837 324.105 166.663 324.105C165.488 324.105 164.536 325.058 164.536 326.232C164.536 327.407 165.488 328.359 166.663 328.359Z" fill="#FF725E"/>
<path d="M160.658 326.17C159.726 326.397 158.764 326.476 157.808 326.402C156.863 326.473 155.913 326.395 154.993 326.17C155.921 325.936 156.881 325.858 157.835 325.937C158.782 325.861 159.736 325.94 160.658 326.17Z" fill="#455A64"/>
<path d="M177.957 325.58C177.084 325.809 176.177 325.887 175.277 325.812C174.376 325.888 173.47 325.809 172.596 325.58C173.471 325.355 174.376 325.277 175.277 325.347C176.177 325.277 177.083 325.356 177.957 325.58Z" fill="#455A64"/>
<path d="M454.443 301.456H386.354V373.635H454.443V301.456Z" fill="#EF4E23"/>
<path d="M457.777 312.002H454.435V315.344H457.777V312.002Z" fill="#263238"/>
<path d="M457.777 322.616H454.435V325.958H457.777V322.616Z" fill="#263238"/>
<path d="M457.777 333.231H454.435V336.573H457.777V333.231Z" fill="#263238"/>
<path d="M457.777 343.845H454.435V347.187H457.777V343.845Z" fill="#263238"/>
<path d="M457.907 334.207C458.24 334.1 458.582 334.026 458.93 333.986C459.876 333.81 460.836 333.718 461.799 333.711C463.253 333.677 464.687 334.055 465.935 334.803C466.711 335.27 467.339 335.949 467.744 336.759C468.15 337.57 468.316 338.479 468.224 339.381C468.15 340.311 467.851 341.209 467.354 341.998C466.891 342.723 466.295 343.355 465.599 343.86C464.418 344.698 463.051 345.238 461.616 345.432C460.663 345.572 459.698 345.606 458.739 345.531C458.386 345.523 458.035 345.475 457.693 345.386C458.041 345.358 458.391 345.358 458.739 345.386C459.687 345.401 460.635 345.327 461.57 345.165C462.948 344.941 464.255 344.398 465.385 343.578C466.072 343.091 466.647 342.463 467.069 341.735C467.492 341.007 467.753 340.196 467.835 339.358C467.922 338.525 467.772 337.684 467.4 336.933C467.029 336.182 466.452 335.551 465.736 335.115C464.548 334.389 463.183 334.003 461.791 334.001C460.843 333.982 459.894 334.03 458.952 334.146C458.607 334.202 458.257 334.223 457.907 334.207Z" fill="#263238"/>
<path d="M457.076 323.654C457.171 323.577 457.276 323.513 457.389 323.463C457.708 323.306 458.04 323.173 458.381 323.066C459.645 322.661 460.993 322.585 462.295 322.845C462.737 322.93 463.159 323.099 463.539 323.341C463.962 323.622 464.273 324.044 464.416 324.531C464.586 325.359 464.462 326.219 464.065 326.965C463.668 327.71 463.023 328.293 462.242 328.614C461.946 328.73 461.629 328.781 461.311 328.764C460.994 328.747 460.684 328.662 460.403 328.515C460.098 328.367 459.839 328.141 459.653 327.859C459.466 327.577 459.359 327.25 459.342 326.912C459.356 326.564 459.464 326.226 459.654 325.934C459.845 325.643 460.112 325.408 460.426 325.256C461.031 324.967 461.718 324.894 462.371 325.05C462.993 325.185 463.576 325.462 464.073 325.859C465.019 326.613 465.628 327.71 465.767 328.911C465.881 330.003 465.57 331.096 464.897 331.964C464.341 332.7 463.626 333.303 462.806 333.726C461.614 334.309 460.316 334.646 458.991 334.718C458.533 334.757 458.175 334.772 457.93 334.772C457.806 334.792 457.68 334.792 457.556 334.772C457.556 334.772 458.068 334.703 458.976 334.589C460.257 334.455 461.504 334.087 462.654 333.505C463.426 333.084 464.095 332.498 464.615 331.788C465.209 330.988 465.482 329.994 465.378 329.003C465.236 327.91 464.672 326.916 463.806 326.233C463.361 325.876 462.838 325.627 462.28 325.508C461.715 325.374 461.121 325.433 460.593 325.676C460.344 325.795 460.131 325.978 459.978 326.208C459.825 326.438 459.737 326.705 459.724 326.981C459.743 327.246 459.831 327.502 459.979 327.723C460.128 327.944 460.332 328.122 460.571 328.24C460.803 328.365 461.061 328.437 461.324 328.451C461.588 328.466 461.852 328.422 462.097 328.324C462.59 328.136 463.025 327.82 463.356 327.408C463.689 327.048 463.932 326.614 464.065 326.142C464.197 325.67 464.216 325.173 464.119 324.692C463.98 324.288 463.732 323.932 463.402 323.662C463.071 323.393 462.672 323.221 462.249 323.166C460.989 322.89 459.68 322.922 458.434 323.257C457.541 323.448 457.091 323.692 457.076 323.654Z" fill="#263238"/>
<path d="M457.106 313.299C457.347 313.199 457.608 313.152 457.869 313.162C458.561 313.112 459.255 313.198 459.914 313.414C460.9 313.746 461.778 314.34 462.455 315.131C463.285 316.115 463.751 317.354 463.775 318.641C463.825 319.926 463.438 321.19 462.676 322.227C462.043 323.063 461.193 323.709 460.219 324.097C459.578 324.364 458.892 324.504 458.197 324.509C457.939 324.535 457.679 324.503 457.434 324.417C458.347 324.389 459.246 324.195 460.09 323.845C460.985 323.438 461.76 322.807 462.341 322.013C463.026 321.033 463.377 319.857 463.341 318.661C463.305 317.465 462.885 316.313 462.142 315.375C461.511 314.623 460.7 314.043 459.784 313.688C458.922 313.398 458.015 313.266 457.106 313.299Z" fill="#263238"/>
<path d="M450.567 370.644C450.567 370.644 450.567 370.537 450.567 370.323C450.567 370.11 450.567 369.805 450.567 369.408C450.567 368.584 450.567 367.386 450.567 365.829C450.567 362.693 450.567 358.114 450.521 352.307C450.521 340.686 450.468 324.127 450.429 304.318L450.605 304.493H389.063L389.261 304.295C389.261 328.713 389.261 351.468 389.261 370.621L389.094 370.453L433.688 370.537L446.194 370.583H449.498H450.643H449.537L446.179 370.644L433.718 370.69L389.01 370.774H388.834V370.644C388.834 351.491 388.834 328.675 388.834 304.318V304.119H389.04H450.582H450.757V304.257C450.719 324.097 450.689 340.709 450.666 352.33C450.666 358.13 450.666 362.693 450.62 365.814C450.62 367.34 450.62 368.546 450.62 369.362C450.62 369.751 450.62 370.049 450.62 370.262C450.62 370.476 450.567 370.644 450.567 370.644Z" fill="#263238"/>
<path d="M433.206 312.444C433.208 312.486 433.2 312.528 433.185 312.566C433.17 312.605 433.147 312.641 433.118 312.671C433.089 312.7 433.054 312.724 433.015 312.74C432.977 312.756 432.935 312.765 432.894 312.765C432.848 312.772 432.801 312.769 432.757 312.756C432.712 312.744 432.671 312.722 432.636 312.692C432.601 312.661 432.573 312.624 432.554 312.582C432.534 312.54 432.524 312.494 432.524 312.448C432.524 312.402 432.534 312.356 432.554 312.314C432.573 312.272 432.601 312.235 432.636 312.205C432.671 312.175 432.712 312.153 432.757 312.14C432.801 312.127 432.848 312.125 432.894 312.132C432.977 312.132 433.056 312.165 433.115 312.223C433.174 312.282 433.206 312.362 433.206 312.444Z" fill="#263238"/>
<path d="M434.969 312.444C434.97 312.486 434.963 312.528 434.948 312.566C434.932 312.605 434.909 312.641 434.88 312.671C434.851 312.7 434.816 312.724 434.778 312.74C434.739 312.756 434.698 312.765 434.656 312.765C434.611 312.772 434.564 312.769 434.52 312.756C434.475 312.744 434.434 312.722 434.399 312.692C434.364 312.661 434.336 312.624 434.316 312.582C434.297 312.54 434.287 312.494 434.287 312.448C434.287 312.402 434.297 312.356 434.316 312.314C434.336 312.272 434.364 312.235 434.399 312.205C434.434 312.175 434.475 312.153 434.52 312.14C434.564 312.127 434.611 312.125 434.656 312.132C434.739 312.132 434.819 312.165 434.878 312.223C434.936 312.282 434.969 312.362 434.969 312.444Z" fill="#263238"/>
<path d="M436.709 312.444C436.71 312.486 436.702 312.528 436.687 312.566C436.672 312.605 436.649 312.641 436.62 312.671C436.591 312.7 436.556 312.724 436.518 312.74C436.479 312.756 436.438 312.765 436.396 312.765C436.35 312.772 436.304 312.769 436.259 312.756C436.215 312.744 436.174 312.722 436.138 312.692C436.103 312.661 436.075 312.624 436.056 312.582C436.037 312.54 436.026 312.494 436.026 312.448C436.026 312.402 436.037 312.356 436.056 312.314C436.075 312.272 436.103 312.235 436.138 312.205C436.174 312.175 436.215 312.153 436.259 312.14C436.304 312.127 436.35 312.125 436.396 312.132C436.479 312.132 436.559 312.165 436.617 312.223C436.676 312.282 436.709 312.362 436.709 312.444Z" fill="#263238"/>
<path d="M438.449 312.444C438.45 312.508 438.433 312.571 438.398 312.624C438.364 312.678 438.315 312.72 438.256 312.746C438.198 312.771 438.133 312.778 438.071 312.767C438.008 312.756 437.95 312.726 437.905 312.681C437.859 312.637 437.828 312.58 437.815 312.517C437.802 312.455 437.808 312.39 437.832 312.331C437.856 312.272 437.897 312.222 437.95 312.186C438.002 312.151 438.065 312.132 438.128 312.132C438.212 312.132 438.292 312.164 438.352 312.223C438.412 312.281 438.447 312.361 438.449 312.444Z" fill="#263238"/>
<path d="M440.188 312.444C440.188 312.529 440.155 312.611 440.094 312.671C440.034 312.731 439.953 312.765 439.868 312.765C439.792 312.753 439.724 312.714 439.674 312.656C439.624 312.598 439.597 312.525 439.597 312.448C439.597 312.372 439.624 312.298 439.674 312.24C439.724 312.182 439.792 312.143 439.868 312.132C439.952 312.132 440.032 312.164 440.092 312.223C440.152 312.281 440.186 312.361 440.188 312.444Z" fill="#263238"/>
<path d="M441.928 312.444C441.928 312.529 441.894 312.611 441.834 312.671C441.774 312.731 441.693 312.765 441.608 312.765C441.532 312.753 441.463 312.714 441.414 312.656C441.364 312.598 441.337 312.525 441.337 312.448C441.337 312.372 441.364 312.298 441.414 312.24C441.463 312.182 441.532 312.143 441.608 312.132C441.691 312.132 441.772 312.164 441.832 312.223C441.891 312.281 441.926 312.361 441.928 312.444Z" fill="#263238"/>
<path d="M443.668 312.444C443.668 312.529 443.634 312.611 443.574 312.671C443.514 312.731 443.433 312.765 443.348 312.765C443.272 312.753 443.203 312.714 443.154 312.656C443.104 312.598 443.077 312.525 443.077 312.448C443.077 312.372 443.104 312.298 443.154 312.24C443.203 312.182 443.272 312.143 443.348 312.132C443.431 312.132 443.512 312.164 443.571 312.223C443.631 312.281 443.666 312.361 443.668 312.444Z" fill="#263238"/>
<path d="M442.546 313.932C442.719 313.932 442.859 313.792 442.859 313.619C442.859 313.447 442.719 313.307 442.546 313.307C442.374 313.307 442.234 313.447 442.234 313.619C442.234 313.792 442.374 313.932 442.546 313.932Z" fill="#263238"/>
<path d="M440.769 313.932C440.941 313.932 441.081 313.792 441.081 313.619C441.081 313.447 440.941 313.307 440.769 313.307C440.596 313.307 440.456 313.447 440.456 313.619C440.456 313.792 440.596 313.932 440.769 313.932Z" fill="#263238"/>
<path d="M439.311 313.62C439.311 313.661 439.303 313.701 439.287 313.739C439.271 313.777 439.248 313.812 439.219 313.841C439.19 313.87 439.156 313.893 439.118 313.909C439.08 313.924 439.039 313.932 438.998 313.932C438.957 313.933 438.915 313.926 438.876 313.911C438.837 313.896 438.802 313.873 438.772 313.843C438.742 313.814 438.719 313.78 438.702 313.741C438.686 313.703 438.678 313.661 438.678 313.62C438.678 313.578 438.686 313.536 438.702 313.497C438.718 313.458 438.742 313.423 438.772 313.393C438.802 313.363 438.837 313.34 438.876 313.324C438.915 313.308 438.956 313.299 438.998 313.299C439.04 313.299 439.081 313.308 439.12 313.324C439.158 313.34 439.193 313.364 439.222 313.394C439.251 313.423 439.274 313.459 439.289 313.498C439.305 313.536 439.312 313.578 439.311 313.62Z" fill="#263238"/>
<path d="M437.213 313.932C437.385 313.932 437.525 313.792 437.525 313.619C437.525 313.447 437.385 313.307 437.213 313.307C437.04 313.307 436.9 313.447 436.9 313.619C436.9 313.792 437.04 313.932 437.213 313.932Z" fill="#263238"/>
<path d="M435.427 313.932C435.6 313.932 435.74 313.792 435.74 313.619C435.74 313.447 435.6 313.307 435.427 313.307C435.255 313.307 435.115 313.447 435.115 313.619C435.115 313.792 435.255 313.932 435.427 313.932Z" fill="#263238"/>
<path d="M433.97 313.62C433.97 313.661 433.961 313.703 433.945 313.741C433.929 313.78 433.905 313.814 433.875 313.843C433.845 313.873 433.81 313.896 433.771 313.911C433.732 313.926 433.691 313.933 433.649 313.932C433.566 313.932 433.487 313.899 433.428 313.841C433.369 313.782 433.337 313.703 433.337 313.62C433.336 313.578 433.343 313.536 433.358 313.498C433.373 313.459 433.396 313.423 433.425 313.394C433.455 313.364 433.489 313.34 433.528 313.324C433.566 313.308 433.607 313.299 433.649 313.299C433.691 313.299 433.733 313.308 433.772 313.324C433.811 313.34 433.846 313.363 433.876 313.393C433.905 313.423 433.929 313.458 433.945 313.497C433.961 313.536 433.97 313.578 433.97 313.62Z" fill="#263238"/>
<path d="M433.206 314.94C433.206 315.023 433.173 315.102 433.115 315.161C433.056 315.22 432.977 315.253 432.894 315.253C432.852 315.254 432.81 315.246 432.772 315.231C432.733 315.216 432.697 315.193 432.668 315.164C432.638 315.135 432.614 315.1 432.598 315.061C432.582 315.023 432.573 314.982 432.573 314.94C432.573 314.855 432.607 314.773 432.667 314.713C432.727 314.653 432.809 314.62 432.894 314.62C432.935 314.619 432.977 314.628 433.015 314.644C433.054 314.66 433.088 314.684 433.118 314.714C433.147 314.744 433.17 314.779 433.185 314.818C433.2 314.857 433.207 314.898 433.206 314.94Z" fill="#263238"/>
<path d="M434.969 314.94C434.969 315.023 434.936 315.102 434.877 315.161C434.819 315.22 434.739 315.253 434.656 315.253C434.615 315.254 434.573 315.246 434.534 315.231C434.496 315.216 434.46 315.193 434.43 315.164C434.4 315.135 434.377 315.1 434.361 315.061C434.344 315.023 434.336 314.982 434.336 314.94C434.336 314.855 434.37 314.773 434.43 314.713C434.49 314.653 434.571 314.62 434.656 314.62C434.698 314.619 434.739 314.628 434.778 314.644C434.816 314.66 434.851 314.684 434.88 314.714C434.909 314.744 434.932 314.779 434.948 314.818C434.963 314.857 434.97 314.898 434.969 314.94Z" fill="#263238"/>
<path d="M436.709 314.94C436.709 315.023 436.676 315.102 436.617 315.161C436.559 315.22 436.479 315.253 436.396 315.253C436.354 315.254 436.313 315.246 436.274 315.231C436.235 315.216 436.2 315.193 436.17 315.164C436.14 315.135 436.117 315.1 436.1 315.061C436.084 315.023 436.076 314.982 436.076 314.94C436.076 314.898 436.084 314.856 436.1 314.817C436.116 314.778 436.14 314.743 436.17 314.713C436.199 314.684 436.235 314.66 436.274 314.644C436.312 314.628 436.354 314.62 436.396 314.62C436.438 314.619 436.479 314.628 436.518 314.644C436.556 314.66 436.591 314.684 436.62 314.714C436.649 314.744 436.672 314.779 436.687 314.818C436.703 314.857 436.71 314.898 436.709 314.94Z" fill="#263238"/>
<path d="M438.449 314.939C438.437 315.015 438.398 315.084 438.34 315.133C438.282 315.183 438.208 315.21 438.132 315.21C438.056 315.21 437.982 315.183 437.924 315.133C437.866 315.084 437.827 315.015 437.816 314.939C437.808 314.894 437.811 314.847 437.824 314.803C437.837 314.758 437.859 314.717 437.889 314.682C437.919 314.647 437.956 314.619 437.998 314.599C438.04 314.58 438.086 314.57 438.132 314.57C438.178 314.57 438.224 314.58 438.266 314.599C438.308 314.619 438.345 314.647 438.375 314.682C438.405 314.717 438.428 314.758 438.44 314.803C438.453 314.847 438.456 314.894 438.449 314.939Z" fill="#263238"/>
<path d="M440.189 314.94C440.189 314.982 440.18 315.023 440.164 315.061C440.148 315.1 440.124 315.135 440.094 315.164C440.065 315.193 440.029 315.216 439.99 315.231C439.952 315.246 439.91 315.254 439.868 315.253C439.785 315.253 439.706 315.22 439.647 315.161C439.589 315.102 439.556 315.023 439.556 314.94C439.555 314.898 439.562 314.857 439.577 314.818C439.592 314.779 439.615 314.744 439.644 314.714C439.674 314.684 439.708 314.66 439.747 314.644C439.785 314.628 439.827 314.619 439.868 314.62C439.953 314.62 440.035 314.653 440.095 314.713C440.155 314.773 440.189 314.855 440.189 314.94Z" fill="#263238"/>
<path d="M441.928 314.94C441.928 314.982 441.92 315.023 441.904 315.061C441.888 315.1 441.864 315.135 441.834 315.164C441.804 315.193 441.769 315.216 441.73 315.231C441.691 315.246 441.65 315.254 441.608 315.253C441.525 315.253 441.445 315.22 441.387 315.161C441.328 315.102 441.295 315.023 441.295 314.94C441.294 314.898 441.302 314.857 441.317 314.818C441.332 314.779 441.355 314.744 441.384 314.714C441.413 314.684 441.448 314.66 441.487 314.644C441.525 314.628 441.566 314.619 441.608 314.62C441.693 314.62 441.774 314.653 441.834 314.713C441.895 314.773 441.928 314.855 441.928 314.94Z" fill="#263238"/>
<path d="M443.668 314.94C443.668 314.982 443.66 315.023 443.644 315.061C443.628 315.1 443.604 315.135 443.574 315.164C443.544 315.193 443.509 315.216 443.47 315.231C443.431 315.246 443.39 315.254 443.348 315.253C443.307 315.253 443.266 315.244 443.228 315.229C443.19 315.213 443.156 315.19 443.127 315.161C443.098 315.132 443.075 315.097 443.059 315.06C443.043 315.022 443.035 314.981 443.035 314.94C443.034 314.898 443.042 314.857 443.057 314.818C443.072 314.779 443.095 314.744 443.124 314.714C443.153 314.684 443.188 314.66 443.227 314.644C443.265 314.628 443.306 314.619 443.348 314.62C443.433 314.62 443.514 314.653 443.574 314.713C443.635 314.773 443.668 314.855 443.668 314.94Z" fill="#263238"/>
<path d="M442.867 316.107C442.867 316.192 442.833 316.273 442.773 316.334C442.713 316.394 442.632 316.427 442.547 316.427C442.505 316.427 442.464 316.419 442.425 316.403C442.387 316.387 442.352 316.363 442.323 316.333C442.294 316.303 442.271 316.268 442.255 316.229C442.24 316.19 442.233 316.149 442.234 316.107C442.234 316.024 442.267 315.945 442.325 315.886C442.384 315.827 442.464 315.794 442.547 315.794C442.588 315.793 442.63 315.801 442.669 315.816C442.707 315.831 442.743 315.854 442.773 315.883C442.802 315.912 442.826 315.947 442.842 315.986C442.859 316.024 442.867 316.065 442.867 316.107Z" fill="#263238"/>
<path d="M441.081 316.107C441.082 316.149 441.075 316.19 441.06 316.229C441.045 316.268 441.022 316.303 440.993 316.333C440.963 316.363 440.929 316.387 440.89 316.403C440.852 316.419 440.81 316.427 440.769 316.427C440.684 316.427 440.602 316.394 440.542 316.334C440.482 316.273 440.448 316.192 440.448 316.107C440.448 316.065 440.457 316.024 440.473 315.986C440.489 315.947 440.513 315.912 440.543 315.883C440.572 315.854 440.608 315.831 440.647 315.816C440.686 315.801 440.727 315.793 440.769 315.794C440.852 315.794 440.931 315.827 440.99 315.886C441.048 315.945 441.081 316.024 441.081 316.107Z" fill="#263238"/>
<path d="M439.311 316.107C439.312 316.149 439.305 316.19 439.289 316.229C439.274 316.268 439.251 316.303 439.222 316.333C439.193 316.363 439.158 316.387 439.12 316.403C439.081 316.419 439.04 316.427 438.998 316.427C438.956 316.427 438.915 316.419 438.876 316.403C438.837 316.387 438.802 316.363 438.772 316.334C438.742 316.304 438.718 316.268 438.702 316.23C438.686 316.191 438.678 316.149 438.678 316.107C438.678 316.065 438.686 316.024 438.702 315.986C438.719 315.947 438.742 315.912 438.772 315.883C438.802 315.854 438.837 315.831 438.876 315.816C438.915 315.801 438.957 315.793 438.998 315.794C439.039 315.794 439.08 315.802 439.118 315.818C439.156 315.834 439.19 315.857 439.219 315.886C439.248 315.915 439.271 315.949 439.287 315.987C439.303 316.025 439.311 316.066 439.311 316.107Z" fill="#263238"/>
<path d="M437.525 316.107C437.526 316.149 437.519 316.19 437.504 316.229C437.488 316.268 437.466 316.303 437.436 316.333C437.407 316.363 437.372 316.387 437.334 316.403C437.296 316.419 437.254 316.427 437.213 316.427C437.128 316.427 437.046 316.394 436.986 316.334C436.926 316.273 436.892 316.192 436.892 316.107C436.892 316.065 436.901 316.024 436.917 315.986C436.933 315.947 436.957 315.912 436.987 315.883C437.016 315.854 437.052 315.831 437.091 315.816C437.129 315.801 437.171 315.793 437.213 315.794C437.295 315.794 437.375 315.827 437.434 315.886C437.492 315.945 437.525 316.024 437.525 316.107Z" fill="#263238"/>
<path d="M435.747 316.107C435.754 316.153 435.752 316.199 435.739 316.244C435.726 316.288 435.704 316.33 435.674 316.365C435.644 316.4 435.607 316.428 435.565 316.447C435.523 316.467 435.477 316.477 435.431 316.477C435.385 316.477 435.339 316.467 435.297 316.447C435.255 316.428 435.218 316.4 435.187 316.365C435.157 316.33 435.135 316.288 435.123 316.244C435.11 316.199 435.107 316.153 435.114 316.107C435.126 316.032 435.164 315.963 435.222 315.913C435.28 315.863 435.354 315.836 435.431 315.836C435.507 315.836 435.581 315.863 435.639 315.913C435.697 315.963 435.736 316.032 435.747 316.107Z" fill="#263238"/>
<path d="M433.97 316.107C433.97 316.192 433.936 316.273 433.876 316.334C433.816 316.394 433.734 316.427 433.649 316.427C433.607 316.427 433.566 316.419 433.528 316.403C433.489 316.387 433.455 316.363 433.425 316.333C433.396 316.303 433.373 316.268 433.358 316.229C433.343 316.19 433.336 316.149 433.337 316.107C433.337 316.024 433.369 315.945 433.428 315.886C433.487 315.827 433.566 315.794 433.649 315.794C433.691 315.793 433.732 315.801 433.771 315.816C433.81 315.831 433.845 315.854 433.875 315.883C433.905 315.912 433.929 315.947 433.945 315.986C433.961 316.024 433.97 316.065 433.97 316.107Z" fill="#263238"/>
<path d="M433.206 317.427C433.207 317.469 433.2 317.51 433.185 317.549C433.17 317.588 433.147 317.624 433.118 317.653C433.088 317.683 433.054 317.707 433.015 317.723C432.977 317.739 432.935 317.748 432.894 317.748C432.809 317.748 432.727 317.714 432.667 317.654C432.607 317.594 432.573 317.512 432.573 317.427C432.573 317.386 432.582 317.344 432.598 317.306C432.614 317.267 432.638 317.233 432.668 317.203C432.697 317.174 432.733 317.151 432.772 317.136C432.81 317.121 432.852 317.114 432.894 317.115C432.977 317.115 433.056 317.148 433.115 317.206C433.173 317.265 433.206 317.344 433.206 317.427Z" fill="#263238"/>
<path d="M434.969 317.427C434.97 317.469 434.963 317.51 434.948 317.549C434.932 317.588 434.909 317.624 434.88 317.653C434.851 317.683 434.816 317.707 434.778 317.723C434.739 317.739 434.698 317.748 434.656 317.748C434.571 317.748 434.49 317.714 434.43 317.654C434.37 317.594 434.336 317.512 434.336 317.427C434.336 317.386 434.344 317.344 434.361 317.306C434.377 317.267 434.4 317.233 434.43 317.203C434.46 317.174 434.496 317.151 434.534 317.136C434.573 317.121 434.615 317.114 434.656 317.115C434.739 317.115 434.819 317.148 434.877 317.206C434.936 317.265 434.969 317.344 434.969 317.427Z" fill="#263238"/>
<path d="M436.709 317.427C436.71 317.469 436.703 317.51 436.687 317.549C436.672 317.588 436.649 317.624 436.62 317.653C436.591 317.683 436.556 317.707 436.518 317.723C436.479 317.739 436.438 317.748 436.396 317.748C436.354 317.748 436.312 317.739 436.274 317.723C436.235 317.707 436.199 317.684 436.17 317.654C436.14 317.624 436.116 317.589 436.1 317.55C436.084 317.511 436.076 317.469 436.076 317.427C436.076 317.386 436.084 317.344 436.1 317.306C436.117 317.267 436.14 317.233 436.17 317.203C436.2 317.174 436.235 317.151 436.274 317.136C436.313 317.121 436.354 317.114 436.396 317.115C436.479 317.115 436.559 317.148 436.617 317.206C436.676 317.265 436.709 317.344 436.709 317.427Z" fill="#263238"/>
<path d="M438.449 317.427C438.456 317.473 438.453 317.52 438.44 317.564C438.428 317.609 438.405 317.65 438.375 317.685C438.345 317.72 438.308 317.748 438.266 317.768C438.224 317.787 438.178 317.797 438.132 317.797C438.086 317.797 438.04 317.787 437.998 317.768C437.956 317.748 437.919 317.72 437.889 317.685C437.859 317.65 437.837 317.609 437.824 317.564C437.811 317.52 437.808 317.473 437.816 317.427C437.827 317.352 437.866 317.283 437.924 317.233C437.982 317.184 438.056 317.156 438.132 317.156C438.208 317.156 438.282 317.184 438.34 317.233C438.398 317.283 438.437 317.352 438.449 317.427Z" fill="#263238"/>
<path d="M440.189 317.427C440.189 317.512 440.155 317.594 440.095 317.654C440.035 317.714 439.953 317.748 439.868 317.748C439.827 317.748 439.785 317.739 439.747 317.723C439.708 317.707 439.674 317.683 439.644 317.653C439.615 317.624 439.592 317.588 439.577 317.549C439.562 317.51 439.555 317.469 439.556 317.427C439.556 317.344 439.589 317.265 439.647 317.206C439.706 317.148 439.785 317.115 439.868 317.115C439.91 317.114 439.952 317.121 439.99 317.136C440.029 317.151 440.065 317.174 440.094 317.203C440.124 317.233 440.148 317.267 440.164 317.306C440.18 317.344 440.189 317.386 440.189 317.427Z" fill="#263238"/>
<path d="M441.928 317.427C441.928 317.512 441.895 317.594 441.834 317.654C441.774 317.714 441.693 317.748 441.608 317.748C441.566 317.748 441.525 317.739 441.487 317.723C441.448 317.707 441.413 317.683 441.384 317.653C441.355 317.624 441.332 317.588 441.317 317.549C441.302 317.51 441.294 317.469 441.295 317.427C441.295 317.344 441.328 317.265 441.387 317.206C441.445 317.148 441.525 317.115 441.608 317.115C441.65 317.114 441.691 317.121 441.73 317.136C441.769 317.151 441.804 317.174 441.834 317.203C441.864 317.233 441.888 317.267 441.904 317.306C441.92 317.344 441.928 317.386 441.928 317.427Z" fill="#263238"/>
<path d="M443.668 317.427C443.668 317.512 443.635 317.594 443.574 317.654C443.514 317.714 443.433 317.748 443.348 317.748C443.306 317.748 443.265 317.739 443.227 317.723C443.188 317.707 443.153 317.683 443.124 317.653C443.095 317.624 443.072 317.588 443.057 317.549C443.042 317.51 443.034 317.469 443.035 317.427C443.035 317.386 443.043 317.346 443.059 317.308C443.075 317.27 443.098 317.235 443.127 317.206C443.156 317.177 443.19 317.154 443.228 317.138C443.266 317.123 443.307 317.115 443.348 317.115C443.39 317.114 443.431 317.121 443.47 317.136C443.509 317.151 443.544 317.174 443.574 317.203C443.604 317.233 443.628 317.267 443.644 317.306C443.66 317.344 443.668 317.386 443.668 317.427Z" fill="#263238"/>
<path d="M442.546 318.915C442.719 318.915 442.859 318.775 442.859 318.602C442.859 318.43 442.719 318.29 442.546 318.29C442.374 318.29 442.234 318.43 442.234 318.602C442.234 318.775 442.374 318.915 442.546 318.915Z" fill="#263238"/>
<path d="M440.769 318.915C440.941 318.915 441.081 318.775 441.081 318.602C441.081 318.43 440.941 318.29 440.769 318.29C440.596 318.29 440.456 318.43 440.456 318.602C440.456 318.775 440.596 318.915 440.769 318.915Z" fill="#263238"/>
<path d="M439.311 318.602C439.311 318.643 439.303 318.684 439.287 318.722C439.271 318.76 439.248 318.794 439.219 318.823C439.19 318.852 439.156 318.875 439.118 318.891C439.08 318.907 439.039 318.915 438.998 318.915C438.953 318.922 438.906 318.919 438.861 318.907C438.817 318.894 438.776 318.872 438.741 318.842C438.706 318.812 438.677 318.774 438.658 318.732C438.639 318.69 438.629 318.645 438.629 318.598C438.629 318.552 438.639 318.506 438.658 318.464C438.677 318.422 438.706 318.385 438.741 318.355C438.776 318.325 438.817 318.303 438.861 318.29C438.906 318.278 438.953 318.275 438.998 318.282C439.04 318.282 439.081 318.29 439.12 318.306C439.158 318.323 439.193 318.346 439.222 318.376C439.251 318.406 439.274 318.441 439.289 318.48C439.305 318.519 439.312 318.561 439.311 318.602Z" fill="#263238"/>
<path d="M437.213 318.915C437.385 318.915 437.525 318.775 437.525 318.602C437.525 318.43 437.385 318.29 437.213 318.29C437.04 318.29 436.9 318.43 436.9 318.602C436.9 318.775 437.04 318.915 437.213 318.915Z" fill="#263238"/>
<path d="M435.427 318.915C435.6 318.915 435.74 318.775 435.74 318.602C435.74 318.43 435.6 318.29 435.427 318.29C435.255 318.29 435.115 318.43 435.115 318.602C435.115 318.775 435.255 318.915 435.427 318.915Z" fill="#263238"/>
<path d="M433.97 318.602C433.968 318.686 433.933 318.765 433.873 318.824C433.813 318.882 433.733 318.915 433.649 318.915C433.574 318.903 433.505 318.865 433.455 318.807C433.405 318.749 433.378 318.675 433.378 318.598C433.378 318.522 433.405 318.448 433.455 318.39C433.505 318.332 433.574 318.294 433.649 318.282C433.734 318.282 433.816 318.316 433.876 318.376C433.936 318.436 433.97 318.517 433.97 318.602Z" fill="#263238"/>
<path d="M495.368 54.9537C495.368 57.8138 494.302 60.5683 492.384 62.664C490.465 64.7597 487.837 66.0415 485.026 66.252H421.812C418.438 66.2521 415.194 64.9334 412.753 62.5698C410.313 60.2062 408.864 56.9795 408.707 53.56C408.55 50.1405 409.698 46.7912 411.911 44.2078C414.125 41.6245 417.234 40.0057 420.593 39.6879C420.762 34.4894 422.706 29.512 426.093 25.6078C429.48 21.7036 434.099 19.1155 439.16 18.2866C444.221 17.4577 449.408 18.4396 453.834 21.0641C458.26 23.6886 461.649 27.7925 463.421 32.6731C465.237 31.7326 467.247 31.2401 469.286 31.2357C472.626 31.2364 475.841 32.5285 478.275 34.8491C480.71 37.1698 482.182 40.3445 482.391 43.7271C482.99 43.6276 483.597 43.5795 484.204 43.5834C485.674 43.5815 487.13 43.8746 488.488 44.4459C489.846 45.0171 491.079 45.8552 492.117 46.912C493.155 47.9688 493.976 49.2233 494.534 50.6035C495.092 51.9836 495.375 53.462 495.368 54.9537Z" fill="#F0F0F0"/>
<path d="M390.716 63.9807H133.073C125.889 63.9807 120.066 69.8039 120.066 76.9871V251.428C120.066 258.611 125.889 264.434 133.073 264.434H390.716C397.899 264.434 403.722 258.611 403.722 251.428V76.9871C403.722 69.8039 397.899 63.9807 390.716 63.9807Z" fill="#F8F8F8"/>
<path d="M133.234 63.9807H390.787C397.926 63.9807 403.722 69.7766 403.722 76.9156V89.1984H120.066V77.1489C120.066 69.8812 125.967 63.9807 133.234 63.9807Z" fill="#E6E6E6"/>
<path d="M138.564 81.1405C140.76 81.1405 142.541 79.3598 142.541 77.1632C142.541 74.9667 140.76 73.186 138.564 73.186C136.367 73.186 134.587 74.9667 134.587 77.1632C134.587 79.3598 136.367 81.1405 138.564 81.1405Z" fill="#CFCFCF"/>
<path d="M148.163 81.1405C150.36 81.1405 152.14 79.3598 152.14 77.1632C152.14 74.9667 150.36 73.186 148.163 73.186C145.967 73.186 144.186 74.9667 144.186 77.1632C144.186 79.3598 145.967 81.1405 148.163 81.1405Z" fill="#CFCFCF"/>
<path d="M162.03 77.1632C162.03 79.3598 160.249 81.1405 158.053 81.1405C155.856 81.1405 154.075 79.3598 154.075 77.1632C154.075 74.9667 155.856 73.186 158.053 73.186C160.249 73.186 162.03 74.9667 162.03 77.1632Z" fill="#CFCFCF"/>
<path d="M234.607 101.423H145.159C143.574 101.423 142.289 102.708 142.289 104.293V181.559C142.289 183.144 143.574 184.429 145.159 184.429H234.607C236.192 184.429 237.477 183.144 237.477 181.559V104.293C237.477 102.708 236.192 101.423 234.607 101.423Z" fill="white"/>
<path d="M142.289 171.075L166.932 146.869C169.229 144.613 172.716 144.093 175.571 145.581L195.129 155.773L212.526 136.892C215.579 133.579 220.704 133.268 224.134 136.189L237.478 147.55V179.181C237.074 182.115 233.778 184.429 231.794 184.429H148.375C140.496 184.429 141.923 173.186 142.289 171.075Z" fill="#E6E6E6"/>
<path d="M205.915 124.98C205.915 130.661 201.416 135.267 195.866 135.267C190.316 135.267 185.817 130.661 185.817 124.98C185.817 119.298 190.316 114.693 195.866 114.693C201.416 114.693 205.915 119.298 205.915 124.98Z" fill="#E6E6E6"/>
<path d="M237.478 195.505H145.564V202.759H237.478V195.505Z" stroke="#E6E6E6" stroke-width="0.446778" stroke-miterlimit="10"/>
<path d="M237.478 209.075H145.564V216.329H237.478V209.075Z" stroke="#E6E6E6" stroke-width="0.446778" stroke-miterlimit="10"/>
<path d="M237.478 222.388H145.564V229.642H237.478V222.388Z" stroke="#E6E6E6" stroke-width="0.446778" stroke-miterlimit="10"/>
<path d="M237.478 235.958H145.564V243.212H237.478V235.958Z" stroke="#E6E6E6" stroke-width="0.446778" stroke-miterlimit="10"/>
<path d="M318.513 105.461H277.831C276.246 105.461 274.961 106.746 274.961 108.331V143.072C274.961 144.657 276.246 145.942 277.831 145.942H318.513C320.098 145.942 321.383 144.657 321.383 143.072V108.331C321.383 106.746 320.098 105.461 318.513 105.461Z" stroke="#E6E6E6" stroke-width="0.446778" stroke-miterlimit="10"/>
<path d="M302.618 151.575H276.753V157.157H302.618V151.575Z" stroke="#E6E6E6" stroke-width="0.446778" stroke-miterlimit="10"/>
<path d="M323.033 165.504H276.753V171.087H323.033V165.504Z" stroke="#E6E6E6" stroke-width="0.446778" stroke-miterlimit="10"/>
<path d="M323.033 175.912H276.753V181.495H323.033V175.912Z" stroke="#E6E6E6" stroke-width="0.446778" stroke-miterlimit="10"/>
<path d="M303.734 186.83H276.753V192.412H303.734V186.83Z" stroke="#E6E6E6" stroke-width="0.446778" stroke-miterlimit="10"/>
<path d="M379.74 105.461H339.058C337.473 105.461 336.188 106.746 336.188 108.331V143.072C336.188 144.657 337.473 145.942 339.058 145.942H379.74C381.325 145.942 382.61 144.657 382.61 143.072V108.331C382.61 106.746 381.325 105.461 379.74 105.461Z" stroke="#E6E6E6" stroke-width="0.446778" stroke-miterlimit="10"/>
<path d="M363.845 151.575H337.98V157.157H363.845V151.575Z" stroke="#E6E6E6" stroke-width="0.446778" stroke-miterlimit="10"/>
<path d="M384.26 165.504H337.98V171.087H384.26V165.504Z" stroke="#E6E6E6" stroke-width="0.446778" stroke-miterlimit="10"/>
<path d="M384.26 175.912H337.98V181.495H384.26V175.912Z" stroke="#E6E6E6" stroke-width="0.446778" stroke-miterlimit="10"/>
<path d="M364.961 186.83H337.98V192.412H364.961V186.83Z" stroke="#E6E6E6" stroke-width="0.446778" stroke-miterlimit="10"/>
<path d="M384.26 208.06H273.884V213.519H384.26V208.06Z" stroke="#E6E6E6" stroke-width="0.446778" stroke-miterlimit="10"/>
<path d="M384.26 217.366H273.884V247.377H384.26V217.366Z" stroke="#E6E6E6" stroke-width="0.446778" stroke-miterlimit="10"/>
<path d="M442.648 95.7394H363.121C358.186 95.7394 354.186 99.74 354.186 104.675V147.566C354.186 152.501 358.186 156.501 363.121 156.501H442.648C447.583 156.501 451.583 152.501 451.583 147.566V104.675C451.583 99.74 447.583 95.7394 442.648 95.7394Z" fill="#263238"/>
<path d="M368.34 113.637H363.783V115.299H368.34V113.637Z" fill="#EBEBEB"/>
<path d="M402.626 113.637H371.664V115.299H402.626V113.637Z" fill="#EBEBEB"/>
<path d="M414.081 113.637H405.423V115.299H414.081V113.637Z" fill="#F0DC0D"/>
<path d="M433.891 135.922H425.233V137.585H433.891V135.922Z" fill="#EBEBEB"/>
<path d="M430.934 113.637H415.967V115.299H430.934V113.637Z" fill="#A6A6A6"/>
<path d="M372.897 118.096H368.34V119.758H372.897V118.096Z" fill="#EBEBEB"/>
<path d="M396.21 118.096H376.114V119.758H396.21V118.096Z" fill="#A6A6A6"/>
<path d="M423.177 135.922H403.081V137.585H423.177V135.922Z" fill="#A6A6A6"/>
<path d="M390.223 131.464H371.664V133.126H390.223V131.464Z" fill="#A6A6A6"/>
<path d="M384.889 122.555H376.114V124.217H384.889V122.555Z" fill="#F0DC0D"/>
<path d="M419.997 127.014H411.222V128.676H419.997V127.014Z" fill="#A6A6A6"/>
<path d="M417.048 122.555H387.435V124.217H417.048V122.555Z" fill="#A6A6A6"/>
<path d="M401.277 135.922H371.664V137.585H401.277V135.922Z" fill="#F0DC0D"/>
<path d="M438.761 118.096H415.002V119.758H438.761V118.096Z" fill="#F0DC0D"/>
<path d="M413.125 118.096H398.363V119.758H413.125V118.096Z" fill="#EBEBEB"/>
<path d="M433.534 122.555H418.772V124.217H433.534V122.555Z" fill="#EBEBEB"/>
<path d="M372.897 122.555H368.34V124.217H372.897V122.555Z" fill="#EBEBEB"/>
<path d="M368.34 127.014H363.783V128.676H368.34V127.014Z" fill="#A6A6A6"/>
<path d="M384.379 127.014H371.664V128.676H384.379V127.014Z" fill="#EBEBEB"/>
<path d="M388.829 140.381H376.114V142.043H388.829V140.381Z" fill="#EBEBEB"/>
<path d="M425.501 144.84H405.012V146.502H425.501V144.84Z" fill="#F0DC0D"/>
<path d="M410.927 140.381H391.018V142.043H410.927V140.381Z" fill="#F0DC0D"/>
<path d="M402.653 144.84H386.247V146.502H402.653V144.84Z" fill="#EBEBEB"/>
<path d="M438.761 140.381H413.259V142.043H438.761V140.381Z" fill="#A6A6A6"/>
<path d="M383.915 144.84H376.114V146.502H383.915V144.84Z" fill="#A6A6A6"/>
<path d="M414.081 131.464H392.073V133.126H414.081V131.464Z" fill="#EBEBEB"/>
<path d="M434.499 131.464H415.967V133.126H434.499V131.464Z" fill="#F0DC0D"/>
<path d="M409.095 127.014H387.123V128.676H409.095V127.014Z" fill="#F0DC0D"/>
<path d="M368.34 131.464H363.783V133.126H368.34V131.464Z" fill="#EBEBEB"/>
<path d="M368.34 135.922H363.783V137.585H368.34V135.922Z" fill="#EBEBEB"/>
<path d="M372.897 140.381H368.34V142.043H372.897V140.381Z" fill="#A6A6A6"/>
<path d="M372.897 144.84H368.34V146.502H372.897V144.84Z" fill="#EBEBEB"/>
<path d="M366.597 109.25C366.636 109.286 366.667 109.329 366.688 109.378C366.709 109.426 366.72 109.479 366.72 109.531C366.72 109.584 366.709 109.636 366.688 109.685C366.667 109.733 366.636 109.777 366.597 109.813C366.562 109.85 366.519 109.88 366.471 109.9C366.423 109.92 366.372 109.93 366.32 109.929C366.267 109.93 366.215 109.92 366.166 109.9C366.117 109.88 366.072 109.851 366.035 109.813L364.247 108.026C364.247 108.026 364.247 108.026 364.247 107.981C364.247 107.981 364.247 107.981 364.247 107.927C364.253 107.913 364.253 107.897 364.247 107.883V107.838C364.252 107.82 364.252 107.802 364.247 107.784C364.247 107.784 364.247 107.74 364.247 107.722L366.035 105.935C366.112 105.865 366.212 105.827 366.316 105.827C366.42 105.827 366.52 105.865 366.597 105.935C366.636 105.971 366.667 106.014 366.688 106.063C366.709 106.111 366.72 106.163 366.72 106.216C366.72 106.269 366.709 106.321 366.688 106.37C366.667 106.418 366.636 106.462 366.597 106.498L365.114 107.999L366.597 109.25Z" fill="#F0DC0D"/>
<path d="M368.197 109.455L369.725 105.801C369.764 105.719 369.833 105.654 369.917 105.621C370.002 105.588 370.096 105.588 370.181 105.622C370.262 105.659 370.326 105.727 370.359 105.81C370.393 105.893 370.393 105.986 370.359 106.069L368.805 109.75C368.777 109.811 368.733 109.862 368.678 109.899C368.623 109.935 368.558 109.955 368.492 109.956C368.451 109.965 368.408 109.965 368.367 109.956C368.318 109.94 368.274 109.913 368.237 109.877C368.201 109.841 368.173 109.797 368.157 109.748C368.14 109.7 368.136 109.648 368.142 109.597C368.149 109.546 368.168 109.498 368.197 109.455Z" fill="#F0DC0D"/>
<path d="M373.389 107.963L373.344 108.008L371.557 109.795C371.521 109.832 371.478 109.862 371.43 109.882C371.383 109.902 371.331 109.912 371.28 109.911C371.227 109.912 371.174 109.902 371.125 109.882C371.076 109.862 371.031 109.833 370.994 109.795C370.92 109.72 370.879 109.619 370.879 109.514C370.879 109.408 370.92 109.307 370.994 109.232L372.477 107.74L370.994 106.239C370.92 106.164 370.879 106.063 370.879 105.957C370.879 105.852 370.92 105.751 370.994 105.676C371.071 105.606 371.171 105.568 371.275 105.568C371.379 105.568 371.48 105.606 371.557 105.676L373.344 107.463H373.389V107.525V107.579V107.74C373.39 107.761 373.39 107.782 373.389 107.802C373.372 107.826 373.364 107.854 373.364 107.883C373.364 107.912 373.372 107.94 373.389 107.963Z" fill="#F0DC0D"/>
<path d="M392.609 156.501H402.438V164.543L392.609 156.501Z" fill="#263238"/>
<path d="M319.116 106.646C325.672 99.3203 325.048 88.0671 317.722 81.5111C310.396 74.955 299.143 75.5789 292.587 82.9047C287.526 88.5603 286.762 96.5492 290.039 102.918L288.123 107.909L293.771 107.832C293.844 107.899 293.907 107.973 293.981 108.04C301.306 114.596 312.56 113.972 319.116 106.646Z" fill="#16A34A"/>
<path d="M315.91 77.0784C321.086 79.6662 324.785 85.0036 325.389 90.7594" stroke="#16A34A" stroke-width="0.446778" stroke-linecap="round" stroke-linejoin="round"/>
<path d="M325.573 93.4089C325.73 94.2776 325.706 95.1786 325.501 96.0374" stroke="#16A34A" stroke-width="0.446778" stroke-linecap="round" stroke-linejoin="round"/>
<path d="M305.5 102.355L297.342 96.2798L299.462 93.433L304.933 97.5066L312.449 88.5393L315.169 90.8194L305.5 102.355Z" fill="white"/>
<path d="M81.572 66.2521H31.3462C29.0256 66.2521 27.1444 68.1333 27.1444 70.4538V116.58C27.1444 118.901 29.0256 120.782 31.3462 120.782H53.8227C56.1919 123.124 61.6141 128.612 61.6141 128.612V120.782H81.572C83.8925 120.782 85.7736 118.901 85.7736 116.58V70.4538C85.7736 68.1333 83.8925 66.2521 81.572 66.2521Z" fill="#F0F0F0"/>
<path d="M53.1001 81.7006C54.0692 80.6969 57.7827 82.7096 61.3945 86.1963C65.0063 89.683 67.1488 93.3233 66.1798 94.327C65.2107 95.3309 61.4972 93.318 57.8854 89.8314C54.2736 86.3447 52.1311 82.7044 53.1001 81.7006Z" fill="#AB9F92"/>
<path d="M57.8928 89.838C54.2826 86.3518 52.1375 82.714 53.1067 81.7081L41.6743 93.5677C40.7051 94.569 42.8456 98.2114 46.4604 101.698C50.0752 105.184 53.7819 107.209 54.7281 106.19L66.1651 94.3347C65.2143 95.336 61.503 93.3242 57.8928 89.838Z" fill="#D8CFC5"/>
<path d="M74.2213 90.3986C72.0718 94.266 68.7647 95.3914 64.9799 94.5324H64.9523C63.3218 94.2017 60.5842 92.4287 57.8927 89.8336C56.5164 88.5254 55.2845 87.0734 54.2181 85.5022C54.3192 84.1656 56.1243 83.0587 57.7181 82.9025C59.8172 82.6912 62.5272 83.1275 65.1866 86.8113C68.3743 91.2299 71.7181 90.4858 72.2004 88.8506C73.0363 85.9845 76.1597 86.9169 74.2213 90.3986ZM71.1899 87.6886C71.3139 86.4898 70.2942 86.0167 70.3723 87.1742C70.4504 88.3316 71.1026 88.5521 71.1899 87.6886ZM73.6104 93.476C74.4969 93.2142 74.4832 92.3598 73.6932 92.7503C72.9031 93.1407 72.972 93.6597 73.6104 93.476Z" fill="#EF4E23"/>
<path d="M361.772 328.622L352.511 345.556L344.428 343.152L351.773 323.5L361.772 328.622Z" fill="#FCCEA8"/>
<path d="M350.447 354.679L344.666 353.451C344.666 353.451 344.336 352.268 343.117 351.972C342.433 351.806 340.614 352.42 340.614 352.42L324.692 349.158C324.697 349.135 324.912 348.067 325.186 347.631C325.52 347.099 325.868 346.663 326.228 346.308C327.488 345.066 329.413 344.814 330.843 344.678C333.239 344.45 340.162 342.617 340.162 342.617C340.162 342.617 341.955 341.972 343.439 339.939C344.267 338.805 345.368 338.234 346.076 338.289C347.52 338.399 348.124 339.392 348.049 340.741L347.961 342.307C348.86 343.364 350.281 343.614 351.583 342.824C351.583 342.824 354.932 341.684 354.451 343.15C354.176 343.986 352.807 347.681 351.813 350.632C351.581 351.319 351.362 351.97 351.17 352.541L351.168 352.542C350.742 353.809 350.447 354.679 350.447 354.679Z" fill="#263238"/>
<path d="M336.461 343.459C336.546 343.41 336.657 343.426 336.729 343.495C337.059 343.81 337.308 344.21 337.436 344.672C337.504 344.916 337.114 345.054 337.046 344.808C336.932 344.398 336.715 344.045 336.427 343.768C336.331 343.676 336.343 343.528 336.457 343.461L336.461 343.459Z" fill="#EF4E23"/>
<path d="M337.825 343.05C337.91 343 338.021 343.016 338.093 343.085C338.423 343.401 338.672 343.801 338.8 344.263C338.868 344.506 338.478 344.645 338.41 344.399C338.296 343.988 338.079 343.636 337.791 343.359C337.695 343.267 337.707 343.119 337.821 343.052L337.825 343.05Z" fill="#EF4E23"/>
<path d="M339.218 342.693C339.303 342.643 339.414 342.66 339.486 342.728C339.816 343.044 340.065 343.444 340.193 343.906C340.261 344.149 339.872 344.288 339.803 344.042C339.689 343.631 339.473 343.279 339.184 343.002C339.088 342.91 339.101 342.762 339.214 342.695L339.218 342.693Z" fill="#EF4E23"/>
<path d="M339.328 342.907C339.489 342.365 339.651 341.819 339.715 341.257C339.779 340.695 339.741 340.11 339.513 339.591C339.407 339.351 339.229 339.105 338.969 339.068C338.695 339.03 338.445 339.24 338.299 339.475C338.018 339.927 337.98 340.501 338.113 341.016C338.246 341.532 338.991 342.496 339.328 342.907Z" stroke="#EF4E23" stroke-width="0.223389" stroke-miterlimit="10"/>
<path d="M339.396 342.921C339.718 342.456 340.042 341.988 340.441 341.586C340.839 341.185 341.32 340.849 341.866 340.702C342.121 340.634 342.423 340.619 342.615 340.8C342.817 340.989 342.809 341.316 342.717 341.577C342.54 342.078 342.116 342.467 341.631 342.686C341.146 342.905 339.927 342.927 339.396 342.921Z" stroke="#EF4E23" stroke-width="0.223389" stroke-miterlimit="10"/>
<path d="M400.046 341.04L404.273 359.872L396.616 363.405L389.153 343.796L400.046 341.04Z" fill="#FCCEA8"/>
<path d="M408.748 368.087L403.596 370.981C403.596 370.981 402.567 370.312 401.456 370.894C400.832 371.221 399.872 372.883 399.872 372.883L385.762 380.948C385.75 380.928 385.206 379.983 385.124 379.475C385.023 378.856 384.997 378.298 385.033 377.794C385.159 376.03 386.438 374.568 387.422 373.522C389.071 371.769 393.059 365.82 393.059 365.82C393.059 365.82 393.98 364.152 393.751 361.645C393.624 360.247 394.074 359.091 394.642 358.665C395.799 357.794 396.908 358.141 397.743 359.203L398.711 360.438C400.084 360.637 401.316 359.887 401.772 358.433C401.772 358.433 403.534 355.366 404.141 356.784C404.487 357.594 405.899 361.273 407.101 364.145C407.38 364.815 407.646 365.448 407.879 366.004L407.878 366.005C408.395 367.238 408.748 368.087 408.748 368.087Z" fill="#263238"/>
<path d="M390.836 368.896C390.867 368.803 390.961 368.742 391.061 368.746C391.517 368.765 391.968 368.901 392.369 369.163C392.581 369.302 392.38 369.663 392.166 369.523C391.809 369.29 391.414 369.168 391.015 369.151C390.881 369.145 390.793 369.026 390.835 368.901L390.836 368.896Z" fill="#EF4E23"/>
<path d="M391.59 367.688C391.621 367.595 391.715 367.534 391.815 367.538C392.271 367.557 392.722 367.693 393.123 367.955C393.335 368.094 393.134 368.455 392.92 368.315C392.563 368.082 392.168 367.96 391.769 367.943C391.635 367.937 391.547 367.818 391.589 367.693L391.59 367.688Z" fill="#EF4E23"/>
<path d="M392.401 366.5C392.432 366.407 392.526 366.346 392.626 366.35C393.082 366.369 393.532 366.505 393.934 366.767C394.145 366.906 393.945 367.267 393.731 367.127C393.374 366.894 392.979 366.772 392.579 366.755C392.446 366.749 392.358 366.63 392.399 366.504L392.401 366.5Z" fill="#EF4E23"/>
<path opacity="0.2" d="M401.456 370.894C400.832 371.221 399.872 372.883 399.872 372.883L385.761 380.948C385.75 380.928 385.206 379.983 385.123 379.475C385.077 379.19 385.051 378.922 385.035 378.663L407.749 365.694C407.792 365.796 407.838 365.907 407.879 366.004L407.878 366.005C408.394 367.238 408.748 368.087 408.748 368.087L403.595 370.981C403.595 370.981 402.567 370.311 401.456 370.894Z" fill="white"/>
<path d="M392.624 366.589C392.388 366.076 392.149 365.559 391.826 365.094C391.502 364.63 391.087 364.216 390.574 363.977C390.335 363.866 390.04 363.799 389.82 363.943C389.588 364.095 389.54 364.418 389.585 364.691C389.673 365.216 390.023 365.673 390.463 365.972C390.903 366.271 392.1 366.503 392.624 366.589Z" stroke="#EF4E23" stroke-width="0.223389" stroke-miterlimit="10"/>
<path d="M392.684 366.555C392.619 365.993 392.553 365.427 392.587 364.862C392.621 364.298 392.761 363.728 393.074 363.257C393.22 363.038 393.438 362.827 393.701 362.835C393.977 362.845 394.187 363.095 394.29 363.352C394.489 363.845 394.427 364.418 394.207 364.902C393.988 365.386 393.087 366.208 392.684 366.555Z" stroke="#EF4E23" stroke-width="0.223389" stroke-miterlimit="10"/>
<path d="M370.182 292.514C370.486 295.532 371.14 299.657 371.928 302.587C374.068 310.859 376.512 318.815 379.584 327.032C385.527 343.266 390.329 358.327 390.329 358.327L405.423 353.8C405.423 353.8 395.443 306.829 388.713 302.028H429.984C430.755 302.028 431.526 301.976 432.29 301.872C425.183 300.952 414.105 296.572 403.826 292.192C394.745 288.311 386.251 284.43 381.649 282.966C376.016 285.373 369.749 287.779 370.182 292.514Z" fill="#263238"/>
<path opacity="0.6" d="M381.638 283.011C386.251 284.508 394.744 288.355 403.815 292.236C414.094 296.616 425.171 300.996 432.279 301.917C444.255 300.32 448.757 286.049 436.238 269.594C428.11 269.594 419.938 277.356 419.938 277.356C419.938 277.356 395.365 277.234 381.638 283.011Z" fill="black"/>
<path d="M348.028 333.552L358.008 339.595C358.008 339.595 366.335 322.109 374.297 302.382C373.509 299.453 372.96 296.464 372.656 293.445C372.223 288.71 375.982 285.373 381.615 283.022C386.228 284.519 394.722 288.367 403.792 292.248C414.071 296.627 425.149 301.007 432.257 301.928C433.073 302.037 433.895 302.097 434.718 302.105C448.379 302.105 453.092 290.13 447.581 269.815C439.453 269.815 425.537 268.94 425.537 268.94C425.537 268.94 398.681 262.486 379.353 264.682C369.943 265.791 362.326 272.848 360.503 282.146C355.524 306.807 348.028 333.552 348.028 333.552Z" fill="#263238"/>
<path d="M346.453 334.286L358.008 339.595C358.008 339.595 366.336 322.109 374.297 302.382C373.509 299.453 372.961 296.464 372.656 293.445C372.224 288.71 375.983 285.373 381.616 283.022C386.228 284.519 394.722 288.367 403.793 292.248C414.072 296.627 425.149 301.007 432.257 301.928C433.073 302.037 433.895 302.097 434.719 302.105C448.38 302.105 453.092 290.13 447.581 269.815C439.453 269.815 425.537 268.94 425.537 268.94C425.537 268.94 398.681 262.486 379.354 264.682C369.944 265.791 362.326 272.848 360.503 282.146C355.524 306.807 346.453 334.286 346.453 334.286Z" fill="#263238"/>
<path opacity="0.2" d="M370.182 292.514C370.486 295.532 371.14 299.657 371.928 302.587C374.068 310.859 376.512 318.815 379.584 327.032C385.527 343.266 390.329 358.327 390.329 358.327L405.423 353.8C405.423 353.8 395.443 306.829 388.713 302.028H429.984C430.755 302.028 431.526 301.976 432.29 301.872C425.183 300.952 414.105 296.572 403.826 292.192C394.745 288.311 386.251 284.43 381.649 282.966C376.016 285.373 369.749 287.779 370.182 292.514Z" fill="black"/>
<path d="M416.903 205.985L421.489 202.262L434.546 201.399C434.546 201.399 437.818 204.088 437.98 204.115C438.142 204.142 440.05 204.906 440.05 204.906L438.755 208.089L416.903 205.985Z" fill="#713F12"/>
<path d="M404.427 224.765C404.427 224.765 397.585 246.329 396.92 247.516C394.673 251.534 379.783 258.421 379.783 258.421L372.191 256.831L366.751 261.374L370.338 264.184L374.546 262.593C376.843 263.003 379.172 263.207 381.505 263.203C385.426 263.203 404.337 258.41 407.493 253.138C410.649 247.865 412.099 223.45 412.099 223.45L404.427 224.765Z" fill="#FCCEA8"/>
<path d="M448.59 273.968L403.02 267.098C403.698 237.554 410.45 206.635 410.45 206.635C423.591 205.149 436.853 205.084 450.008 206.442C443.897 225.388 448.59 273.968 448.59 273.968Z" fill="#F8F5F2"/>
<path d="M450.008 206.443C447.534 227.861 453.949 273.433 453.949 273.433C451.056 279.632 443.351 280.786 434.239 280.466C426.067 245.223 437.768 204.134 437.768 204.134L450.008 206.443Z" fill="#713F12"/>
<path d="M410.45 206.598C404.385 222.603 400.736 266.59 400.736 266.59L404.36 267.46C409.087 214.371 419.172 204.739 419.172 204.739L410.45 206.598Z" fill="#713F12"/>
<path d="M393.867 236.284L403.02 238.854H403.755L406.978 222.071L410.45 206.662C401.794 207.84 393.867 236.284 393.867 236.284Z" fill="#713F12"/>
<path d="M434.521 201.475L435.342 215.026L437.98 204.115L434.521 201.475Z" fill="#713F12"/>
<path d="M390.764 264.747H419.026L419.026 264.756C419.019 265.835 417.814 266.706 416.334 266.701H393.481L393.443 266.701L393.441 266.701H370.298C368.831 266.69 367.65 265.817 367.657 264.747H390.764Z" fill="#263238"/>
<path d="M369.875 266.59H395.693C396.139 266.587 396.497 266.295 396.493 265.937C396.493 265.87 396.479 265.803 396.453 265.74L384.967 239.408C384.677 238.656 383.812 238.142 382.831 238.138H356.997C356.56 238.138 356.206 238.423 356.206 238.773C356.207 238.847 356.222 238.92 356.254 238.989L367.739 265.321C368.034 266.07 368.895 266.583 369.875 266.59Z" fill="#263238"/>
<path opacity="0.7" d="M356.997 238.138H382.831C383.812 238.142 384.677 238.656 384.967 239.408L396.019 264.747H419.026L419.026 264.756C419.019 265.835 417.813 266.706 416.334 266.7H393.481L393.443 266.701L393.441 266.7H370.298C369.833 266.697 369.403 266.6 369.024 266.444C368.424 266.242 367.943 265.841 367.739 265.321L356.253 238.989C356.222 238.92 356.206 238.847 356.206 238.773C356.206 238.423 356.56 238.138 356.997 238.138Z" fill="white"/>
<path d="M372.512 252.157C373.07 253.421 374.201 254.288 375.044 254.112C375.887 253.935 376.112 252.784 375.571 251.516C375.029 250.249 373.885 249.401 373.042 249.578C372.199 249.755 371.947 250.86 372.512 252.157Z" fill="white"/>
<path d="M384.967 239.408L396.02 264.747H394.823L382.832 238.138C383.813 238.142 384.677 238.656 384.967 239.408Z" fill="black"/>
<path d="M443.413 220.784C443.413 220.784 441.608 247.257 439.474 249.555C435.868 253.438 416.119 261.849 416.119 261.849L407.204 258.723C406.579 258.518 405.888 258.63 405.378 259.02L399.282 263.672L399.865 264.163C400.116 264.375 400.48 264.418 400.776 264.27L401.724 263.799L400.664 264.837L401 265.12C401.333 265.402 401.796 265.503 402.225 265.388L404.95 264.657L402.435 266.331C402.996 266.805 403.778 266.969 404.496 266.764L408.483 265.628C411.202 266.25 413.973 266.647 416.762 266.814C421.457 267.103 444.819 262.817 448.952 257.145C453.084 251.473 456.155 224.46 456.155 224.46L443.413 220.784Z" fill="#FCCEA8"/>
<path d="M450.008 206.443C450.008 206.443 457.462 207.405 457.433 215.375C457.408 222.243 454.924 240.137 454.924 240.137L439.138 237.162L442.615 217.357C443.41 212.831 446.1 208.86 450.008 206.443Z" fill="#713F12"/>
<path d="M415.246 172.569C415.563 172.164 414.686 163.067 430.346 167.594C441.974 170.955 437.581 180.071 437.581 180.071L424.284 170.466L415.246 172.569Z" fill="#263238"/>
<path d="M434.208 205.706C433.05 205.03 432.903 204.514 432.532 203.308C431.572 200.195 432.604 189.572 432.604 189.572L420.993 194.345C420.993 194.345 421.083 194.605 421.218 195.045C421.586 196.274 422.33 198.894 422.554 201.083C422.698 202.447 422.635 203.649 422.178 204.259C421.703 204.887 420.325 205.741 419.448 206.035C419.448 206.035 420.92 209.205 426.122 208.8C431.324 208.394 434.208 205.706 434.208 205.706Z" fill="#FCCEA8"/>
<path opacity="0.2" d="M430.677 195.417C430.677 195.417 428.183 200.603 422.449 200.424C422.225 198.234 421.48 195.614 421.112 194.385C421.543 194.224 421.821 194.125 421.821 194.125L430.677 195.417Z" fill="black"/>
<path d="M415.89 170.705C415.89 170.705 412.51 180.266 417.012 185.053C421.514 189.84 425.019 171.509 425.019 171.509L415.89 170.705Z" fill="#263238"/>
<path d="M430.689 195.78C427.149 198.452 423.138 199.104 419.765 197.281C417.595 196.113 415.82 194.115 414.969 191.568C414.853 191.235 414.76 190.888 414.677 190.533C413.255 184.024 414.45 173.341 421.567 170.613C426.628 168.632 432.35 171.13 434.33 176.2C434.902 177.638 435.113 179.196 434.969 180.741C434.405 187.926 434.825 192.659 430.689 195.78Z" fill="#FCCEA8"/>
<path d="M424.034 182.948C424.072 183.699 423.613 184.307 423.11 184.296C422.608 184.285 422.23 183.659 422.24 182.906C422.25 182.153 422.674 181.546 423.164 181.558C423.654 181.569 424.044 182.183 424.034 182.948Z" fill="#263238"/>
<path d="M417.439 182.932C417.476 183.683 417.005 184.292 416.515 184.281C416.024 184.27 415.635 183.644 415.645 182.891C415.655 182.138 416.079 181.531 416.569 181.543C417.059 181.554 417.451 182.215 417.439 182.932Z" fill="#263238"/>
<path d="M419.464 182.738C418.73 184.518 417.753 186.189 416.562 187.702C417.366 188.301 418.394 188.514 419.371 188.284L419.464 182.738Z" fill="#EF9663"/>
<path d="M414.96 179.526C415.071 179.591 415.208 179.591 415.32 179.527C416.062 179.061 416.98 178.971 417.797 179.286C417.967 179.37 418.172 179.3 418.255 179.13C418.339 178.961 418.269 178.756 418.099 178.672L418.098 178.671C417.075 178.247 415.909 178.345 414.971 178.934C414.806 179.027 414.747 179.235 414.839 179.4L414.843 179.407C414.876 179.453 414.915 179.493 414.96 179.526Z" fill="#263238"/>
<path d="M425.358 179.913C425.428 179.913 425.495 179.89 425.552 179.849C425.679 179.71 425.67 179.493 425.53 179.365L425.525 179.36C424.711 178.603 423.58 178.29 422.492 178.52C422.31 178.57 422.203 178.758 422.253 178.94C422.307 179.12 422.492 179.226 422.674 179.181C423.538 179.024 424.425 179.285 425.066 179.884C425.154 179.936 425.261 179.947 425.358 179.913Z" fill="#263238"/>
<path d="M429.861 171.649L429.26 174.792C430.261 175.416 430.809 176.631 430.246 177.847C429.042 180.444 430.275 184.68 432.209 186.467C432.209 186.467 432.351 185.316 433.306 185.656C434.262 185.996 433.342 190.836 432.328 193.811C432.328 193.811 434.543 192.331 436.593 186.127C438.488 180.39 439.004 175.537 437.957 173.197L429.861 171.649Z" fill="#263238"/>
<path opacity="0.4" d="M429.861 171.649L429.26 174.792C430.261 175.416 430.809 176.631 430.246 177.847C429.042 180.444 430.275 184.68 432.209 186.467C432.209 186.467 432.351 185.316 433.306 185.656C434.262 185.996 433.342 190.836 432.328 193.811C432.328 193.811 434.543 192.331 436.593 186.127C438.488 180.39 439.004 175.537 437.957 173.197L429.861 171.649Z" fill="white"/>
<path d="M437.999 186.711C437.168 188.325 435.73 189.544 434.001 190.1C431.707 190.819 430.485 188.783 431.053 186.575C431.577 184.618 433.391 181.82 435.729 182.086C438.067 182.353 438.995 184.717 437.999 186.711Z" fill="#FCCEA8"/>
<path opacity="0.1" d="M432.594 187.092C432.814 185.884 433.594 184.79 434.665 184.189C435.12 183.933 435.736 183.782 436.13 184.125" stroke="black" stroke-width="0.446778" stroke-miterlimit="10"/>
<path d="M413.36 173.296C412.031 173.607 410.553 173.173 409.604 172.191C411.483 172.068 413.331 171.499 414.953 170.543C413.304 170.963 411.464 170.543 410.161 169.45C412.653 169.052 414.932 167.85 417.306 166.994C422.555 165.1 428.487 164.933 433.691 166.948C434.919 167.423 436.143 168.048 436.956 169.083C437.77 170.118 438.658 172.083 437.956 173.197L429.475 173.578C428.118 171.081 425.973 171.948 422.87 173.802C421.614 174.552 418.751 175.961 417.333 176.322C415.536 176.781 414.122 176.99 413.017 176.933C411.108 176.836 410.331 176.284 409.16 175.406C410.897 174.752 411.999 174.558 413.36 173.296Z" fill="#263238"/>
<path d="M422.022 189.305C423.386 188.918 424.652 188.245 425.735 187.332C425.855 187.545 425.942 187.774 425.994 188.012C426.099 188.434 426.099 188.875 425.994 189.296C425.779 190.158 425.046 191.097 423.03 191.683C422.883 191.734 422.733 191.777 422.582 191.812C422.21 191.018 421.781 190.252 421.298 189.52C421.298 189.52 421.574 189.451 422.022 189.305Z" fill="#263238"/>
<path d="M425.701 187.332C425.82 187.545 425.907 187.774 425.959 188.012C425.537 188.762 424.279 189.408 422.384 189.977L421.987 189.305C423.351 188.918 424.617 188.245 425.701 187.332Z" fill="white"/>
<path d="M423.883 190.39C424.517 189.904 425.231 189.534 425.994 189.296C425.778 190.158 425.046 191.097 423.03 191.683C423.172 191.174 423.471 190.722 423.883 190.39Z" fill="#C15854"/>
<path d="M250.448 370.616L257.997 369.94L259.447 353.668L249.36 355.034L250.448 370.616Z" fill="#A77865"/>
<path d="M259.029 364.885H256.4C255.805 364.885 255.255 365.186 254.903 365.666C253.387 367.736 252.248 366.954 250.599 365.007C249.55 364.885 249.268 366.088 249.183 366.411L247.217 373.561C247.046 374.158 247.392 374.78 247.989 374.951C248.095 374.981 248.205 374.996 248.316 374.994H269.146C272.459 374.994 273.145 371.655 271.78 371.347C265.644 369.99 261.299 368.185 259.402 366.399C259.05 366.087 259.411 365.853 259.029 364.885Z" fill="#263238"/>
<path d="M264.734 366.918C265.011 366.719 265.177 366.4 265.181 366.059C265.204 365.877 265.121 365.697 264.966 365.596C264.142 365.012 260.855 366.549 260.486 366.729C260.445 366.743 260.413 366.776 260.398 366.817C260.371 366.893 260.41 366.976 260.486 367.003C261.294 367.195 262.119 367.301 262.949 367.321C263.572 367.38 264.198 367.239 264.734 366.918ZM264.76 365.845C264.827 365.886 264.861 365.965 264.846 366.042C264.832 366.288 264.713 366.516 264.52 366.669C263.773 367.227 261.971 366.986 261.001 366.806C262.366 366.205 264.305 365.527 264.76 365.845Z" fill="#EF4E23"/>
<path d="M260.597 367.038C261.585 366.626 263.653 365.004 263.541 364.145C263.524 363.965 263.395 363.751 262.949 363.691C261.147 363.485 260.374 366.72 260.374 366.858C260.356 366.913 260.373 366.974 260.417 367.012C260.451 367.022 260.487 367.022 260.52 367.012L260.597 367.038ZM262.889 363.956C263.224 363.991 263.224 364.111 263.224 364.154C263.318 364.677 261.816 366.025 260.743 366.591C260.966 365.836 261.627 363.948 262.769 363.948L262.889 363.956Z" fill="#EF4E23"/>
<path d="M260.854 366.913C259.949 367.037 259.109 367.578 258.622 368.351" stroke="#EF4E23" stroke-width="0.446778" stroke-linecap="round" stroke-linejoin="round"/>
<path d="M262.488 368.144C261.582 368.267 260.742 368.808 260.255 369.582" stroke="#EF4E23" stroke-width="0.446778" stroke-linecap="round" stroke-linejoin="round"/>
<path d="M264.521 369.178C263.615 369.301 262.775 369.843 262.288 370.616" stroke="#EF4E23" stroke-width="0.446778" stroke-linecap="round" stroke-linejoin="round"/>
<path d="M213.42 370.722H220.566L224.053 354.173H213.871L213.42 370.722Z" fill="#A77865"/>
<path d="M222.081 365.919H219.452C218.857 365.919 218.307 366.22 217.956 366.7C216.44 368.771 215.3 367.988 213.651 366.041C212.603 365.919 212.321 367.122 212.235 367.446L210.27 374.595C210.099 375.192 210.444 375.814 211.041 375.985C211.148 376.015 211.258 376.03 211.368 376.028H232.198C235.511 376.028 236.198 372.69 234.833 372.381C228.696 371.025 224.351 369.219 222.454 367.434C222.102 367.121 222.464 366.887 222.081 365.919Z" fill="#263238"/>
<path d="M227.786 367.952C228.063 367.753 228.229 367.435 228.233 367.094C228.256 366.911 228.173 366.731 228.018 366.631C227.194 366.047 223.907 367.583 223.538 367.764C223.497 367.778 223.465 367.81 223.45 367.852C223.423 367.927 223.462 368.011 223.538 368.038C224.346 368.229 225.171 368.336 226.001 368.356C226.624 368.415 227.249 368.274 227.786 367.952ZM227.812 366.879C227.879 366.921 227.913 367 227.898 367.077C227.884 367.323 227.765 367.551 227.572 367.703C226.825 368.261 225.023 368.021 224.053 367.841C225.418 367.24 227.357 366.562 227.812 366.879Z" fill="#EF4E23"/>
<path d="M223.65 368.072C224.637 367.661 226.705 366.038 226.594 365.18C226.576 365 226.448 364.785 226.001 364.725C224.199 364.519 223.427 367.755 223.427 367.892C223.409 367.948 223.426 368.008 223.47 368.047C223.503 368.057 223.539 368.057 223.572 368.047L223.65 368.072ZM225.941 364.991C226.276 365.026 226.276 365.146 226.276 365.189C226.37 365.712 224.868 367.06 223.796 367.626C224.019 366.871 224.68 364.983 225.821 364.983L225.941 364.991Z" fill="#EF4E23"/>
<path d="M223.907 367.948C223.001 368.072 222.161 368.613 221.674 369.386" stroke="#EF4E23" stroke-width="0.446778" stroke-linecap="round" stroke-linejoin="round"/>
<path d="M225.54 369.178C224.635 369.302 223.795 369.843 223.308 370.616" stroke="#EF4E23" stroke-width="0.446778" stroke-linecap="round" stroke-linejoin="round"/>
<path d="M227.573 370.212C226.668 370.336 225.828 370.877 225.341 371.65" stroke="#EF4E23" stroke-width="0.446778" stroke-linecap="round" stroke-linejoin="round"/>
<path d="M216.099 208.804H254.028C256.289 221.178 261.382 253.335 262.04 290.937C262.492 316.751 263.098 358.495 262.04 360.73L246.935 360.78C246.935 360.78 246.288 328.537 244.286 296.501C243.133 278.056 240.034 246.863 239.649 245.758C238.347 262.056 236.105 291.374 234.803 300.603C231.505 323.314 227.574 361.165 227.574 361.165H211.822C211.822 361.165 213.04 320.766 214.274 298.45C215.624 274.196 216.099 213.78 216.099 208.804Z" fill="#BBB1A2"/>
<path opacity="0.2" d="M239.658 245.85C239.658 245.85 241.186 259.653 241.739 265.262C242.8 250.796 243.878 240.419 243.878 240.419L239.658 245.85Z" fill="#263238"/>
<path d="M302.709 177.915C302.237 178.706 287.935 192.38 287.279 191.975C286.624 191.57 281.184 174.376 281.184 174.376L268.889 175.735C268.889 175.735 278.06 204.667 284.319 206.595C290.577 208.524 305.997 182.097 305.997 182.097" fill="#A77865"/>
<path d="M215.048 215.4L214.18 219.981C214.18 219.981 240.71 223.414 257.21 223.318L256.632 220.174L215.048 215.4Z" fill="#738289"/>
<path d="M263.681 172.399L264.8 174.453L270.017 184.097L271.107 186.093L285.755 181.001C285.755 181.001 279.661 158.261 277.549 155.927L263.681 172.399Z" fill="#263238"/>
<path opacity="0.5" d="M264.8 174.453L270.017 184.096C273.248 177.761 272.313 169.081 272.313 169.081L264.8 174.453Z" fill="#151B1E"/>
<path d="M277.549 155.937C271.971 149.496 263.995 145.627 255.484 145.232C241.134 144.557 236.621 145.984 231.375 150.671C223.708 157.518 214.17 216.471 214.17 216.471C228.163 220.366 242.698 221.946 257.2 221.148C257.2 221.148 257.374 204.753 262.553 193.75C268.385 181.492 273.395 168.86 277.549 155.937Z" fill="#263238"/>
<path opacity="0.5" d="M220.265 184.444C229.369 180.663 236.563 165.05 236.563 165.05L231.394 161.926L224.373 167.567L223.737 169.911C222.772 173.488 221.866 177.298 220.998 181.155C220.747 182.255 220.506 183.354 220.265 184.444Z" fill="#151B1E"/>
<path d="M184.553 223.695L180.506 249.221C180.124 251.628 181.376 253.828 183.303 254.133L220.756 260.072C222.683 260.377 224.554 258.673 224.936 256.266L228.983 230.74C229.365 228.333 228.113 226.133 226.186 225.828L188.733 219.889C186.806 219.584 184.935 221.288 184.553 223.695Z" fill="#E37E26"/>
<path d="M200.332 233.462L191.084 238.254L198.394 245.671" stroke="white" stroke-width="1.78711" stroke-linecap="round" stroke-linejoin="round"/>
<path d="M209.166 247.377L218.405 242.585L211.105 235.168" stroke="white" stroke-width="1.78711" stroke-linecap="round" stroke-linejoin="round"/>
<path d="M201.615 246.182L207.884 234.657" stroke="white" stroke-width="1.78711" stroke-linecap="round" stroke-linejoin="round"/>
<path d="M225.946 153.188C225.946 153.188 204.656 172.444 202.323 175.79C199.989 179.137 200.101 212.764 200.101 212.764C200.101 212.764 199.055 214.882 199.029 216.399C199.016 217.202 198.553 222.589 198.707 223.071C198.707 223.071 210.77 236.921 208.69 223.199L210.77 223.518L206.456 214.194L213.157 182.066L229.851 168.551L225.946 153.188Z" fill="#A77865"/>
<path d="M239.128 146.255C241.626 151.549 239.726 162.697 235.117 166.632C230.239 170.676 225.083 174.373 219.687 177.693L211.277 166.67C211.277 166.67 220.227 157.933 225.646 152.899C229.333 149.326 234.049 147.001 239.128 146.255Z" fill="#263238"/>
<path d="M251.27 147.229C252.822 151.665 258.599 153.69 261.627 153.979C263.919 154.341 266.17 153.124 267.124 151.009C267.124 151.009 263.662 149.283 264.009 147.344C264.254 146.159 264.74 145.036 265.436 144.046C265.797 143.481 266.19 142.937 266.613 142.416L261.068 130.526C259.833 135.675 256.043 145.57 251.27 147.229Z" fill="#A77865"/>
<path opacity="0.2" d="M260.846 136.013C258.204 141.799 261.936 145.782 264.009 147.306C264.254 146.12 264.74 144.998 265.436 144.008L260.846 136.013Z" fill="#263238"/>
<path d="M279.439 120.573C279.439 120.573 281.214 130.371 276.103 134.296C270.991 138.221 270.471 119.917 270.471 119.917L279.439 120.573Z" fill="#A77865"/>
<path opacity="0.4" d="M279.439 120.573C279.439 120.573 281.214 130.371 276.103 134.296C270.991 138.221 270.471 119.917 270.471 119.917L279.439 120.573Z" fill="#263238"/>
<path d="M261.164 142.542C263.507 145.807 267.742 147.106 271.512 145.714C273.908 144.873 275.891 143.148 277.057 140.892C277.221 140.593 277.366 140.266 277.51 139.928C279.902 133.843 280.403 118.992 273.961 119.541C268.638 119.994 263.43 118.355 260.711 122.955C259.934 124.264 259.478 125.738 259.38 127.256C258.801 134.354 258.126 138.472 261.164 142.542Z" fill="#A77865"/>
<path d="M269.728 130.767C269.612 131.326 269.882 131.837 270.258 131.895C270.634 131.953 271.001 131.519 271.088 130.931C271.174 130.342 270.924 129.86 270.557 129.812C270.191 129.764 269.815 130.188 269.728 130.767Z" fill="#263238"/>
<path d="M276.179 131.683C276.064 132.242 276.343 132.753 276.71 132.811C277.076 132.869 277.452 132.435 277.53 131.847C277.607 131.259 277.375 130.776 276.999 130.718C276.623 130.661 276.257 131.143 276.179 131.683Z" fill="#263238"/>
<path d="M274.087 131.673C274.521 133.513 275.206 135.285 276.122 136.939C275.247 137.393 274.217 137.439 273.306 137.064L274.087 131.673Z" fill="#8E4F42"/>
<path d="M268.03 128.394C268.15 128.43 268.28 128.397 268.368 128.307C268.966 127.691 269.82 127.391 270.673 127.497C270.856 127.534 271.035 127.419 271.078 127.237C271.118 127.06 271.008 126.885 270.831 126.844L270.817 126.842C269.755 126.686 268.681 127.044 267.924 127.806C267.794 127.94 267.794 128.154 267.924 128.288C267.955 128.328 267.991 128.364 268.03 128.394Z" fill="#263238"/>
<path d="M279.265 129.85C279.327 129.874 279.396 129.874 279.458 129.85C279.628 129.807 279.732 129.634 279.688 129.464L279.68 129.436C279.37 128.392 278.571 127.565 277.539 127.218C277.366 127.164 277.182 127.261 277.129 127.434L277.124 127.449C277.075 127.627 277.178 127.812 277.356 127.864C278.165 128.161 278.786 128.822 279.034 129.648C279.073 129.75 279.159 129.826 279.265 129.85Z" fill="#263238"/>
<path d="M268.831 137.315C268.831 137.315 270.017 139.861 272.438 139.764" stroke="#263238" stroke-width="0.446778" stroke-linecap="round" stroke-linejoin="round"/>
<path d="M265.755 119.291L265.851 122.434C264.71 122.849 264.083 124.073 264.414 125.241C265.166 127.941 263.305 131.856 261.155 133.284C261.155 133.284 261.155 132.146 260.19 132.319C259.226 132.493 258.927 138.414 260.518 141.394C260.518 141.394 257.114 138.26 256.101 131.924C255.137 126.07 255.32 122.357 256.101 119.551L265.755 119.291Z" fill="#A77865"/>
<path opacity="0.4" d="M265.755 119.291L265.851 122.434C264.71 122.849 264.083 124.073 264.414 125.241C265.166 127.941 263.305 131.856 261.155 133.284C261.155 133.284 261.155 132.146 260.19 132.319C259.226 132.493 258.927 138.414 260.518 141.394C260.518 141.394 257.114 138.26 256.101 131.924C255.137 126.07 255.32 122.357 256.101 119.551L265.755 119.291Z" fill="#263238"/>
<path d="M255.561 123.061C259.003 123.398 262.476 123.187 265.851 122.434C275.562 120.506 279.699 124.074 279.699 124.074C281.06 122.85 281.8 121.08 281.715 119.252C281.435 116.455 277.549 115.983 277.549 115.983C277.549 115.983 276.382 112.829 273.807 111.874C271.232 110.92 268.648 113.311 268.648 113.311C268.648 113.311 265.436 110.206 261.695 111.093C259.099 111.626 257.229 113.902 257.21 116.552C257.21 116.552 252.822 116.995 252.919 119.252C253.015 121.509 255.561 123.061 255.561 123.061Z" fill="#263238"/>
<path d="M270.48 127.604C272.222 127.604 273.634 129.231 273.634 131.239C273.634 133.247 272.222 134.875 270.48 134.875C268.738 134.875 267.327 133.247 267.327 131.239C267.327 129.231 268.739 127.604 270.48 127.604Z" stroke="#263238" stroke-width="0.446778" stroke-linecap="round" stroke-linejoin="round"/>
<path d="M281.561 131.779C281.31 133.519 279.697 134.726 277.958 134.476C276.218 134.226 275.01 132.613 275.261 130.873C275.486 129.308 276.826 128.145 278.407 128.144C280.277 128.288 281.682 129.908 281.561 131.779Z" stroke="#263238" stroke-width="0.446778" stroke-linecap="round" stroke-linejoin="round"/>
<path d="M273.624 131.673C273.624 131.673 274.646 131.037 275.253 131.779" stroke="#263238" stroke-width="0.446778" stroke-linecap="round" stroke-linejoin="round"/>
<path d="M267.327 131.239L261.801 130.497C261.077 130.403 260.345 130.601 259.766 131.046L259.525 131.239" stroke="#263238" stroke-width="0.446778" stroke-linecap="round" stroke-linejoin="round"/>
<path d="M255.503 132.57C256.057 134.266 257.261 135.674 258.85 136.485C260.962 137.537 262.466 135.762 262.254 133.534C262.061 131.548 260.74 128.558 258.396 128.443C256.736 128.387 255.344 129.688 255.289 131.349C255.275 131.767 255.348 132.182 255.503 132.57Z" fill="#A77865"/>
<path d="M313.753 164.845C313.912 163.895 312.97 162.995 312.417 163.491C311.863 163.987 310.058 165.509 308.761 166.856C308.201 167.438 307.382 168.206 306.593 168.947C306.49 169.022 306.387 169.096 306.293 169.189L305.525 169.955C305.139 170.324 304.803 170.655 304.574 170.904L303.692 171.784C303.17 172.312 302.75 172.934 302.456 173.617L300.635 180.19L303.477 183.018C307.034 184.177 310.219 178.004 310.219 178.004L312.512 174.951C313.283 173.924 313.207 172.492 312.332 171.551L310.111 169.262L310.144 169.224C311.005 168.219 313.594 165.795 313.753 164.845Z" fill="#A77865"/>
<path d="M76.0815 169.995C72.6215 173.982 55.0186 207.891 58.4202 215.806C61.8219 223.72 90.0293 214.597 90.0293 214.597L88.3431 203.417C88.3431 203.417 77.3876 203.807 76.3349 202.764C75.2823 201.722 91.1599 185.873 91.1599 185.873L76.0815 169.995Z" fill="#EF4E23"/>
<path opacity="0.2" d="M81.8633 216.846L82.9185 212.694L82.1453 203.473H85.0021L86.5908 213.515L85.0778 216.031L81.8633 216.846Z" fill="#263238"/>
<path opacity="0.2" d="M82.1451 195.226L78.6135 184.84L79.5181 198.15L82.1451 195.226Z" fill="#263238"/>
<path opacity="0.2" d="M76.4785 202.914C76.4785 202.914 74.9987 206.731 71.9767 209.223C71.9767 209.223 76.801 207.332 77.6575 203.209L76.4785 202.914Z" fill="#263238"/>
<path d="M102.632 358.207L107.506 358.285C112.467 334.981 115.976 306.14 118.159 284.385C118.5 280.973 118.812 277.747 119.134 274.735C119.261 273.303 119.387 271.928 119.504 270.603C120.089 264.063 120.479 258.906 120.732 255.67C120.908 253.331 120.996 252.045 120.996 252.045H103.276L103.441 256.538L104.026 271.363L104.085 273.059L104.455 282.854L105.069 299.531C99.0164 323.021 102.632 358.207 102.632 358.207Z" fill="#F0CBB3"/>
<path d="M63.0599 356.96L67.8652 357.866C77.4853 333.821 86.5207 303.03 92.398 281.519C93.3045 278.186 94.1427 275.067 94.8932 272.24C94.8932 272.094 94.9614 271.957 95.0004 271.821C96.4819 266.207 97.6223 261.733 98.3338 258.897L99.1818 255.456L81.8324 252.454L80.8577 259.764L79.4054 270.486L79.1228 272.591L78.1481 279.911L75.5067 299.541C65.487 321.666 63.0599 356.96 63.0599 356.96Z" fill="#F0CBB3"/>
<path d="M117.048 374.406C116.14 373.669 115.106 373.101 113.997 372.73C113.997 372.73 110.674 369.436 109.065 359.513L104.718 358.373C103.205 358.012 101.627 358.63 100.761 359.923C100.641 360.099 100.549 360.293 100.488 360.498C100.263 361.562 100.107 362.64 100.02 363.724C99.7769 367.352 99.7542 370.991 99.952 374.621H100.742L101.053 367.798C101.17 365.469 102.954 368.198 103.461 370.722C103.968 373.247 105.05 375.878 110.138 376.005C116.083 376.093 118.549 375.859 117.048 374.406Z" fill="#263238"/>
<path d="M100.605 360.059C100.322 357.739 100.234 353.704 100.234 353.704L109.903 354.776C109.903 354.776 108.734 359.367 109.699 362.817C104.825 361.482 100.605 360.059 100.605 360.059Z" fill="#263238"/>
<path d="M77.7095 374.407C76.8007 373.673 75.7673 373.108 74.6588 372.74C74.6588 372.74 71.3351 369.446 69.7366 359.523L65.3797 358.383C63.8665 358.022 62.2883 358.64 61.4226 359.933C61.3025 360.109 61.2105 360.303 61.1496 360.508C60.9249 361.572 60.7686 362.65 60.6818 363.734C60.4401 367.362 60.4206 371.001 60.6233 374.631H61.364L61.676 367.808C61.7929 365.479 63.5766 368.208 64.0835 370.732C64.5903 373.257 65.6722 375.888 70.7697 376.015C76.7446 376.093 79.2105 375.859 77.7095 374.407Z" fill="#263238"/>
<path d="M61.2764 360.059C60.984 357.739 60.8962 353.704 60.8962 353.704L70.5651 354.776C70.5651 354.776 69.3955 359.367 70.3604 362.817C65.4871 361.482 61.2764 360.059 61.2764 360.059Z" fill="#263238"/>
<path opacity="0.2" d="M90.0294 152.656C91.1503 153.455 92.4195 154.021 93.7624 154.323C97.7099 155.239 100.41 154.566 102.174 152.753C99.8115 153.338 97.3227 153.132 95.088 152.169C93.4157 151.552 91.5532 151.731 90.0294 152.656Z" fill="#263238"/>
<path d="M103.003 140.209C103.003 142.236 103.899 143.874 104.952 143.874C106.005 143.874 106.96 142.236 106.96 140.209C106.96 138.182 106.063 136.544 104.952 136.544C103.841 136.544 103.003 138.182 103.003 140.209Z" stroke="#263238" stroke-width="0.446778" stroke-linecap="round" stroke-linejoin="round"/>
<path d="M89.7956 152.451C89.8669 152.518 89.9454 152.577 90.0295 152.627C91.1414 153.475 92.4101 154.094 93.7625 154.449C97.71 155.366 100.41 154.82 102.174 153.036C104.64 150.356 105.254 145.609 104.903 139.878C104.842 137.597 104.421 135.341 103.656 133.191V133.084C103.656 133.065 103.597 132.919 103.558 132.841C102.576 130.377 100.41 128.582 97.8075 128.074C96.6971 127.826 95.5631 127.699 94.4253 127.694C83.2457 127.607 81.2378 146.106 89.7956 152.451Z" fill="#F0CBB3"/>
<path d="M88.8988 162.744C88.2068 165.921 92.3296 167.218 92.3296 167.218C99.0647 164.294 100.312 160.756 100.312 160.756C94.6884 157.832 96.3162 149.537 96.3162 149.537L95.1757 150.102L87.1541 151.672C87.1541 151.672 89.3763 155.941 89.6687 156.915C91.1893 162.032 88.8988 162.744 88.8988 162.744Z" fill="#F0CBB3"/>
<path d="M103.665 133.143C103.665 133.143 104.279 140.94 96.8426 144.342C96.8426 144.342 93.6554 152.48 88.9672 152.588C82.5634 152.744 76.9297 143.65 79.1423 134.381C82.0371 122.353 100.254 121.378 103.665 133.143Z" fill="#263238"/>
<path d="M90.0296 124.819C90.0296 124.819 97.4956 122.928 101.628 125.94C106.453 129.449 108.285 133.074 102.603 138.708C102.603 138.708 90.0588 134.644 85.8871 135.501C83.4489 135.993 81.0558 136.688 78.7329 137.577C77.8265 129.293 85.8579 123.123 90.0296 124.819Z" fill="#263238"/>
<path d="M100.624 140.209C100.624 140.209 98.6751 149.235 101.736 156.935L99.3902 157.431L98.7716 155.218C98.3447 155.349 98.1686 158.047 97.6331 158.203C92.1695 159.797 82.3024 162.167 77.8265 159.742C71.6567 156.399 77.31 145.18 77.5731 138.708C77.8363 132.236 80.6434 122.675 90.0296 124.819C99.4159 126.963 100.624 140.209 100.624 140.209Z" fill="#263238"/>
<path d="M106.679 139.634H99.5132" stroke="#263238" stroke-width="0.446778" stroke-linecap="round" stroke-linejoin="round"/>
<path d="M82.5385 131.257C83.2516 129.262 82.9221 126.893 81.5766 125.257C80.2311 123.621 77.878 122.842 75.8597 123.484C73.8413 124.127 72.3468 126.225 72.5311 128.335C72.6543 129.746 73.4719 131.051 74.6073 131.897C75.7428 132.743 77.1702 133.15 78.5859 133.181C76.4919 134.634 73.8816 135.328 71.3423 135.104C73.2984 136.612 75.9157 137.227 78.3385 136.749C76.9721 137.725 75.4565 138.491 73.8608 139.013C75.5982 139.81 77.6561 139.879 79.4429 139.2C81.2297 138.521 82.7225 137.103 83.4923 135.353L82.5385 131.257Z" fill="#263238"/>
<path d="M73.2447 292.325C67.7968 302.931 65.0347 330.369 62.0825 351.135L71.4121 352.634L84.1688 313.65L96.7839 268.156L100.566 254.296L101.56 292.749C97.3091 306.546 98.6124 328.636 98.3336 350.322L109.903 351.5L121.249 268.117C130.021 216.586 115.02 204.412 115.02 204.412L88.2847 209.792C76.1791 230.377 79.0544 254.296 79.0544 254.296L73.2447 292.325Z" fill="#263238"/>
<path opacity="0.2" d="M96.0725 268.069L96.784 268.156L100.566 254.296C100.566 254.296 92.4564 240.446 94.9906 233.233C94.6299 233.74 85.8968 246.694 96.0725 268.069Z" fill="#070F13"/>
<path opacity="0.2" d="M85.7006 214.693L120.886 215.148C120.886 215.148 120.442 213.144 119.845 212.209C119.248 211.275 119.593 212.209 119.593 212.209L86.2975 213.46L85.7006 214.693Z" fill="#263238"/>
<path d="M162.804 152.432V140.683C162.804 139.836 162.117 139.15 161.27 139.15H148.655C147.845 139.15 147.187 138.492 147.187 137.681V134.048C147.187 133.237 147.845 132.579 148.655 132.579H176.463" stroke="#263238" stroke-width="0.893556" stroke-miterlimit="10"/>
<path d="M148.685 137.263H175.974V127.896H148.685V137.263Z" fill="#EAE4DC"/>
<path d="M163.29 167.479H162.318C160.661 167.479 159.315 166.134 159.315 164.476V145.689H166.293V164.476C166.293 166.134 164.947 167.479 163.29 167.479Z" fill="#263238"/>
<path d="M148.69 131.59C149.062 131.449 149.735 131.713 149.916 132.067C150.097 132.422 150.141 132.833 150.314 133.192C150.762 134.12 152.141 134.427 152.94 133.776C153.532 133.293 153.869 132.386 154.63 132.308C155.273 132.243 155.785 132.848 156.039 133.443C156.294 134.038 156.443 134.715 156.921 135.15C157.354 135.543 157.972 135.654 158.557 135.675C159.343 135.703 160.177 135.583 160.794 135.095C161.355 134.651 161.661 133.968 161.946 133.313C162.231 132.657 162.535 131.973 163.093 131.526C163.65 131.078 164.544 130.961 165.05 131.466C165.42 131.834 165.487 132.415 165.807 132.827C166.108 133.215 166.634 133.414 167.117 133.321C167.599 133.229 168.015 132.85 168.151 132.378C168.263 131.992 168.221 131.521 168.524 131.257C168.946 130.89 169.641 131.313 169.808 131.847C169.976 132.38 169.837 132.957 169.87 133.515C169.918 134.352 170.412 135.181 171.184 135.508C171.956 135.836 172.972 135.56 173.374 134.824C173.739 134.159 173.576 133.295 173.959 132.641C174.301 132.057 175.274 131.581 175.91 131.808L175.975 127.896H148.686L148.69 131.59Z" fill="#EF4E23"/>
<path d="M111.258 162.042C111.258 162.042 102.34 158.865 88.8988 162.744C75.4579 166.623 74.951 172.344 74.951 172.344C74.951 172.344 83.4698 191.653 84.8149 213.515L119.845 212.209C119.845 212.209 124.026 181.351 111.258 162.042Z" fill="#EF4E23"/>
<path opacity="0.2" d="M111.745 187.16C111.745 187.16 113.198 196.049 120.518 201.527C120.587 196.282 120.261 191.04 119.543 185.844L111.745 187.16Z" fill="#263238"/>
<path d="M150.45 161.428L154.866 154.878C154.866 154.878 155.538 152.032 156.396 151.389C157.253 150.745 165.733 147.129 166.757 147.149C167.78 147.168 167.731 153.757 166.757 154.878C165.782 155.999 160.382 158.397 158.959 158.64C157.536 158.884 158.238 158.64 158.238 158.64L154.339 166.438L150.45 161.428Z" fill="#F0CBB3"/>
<path d="M111.258 162.042C120.717 166.004 129.843 170.717 138.549 176.136L152.809 156.642C152.809 156.642 156.649 157.831 158.072 164.518C158.072 164.518 150.752 192.404 141.24 195.172C131.727 197.94 111.726 187.111 111.726 187.111C111.726 187.111 105.936 172.627 111.258 162.042Z" fill="#EF4E23"/>
<path opacity="0.2" d="M87.1724 185.647C87.1724 185.647 91.1482 187.061 94.7062 183.414C98.2642 179.767 100.294 168.199 100.294 168.199L87.1724 185.647Z" fill="#263238"/>
<path d="M102.174 160.778C102.174 160.778 98.6829 184.62 87.4024 185.647C76.1219 186.673 71.0674 167.794 72.9753 165.563C74.8834 163.331 89.3537 160.611 102.174 160.778Z" fill="#F29356"/>
<path d="M100.624 142.09C100.624 140.872 99.6498 138.815 97.7004 139.098C95.7511 139.381 94.6399 144.235 99.4744 145.317C100.205 145.472 100.624 144.654 100.624 142.09Z" fill="#F0CBB3"/>
<path opacity="0.2" d="M138.549 176.136C138.549 176.136 141.873 178.442 142.149 179.489C142.149 179.489 141.99 176.712 139.23 175.206L138.549 176.136Z" fill="#263238"/>
</svg>
