<svg width="322" height="200" viewBox="0 0 322 200" fill="none" xmlns="http://www.w3.org/2000/svg">
<g clip-path="url(#clip0_8732_57794)">
<rect width="322" height="200" fill="url(#paint0_linear_8732_57794)"/>
<path d="M299 183.725H23V183.863H299V183.725Z" fill="#F6EFE6"/>
<path d="M271.345 192.607H253.062V192.745H271.345V192.607Z" fill="#F6EFE6"/>
<path d="M229.961 190.741H197.956V190.879H229.961V190.741Z" fill="#F6EFE6"/>
<path d="M252.511 187.484H222.642V187.622H252.511V187.484Z" fill="#F6EFE6"/>
<path d="M60.1881 188.411H51.9578V188.549H60.1881V188.411Z" fill="#F6EFE6"/>
<path d="M100.65 188.411H65.1016V188.549H100.65V188.411Z" fill="#F6EFE6"/>
<path d="M147.283 190.741H123.464V190.879H147.283V190.741Z" fill="#F6EFE6"/>
<path d="M153.824 159.106H47.2382C46.4032 159.104 45.6029 158.771 45.013 158.18C44.4231 157.59 44.0918 156.789 44.0918 155.954V6.12432C44.0991 5.29413 44.4336 4.50032 45.0227 3.91534C45.6118 3.33035 46.408 3.00142 47.2382 3H153.824C154.66 3 155.462 3.33208 156.053 3.92318C156.644 4.51428 156.976 5.31598 156.976 6.15192V155.954C156.976 156.79 156.644 157.591 156.053 158.182C155.462 158.774 154.66 159.106 153.824 159.106ZM47.2382 3.1104C46.4398 3.11186 45.6746 3.43004 45.1106 3.99511C44.5466 4.56017 44.2298 5.32593 44.2298 6.12432V155.954C44.2298 156.752 44.5466 157.518 45.1106 158.083C45.6746 158.648 46.4398 158.966 47.2382 158.968H153.824C154.623 158.966 155.389 158.648 155.953 158.083C156.518 157.518 156.836 156.753 156.838 155.954V6.12432C156.836 5.32543 156.518 4.55967 155.953 3.99477C155.389 3.42986 154.623 3.11186 153.824 3.1104H47.2382Z" fill="#F6EFE6"/>
<path d="M273.227 159.106H166.636C165.801 159.104 165 158.772 164.409 158.181C163.818 157.59 163.486 156.789 163.484 155.954V6.12432C163.493 5.29362 163.829 4.49983 164.419 3.91499C165.009 3.33016 165.806 3.00141 166.636 3H273.227C274.057 3.00287 274.851 3.33244 275.439 3.91727C276.027 4.50211 276.361 5.29508 276.368 6.12432V155.954C276.368 156.788 276.038 157.588 275.449 158.179C274.86 158.769 274.062 159.103 273.227 159.106ZM166.636 3.1104C165.837 3.11186 165.072 3.42986 164.507 3.99477C163.942 4.55967 163.624 5.32543 163.622 6.12432V155.954C163.624 156.753 163.942 157.518 164.507 158.083C165.072 158.648 165.837 158.966 166.636 158.968H273.227C274.026 158.966 274.792 158.648 275.357 158.083C275.922 157.518 276.24 156.753 276.241 155.954V6.12432C276.24 5.32543 275.922 4.55967 275.357 3.99477C274.792 3.42986 274.026 3.11186 273.227 3.1104H166.636Z" fill="#F6EFE6"/>
<path opacity="0.5" d="M141.145 62.7761L118.91 12.8477H102.218L124.458 62.7761H141.145Z" fill="white"/>
<path opacity="0.5" d="M96.273 62.7761L74.0329 12.8477H67.9443L90.1844 62.7761H96.273Z" fill="white"/>
<path d="M54.5192 10.6892H150.291C150.394 10.6907 150.492 10.7326 150.565 10.8059C150.637 10.8793 150.678 10.9781 150.678 11.0811C150.676 11.1832 150.635 11.2806 150.563 11.3528C150.491 11.4249 150.393 11.4661 150.291 11.4675H54.5192C54.4172 11.4661 54.3197 11.4249 54.2476 11.3528C54.1754 11.2806 54.1342 11.1832 54.1328 11.0811C54.1328 10.9781 54.1733 10.8793 54.2456 10.8059C54.318 10.7326 54.4162 10.6907 54.5192 10.6892Z" fill="#EAE4DC"/>
<path d="M102.924 12.7153H101.887V62.9142H102.924V12.7153Z" fill="#F5F1EA"/>
<path d="M101.886 12.7153H101.367V62.9142H101.886V12.7153Z" fill="#EAE4DC"/>
<path d="M58.0852 37.2957V38.3335L146.725 38.3335V37.2957L58.0852 37.2957Z" fill="#F5F1EA"/>
<path d="M58.0852 62.3456V12.2461H146.725V62.3456V63.3779H58.0852V62.3456ZM145.688 62.3456V13.2783H59.123V62.3456H145.688Z" fill="#F5F1EA"/>
<path d="M58.085 12.2461H57.5662V63.3834H58.085V12.2461Z" fill="#EAE4DC"/>
<path opacity="0.5" d="M71.8082 8.93408V77.9672H53.6143L56.9539 8.93408H71.8082Z" fill="#F6EFE6"/>
<path opacity="0.5" d="M132.483 8.93408V77.9672H150.677L147.343 8.93408H132.483Z" fill="#F6EFE6"/>
<path opacity="0.5" d="M258.853 62.7763L236.613 12.8479H219.926L242.166 62.7763H258.853Z" fill="white"/>
<path opacity="0.5" d="M213.975 62.7763L191.741 12.8479H185.652L207.887 62.7763H213.975Z" fill="white"/>
<path d="M172.227 10.6895H267.994C268.098 10.6895 268.197 10.7307 268.271 10.8042C268.344 10.8777 268.386 10.9774 268.386 11.0814C268.384 11.1844 268.342 11.2826 268.269 11.3549C268.196 11.4273 268.097 11.4678 267.994 11.4678H172.227C172.125 11.4678 172.026 11.4271 171.954 11.3546C171.882 11.2821 171.841 11.1839 171.841 11.0814C171.84 11.0302 171.85 10.9793 171.869 10.9318C171.888 10.8843 171.916 10.841 171.952 10.8046C171.988 10.7681 172.031 10.7391 172.078 10.7194C172.125 10.6996 172.176 10.6894 172.227 10.6895Z" fill="#EAE4DC"/>
<path d="M220.633 12.7153H219.595V62.9142H220.633V12.7153Z" fill="#F5F1EA"/>
<path d="M219.595 12.7153H219.076V62.9142H219.595V12.7153Z" fill="#EAE4DC"/>
<path d="M175.794 37.2901V38.3279L264.434 38.3279V37.2901L175.794 37.2901Z" fill="#F5F1EA"/>
<path d="M175.794 62.3456V12.2461H264.434V62.3456V63.3779H175.794V62.3456ZM263.396 62.3456V13.2783H176.826V62.3456H263.396Z" fill="#F5F1EA"/>
<path d="M175.794 12.2461H175.275V63.3834H175.794V12.2461Z" fill="#EAE4DC"/>
<path opacity="0.5" d="M189.516 8.93408V77.9672H171.322L174.656 8.93408H189.516Z" fill="#F6EFE6"/>
<path opacity="0.5" d="M250.192 8.93408V77.9672H268.386L265.047 8.93408H250.192Z" fill="#F6EFE6"/>
<path d="M152.687 110.833L270.307 110.833V103.878L152.687 103.878V110.833Z" fill="#F6EFE6"/>
<path d="M152.687 110.833H183.03V103.878H152.687V110.833Z" fill="#EAE4DC"/>
<path d="M259.996 183.719H270.307V110.828H259.996V183.719Z" fill="#F6EFE6"/>
<path d="M152.687 183.719H162.998V110.828H152.687V183.719Z" fill="#F6EFE6"/>
<path d="M239.964 183.719H250.275V110.828H239.964V183.719Z" fill="#F6EFE6"/>
<path d="M152.687 138.141L270.307 138.141V131.185H152.687V138.141Z" fill="#F6EFE6"/>
<path d="M152.687 138.141H183.03V131.185H152.687V138.141Z" fill="#EAE4DC"/>
<path d="M152.687 165.448L270.307 165.448V158.493H152.687V165.448Z" fill="#F6EFE6"/>
<path d="M152.687 165.448H183.03V158.493H152.687V165.448Z" fill="#EAE4DC"/>
<path d="M172.719 183.719H183.03V110.828H172.719V183.719Z" fill="#F6EFE6"/>
<path d="M63.6437 109.249H54.3425V181.219H63.6437V109.249Z" fill="#F5F1EA"/>
<path d="M127.929 181.219H55.6338V183.725H127.929V181.219Z" fill="#F5F1EA"/>
<path d="M63.6493 181.219H129.216V109.249L63.6493 109.249L63.6493 181.219Z" fill="#FFF6ED"/>
<path d="M73.5797 153.597H119.274C120.607 153.597 121.687 152.517 121.687 151.184V138.715C121.687 137.383 120.607 136.303 119.274 136.303H73.5797C72.2475 136.303 71.1675 137.383 71.1675 138.715V151.184C71.1675 152.517 72.2475 153.597 73.5797 153.597Z" fill="#FFF6ED"/>
<path d="M73.5797 175.859H119.274C120.607 175.859 121.687 174.779 121.687 173.447V160.977C121.687 159.645 120.607 158.565 119.274 158.565H73.5797C72.2475 158.565 71.1675 159.645 71.1675 160.977V173.447C71.1675 174.779 72.2475 175.859 73.5797 175.859Z" fill="#FFF6ED"/>
<path d="M100.098 135.558H92.7677C92.0147 135.558 91.4043 136.168 91.4043 136.921V137.926C91.4043 138.679 92.0147 139.289 92.7677 139.289H100.098C100.851 139.289 101.462 138.679 101.462 137.926V136.921C101.462 136.168 100.851 135.558 100.098 135.558Z" fill="#FAFAFA"/>
<path d="M73.5797 131.335H119.274C120.607 131.335 121.687 130.255 121.687 128.922V116.453C121.687 115.121 120.607 114.041 119.274 114.041H73.5797C72.2475 114.041 71.1675 115.121 71.1675 116.453V128.922C71.1675 130.255 72.2475 131.335 73.5797 131.335Z" fill="#FFF6ED"/>
<path d="M100.098 113.295H92.7677C92.0147 113.295 91.4043 113.905 91.4043 114.658V115.663C91.4043 116.416 92.0147 117.026 92.7677 117.026H100.098C100.851 117.026 101.462 116.416 101.462 115.663V114.658C101.462 113.905 100.851 113.295 100.098 113.295Z" fill="#FAFAFA"/>
<path d="M100.098 157.813H92.7677C92.0147 157.813 91.4043 158.424 91.4043 159.177V160.182C91.4043 160.935 92.0147 161.545 92.7677 161.545H100.098C100.851 161.545 101.462 160.935 101.462 160.182V159.177C101.462 158.424 100.851 157.813 100.098 157.813Z" fill="#FAFAFA"/>
<path d="M130.911 106.919H63.6438V109.249H130.911V106.919Z" fill="#F5F1EA"/>
<path d="M52.5155 109.249H63.6438V106.92H52.5155V109.249Z" fill="#F5F1EA"/>
<path d="M63.7927 83.8403H103.862L107.092 105.711H67.0219L63.7927 83.8403Z" fill="#F5F1EA"/>
<path d="M67.0225 105.71L67.039 106.919H107.109L107.092 105.71H67.0225Z" fill="#F5F1EA"/>
<path d="M65.0293 83.8403H105.099L108.323 105.711H68.253L65.0293 83.8403Z" fill="#F5F1EA"/>
<path d="M69.219 104.711L66.2878 84.8394H104.133L107.064 104.711H69.219Z" fill="#FFF6ED"/>
<path d="M78.6912 105.71L78.7132 106.919H122.84L122.818 105.71H78.6912Z" fill="#F5F1EA"/>
<path d="M161 208.653C220.109 208.653 268.027 205.855 268.027 202.404C268.027 198.953 220.109 196.156 161 196.156C101.89 196.156 53.9727 198.953 53.9727 202.404C53.9727 205.855 101.89 208.653 161 208.653Z" fill="#F5F5F5"/>
<path d="M65.3114 43.8139C65.791 39.8172 72.0752 36.6751 77.5292 38.5628C83.7888 40.7333 82.7988 46.4702 86.937 46.6977C91.0752 46.9253 93.1474 54.2547 89.5257 57.6489C85.904 61.0431 92.5571 62.568 92.7784 67.3272C92.9998 72.0865 93.0182 75.782 96.9166 79.3053C101.836 83.7386 94.2542 98.0409 81.8027 91.5047C70.6425 85.6448 56.6722 94.0749 54.1758 85.9399C52.0175 78.9179 62.6059 71.2994 60.3923 67.8991C58.1787 64.4988 59.6483 61.3013 62.1632 57.1877C65.256 52.1457 57.6622 44.6256 65.3114 43.8139Z" fill="#263238"/>
<path d="M90.1408 76.9502C91.6596 80.0246 93.2153 83.179 94.8447 86.2227C95.6687 87.7353 96.5049 89.2418 97.3596 90.6991C98.161 92.0904 99.0589 93.4239 100.047 94.6897L100.25 94.9295C100.285 94.9758 100.329 95.0154 100.379 95.0464C100.539 95.1558 100.715 95.2389 100.901 95.2923C101.501 95.4608 102.124 95.5335 102.746 95.5075C104.323 95.4416 105.888 95.2024 107.413 94.7943C109.03 94.4007 110.654 93.8842 112.277 93.3185C113.9 92.7528 115.53 92.1256 117.091 91.4739L118.518 94.0625C115.458 96.0919 112.184 97.7766 108.753 99.0862C106.923 99.7903 105.013 100.265 103.066 100.5C101.926 100.633 100.773 100.587 99.647 100.365C98.9704 100.219 98.3181 99.9767 97.7101 99.6457C97.3767 99.4696 97.0598 99.2638 96.7632 99.0308C96.6104 98.9079 96.4647 98.7765 96.3266 98.6373L96.0561 98.3114C94.7587 96.8855 93.5861 95.3508 92.5512 93.7243C91.5243 92.1933 90.5959 90.6499 89.7043 89.0696C87.9088 85.9276 86.2732 82.7732 84.7852 79.4835L90.1408 76.9502Z" fill="#F0C6A4"/>
<path d="M86.5311 71.2565C88.9907 71.1704 93.4117 80.2092 93.4117 80.2092L86.9431 88.0614C86.9431 88.0614 79.3923 78.5982 80.4315 75.5607C81.5075 72.3448 82.9095 71.3856 86.5311 71.2565Z" fill="#60696E"/>
<path opacity="0.2" d="M86.9431 73.4451L90.3066 83.9904L87.2752 87.6613L86.9431 73.4451Z" fill="black"/>
<path d="M121.34 89.4324L115.394 92.2793L115.283 94.3761C116.999 96.0916 120.596 94.991 120.596 94.991L124.998 94.4191L125.564 91.9596C125.639 91.6518 125.644 91.3314 125.581 91.0211C125.518 90.7109 125.387 90.4183 125.198 90.1642C125.009 89.9101 124.767 89.7007 124.488 89.5509C124.209 89.401 123.9 89.3144 123.584 89.2971L122.354 89.2356C122.005 89.219 121.657 89.2865 121.34 89.4324Z" fill="#CE7A63"/>
<path d="M88.8738 74.1583C89.0029 77.8476 88.3634 86.4868 84.4774 106.581L60.7488 105.874C61.4375 96.2266 61.622 90.2745 57.6006 70.3153C60.9427 69.7272 64.3234 69.3841 67.7155 69.2884C71.3095 69.1384 74.9096 69.2452 78.4883 69.6081C81.2369 69.9402 84.1945 70.512 86.1375 70.9178C86.8903 71.0741 87.569 71.4783 88.0651 72.0657C88.5611 72.6532 88.8458 73.39 88.8738 74.1583Z" fill="#60696E"/>
<path d="M69.1421 57.1875C69.7201 60.6739 70.2059 67.0257 67.7156 69.2885C67.7156 69.2885 70.0214 73.5927 75.9428 75.1607C81.4091 72.3875 78.4884 69.6267 78.4884 69.6267C74.6515 68.5875 74.836 65.7221 75.5861 63.0535L69.1421 57.1875Z" fill="#F0C6A4"/>
<path d="M75.9427 75.1604L75.2356 73.7769L71.4355 74.6377L75.9427 75.1604Z" fill="#EAE4DC"/>
<path d="M75.2355 73.7772C74.0058 73.2238 68.3672 69.5407 68.1459 68.397C67.1821 68.4899 66.2327 68.6963 65.3174 69.0119C65.3174 69.0119 66.0368 73.1685 70.4701 77.9523C71.6138 75.3575 73.1326 74.22 75.2355 73.7772Z" fill="white"/>
<path d="M75.9424 75.1604L76.2621 73.7769L78.5926 73.9429L75.9424 75.1604Z" fill="#EAE4DC"/>
<path d="M76.2625 73.777C78.144 72.5472 77.6828 69.9093 77.4922 68.7656C78.4512 68.8991 79.3988 69.1047 80.3269 69.3805C81.2206 70.6191 81.7253 72.0958 81.7768 73.6223C81.8283 75.1488 81.4241 76.6561 80.6159 77.9521C79.7058 75.4925 78.1502 74.6071 76.2625 73.777Z" fill="white"/>
<path opacity="0.2" d="M71.7674 59.5732L75.5858 63.0289C75.4015 63.6518 75.2718 64.2896 75.1985 64.9351C73.7227 64.6768 71.7428 62.992 71.6321 61.4425C71.5641 60.8164 71.6099 60.1831 71.7674 59.5732Z" fill="black"/>
<path d="M67.3032 49.7844C67.5553 55.5767 67.543 58.0362 70.4146 61.0615C74.7188 65.6055 81.7962 64.0191 83.278 58.2699C84.6123 53.0864 83.9667 44.4779 78.3589 42.0799C77.1201 41.5395 75.7635 41.3257 74.4186 41.4589C73.0736 41.592 71.7853 42.0676 70.6764 42.8404C69.5676 43.6131 68.6754 44.6571 68.0848 45.8728C67.4943 47.0884 67.2252 48.4352 67.3032 49.7844Z" fill="#F0C6A4"/>
<path d="M66.4985 43.4756C68.6444 44.5516 71.602 44.3672 72.1554 45.6584C72.7088 46.9497 71.1532 54.6543 67.9373 54.7157C64.9797 50.7251 64.537 45.3264 66.4985 43.4756Z" fill="#263238"/>
<path d="M66.7932 44.4408C71.5279 47.4353 87.1337 50.233 82.0363 43.4754C78.1625 38.3472 67.9738 40.9298 66.7932 44.4408Z" fill="#263238"/>
<path d="M84.5328 106.581C84.5328 106.581 86.8263 149.765 86.9432 167.511C87.0661 185.957 81.8703 225.784 81.8703 225.784H73.9629C73.9629 225.784 75.4694 185.539 74.2519 167.326C72.9237 147.472 68.3059 106.065 68.3059 106.065L84.5328 106.581Z" fill="#D5B689"/>
<path opacity="0.2" d="M69.9783 121.572C70.833 120.509 71.9521 121.056 73.4155 124.093C78.4084 134.448 75.8751 150.97 73.7352 160.489C72.776 148.64 71.1896 133.028 69.9783 121.572Z" fill="black"/>
<path d="M76.9023 51.9797C76.9023 52.4531 77.136 52.8405 77.4434 52.8467C77.7509 52.8528 78.0091 52.4716 78.0153 52.0043C78.0214 51.537 77.7816 51.1434 77.4742 51.1373C77.1667 51.1311 76.9085 51.5124 76.9023 51.9797Z" fill="#263238"/>
<path d="M82.2266 51.9367C82.2266 52.4102 82.4602 52.7976 82.7677 52.8037C83.0751 52.8098 83.3334 52.4286 83.3395 51.9613C83.3457 51.494 83.1059 51.1005 82.7984 51.0943C82.491 51.0882 82.2327 51.4694 82.2266 51.9367Z" fill="#263238"/>
<path d="M82.6572 51.1187L83.7948 50.8113C83.7948 50.8113 83.2045 51.6844 82.6572 51.1187Z" fill="#263238"/>
<path d="M80.1796 52.3921C80.5801 53.4749 81.1284 54.4971 81.8091 55.4296C81.5653 55.598 81.2876 55.7111 80.9956 55.761C80.7035 55.8109 80.4041 55.7965 80.1182 55.7186L80.1796 52.3921Z" fill="#BA4D3C"/>
<path d="M77.517 57.5198C77.7468 57.5569 77.979 57.5774 78.2118 57.5813C78.2324 57.5857 78.2537 57.5854 78.2742 57.5804C78.2947 57.5755 78.3138 57.5661 78.3301 57.5528C78.3465 57.5396 78.3597 57.5228 78.3688 57.5038C78.3778 57.4848 78.3825 57.464 78.3825 57.4429C78.3825 57.4219 78.3778 57.4011 78.3688 57.3821C78.3597 57.3631 78.3465 57.3463 78.3301 57.3331C78.3138 57.3198 78.2947 57.3104 78.2742 57.3054C78.2537 57.3005 78.2324 57.3002 78.2118 57.3046C77.6245 57.311 77.0441 57.1771 76.519 56.914C75.9939 56.6509 75.5392 56.2662 75.1927 55.792C75.1726 55.7616 75.1415 55.7403 75.106 55.7322C75.0705 55.7242 75.0333 55.7302 75.0021 55.7489C74.9864 55.7583 74.9728 55.7708 74.9621 55.7856C74.9515 55.8004 74.9439 55.8172 74.9398 55.8351C74.9358 55.8529 74.9355 55.8713 74.9387 55.8893C74.942 55.9072 74.9489 55.9243 74.959 55.9395C75.2591 56.3596 75.6398 56.7158 76.079 56.9871C76.5182 57.2584 77.007 57.4395 77.517 57.5198Z" fill="#263238"/>
<path d="M65.6434 55.0662C66.0179 56.1227 66.7963 56.9874 67.8078 57.4704C69.1544 58.0853 70.0706 56.9539 69.8984 55.552C69.7447 54.3222 68.8593 52.4776 67.4389 52.4099C67.1193 52.401 66.8027 52.4729 66.5183 52.6189C66.2339 52.7649 65.991 52.9803 65.8119 53.2452C65.6329 53.51 65.5236 53.8158 65.4942 54.1341C65.4647 54.4524 65.516 54.773 65.6434 55.0662Z" fill="#F0C6A4"/>
<path d="M74.7563 50.4235C74.8134 50.4361 74.873 50.429 74.9255 50.4033C74.978 50.3776 75.0203 50.3349 75.0453 50.2821C75.6602 49.1507 77.2774 48.9232 77.2958 48.9232C77.3323 48.9186 77.3675 48.9069 77.3994 48.8886C77.4312 48.8703 77.4592 48.8459 77.4815 48.8167C77.5038 48.7875 77.5201 48.7541 77.5294 48.7186C77.5387 48.683 77.5408 48.646 77.5356 48.6096C77.525 48.537 77.486 48.4717 77.4272 48.4279C77.3684 48.3841 77.2946 48.3654 77.222 48.3759C77.1421 48.3759 75.2851 48.6403 74.5596 50.0238C74.5425 50.0561 74.5319 50.0914 74.5285 50.1278C74.5252 50.1642 74.529 50.2008 74.5399 50.2357C74.5507 50.2706 74.5684 50.3029 74.5918 50.331C74.6152 50.359 74.644 50.3821 74.6764 50.3989C74.7006 50.4136 74.7281 50.422 74.7563 50.4235Z" fill="#263238"/>
<path d="M83.8441 49.2062C83.8915 49.2152 83.9404 49.2114 83.9858 49.1952C84.0312 49.179 84.0715 49.1509 84.1024 49.1139C84.1265 49.0862 84.1449 49.054 84.1564 49.0191C84.1679 48.9842 84.1724 48.9473 84.1695 48.9107C84.1667 48.8741 84.1565 48.8384 84.1397 48.8057C84.1229 48.773 84.0998 48.744 84.0717 48.7204C83.7414 48.4275 83.3454 48.2187 82.9172 48.1117C82.489 48.0046 82.0413 48.0025 81.6121 48.1055C81.5459 48.1299 81.4915 48.1786 81.46 48.2418C81.4285 48.3049 81.4223 48.3777 81.4427 48.4453C81.4632 48.5128 81.5086 48.57 81.5698 48.6052C81.631 48.6403 81.7033 48.6507 81.772 48.6343C82.1122 48.5623 82.4647 48.5721 82.8003 48.6629C83.136 48.7538 83.4453 48.9231 83.7027 49.157C83.7444 49.186 83.7934 49.2031 83.8441 49.2062Z" fill="#263238"/>
<path d="M59.9865 79.4714C58.3017 81.8818 56.6046 84.4582 55.0243 87.01C53.4524 89.5435 52.0157 92.1583 50.7201 94.8436L50.4864 95.3356L50.3696 95.5877C50.3696 95.5877 50.3143 95.6737 50.3143 95.8644C50.3193 96.4038 50.4 96.9399 50.5541 97.4569C50.941 98.8054 51.4387 100.12 52.0421 101.386C53.3088 104.042 54.8398 106.736 56.3894 109.33L54.0528 111.175C51.835 108.843 49.8403 106.309 48.0945 103.606C47.1545 102.178 46.3633 100.657 45.7333 99.0679C45.3532 98.1241 45.1129 97.1298 45.0201 96.1165C44.9644 95.4349 45.0247 94.7488 45.1984 94.0873C45.1984 93.9951 45.2537 93.8967 45.2845 93.7983L45.3767 93.5524L45.4874 93.2634L45.7088 92.6915C46.3236 91.1543 46.9754 89.6786 47.6887 88.2336C48.402 86.7886 49.1398 85.399 49.9392 83.9786C51.5308 81.1967 53.2821 78.5092 55.1842 75.9297L59.9865 79.4714Z" fill="#F0C6A4"/>
<path d="M57.6009 70.3155C55.1967 70.9673 52.0977 79.0715 52.0977 79.0715L61.1304 85.9398C61.1304 85.9398 64.6967 79.2068 63.7867 76.1016C62.852 72.8735 60.3372 69.5715 57.6009 70.3155Z" fill="#60696E"/>
<path d="M60.7489 105.874C55.055 114.913 56.6476 148.203 55.7498 165.949C54.8152 184.395 50.2158 225.759 50.2158 225.759H58.1171C58.1171 225.759 65.7049 183.688 69.2405 165.85C73.145 146.174 77.8981 105.85 77.8981 105.85L60.7489 105.874Z" fill="#D5B689"/>
<path d="M77.3389 51.1614L78.4764 50.854C78.4764 50.854 77.88 51.7271 77.3389 51.1614Z" fill="#263238"/>
<path d="M60.4357 104.46L59.7777 106.576C59.6916 106.742 59.8823 106.914 60.1528 106.92L84.5762 107.646C84.7914 107.646 84.9697 107.553 84.9882 107.418L85.2648 105.303C85.2648 105.155 85.105 105.026 84.8713 105.02L60.8415 104.307C60.7663 104.294 60.6891 104.302 60.6178 104.329C60.5465 104.356 60.4836 104.401 60.4357 104.46Z" fill="#263238"/>
<path d="M63.5835 107.252H62.9686C62.8457 107.252 62.7473 107.178 62.7596 107.098L63.1408 104.349C63.1408 104.27 63.2699 104.208 63.3929 104.208H64.0078C64.1369 104.208 64.2292 104.282 64.223 104.362L63.8356 107.116C63.8233 107.196 63.7127 107.258 63.5835 107.252Z" fill="#AA926E"/>
<path d="M82.7493 107.823H82.1037C81.9746 107.823 81.8824 107.75 81.8947 107.67L82.2759 104.921C82.2759 104.841 82.405 104.774 82.528 104.78H83.1736C83.3027 104.78 83.395 104.853 83.3888 104.933L83.0015 107.682C82.9892 107.762 82.8785 107.83 82.7493 107.823Z" fill="#AA926E"/>
<path d="M73.1632 107.535H72.5483C72.4192 107.535 72.3208 107.461 72.3331 107.381L72.7205 104.626C72.7205 104.546 72.8434 104.485 72.9726 104.491H73.5874C73.7104 104.491 73.8088 104.565 73.7965 104.645L73.4153 107.393C73.4091 107.48 73.3046 107.535 73.1632 107.535Z" fill="#AA926E"/>
<path d="M54.4771 107.799L60.6997 108.869L56.1557 112.699C56.2172 112.736 52.7062 111.377 52.3557 108.936L54.4771 107.799Z" fill="#F0C6A4"/>
<path d="M62.4456 113.684L61.0744 114.717C60.7687 114.944 60.3978 115.067 60.0168 115.067C59.6357 115.067 59.2648 114.944 58.9592 114.717L56.1553 112.681L60.6993 108.851L62.6977 111.046C62.8666 111.23 62.9949 111.447 63.0743 111.684C63.1537 111.921 63.1825 112.172 63.1587 112.421C63.1349 112.669 63.0592 112.91 62.9363 113.128C62.8135 113.346 62.6463 113.535 62.4456 113.684Z" fill="#F0C6A4"/>
<path d="M238.538 70.0227H114.855C112.367 70.0227 110.351 72.0395 110.351 74.5272V147.916C110.351 150.404 112.367 152.42 114.855 152.42H238.538C241.026 152.42 243.042 150.404 243.042 147.916V74.5272C243.042 72.0395 241.026 70.0227 238.538 70.0227Z" fill="white"/>
<path d="M238.538 152.694H114.85C113.589 152.693 112.38 152.191 111.488 151.299C110.596 150.407 110.094 149.198 110.093 147.936V74.5477C110.094 73.2863 110.596 72.0769 111.488 71.185C112.38 70.2931 113.589 69.7914 114.85 69.79H238.538C239.8 69.7914 241.01 70.2929 241.903 71.1847C242.795 72.0765 243.298 73.2858 243.301 74.5477V147.936C243.298 149.198 242.795 150.408 241.903 151.299C241.01 152.191 239.8 152.693 238.538 152.694ZM114.85 70.2759C113.725 70.2786 112.646 70.7268 111.851 71.5226C111.055 72.3184 110.607 73.3969 110.604 74.5223V147.911C110.605 149.037 111.053 150.116 111.849 150.912C112.645 151.708 113.725 152.156 114.85 152.157H238.538C239.664 152.157 240.744 151.71 241.541 150.914C242.337 150.117 242.785 149.037 242.785 147.911V74.5223C242.783 73.3965 242.335 72.3172 241.539 71.5212C240.743 70.7251 239.664 70.2773 238.538 70.2759H114.85Z" fill="#BBB1A2"/>
<path d="M241.423 152.42H111.97C111.462 152.42 110.959 152.529 110.496 152.74C110.033 152.952 109.621 153.26 109.288 153.645L104.51 159.177C104.066 159.691 103.778 160.321 103.682 160.994C103.586 161.666 103.685 162.352 103.968 162.97C104.251 163.587 104.705 164.111 105.277 164.477C105.848 164.844 106.513 165.039 107.193 165.038H246.201C246.88 165.039 247.545 164.844 248.117 164.477C248.689 164.111 249.143 163.587 249.426 162.97C249.708 162.352 249.807 161.666 249.711 160.994C249.615 160.321 249.328 159.691 248.883 159.177L244.1 153.645C243.768 153.261 243.357 152.953 242.895 152.742C242.433 152.53 241.931 152.421 241.423 152.42Z" fill="white"/>
<path d="M246.201 165.291H107.192C106.464 165.291 105.751 165.082 105.139 164.688C104.526 164.295 104.04 163.733 103.737 163.071C103.434 162.409 103.328 161.674 103.431 160.953C103.534 160.232 103.841 159.556 104.317 159.005L109.095 153.478C109.452 153.066 109.894 152.735 110.39 152.508C110.886 152.281 111.425 152.163 111.97 152.162H241.418C241.964 152.162 242.504 152.28 243.001 152.507C243.498 152.734 243.94 153.065 244.298 153.478L249.075 159.005C249.551 159.556 249.859 160.232 249.962 160.953C250.065 161.674 249.959 162.409 249.656 163.071C249.353 163.733 248.867 164.295 248.254 164.688C247.641 165.082 246.929 165.291 246.201 165.291ZM111.97 152.694C111.498 152.693 111.032 152.795 110.603 152.991C110.174 153.188 109.793 153.475 109.485 153.833L104.702 159.365C104.289 159.841 104.022 160.426 103.933 161.05C103.844 161.674 103.936 162.311 104.198 162.884C104.461 163.457 104.883 163.942 105.414 164.282C105.944 164.622 106.562 164.802 107.192 164.8H246.201C246.831 164.801 247.447 164.62 247.977 164.28C248.508 163.94 248.929 163.454 249.191 162.881C249.452 162.308 249.544 161.672 249.455 161.049C249.365 160.425 249.098 159.841 248.686 159.365L243.908 153.833C243.599 153.475 243.217 153.188 242.787 152.991C242.357 152.795 241.89 152.693 241.418 152.694H111.97Z" fill="#BBB1A2"/>
<path d="M105.942 161.444C105.617 161.444 105.299 161.543 105.033 161.73C104.767 161.916 104.565 162.18 104.454 162.486C104.343 162.791 104.329 163.123 104.415 163.437C104.5 163.751 104.679 164.031 104.929 164.238C105.561 164.761 106.357 165.044 107.177 165.038H246.195C247.066 165.045 247.909 164.727 248.559 164.147C248.784 163.928 248.938 163.647 249.002 163.34C249.067 163.033 249.037 162.714 248.919 162.423C248.8 162.133 248.598 161.885 248.337 161.71C248.076 161.536 247.769 161.443 247.455 161.444H105.942Z" fill="#BBB1A2"/>
<path d="M240.476 147.911V74.522C240.476 73.4514 239.608 72.5835 238.538 72.5835L114.85 72.5835C113.779 72.5835 112.911 73.4514 112.911 74.522V147.911C112.911 148.981 113.779 149.849 114.85 149.849H238.538C239.608 149.849 240.476 148.981 240.476 147.911Z" fill="#EF4E23"/>
<path d="M134.774 117.758C134.901 117.889 134.986 118.054 135.021 118.232C135.055 118.411 135.036 118.596 134.967 118.764C134.898 118.932 134.782 119.077 134.632 119.18C134.482 119.283 134.306 119.34 134.124 119.344C133.87 119.347 133.624 119.252 133.438 119.079L129.266 114.843C129.222 114.843 129.206 114.8 129.191 114.756C129.178 114.743 129.163 114.732 129.147 114.724C129.127 114.687 129.112 114.647 129.103 114.605C129.092 114.6 129.081 114.592 129.074 114.581C129.066 114.571 129.061 114.559 129.06 114.546C129.06 114.518 129.06 114.475 129.028 114.459C128.996 114.443 129 114.399 129 114.383V114.28C129 114.253 129 114.237 129 114.193C129 114.149 129 114.134 129 114.118V114.015C129 113.983 129.028 113.967 129.028 113.955C129.028 113.943 129.028 113.88 129.06 113.836C129.091 113.793 129.06 113.836 129.06 113.804C129.08 113.759 129.104 113.715 129.131 113.674C129.131 113.665 129.134 113.657 129.14 113.651C129.146 113.645 129.154 113.642 129.163 113.642C129.182 113.6 129.212 113.565 129.25 113.539L133.422 109.307C133.602 109.135 133.841 109.04 134.09 109.04C134.339 109.04 134.578 109.135 134.758 109.307C134.847 109.395 134.917 109.499 134.965 109.614C135.013 109.728 135.037 109.851 135.037 109.976C135.037 110.1 135.013 110.223 134.965 110.338C134.917 110.452 134.847 110.556 134.758 110.644L131.241 114.213L134.774 117.758Z" fill="white"/>
<path d="M138.562 118.23L142.202 109.573C142.245 109.474 142.307 109.384 142.384 109.308C142.462 109.233 142.554 109.174 142.654 109.134C142.755 109.094 142.862 109.074 142.971 109.076C143.079 109.078 143.186 109.101 143.285 109.145C143.382 109.186 143.47 109.246 143.544 109.321C143.618 109.397 143.676 109.486 143.715 109.585C143.754 109.683 143.772 109.788 143.77 109.893C143.768 109.999 143.744 110.103 143.701 110.2L140.061 118.869C139.997 119.016 139.891 119.141 139.756 119.229C139.621 119.316 139.464 119.362 139.303 119.36C139.202 119.362 139.102 119.341 139.01 119.301C138.908 119.263 138.814 119.205 138.736 119.129C138.657 119.054 138.595 118.963 138.553 118.863C138.511 118.762 138.49 118.654 138.491 118.546C138.493 118.437 138.517 118.329 138.562 118.23Z" fill="white"/>
<path d="M150.886 114.74C150.857 114.78 150.822 114.814 150.783 114.844L146.611 119.079C146.431 119.25 146.192 119.345 145.943 119.345C145.695 119.345 145.455 119.25 145.275 119.079C145.187 118.991 145.117 118.887 145.069 118.773C145.021 118.658 144.996 118.535 144.996 118.411C144.996 118.286 145.021 118.163 145.069 118.049C145.117 117.934 145.187 117.83 145.275 117.742L148.793 114.173L145.275 110.604C145.187 110.517 145.117 110.413 145.069 110.298C145.021 110.183 144.996 110.06 144.996 109.936C144.996 109.812 145.021 109.689 145.069 109.574C145.117 109.459 145.187 109.355 145.275 109.268C145.455 109.096 145.694 109 145.943 109C146.192 109 146.431 109.096 146.611 109.268L150.783 113.499C150.822 113.529 150.856 113.564 150.886 113.602V113.634C150.915 113.676 150.94 113.719 150.962 113.765C150.962 113.765 150.962 113.765 150.962 113.797C150.97 113.842 150.984 113.886 151.005 113.927C151.005 113.927 151.005 113.927 151.005 113.975V114.078C151.005 114.078 151.005 114.138 151.005 114.153C151.005 114.169 151.005 114.213 151.005 114.225V114.344C151.005 114.344 151.005 114.344 151.005 114.376C150.987 114.418 150.972 114.461 150.962 114.506C150.962 114.506 150.962 114.506 150.962 114.554C150.962 114.602 150.918 114.681 150.886 114.74Z" fill="white"/>
<path opacity="0.7" d="M201.904 105.314C201.939 105.321 201.972 105.335 202.002 105.355C202.032 105.374 202.057 105.4 202.077 105.43C202.096 105.459 202.11 105.493 202.117 105.528C202.694 108.362 202.451 110.463 201.373 111.956C199.621 114.38 195.937 114.831 192.035 115.301C186.973 115.914 181.775 116.546 179.331 121.172C173.394 132.393 165.706 136.225 151.914 134.838C147.769 134.418 144.6 135.197 142.5 137.156C139.041 140.382 139.21 146.128 139.291 148.899L139.291 148.908C139.291 149.283 139.316 149.617 139.316 149.885C139.309 149.956 139.274 150.021 139.219 150.066L198.556 150.048C198.505 149.998 198.475 149.93 198.473 149.859V149.571C198.387 144.509 198.27 137.621 205.938 136.634C210.493 136.052 213.171 134.954 214.158 133.284C215.144 131.613 214.299 129.391 213.464 127.276C212.735 125.433 211.986 123.53 212.452 121.916C213.194 119.411 214.525 117.12 216.334 115.235L216.336 115.233C218.389 112.881 219.521 111.584 215.565 105.715C215.525 105.654 215.512 105.58 215.526 105.51C215.54 105.439 215.581 105.376 215.64 105.335L214.109 102.649H201.273L201.904 105.314Z" fill="url(#paint1_linear_8732_57794)"/>
<path opacity="0.3" d="M237.561 148.463H115.832C115.429 148.463 115.043 148.303 114.758 148.018C114.473 147.733 114.313 147.347 114.313 146.944V75.5042C114.313 75.1015 114.473 74.7153 114.758 74.4306C115.043 74.1458 115.429 73.9858 115.832 73.9858H237.561C237.964 73.9858 238.35 74.1458 238.635 74.4306C238.919 74.7153 239.079 75.1015 239.079 75.5042V146.939C239.08 147.139 239.041 147.337 238.965 147.522C238.889 147.707 238.777 147.875 238.636 148.016C238.495 148.158 238.328 148.27 238.143 148.347C237.959 148.423 237.761 148.463 237.561 148.463ZM115.832 74.244C115.664 74.244 115.499 74.277 115.344 74.341C115.189 74.4051 115.048 74.4991 114.93 74.6175C114.812 74.736 114.718 74.8766 114.654 75.0313C114.589 75.1861 114.556 75.3519 114.556 75.5194V146.939C114.558 147.277 114.693 147.6 114.932 147.838C115.171 148.076 115.494 148.21 115.832 148.21H237.561C237.897 148.208 238.22 148.074 238.458 147.836C238.696 147.598 238.83 147.276 238.831 146.939V75.5042C238.831 75.1668 238.698 74.8432 238.46 74.6041C238.221 74.3651 237.898 74.2301 237.561 74.2288L115.832 74.244Z" fill="white"/>
<path d="M196.357 100.978C196.357 103.508 220.854 103.508 220.854 100.978C220.854 86.9326 196.357 86.9326 196.357 100.978Z" fill="#EF4E23"/>
<path d="M208.605 103.134C205.779 103.158 202.954 102.999 200.148 102.658C196.504 102.152 196.099 101.458 196.099 100.977C196.099 93.5526 202.593 90.1716 208.621 90.1716C214.654 90.1716 221.142 93.5526 221.142 100.977C221.127 103.027 210.696 103.134 208.605 103.134ZM196.63 100.977C196.63 101.651 200.796 102.587 208.605 102.587C216.415 102.587 220.58 101.651 220.58 100.977C220.58 93.9271 214.375 90.7183 208.605 90.7183C202.835 90.7183 196.63 93.9271 196.63 100.977Z" fill="white"/>
<path d="M222.873 69.1822C224.766 73.1553 226.988 82.3416 227.332 89.6349C227.346 89.9038 227.287 90.1714 227.163 90.4103C227.039 90.6492 226.854 90.8508 226.626 90.9945C226.399 91.1382 226.137 91.2188 225.868 91.228C225.599 91.2372 225.332 91.1747 225.095 91.047C224.54 90.7407 223.935 90.5335 223.308 90.4346C222.575 90.3232 222.013 89.2958 221.998 88.0558L221.755 69.8351C221.744 68.8583 222.499 68.4079 222.873 69.1822Z" fill="white"/>
<path d="M225.809 91.5027C225.517 91.5019 225.23 91.4288 224.973 91.2901C224.444 90.9992 223.869 90.8007 223.273 90.703C222.402 90.5714 221.754 89.4681 221.754 88.0762L221.517 69.8556C221.478 69.5855 221.529 69.3101 221.663 69.0722C221.796 68.8343 222.005 68.6471 222.256 68.5396C222.439 68.5123 222.627 68.5505 222.785 68.6477C222.943 68.7449 223.062 68.8948 223.121 69.0711C224.999 73.0138 227.251 82.2304 227.605 89.6199C227.615 89.8605 227.576 90.1005 227.491 90.3257C227.406 90.551 227.276 90.7568 227.11 90.931C226.944 91.1052 226.744 91.2443 226.523 91.3399C226.302 91.4355 226.065 91.4857 225.824 91.4875L225.809 91.5027ZM222.382 69.0508H222.357C222.215 69.0863 222.008 69.3646 222.013 69.8556L222.256 88.0762C222.256 89.1745 222.762 90.1007 223.349 90.202C224.004 90.305 224.636 90.5225 225.216 90.8447C225.414 90.9496 225.636 91.0003 225.859 90.9917C226.082 90.9831 226.3 90.9154 226.488 90.7956C226.677 90.6757 226.831 90.508 226.934 90.3095C227.036 90.111 227.085 89.8888 227.074 89.6655C226.725 82.3165 224.498 73.2061 222.64 69.3089C222.61 69.2432 222.534 69.0508 222.382 69.0508Z" fill="#EF4E23"/>
<path d="M223.227 93.2033C223.227 96.8271 193.983 96.8271 193.983 93.2033V52.8951C193.931 44.2712 195.921 35.7573 199.789 28.0493C202.218 23.2765 205.26 19.2578 208.605 19.2578C211.951 19.2578 214.993 23.2765 217.422 28.0493C221.29 35.7573 223.279 44.2712 223.227 52.8951V93.2033Z" fill="white"/>
<path d="M208.605 96.1796C205.219 96.2142 201.834 95.9858 198.483 95.4963C195.264 94.9649 193.7 94.2158 193.7 93.2036V52.8955C193.666 44.2299 195.674 35.6781 199.561 27.9332C202.598 22.0064 205.634 19 208.605 19C211.576 19 214.633 22.0064 217.65 27.9332C221.528 35.6803 223.527 44.2319 223.486 52.8955V93.2036C223.486 96.0936 210.129 96.1796 208.605 96.1796ZM208.605 19.5163C205.832 19.5163 202.942 22.4265 200.001 28.166C196.16 35.8411 194.18 44.3128 194.221 52.8955V93.2036C194.221 94.5853 200.533 95.6633 208.59 95.6633C216.648 95.6633 222.959 94.5853 222.959 93.2036V52.8955C223.002 44.3209 221.027 35.8565 217.194 28.1862C214.269 22.4265 211.399 19.5163 208.605 19.5163Z" fill="#EF4E23"/>
<path d="M208.605 38.7237C203.888 38.7237 199.551 37.4381 196.706 35.1808L197.025 34.7759C199.738 36.9168 204.07 38.1922 208.605 38.1922C213.14 38.1922 217.473 36.9168 220.185 34.7759L220.504 35.1808C217.66 37.4381 213.322 38.7237 208.605 38.7237Z" fill="#EF4E23"/>
<path d="M194.945 69.1828C191.675 73.2622 187.859 82.8483 187.424 90.2175C187.406 90.4808 187.457 90.7441 187.573 90.9815C187.688 91.2189 187.863 91.4222 188.08 91.5714C188.298 91.7206 188.551 91.8105 188.814 91.8322C189.077 91.854 189.341 91.8068 189.58 91.6954C191.032 91.0116 192.592 90.5868 194.191 90.4402C194.787 90.3843 195.341 90.1108 195.748 89.672C196.155 89.2332 196.386 88.6598 196.397 88.0614L196.797 69.8408C196.798 69.6252 196.731 69.4148 196.607 69.2387C196.483 69.0625 196.307 68.9292 196.104 68.857C195.901 68.7849 195.68 68.7774 195.473 68.8358C195.265 68.8941 195.081 69.0154 194.945 69.1828Z" fill="white"/>
<path d="M188.942 92.115C188.592 92.1142 188.25 92.0084 187.96 91.8113C187.7 91.6379 187.49 91.3996 187.351 91.1199C187.211 90.8402 187.148 90.5289 187.166 90.217C187.591 82.7819 191.498 73.0845 194.758 69.0355C194.927 68.8217 195.16 68.6666 195.422 68.5917C195.685 68.5169 195.964 68.5263 196.221 68.6184C196.478 68.7106 196.7 68.8809 196.855 69.1055C197.01 69.3301 197.091 69.5977 197.086 69.8706L196.681 88.0912C196.669 88.7523 196.414 89.3859 195.965 89.8713C195.516 90.3566 194.905 90.6598 194.246 90.7231C192.667 90.861 191.124 91.2792 189.691 91.9581C189.457 92.0664 189.201 92.1201 188.942 92.115ZM195.142 69.3392C191.949 73.3325 188.097 82.8933 187.677 90.2322C187.664 90.4555 187.71 90.6782 187.81 90.8781C187.911 91.078 188.062 91.248 188.249 91.371C188.427 91.4925 188.634 91.5653 188.848 91.5822C189.063 91.599 189.279 91.5594 189.474 91.4671C190.955 90.7602 192.551 90.3248 194.186 90.1816C194.718 90.1306 195.214 89.8851 195.577 89.4921C195.94 89.099 196.146 88.5859 196.155 88.0507L196.554 69.8301C196.562 69.6661 196.517 69.504 196.426 69.3674C196.335 69.2308 196.203 69.1269 196.048 69.0709C195.892 69.0111 195.72 69.0034 195.558 69.049C195.397 69.0946 195.255 69.191 195.152 69.324L195.142 69.3392Z" fill="#EF4E23"/>
<path d="M213.267 70.1897C217.957 70.1897 221.76 64.7467 221.76 58.0325C221.76 51.3182 217.957 45.8752 213.267 45.8752C208.576 45.8752 204.774 51.3182 204.774 58.0325C204.774 64.7467 208.576 70.1897 213.267 70.1897Z" fill="#EF4E23"/>
<path d="M214.071 68.2055C217.686 68.2055 220.616 63.6508 220.616 58.0323C220.616 52.4138 217.686 47.8591 214.071 47.8591C210.457 47.8591 207.527 52.4138 207.527 58.0323C207.527 63.6508 210.457 68.2055 214.071 68.2055Z" fill="white"/>
<path d="M139.023 150.128C138.95 150.128 138.88 150.099 138.828 150.048C138.776 149.997 138.746 149.928 138.744 149.855C138.744 149.591 138.744 149.263 138.744 148.893C138.658 146.044 138.481 140.122 142.13 136.746C144.352 134.676 147.662 133.846 151.97 134.281C165.498 135.653 173.035 131.902 178.845 120.914C181.426 116.035 187.024 115.347 191.969 114.76C195.75 114.299 199.318 113.869 200.927 111.637C201.909 110.275 202.122 108.312 201.58 105.639C201.573 105.604 201.573 105.567 201.58 105.531C201.587 105.496 201.601 105.462 201.621 105.432C201.641 105.401 201.668 105.376 201.698 105.356C201.728 105.336 201.762 105.322 201.798 105.315C201.833 105.308 201.869 105.308 201.904 105.314C201.939 105.321 201.972 105.335 202.002 105.355C202.032 105.374 202.057 105.4 202.077 105.43C202.097 105.459 202.11 105.493 202.117 105.528C202.694 108.362 202.451 110.463 201.373 111.956C199.622 114.38 195.937 114.831 192.035 115.301C186.973 115.914 181.776 116.546 179.331 121.172C173.394 132.393 165.706 136.225 151.914 134.838C147.769 134.418 144.6 135.197 142.5 137.156C139.038 140.385 139.21 146.14 139.291 148.908C139.291 149.283 139.316 149.617 139.316 149.885C139.309 149.956 139.274 150.021 139.219 150.066C139.164 150.111 139.094 150.134 139.023 150.128Z" fill="white"/>
<path d="M198.746 150.127C198.675 150.126 198.607 150.098 198.556 150.048C198.505 149.998 198.475 149.93 198.473 149.859V149.571C198.387 144.509 198.27 137.621 205.938 136.634C210.493 136.052 213.171 134.954 214.158 133.283C215.144 131.613 214.299 129.391 213.464 127.276C212.735 125.433 211.986 123.53 212.452 121.916C213.194 119.411 214.525 117.12 216.334 115.235C218.389 112.881 219.523 111.586 215.565 105.715C215.526 105.654 215.512 105.58 215.526 105.509C215.54 105.439 215.581 105.376 215.64 105.335C215.67 105.315 215.704 105.301 215.739 105.294C215.774 105.287 215.811 105.287 215.846 105.294C215.881 105.301 215.915 105.315 215.945 105.335C215.975 105.355 216 105.381 216.02 105.411C220.211 111.631 218.905 113.124 216.744 115.594C214.992 117.424 213.702 119.645 212.978 122.073C212.553 123.505 213.236 125.241 213.96 127.073C214.846 129.315 215.757 131.628 214.618 133.562C213.54 135.389 210.716 136.573 206.014 137.181C198.837 138.102 198.928 144.727 199.029 149.56V149.849C199.03 149.885 199.024 149.921 199.01 149.954C198.997 149.987 198.978 150.018 198.953 150.044C198.928 150.07 198.898 150.09 198.865 150.105C198.832 150.119 198.797 150.127 198.761 150.127H198.746Z" fill="white"/>
<path d="M173.612 89.0696H173.44C173.09 88.185 172.493 87.4203 171.719 86.8672C170.945 86.3141 170.028 85.9963 169.077 85.9518C168.566 85.9254 168.054 85.9766 167.559 86.1037C167.125 85.0783 166.366 84.2237 165.4 83.671C164.433 83.1182 163.312 82.8979 162.208 83.0439C161.104 83.1899 160.079 83.694 159.289 84.4789C158.499 85.2639 157.989 86.2863 157.836 87.3892C156.816 87.4244 155.849 87.8506 155.135 88.5794C154.421 89.3083 154.015 90.284 154 91.3043C153.986 92.3245 154.365 93.3112 155.058 94.0598C155.752 94.8085 156.706 95.2616 157.725 95.3253L173.288 96.0845C173.749 96.1068 174.209 96.0382 174.643 95.8826C175.076 95.7271 175.475 95.4876 175.816 95.1779C176.158 94.8681 176.434 94.4942 176.631 94.0775C176.828 93.6608 176.941 93.2094 176.963 92.7492C176.985 92.2889 176.916 91.8287 176.761 91.395C176.605 90.9612 176.366 90.5623 176.056 90.2211C175.746 89.8799 175.373 89.603 174.956 89.4063C174.539 89.2096 174.088 89.0969 173.627 89.0747L173.612 89.0696Z" fill="white"/>
<path d="M234.428 50.1719H231.467V59.0797H234.428V50.1719Z" fill="#EF4E23"/>
<path d="M234.428 59.7026H231.467V61.3779H234.428V59.7026Z" fill="#EF4E23"/>
<path d="M234.428 62.4001H231.467V63.2403H234.428V62.4001Z" fill="#EF4E23"/>
<path d="M234.428 64.7688H231.467V65.1889H234.428V64.7688Z" fill="#EF4E23"/>
<path d="M229.994 50.992L232.945 45.8801L235.896 50.992H229.994Z" fill="#EF4E23"/>
<path d="M121.632 45.026C121.528 45.025 121.427 44.9909 121.344 44.9287C121.261 44.8664 121.2 44.7793 121.17 44.6799C121.139 44.5559 121.158 44.4245 121.222 44.3142C121.287 44.2039 121.393 44.1235 121.516 44.0903L143.563 38.1556C143.683 38.1342 143.806 38.1583 143.909 38.2232C144.012 38.2881 144.087 38.3891 144.119 38.5063C144.151 38.6236 144.138 38.7486 144.083 38.8568C144.027 38.9651 143.933 39.0487 143.82 39.0913L121.721 45.0132L121.632 45.026Z" fill="#263238"/>
<path d="M142.23 39.4244C142.072 39.1442 142.002 38.8237 142.026 38.5034C142.051 38.183 142.17 37.8771 142.368 37.6242C142.566 37.3713 142.834 37.1826 143.139 37.0819C143.445 36.9813 143.773 36.9732 144.082 37.0586C144.392 37.1441 144.669 37.3192 144.88 37.5621C145.09 37.8049 145.224 38.1045 145.264 38.4233C145.305 38.742 145.25 39.0656 145.107 39.3532C144.964 39.6408 144.739 39.8796 144.46 40.0396C144.274 40.1485 144.068 40.219 143.854 40.247C143.64 40.2749 143.423 40.2598 143.215 40.2024C143.007 40.1451 142.813 40.0467 142.644 39.9131C142.474 39.7794 142.334 39.6133 142.23 39.4244Z" fill="#E37E26"/>
<path d="M120.208 45.3593C119.997 44.9801 119.944 44.5324 120.061 44.1143C120.179 43.6962 120.458 43.3418 120.836 43.1289C121.022 43.0221 121.227 42.9532 121.44 42.9263C121.652 42.8995 121.868 42.9151 122.074 42.9724C122.28 43.0296 122.473 43.1274 122.642 43.2599C122.81 43.3924 122.95 43.557 123.054 43.7442C123.18 43.9317 123.266 44.1432 123.307 44.3654C123.347 44.5877 123.341 44.816 123.29 45.0359C123.238 45.2558 123.141 45.4626 123.006 45.6435C122.87 45.8243 122.699 45.9752 122.502 46.0867C122.306 46.1982 122.089 46.268 121.864 46.2915C121.639 46.3151 121.412 46.2921 121.197 46.2238C120.981 46.1555 120.782 46.0434 120.612 45.8947C120.442 45.7459 120.305 45.5636 120.208 45.3593Z" fill="#E37E26"/>
<path d="M278.188 138.067C277.371 138.064 276.567 137.866 275.842 137.49C274.667 136.853 273.787 135.783 273.389 134.507C272.992 133.23 273.108 131.85 273.714 130.658C274.348 129.489 275.416 128.617 276.688 128.229C277.959 127.841 279.333 127.969 280.511 128.585C281.689 129.201 282.578 130.256 282.985 131.521C283.392 132.787 283.285 134.162 282.687 135.349C282.252 136.166 281.604 136.85 280.812 137.329C280.02 137.807 279.113 138.062 278.188 138.067ZM278.188 129.235C277.52 129.235 276.864 129.412 276.287 129.749C275.71 130.085 275.233 130.569 274.905 131.15C274.576 131.732 274.408 132.39 274.418 133.058C274.427 133.725 274.614 134.379 274.959 134.95C275.304 135.522 275.795 135.992 276.381 136.312C276.967 136.632 277.628 136.79 278.295 136.771C278.963 136.751 279.613 136.555 280.18 136.202C280.747 135.848 281.209 135.351 281.52 134.76C281.976 133.867 282.065 132.831 281.768 131.873C281.471 130.915 280.812 130.111 279.931 129.633C279.387 129.374 278.79 129.247 278.188 129.261V129.235Z" fill="#EF4E23"/>
<path d="M294.736 117.558C294.617 117.555 294.504 117.509 294.415 117.43L268.549 94.0754C268.475 93.9855 268.436 93.8724 268.439 93.7564C268.441 93.6404 268.485 93.5291 268.562 93.4426C268.639 93.356 268.745 93.2999 268.86 93.2843C268.975 93.2687 269.092 93.2947 269.189 93.3576L294.377 116.097L297.851 88.6533C297.858 88.5908 297.879 88.5305 297.91 88.4759C297.942 88.4213 297.984 88.3735 298.034 88.3353C298.084 88.2971 298.141 88.2693 298.202 88.2535C298.263 88.2377 298.327 88.2341 298.389 88.2432C298.451 88.251 298.512 88.2713 298.566 88.3027C298.621 88.3342 298.669 88.3762 298.707 88.4263C298.745 88.4764 298.773 88.5336 298.789 88.5946C298.805 88.6556 298.808 88.7191 298.799 88.7815L295.21 117.135C295.2 117.222 295.166 117.304 295.112 117.372C295.057 117.44 294.985 117.491 294.902 117.52C294.851 117.546 294.794 117.559 294.736 117.558Z" fill="#263238"/>
<path d="M278.188 133.491C278.123 133.49 278.058 133.477 277.999 133.45C277.939 133.424 277.886 133.385 277.842 133.337C277.753 133.246 277.704 133.124 277.704 132.997C277.704 132.871 277.753 132.749 277.842 132.658L294.364 116.725C294.455 116.636 294.577 116.587 294.704 116.587C294.831 116.587 294.952 116.636 295.043 116.725C295.089 116.769 295.125 116.822 295.149 116.88C295.174 116.939 295.187 117.001 295.187 117.065C295.187 117.128 295.174 117.191 295.149 117.249C295.125 117.307 295.089 117.36 295.043 117.404L278.521 133.337C278.479 133.384 278.428 133.422 278.37 133.449C278.313 133.475 278.251 133.489 278.188 133.491Z" fill="#263238"/>
<path d="M272.279 95.4983C271.935 96.1805 271.395 96.7447 270.729 97.1189C270.063 97.4931 269.3 97.6604 268.539 97.5995C267.777 97.5385 267.051 97.252 266.453 96.7766C265.854 96.3011 265.412 95.6582 265.18 94.93C264.949 94.2017 264.94 93.4211 265.154 92.6877C265.369 91.9543 265.797 91.3014 266.384 90.8122C266.971 90.3231 267.69 90.0199 268.45 89.9413C269.21 89.8627 269.976 90.0123 270.651 90.3711C271.539 90.8432 272.206 91.6443 272.511 92.6027C272.815 93.561 272.732 94.6005 272.279 95.4983Z" fill="#E37E26"/>
<path d="M300.735 89.9737C300.486 90.4502 300.102 90.8424 299.631 91.1006C299.159 91.3589 298.622 91.4715 298.087 91.4244C297.551 91.3772 297.042 91.1724 296.623 90.8357C296.204 90.4991 295.894 90.0458 295.733 89.5331C295.572 89.0205 295.566 88.4715 295.717 87.9556C295.867 87.4397 296.167 86.9801 296.579 86.6348C296.991 86.2896 297.496 86.0742 298.031 86.016C298.565 85.9578 299.104 86.0593 299.581 86.3077C299.897 86.4726 300.178 86.6983 300.408 86.9718C300.637 87.2453 300.81 87.5613 300.917 87.9017C301.024 88.2422 301.063 88.6003 301.032 88.9558C301.001 89.3113 300.9 89.6572 300.735 89.9737Z" fill="#263238"/>
<path d="M41.9584 145.619H41.8302C40.4986 145.589 39.2331 145.033 38.3107 144.072C37.3883 143.111 36.884 141.824 36.9081 140.492C36.9383 139.159 37.4943 137.893 38.4548 136.968C39.4153 136.044 40.7023 135.537 42.0353 135.557C43.333 135.637 44.5502 136.213 45.4349 137.166C46.3196 138.118 46.8039 139.375 46.7874 140.675C46.7709 141.975 46.255 143.219 45.3464 144.149C44.4379 145.079 43.2064 145.624 41.9071 145.671L41.9584 145.619ZM41.9584 136.788C40.9742 136.788 40.0291 137.172 39.3248 137.86C38.6206 138.547 38.2133 139.483 38.1899 140.467C38.1692 141.464 38.5449 142.429 39.2344 143.15C39.924 143.87 40.8713 144.288 41.8686 144.312C42.3644 144.331 42.8589 144.249 43.3218 144.071C43.7847 143.892 44.2062 143.621 44.5604 143.274C45.1042 142.756 45.4811 142.089 45.6429 141.356C45.8047 140.623 45.744 139.859 45.4686 139.16C45.1932 138.462 44.7156 137.862 44.0971 137.437C43.4786 137.012 42.7473 136.782 41.9968 136.775L41.9584 136.788Z" fill="#E37E26"/>
<path d="M25.6661 140.492C25.5472 140.494 25.4321 140.451 25.3424 140.373C25.2527 140.295 25.1946 140.187 25.179 140.069L23.7049 126.739C23.6921 126.675 23.6921 126.61 23.7049 126.546L28.8321 108.729C28.8754 108.619 28.9587 108.528 29.0655 108.476C29.1724 108.424 29.2949 108.414 29.4089 108.447C29.533 108.483 29.6377 108.567 29.7002 108.68C29.7627 108.793 29.7778 108.926 29.7422 109.05L24.6919 126.777L26.166 140.005C26.1772 140.132 26.1397 140.258 26.0611 140.358C25.9825 140.458 25.8687 140.525 25.743 140.544L25.6661 140.492Z" fill="#263238"/>
<path d="M41.9583 141.005C41.8518 141.003 41.7487 140.967 41.6635 140.903L23.8849 127.047C23.7854 126.966 23.7216 126.85 23.7072 126.723C23.6928 126.596 23.729 126.468 23.808 126.367C23.8467 126.318 23.8946 126.278 23.9491 126.247C24.0035 126.217 24.0634 126.198 24.1253 126.191C24.1872 126.183 24.2499 126.189 24.3098 126.206C24.3697 126.223 24.4257 126.252 24.4745 126.29L42.2275 140.147C42.3253 140.225 42.3891 140.338 42.4058 140.462C42.4226 140.586 42.3908 140.712 42.3172 140.813C42.2748 140.869 42.2207 140.915 42.1588 140.949C42.0968 140.982 42.0285 141.001 41.9583 141.005Z" fill="#263238"/>
<path d="M25.4103 108.755C25.4282 107.994 25.6711 107.257 26.1084 106.634C26.5457 106.012 27.1575 105.534 27.8668 105.259C28.576 104.985 29.3506 104.927 30.0928 105.092C30.835 105.258 31.5113 105.64 32.0364 106.19C32.5614 106.741 32.9116 107.434 33.0426 108.183C33.1735 108.932 33.0794 109.703 32.7722 110.399C32.465 111.095 31.9584 111.684 31.3165 112.091C30.6746 112.499 29.9262 112.707 29.1659 112.69C28.6609 112.678 28.1631 112.567 27.701 112.363C27.2389 112.159 26.8216 111.866 26.4728 111.5C26.124 111.135 25.8506 110.704 25.6683 110.233C25.486 109.762 25.3983 109.26 25.4103 108.755Z" fill="#EF4E23"/>
<path d="M23.0005 139.928C23.0109 139.387 23.1817 138.862 23.4913 138.418C23.801 137.975 24.2354 137.633 24.7396 137.437C25.2437 137.24 25.7948 137.198 26.3229 137.316C26.851 137.433 27.3324 137.705 27.7058 138.096C28.0792 138.488 28.3279 138.981 28.4204 139.514C28.5128 140.047 28.4447 140.596 28.2249 141.09C28.005 141.585 27.6432 142.002 27.1855 142.291C26.7277 142.579 26.1946 142.725 25.6538 142.71C24.9342 142.69 24.2516 142.386 23.7547 141.865C23.2578 141.344 22.9867 140.648 23.0005 139.928Z" fill="#263238"/>
</g>
<defs>
<linearGradient id="paint0_linear_8732_57794" x1="161" y1="59" x2="161" y2="227.5" gradientUnits="userSpaceOnUse">
<stop stop-color="#FAF7F2"/>
<stop offset="1" stop-color="white"/>
</linearGradient>
<linearGradient id="paint1_linear_8732_57794" x1="189.812" y1="122.363" x2="181.101" y2="159.955" gradientUnits="userSpaceOnUse">
<stop stop-color="#FFB8A5"/>
<stop offset="1" stop-color="#FFB8A5"/>
</linearGradient>
<clipPath id="clip0_8732_57794">
<rect width="322" height="200" fill="white"/>
</clipPath>
</defs>
</svg>
