<svg width="627" height="500" viewBox="0 0 627 500" fill="none" xmlns="http://www.w3.org/2000/svg">
<path d="M453.498 439.392H411.045V439.712H453.498V439.392Z" fill="#F6ECDE"/>
<path d="M555.504 442.198H544.365V442.519H555.504V442.198Z" fill="#F6ECDE"/>
<path d="M479.377 451.287H454.78V451.607H479.377V451.287Z" fill="#F6ECDE"/>
<path d="M315.473 446.954H260.112V447.274H315.473V446.954Z" fill="#F6ECDE"/>
<path d="M248.691 446.954H240.578V447.274H248.691V446.954Z" fill="#F6ECDE"/>
<path d="M214.198 441.545H94.1187V441.866H214.198V441.545Z" fill="#F6ECDE"/>
<path d="M298.81 373.494H51.3063C49.3674 373.491 47.509 372.718 46.1392 371.346C44.7694 369.974 44 368.114 44 366.175V18.255C44.0169 16.3272 44.7937 14.4839 46.1617 13.1255C47.5297 11.7671 49.3784 11.0033 51.3063 11H298.81C300.751 11 302.613 11.7711 303.985 13.1437C305.358 14.5163 306.129 16.378 306.129 18.3191V366.175C306.129 368.116 305.358 369.978 303.985 371.35C302.613 372.723 300.751 373.494 298.81 373.494ZM51.3063 11.2564C49.4523 11.2598 47.6755 11.9986 46.3658 13.3107C45.056 14.6229 44.3204 16.4011 44.3205 18.255V366.175C44.3204 368.029 45.056 369.807 46.3658 371.119C47.6755 372.431 49.4523 373.17 51.3063 373.174H298.81C300.665 373.17 302.443 372.432 303.755 371.12C305.067 369.808 305.805 368.03 305.808 366.175V18.255C305.805 16.3999 305.067 14.6217 303.755 13.31C302.443 11.9982 300.665 11.2598 298.81 11.2564H51.3063Z" fill="#EEE9E2"/>
<path d="M576.077 373.494H328.56C326.62 373.491 324.761 372.718 323.389 371.347C322.017 369.975 321.245 368.115 321.241 366.175V18.255C321.262 16.326 322.041 14.4828 323.411 13.1247C324.781 11.7667 326.631 11.0033 328.56 11H576.077C578.002 11.0067 579.848 11.772 581.213 13.13C582.578 14.4881 583.353 16.3294 583.37 18.255V366.175C583.37 368.112 582.603 369.969 581.236 371.341C579.868 372.713 578.013 373.487 576.077 373.494ZM328.56 11.2564C326.705 11.2598 324.927 11.9982 323.615 13.31C322.304 14.6217 321.565 16.3999 321.562 18.255V366.175C321.565 368.03 322.304 369.808 323.615 371.12C324.927 372.432 326.705 373.17 328.56 373.174H576.077C577.932 373.17 579.71 372.432 581.022 371.12C582.334 369.808 583.072 368.03 583.075 366.175V18.255C583.072 16.3999 582.334 14.6217 581.022 13.31C579.71 11.9982 577.932 11.2598 576.077 11.2564H328.56Z" fill="#EEE9E2"/>
<path d="M199.393 315.582L553.889 315.582V43.9168L199.393 43.9168L199.393 315.582Z" fill="#E4E2DE"/>
<path d="M179.243 37.4949H566.053C566.304 37.4863 566.554 37.5284 566.789 37.6186C567.023 37.7088 567.237 37.8452 567.418 38.0199C567.599 38.1945 567.742 38.4037 567.84 38.6351C567.938 38.8664 567.989 39.1151 567.989 39.3664C567.989 39.6115 567.94 39.8543 567.846 40.0806C567.752 40.3069 567.614 40.5124 567.44 40.6852C567.266 40.8579 567.059 40.9946 566.832 41.0872C566.605 41.1799 566.362 41.2267 566.117 41.225H179.243C178.998 41.2267 178.755 41.1799 178.528 41.0872C178.301 40.9946 178.095 40.8579 177.921 40.6852C177.747 40.5124 177.609 40.3069 177.514 40.0806C177.42 39.8543 177.372 39.6115 177.372 39.3664C177.372 38.87 177.569 38.394 177.92 38.0431C178.271 37.6921 178.747 37.4949 179.243 37.4949Z" fill="#E4E2DE"/>
<path d="M191.42 315.582L550.159 315.582V43.9168L191.42 43.9168L191.42 315.582Z" fill="#EEE9E2"/>
<path d="M538.981 304.418V55.094L202.585 55.094V304.418H538.981Z" fill="#FDFBF9"/>
<path d="M469.879 304.418L392.279 55.094H347.121L424.734 304.418H469.879Z" fill="white"/>
<path d="M393.253 304.418L315.64 55.094H298.041L375.641 304.418H393.253Z" fill="white"/>
<path d="M203.995 304.418L203.995 55.094H202.572L202.572 304.418H203.995Z" fill="#E4E2DE"/>
<path d="M91.6576 178.404H171.078V78.5638L91.6576 78.5638L91.6576 178.404Z" fill="#EEE9E2"/>
<path d="M74.1095 178.404H168.027V78.5638L74.1095 78.5638L74.1095 178.404Z" fill="#EEE9E2"/>
<path d="M81.98 86.4341V170.533H160.157V86.4341H81.98Z" fill="white"/>
<path d="M516.486 424.253H532.188V340.065H516.486V424.253Z" fill="#EEE9E2"/>
<path d="M289.222 432.073L525.689 432.073V424.253L289.222 424.253V432.073Z" fill="#EEE9E2"/>
<path d="M516.473 340.077H282.736V424.266H516.473V340.077Z" fill="#FDFBF9"/>
<path d="M503.194 350.319H296.041V376.224H503.194V350.319Z" fill="#EEE9E2"/>
<path d="M503.194 383.594H296.041V409.5H503.194V383.594Z" fill="#EEE9E2"/>
<path d="M341.378 352.652H457.843C459.146 352.652 460.202 351.596 460.202 350.293V349.46C460.202 348.158 459.146 347.102 457.843 347.102H341.378C340.076 347.102 339.02 348.158 339.02 349.46V350.293C339.02 351.596 340.076 352.652 341.378 352.652Z" fill="#FDFBF9"/>
<path d="M341.378 385.927H457.843C459.146 385.927 460.202 384.872 460.202 383.569V382.736C460.202 381.433 459.146 380.377 457.843 380.377H341.378C340.076 380.377 339.02 381.433 339.02 382.736V383.569C339.02 384.872 340.076 385.927 341.378 385.927Z" fill="#FDFBF9"/>
<path d="M278.224 340.077L516.473 340.077V332.528L278.224 332.528V340.077Z" fill="#EEE9E2"/>
<path d="M536.918 332.528H516.486V340.078H536.918V332.528Z" fill="#E4E2DE"/>
<path d="M123.549 392.414H131.163C131.163 385.607 131.163 350.845 131.701 311.275C132.162 274.603 132.983 259.913 133.726 254.299L127.612 264.964C125.484 273.308 121.946 287.575 121.639 296.342C120.639 323.927 124.484 363.496 123.549 392.414Z" fill="#E4E2DE"/>
<path d="M117.768 259.913C107.629 240.084 87.312 229.727 66.6493 219.934C58.5227 216.088 81.3388 263.515 97.9381 285.088C110.756 301.751 123.279 301.431 127.022 317.941C127.74 298.816 126.51 277.013 117.768 259.913Z" fill="#E4E2DE"/>
<path d="M137.033 293.471C146.006 281.743 160.824 278.743 175.872 276.244C181.768 275.269 161.247 303.623 147.672 315.185C137.162 324.157 128.791 321.312 124.484 332.053C126.112 318.53 129.291 303.572 137.033 293.471Z" fill="#E4E2DE"/>
<path d="M118.922 315.89C111.936 306.776 100.438 304.443 88.7479 302.508C84.159 301.752 100.13 323.76 110.628 332.733C118.793 339.719 125.292 337.501 128.574 345.846C127.42 335.36 124.946 323.76 118.922 315.89Z" fill="#E4E2DE"/>
<path d="M133.303 351.601C138.123 345.448 145.968 343.91 153.94 342.628C157.068 342.141 146.07 357.036 138.854 363.137C133.252 367.829 128.843 366.278 126.51 371.943C127.407 364.778 129.163 356.908 133.303 351.601Z" fill="#E4E2DE"/>
<path d="M128.766 260.657C134.38 241.212 156.53 210.961 179.333 204.655C188.305 202.219 156.119 251.428 145.096 275.91C136.521 294.984 128.432 306.558 127.317 320.222C121.626 303.046 123.203 280.102 128.766 260.657Z" fill="#E4E2DE"/>
<path d="M130.663 430.663C114.871 430.663 101.822 428.317 100.912 412.564L98.3488 385.646H163.093L160.529 412.564C159.491 428.317 146.442 430.663 130.663 430.663Z" fill="#EEE9E2"/>
<path d="M167.22 391.119H94.0928L92.0034 376.211H169.309L167.22 391.119Z" fill="#EEE9E2"/>
<path d="M315.473 488.549C452.732 488.549 564.002 482.052 564.002 474.039C564.002 466.025 452.732 459.529 315.473 459.529C178.215 459.529 66.9443 466.025 66.9443 474.039C66.9443 482.052 178.215 488.549 315.473 488.549Z" fill="#EEE9E2"/>
<path d="M481.133 117.941C481.074 117.953 481.013 117.953 480.954 117.941C480.791 117.893 480.653 117.783 480.572 117.634C480.49 117.485 480.471 117.309 480.518 117.146C491.99 78.9357 483.748 45.3652 458.471 27.1764C435.296 10.5771 403.687 10.8334 379.807 27.843C312.243 75.9491 260.599 85.2678 207.071 59.0293C206.995 58.9922 206.928 58.9406 206.872 58.8774C206.816 58.8142 206.773 58.7407 206.746 58.6609C206.718 58.5812 206.707 58.4968 206.712 58.4127C206.717 58.3285 206.739 58.2462 206.776 58.1705C206.813 58.0947 206.865 58.027 206.928 57.9712C206.991 57.9154 207.065 57.8726 207.145 57.8452C207.224 57.8178 207.309 57.8064 207.393 57.8116C207.477 57.8169 207.559 57.8386 207.635 57.8756C260.676 83.8834 311.935 74.5391 379.063 26.7919C403.418 9.47473 435.604 9.21837 459.215 26.1382C484.966 44.5961 493.387 78.6921 481.749 117.518C481.703 117.644 481.619 117.752 481.509 117.828C481.399 117.904 481.267 117.944 481.133 117.941Z" fill="#EF4E23"/>
<path d="M438.719 314.365C425.764 314.304 413.004 311.2 401.47 305.302C354.043 281.422 317.152 282.499 302.937 308.173C302.897 308.248 302.843 308.313 302.777 308.366C302.711 308.419 302.636 308.459 302.555 308.483C302.474 308.507 302.389 308.514 302.305 308.505C302.221 308.496 302.14 308.47 302.066 308.43C301.918 308.346 301.809 308.208 301.761 308.046C301.713 307.883 301.731 307.708 301.809 307.558C316.409 281.204 353.876 279.935 402.046 304.149C413.563 310.109 426.358 313.174 439.325 313.078C452.292 312.982 465.041 309.728 476.468 303.597C504.783 288.869 526.035 259.17 530.611 227.971C530.624 227.888 530.653 227.807 530.696 227.735C530.74 227.663 530.797 227.6 530.865 227.55C530.933 227.5 531.01 227.464 531.092 227.444C531.173 227.424 531.259 227.42 531.342 227.433C531.509 227.461 531.658 227.553 531.758 227.689C531.859 227.826 531.903 227.995 531.88 228.163C527.24 259.798 505.719 289.856 477.057 304.764C465.241 311.015 452.086 314.309 438.719 314.365Z" fill="#EF4E23"/>
<path d="M518.254 239.481H518.037C517.877 239.424 517.747 239.305 517.674 239.151C517.602 238.997 517.594 238.821 517.652 238.661C531.406 200.861 511.781 185.761 492.798 171.149C474.853 157.305 456.202 142.949 466.803 109.699C466.827 109.618 466.868 109.543 466.923 109.478C466.977 109.413 467.044 109.36 467.119 109.322C467.195 109.284 467.277 109.261 467.361 109.255C467.446 109.249 467.53 109.261 467.61 109.289C467.69 109.313 467.764 109.354 467.827 109.407C467.891 109.461 467.943 109.526 467.982 109.6C468.02 109.674 468.043 109.755 468.05 109.838C468.056 109.921 468.046 110.004 468.021 110.083C457.753 142.487 475.122 155.844 493.644 170.097C512.986 184.979 532.995 200.374 518.921 239.059C518.877 239.196 518.786 239.314 518.664 239.391C518.543 239.468 518.398 239.5 518.254 239.481Z" fill="#EF4E23"/>
<path opacity="0.1" d="M506.116 245.647C496.746 277.5 461.009 301.905 428.682 294.356C389.485 285.139 368.822 251.736 375.769 219.268C382.717 186.799 418.902 203.476 451.396 196.516C493.08 187.53 515.435 213.781 506.116 245.647Z" fill="#EF4E23"/>
<path d="M319.562 62.6055C319.671 63.4757 319.518 64.3585 319.124 65.1419C318.73 65.9253 318.112 66.5738 317.349 67.005C316.585 67.4363 315.711 67.6308 314.836 67.5638C313.962 67.4968 313.127 67.1714 312.438 66.6289C311.749 66.0864 311.237 65.3513 310.967 64.5171C310.697 63.6828 310.681 62.7871 310.921 61.9437C311.161 61.1002 311.646 60.3473 312.315 59.7804C312.984 59.2135 313.807 58.8584 314.678 58.7601C315.834 58.6297 316.996 58.9602 317.91 59.68C318.824 60.3999 319.418 61.451 319.562 62.6055Z" fill="white"/>
<path d="M315.165 68.143C314.191 68.1418 313.238 67.8587 312.42 67.3278C311.603 66.797 310.957 66.041 310.56 65.151C310.162 64.2611 310.031 63.2752 310.182 62.3124C310.332 61.3495 310.758 60.4508 311.408 59.7246C312.058 58.9985 312.904 58.4758 313.845 58.2198C314.785 57.9637 315.779 57.9852 316.708 58.2816C317.636 58.5781 318.459 59.1368 319.077 59.8904C319.695 60.6439 320.081 61.5602 320.19 62.5287C320.321 63.8577 319.928 65.1852 319.095 66.2289C318.262 67.2726 317.054 67.9501 315.729 68.1173C315.542 68.1384 315.354 68.147 315.165 68.143ZM315.165 59.3113H314.755C314.015 59.3944 313.316 59.695 312.746 60.1752C312.177 60.6554 311.762 61.2937 311.555 62.0094C311.348 62.7251 311.358 63.486 311.583 64.1961C311.809 64.9063 312.239 65.5337 312.821 65.9991C313.403 66.4645 314.109 66.747 314.852 66.811C315.594 66.8749 316.339 66.7174 316.991 66.3584C317.644 65.9994 318.176 65.4549 318.519 64.7938C318.863 64.1327 319.003 63.3846 318.921 62.644C318.798 61.7307 318.352 60.8918 317.662 60.2801C316.973 59.6684 316.087 59.3246 315.165 59.3113Z" fill="#EF4E23"/>
<path d="M471.853 109.366C471.962 110.236 471.81 111.12 471.416 111.904C471.021 112.688 470.403 113.336 469.638 113.768C468.874 114.199 467.999 114.393 467.124 114.325C466.249 114.257 465.414 113.931 464.725 113.387C464.036 112.843 463.525 112.107 463.256 111.272C462.987 110.436 462.973 109.54 463.215 108.696C463.457 107.853 463.944 107.1 464.615 106.535C465.286 105.969 466.11 105.616 466.982 105.52C468.137 105.393 469.294 105.726 470.206 106.445C471.117 107.165 471.709 108.214 471.853 109.366Z" fill="white"/>
<path d="M467.405 114.916C466.591 114.924 465.787 114.736 465.062 114.367C464.336 113.999 463.71 113.46 463.236 112.798C462.762 112.136 462.456 111.369 462.341 110.563C462.227 109.757 462.309 108.936 462.58 108.168C462.851 107.401 463.303 106.71 463.897 106.154C464.492 105.598 465.212 105.194 465.996 104.975C466.781 104.757 467.606 104.731 468.402 104.899C469.199 105.068 469.943 105.426 470.571 105.943C471.616 106.787 472.288 108.006 472.443 109.34C472.583 110.672 472.197 112.006 471.366 113.057C470.522 114.064 469.316 114.7 468.008 114.826C467.809 114.871 467.608 114.901 467.405 114.916ZM467.405 106.084C467.265 106.071 467.123 106.071 466.982 106.084C466.484 106.13 466 106.277 465.559 106.515C465.119 106.753 464.731 107.077 464.419 107.469C464.107 107.856 463.876 108.301 463.737 108.779C463.598 109.256 463.556 109.756 463.611 110.25C463.74 111.237 464.245 112.135 465.022 112.756C465.799 113.378 466.786 113.674 467.777 113.583C468.782 113.472 469.703 112.97 470.341 112.186C470.651 111.8 470.881 111.357 471.017 110.881C471.154 110.406 471.194 109.908 471.135 109.417C471.04 108.492 470.604 107.636 469.912 107.016C469.22 106.395 468.322 106.054 467.392 106.059L467.405 106.084Z" fill="#EF4E23"/>
<path d="M515.883 273.77C515.99 274.637 515.836 275.517 515.441 276.296C515.047 277.076 514.429 277.721 513.668 278.15C512.906 278.578 512.034 278.77 511.163 278.702C510.292 278.634 509.46 278.308 508.774 277.767C508.088 277.225 507.579 276.492 507.31 275.661C507.042 274.829 507.027 273.936 507.266 273.096C507.506 272.256 507.99 271.506 508.657 270.941C509.324 270.376 510.144 270.022 511.012 269.924C512.167 269.798 513.324 270.13 514.236 270.849C515.147 271.569 515.739 272.618 515.883 273.77Z" fill="white"/>
<path d="M511.487 279.346C510.509 279.345 509.552 279.061 508.733 278.528C507.913 277.996 507.265 277.237 506.867 276.344C506.469 275.451 506.338 274.462 506.489 273.496C506.641 272.53 507.07 271.629 507.723 270.901C508.376 270.174 509.225 269.65 510.169 269.395C511.113 269.14 512.11 269.163 513.041 269.463C513.972 269.762 514.796 270.324 515.414 271.082C516.032 271.839 516.418 272.76 516.524 273.731C516.597 274.391 516.539 275.059 516.354 275.697C516.168 276.334 515.859 276.929 515.444 277.447C515.028 277.965 514.515 278.396 513.932 278.715C513.35 279.034 512.711 279.235 512.051 279.307C511.864 279.333 511.675 279.346 511.487 279.346ZM511.487 270.514C511.346 270.502 511.204 270.502 511.064 270.514C510.324 270.6 509.627 270.902 509.059 271.384C508.491 271.865 508.079 272.504 507.874 273.22C507.669 273.935 507.68 274.695 507.907 275.405C508.133 276.114 508.565 276.74 509.147 277.204C509.729 277.668 510.435 277.949 511.177 278.013C511.918 278.076 512.662 277.918 513.314 277.559C513.966 277.2 514.497 276.655 514.841 275.995C515.184 275.334 515.324 274.587 515.242 273.847C515.132 272.842 514.63 271.921 513.845 271.283C513.172 270.771 512.346 270.5 511.499 270.514H511.487Z" fill="#EF4E23"/>
<path d="M470.661 273.155C470.255 273.926 469.63 274.56 468.864 274.976C468.098 275.392 467.226 275.572 466.358 275.493C465.49 275.413 464.665 275.079 463.987 274.531C463.309 273.983 462.809 273.246 462.549 272.414C462.29 271.582 462.283 270.692 462.529 269.855C462.775 269.019 463.264 268.275 463.933 267.716C464.602 267.158 465.422 266.81 466.289 266.717C467.155 266.624 468.03 266.79 468.802 267.194C469.319 267.46 469.777 267.827 470.151 268.271C470.524 268.716 470.806 269.231 470.979 269.786C471.152 270.34 471.213 270.924 471.158 271.502C471.104 272.08 470.935 272.642 470.661 273.155Z" fill="white"/>
<path d="M466.726 276.167C465.909 276.164 465.105 275.966 464.38 275.59C463.205 274.953 462.325 273.883 461.928 272.607C461.53 271.33 461.647 269.949 462.253 268.758C462.886 267.589 463.955 266.717 465.226 266.329C466.498 265.941 467.871 266.069 469.049 266.685C470.227 267.301 471.116 268.356 471.523 269.621C471.93 270.887 471.823 272.262 471.225 273.449C470.79 274.266 470.142 274.95 469.35 275.429C468.558 275.907 467.651 276.162 466.726 276.167ZM466.726 267.335C466.058 267.335 465.402 267.512 464.826 267.849C464.249 268.185 463.772 268.669 463.443 269.25C463.115 269.832 462.947 270.49 462.956 271.158C462.966 271.825 463.153 272.479 463.498 273.05C463.843 273.622 464.333 274.092 464.919 274.412C465.506 274.732 466.166 274.89 466.834 274.871C467.501 274.851 468.152 274.655 468.718 274.302C469.285 273.948 469.748 273.451 470.059 272.86C470.515 271.967 470.604 270.931 470.307 269.973C470.01 269.015 469.35 268.211 468.469 267.733C467.925 267.474 467.328 267.347 466.726 267.361V267.335Z" fill="#EF4E23"/>
<path d="M483.274 255.658C483.156 255.655 483.042 255.609 482.954 255.53L457.087 232.175C457.014 232.086 456.975 231.972 456.977 231.856C456.98 231.74 457.023 231.629 457.101 231.543C457.178 231.456 457.284 231.4 457.399 231.384C457.514 231.369 457.63 231.395 457.728 231.458L482.915 254.197L486.389 226.753C486.397 226.691 486.417 226.63 486.449 226.576C486.48 226.521 486.522 226.473 486.572 226.435C486.622 226.397 486.679 226.369 486.74 226.353C486.801 226.338 486.865 226.334 486.927 226.343C486.99 226.351 487.05 226.371 487.105 226.403C487.159 226.434 487.207 226.476 487.245 226.526C487.284 226.576 487.311 226.634 487.327 226.695C487.343 226.756 487.347 226.819 487.338 226.881L483.749 255.235C483.739 255.322 483.705 255.404 483.65 255.472C483.596 255.54 483.523 255.591 483.441 255.62C483.389 255.646 483.332 255.659 483.274 255.658Z" fill="#263238"/>
<path d="M466.726 271.591C466.661 271.59 466.596 271.576 466.537 271.55C466.477 271.523 466.424 271.485 466.38 271.437C466.291 271.346 466.242 271.224 466.242 271.097C466.242 270.97 466.291 270.848 466.38 270.757L482.902 254.825C482.993 254.736 483.115 254.687 483.242 254.687C483.369 254.687 483.491 254.736 483.582 254.825C483.627 254.869 483.663 254.922 483.688 254.98C483.712 255.038 483.725 255.101 483.725 255.164C483.725 255.228 483.712 255.29 483.688 255.349C483.663 255.407 483.627 255.46 483.582 255.504L467.059 271.437C467.017 271.484 466.966 271.522 466.909 271.548C466.851 271.575 466.789 271.589 466.726 271.591Z" fill="#263238"/>
<path d="M460.817 233.598C460.473 234.28 459.933 234.844 459.267 235.219C458.601 235.593 457.838 235.76 457.077 235.699C456.315 235.638 455.589 235.352 454.991 234.876C454.393 234.401 453.95 233.758 453.719 233.03C453.487 232.302 453.478 231.521 453.693 230.788C453.907 230.054 454.335 229.401 454.922 228.912C455.509 228.423 456.228 228.12 456.988 228.041C457.748 227.963 458.514 228.112 459.189 228.471C460.077 228.943 460.744 229.744 461.049 230.702C461.353 231.661 461.27 232.7 460.817 233.598Z" fill="#E37E26"/>
<path d="M489.273 228.074C489.024 228.55 488.64 228.942 488.169 229.2C487.697 229.459 487.16 229.571 486.625 229.524C486.089 229.477 485.58 229.272 485.161 228.936C484.742 228.599 484.432 228.146 484.271 227.633C484.11 227.12 484.104 226.571 484.255 226.055C484.405 225.54 484.706 225.08 485.118 224.735C485.529 224.389 486.034 224.174 486.569 224.116C487.103 224.058 487.643 224.159 488.119 224.408C488.436 224.573 488.717 224.798 488.946 225.072C489.175 225.345 489.348 225.661 489.455 226.002C489.562 226.342 489.601 226.7 489.57 227.056C489.539 227.411 489.438 227.757 489.273 228.074Z" fill="#263238"/>
<path d="M333.867 173.712C333.888 172.84 334.166 171.994 334.667 171.281C335.169 170.567 335.87 170.019 336.684 169.704C337.497 169.389 338.385 169.323 339.236 169.513C340.087 169.703 340.863 170.141 341.465 170.771C342.067 171.402 342.468 172.197 342.619 173.056C342.769 173.915 342.661 174.799 342.309 175.597C341.957 176.395 341.376 177.07 340.64 177.538C339.904 178.005 339.046 178.244 338.174 178.224C337.594 178.213 337.023 178.086 336.492 177.853C335.961 177.62 335.482 177.284 335.082 176.864C334.681 176.445 334.368 175.951 334.16 175.41C333.951 174.869 333.852 174.292 333.867 173.712Z" fill="white"/>
<path d="M338.276 178.916H338.148C336.816 178.886 335.551 178.33 334.629 177.369C333.706 176.408 333.202 175.121 333.226 173.789C333.256 172.456 333.812 171.19 334.773 170.265C335.733 169.341 337.02 168.834 338.353 168.854C339.651 168.934 340.868 169.51 341.753 170.463C342.637 171.415 343.122 172.672 343.105 173.972C343.089 175.272 342.573 176.516 341.664 177.446C340.756 178.376 339.524 178.921 338.225 178.968L338.276 178.916ZM338.276 170.085C337.292 170.084 336.347 170.469 335.643 171.157C334.939 171.844 334.531 172.78 334.508 173.763C334.487 174.761 334.863 175.726 335.552 176.447C336.242 177.167 337.189 177.585 338.186 177.609C338.682 177.628 339.177 177.546 339.64 177.368C340.103 177.189 340.524 176.918 340.878 176.571C341.422 176.053 341.799 175.386 341.961 174.653C342.123 173.92 342.062 173.155 341.786 172.457C341.511 171.759 341.034 171.159 340.415 170.734C339.796 170.309 339.065 170.079 338.315 170.072L338.276 170.085Z" fill="#E37E26"/>
<path d="M321.985 173.789C321.866 173.79 321.751 173.748 321.661 173.67C321.571 173.592 321.513 173.484 321.497 173.366L320.023 160.035C320.011 159.972 320.011 159.907 320.023 159.843L325.151 142.026C325.194 141.915 325.277 141.825 325.384 141.773C325.491 141.72 325.613 141.71 325.727 141.744C325.851 141.78 325.956 141.863 326.019 141.976C326.081 142.089 326.096 142.222 326.061 142.347L321.01 160.074L322.484 173.302C322.496 173.429 322.458 173.555 322.38 173.655C322.301 173.755 322.187 173.821 322.061 173.84L321.985 173.789Z" fill="#263238"/>
<path d="M338.277 174.302C338.17 174.299 338.067 174.263 337.982 174.199L320.203 160.343C320.104 160.263 320.04 160.146 320.025 160.019C320.011 159.892 320.047 159.764 320.126 159.664C320.165 159.615 320.213 159.574 320.267 159.544C320.322 159.514 320.382 159.494 320.444 159.487C320.505 159.48 320.568 159.485 320.628 159.502C320.688 159.519 320.744 159.548 320.793 159.587L338.546 173.443C338.643 173.521 338.707 173.634 338.724 173.758C338.741 173.883 338.709 174.008 338.635 174.11C338.593 174.166 338.539 174.212 338.477 174.245C338.415 174.278 338.347 174.298 338.277 174.302Z" fill="#263238"/>
<path d="M321.728 142.052C321.746 141.291 321.989 140.553 322.426 139.931C322.864 139.309 323.476 138.831 324.185 138.556C324.894 138.282 325.669 138.224 326.411 138.389C327.153 138.555 327.829 138.937 328.354 139.487C328.879 140.038 329.23 140.731 329.361 141.48C329.492 142.229 329.397 143 329.09 143.696C328.783 144.392 328.276 144.98 327.634 145.388C326.993 145.796 326.244 146.004 325.484 145.987C324.979 145.975 324.481 145.864 324.019 145.66C323.557 145.456 323.14 145.163 322.791 144.797C322.442 144.432 322.169 144.001 321.986 143.53C321.804 143.059 321.716 142.557 321.728 142.052Z" fill="#EF4E23"/>
<path d="M319.319 173.225C319.329 172.684 319.5 172.159 319.809 171.715C320.119 171.271 320.554 170.93 321.058 170.733C321.562 170.537 322.113 170.495 322.641 170.612C323.169 170.73 323.65 171.001 324.024 171.393C324.397 171.784 324.646 172.278 324.738 172.811C324.831 173.344 324.763 173.893 324.543 174.387C324.323 174.881 323.961 175.299 323.504 175.587C323.046 175.876 322.513 176.022 321.972 176.007C321.252 175.986 320.57 175.683 320.073 175.162C319.576 174.641 319.305 173.945 319.319 173.225Z" fill="#263238"/>
<path d="M448.358 155.946L457.997 177.737C458.126 178.032 458.195 178.35 458.2 178.672C458.205 178.994 458.147 179.314 458.028 179.613C457.908 179.912 457.731 180.185 457.506 180.415C457.28 180.645 457.012 180.829 456.715 180.954C456.118 181.208 455.445 181.215 454.843 180.975C454.24 180.735 453.757 180.267 453.498 179.673L443.846 157.882C443.592 157.285 443.585 156.612 443.825 156.01C444.065 155.407 444.533 154.924 445.128 154.665C445.726 154.407 446.402 154.398 447.008 154.638C447.613 154.878 448.099 155.349 448.358 155.946Z" fill="#F2E134"/>
<path d="M385.395 281.666L418.325 279.358C418.717 279.334 419.104 279.466 419.399 279.725C419.695 279.985 419.875 280.35 419.902 280.743C419.926 281.133 419.796 281.518 419.54 281.813C419.283 282.108 418.92 282.29 418.53 282.319L385.601 284.627C385.406 284.641 385.21 284.616 385.025 284.553C384.84 284.491 384.67 284.393 384.523 284.264C384.376 284.135 384.257 283.979 384.171 283.803C384.085 283.628 384.035 283.437 384.024 283.242C384.01 283.049 384.034 282.854 384.096 282.67C384.157 282.486 384.255 282.315 384.382 282.169C384.51 282.022 384.665 281.903 384.839 281.816C385.012 281.73 385.202 281.679 385.395 281.666Z" fill="#263238"/>
<path d="M328.419 100.97L360.195 109.943C360.383 109.996 360.558 110.085 360.71 110.206C360.863 110.327 360.99 110.478 361.084 110.648C361.178 110.818 361.237 111.006 361.259 111.199C361.28 111.393 361.263 111.589 361.208 111.776C361.1 112.151 360.849 112.47 360.508 112.662C360.168 112.854 359.765 112.904 359.388 112.801L327.612 103.828C327.425 103.775 327.25 103.686 327.097 103.565C326.945 103.443 326.818 103.293 326.723 103.123C326.629 102.952 326.57 102.765 326.549 102.572C326.527 102.378 326.544 102.182 326.599 101.995C326.707 101.619 326.958 101.301 327.299 101.109C327.64 100.917 328.042 100.867 328.419 100.97Z" fill="#263238"/>
<path d="M304.719 82.7811L288.055 93.4201C287.604 93.7045 287.059 93.7994 286.538 93.6842C286.017 93.569 285.563 93.253 285.274 92.8048C284.985 92.3525 284.888 91.8043 285.004 91.2804C285.119 90.7565 285.437 90.2998 285.889 90.0105L302.553 79.3715C303.007 79.0877 303.556 78.9944 304.079 79.112C304.602 79.2296 305.057 79.5485 305.347 79.9996C305.489 80.2233 305.585 80.4729 305.63 80.7339C305.676 80.995 305.669 81.2624 305.611 81.5208C305.552 81.7792 305.443 82.0236 305.29 82.2399C305.137 82.4562 304.943 82.6401 304.719 82.7811Z" fill="#F2E134"/>
<path d="M391.01 159.869C390.906 159.868 390.805 159.834 390.722 159.771C390.639 159.709 390.578 159.622 390.548 159.523C390.517 159.399 390.536 159.267 390.601 159.157C390.665 159.047 390.771 158.966 390.894 158.933L412.941 152.998C413.061 152.977 413.185 153.001 413.287 153.066C413.39 153.131 413.465 153.232 413.497 153.349C413.529 153.466 413.516 153.591 413.461 153.699C413.406 153.808 413.312 153.891 413.198 153.934L391.1 159.856L391.01 159.869Z" fill="#263238"/>
<path d="M411.608 154.267C411.451 153.987 411.38 153.667 411.405 153.346C411.429 153.026 411.548 152.72 411.746 152.467C411.944 152.214 412.213 152.025 412.518 151.925C412.823 151.824 413.151 151.816 413.461 151.902C413.771 151.987 414.048 152.162 414.259 152.405C414.469 152.648 414.603 152.947 414.643 153.266C414.683 153.585 414.629 153.908 414.485 154.196C414.342 154.484 414.117 154.723 413.839 154.883C413.652 154.991 413.446 155.062 413.233 155.09C413.019 155.118 412.802 155.103 412.594 155.045C412.386 154.988 412.192 154.89 412.022 154.756C411.853 154.622 411.712 154.456 411.608 154.267Z" fill="#E37E26"/>
<path d="M389.587 160.202C389.375 159.823 389.322 159.375 389.44 158.957C389.558 158.539 389.837 158.184 390.215 157.972C390.401 157.865 390.606 157.796 390.818 157.769C391.031 157.742 391.246 157.758 391.453 157.815C391.659 157.872 391.852 157.97 392.02 158.103C392.188 158.235 392.329 158.4 392.433 158.587C392.559 158.774 392.645 158.986 392.685 159.208C392.726 159.43 392.72 159.659 392.668 159.879C392.616 160.098 392.52 160.305 392.384 160.486C392.249 160.667 392.078 160.818 391.881 160.929C391.685 161.041 391.467 161.111 391.242 161.134C391.018 161.158 390.791 161.135 390.575 161.066C390.36 160.998 390.161 160.886 389.991 160.737C389.821 160.589 389.683 160.406 389.587 160.202Z" fill="#E37E26"/>
<path d="M427.49 211.448C427.699 210.935 427.743 210.37 427.616 209.83C427.49 209.291 427.2 208.804 426.785 208.436L388.049 177.429C387.873 177.273 387.661 177.163 387.432 177.109C387.203 177.055 386.964 177.058 386.736 177.119C386.509 177.18 386.3 177.297 386.129 177.458C385.957 177.62 385.829 177.821 385.755 178.045L373.411 206.244L348.8 224.741C348.597 224.862 348.427 225.033 348.306 225.237C348.185 225.441 348.117 225.672 348.108 225.908C348.1 226.145 348.15 226.381 348.255 226.593C348.36 226.806 348.517 226.988 348.71 227.125L387.447 258.132C387.896 258.451 388.433 258.623 388.985 258.623C389.536 258.623 390.074 258.451 390.523 258.132L415.198 239.597L427.49 211.448Z" fill="#EF4E23"/>
<path d="M413.954 238.648L372.219 205.244L384.575 177.045C384.648 176.822 384.775 176.62 384.945 176.458C385.115 176.297 385.323 176.18 385.549 176.119C385.776 176.058 386.014 176.054 386.242 176.108C386.471 176.163 386.682 176.273 386.857 176.43L425.606 207.436C426.018 207.805 426.306 208.293 426.43 208.833C426.554 209.372 426.508 209.937 426.298 210.449L413.954 238.648Z" fill="#EF4E23"/>
<path d="M412.993 234.97C412.921 234.969 412.853 234.942 412.801 234.893L375.346 204.924C375.225 204.799 375.141 204.643 375.105 204.473C375.069 204.303 375.081 204.126 375.141 203.963L385.972 179.16C385.993 179.114 386.023 179.074 386.061 179.041C386.099 179.008 386.143 178.983 386.19 178.968C386.239 178.958 386.289 178.959 386.338 178.97C386.387 178.981 386.432 179.002 386.472 179.032L423.914 209C424.039 209.122 424.126 209.279 424.162 209.45C424.199 209.621 424.184 209.799 424.119 209.962L413.236 234.777C413.217 234.822 413.187 234.862 413.149 234.893C413.111 234.925 413.066 234.946 413.018 234.957L412.993 234.97ZM375.82 204.437L412.89 234.136L423.593 209.68C423.612 209.608 423.612 209.533 423.593 209.462L386.485 179.775L375.718 204.219C375.694 204.29 375.694 204.366 375.718 204.437H375.82Z" fill="white"/>
<path d="M413.954 238.648L372.219 205.245L347.518 223.779C347.317 223.903 347.15 224.074 347.031 224.278C346.913 224.482 346.846 224.712 346.837 224.948C346.828 225.183 346.877 225.417 346.981 225.63C347.084 225.842 347.238 226.025 347.429 226.164L386.177 257.17C386.626 257.492 387.164 257.665 387.716 257.665C388.267 257.665 388.805 257.492 389.254 257.17L413.954 238.648Z" fill="#EF4E23"/>
<path opacity="0.3" d="M360.336 218.652L370.347 211.141C370.83 210.791 371.411 210.603 372.007 210.603C372.603 210.603 373.184 210.791 373.667 211.141L406.353 237.29C406.556 237.44 406.72 237.638 406.829 237.866C406.939 238.094 406.99 238.346 406.98 238.599C406.97 238.851 406.898 239.098 406.771 239.316C406.644 239.535 406.465 239.719 406.25 239.853L396.252 247.365C395.766 247.711 395.183 247.898 394.586 247.898C393.989 247.898 393.406 247.711 392.92 247.365L360.246 221.216C360.048 221.063 359.888 220.865 359.781 220.638C359.674 220.411 359.623 220.162 359.632 219.911C359.641 219.66 359.709 219.415 359.832 219.196C359.954 218.977 360.127 218.791 360.336 218.652Z" fill="white"/>
<path opacity="0.3" d="M362.131 233.662L367.181 229.817C367.4 229.659 367.662 229.574 367.931 229.574C368.2 229.574 368.463 229.659 368.681 229.817L382.127 240.622C382.222 240.687 382.3 240.774 382.354 240.876C382.408 240.977 382.436 241.09 382.436 241.206C382.436 241.321 382.408 241.434 382.354 241.536C382.3 241.637 382.222 241.724 382.127 241.789L377 245.57C376.782 245.728 376.519 245.812 376.25 245.812C375.981 245.812 375.718 245.728 375.5 245.57L362.08 234.829C361.987 234.76 361.913 234.669 361.863 234.565C361.814 234.461 361.791 234.347 361.796 234.232C361.801 234.117 361.834 234.005 361.893 233.905C361.951 233.806 362.033 233.722 362.131 233.662Z" fill="white"/>
<path opacity="0.4" d="M455.19 87.7416C457.066 81.069 457.22 74.0299 455.639 67.2816C454.057 60.5332 450.791 54.2956 446.146 49.1512C441.501 44.0068 435.628 40.1234 429.076 37.8637C422.523 35.6039 415.505 35.0414 408.676 36.2288C401.848 37.4161 395.431 40.3146 390.026 44.6535C384.621 48.9924 380.403 54.6302 377.767 61.0406C375.131 67.451 374.163 74.4248 374.952 81.3109C375.741 88.1971 378.263 94.7709 382.281 100.419C383.722 102.391 384.708 104.659 385.165 107.058C385.688 109.975 387.019 112.686 389.006 114.883C390.994 117.081 393.557 118.678 396.406 119.492L409.468 123.196C412.32 124.009 415.342 124.004 418.191 123.181C421.04 122.358 423.6 120.751 425.58 118.543C427.206 116.749 429.217 115.346 431.463 114.442C437.175 112.068 442.277 108.433 446.385 103.81C450.494 99.186 453.504 93.693 455.19 87.7416Z" fill="#E37E26"/>
<path d="M411.16 133.361L389.702 127.26C388.926 127.036 388.269 126.514 387.875 125.808C387.481 125.102 387.383 124.269 387.6 123.491C387.712 123.099 387.901 122.733 388.155 122.414C388.41 122.096 388.725 121.831 389.083 121.635C389.441 121.44 389.834 121.317 390.24 121.275C390.645 121.233 391.055 121.271 391.446 121.389L412.89 127.49C413.667 127.714 414.324 128.236 414.717 128.942C415.111 129.647 415.21 130.48 414.992 131.259C414.882 131.65 414.695 132.016 414.441 132.335C414.188 132.653 413.874 132.918 413.517 133.114C413.16 133.309 412.768 133.432 412.363 133.475C411.958 133.517 411.549 133.478 411.16 133.361Z" fill="#EF4E23"/>
<path d="M406.648 141.295L389.369 136.386C388.591 136.159 387.935 135.635 387.541 134.927C387.147 134.219 387.049 133.385 387.267 132.605C387.491 131.828 388.012 131.171 388.718 130.777C389.424 130.384 390.257 130.285 391.035 130.502L408.314 135.425C409.091 135.648 409.748 136.17 410.141 136.876C410.535 137.582 410.634 138.415 410.416 139.193C410.193 139.97 409.671 140.627 408.965 141.02C408.259 141.414 407.426 141.513 406.648 141.295Z" fill="#EF4E23"/>
<path d="M409.519 123.799H409.404C409.236 123.767 409.088 123.672 408.99 123.533C408.892 123.395 408.852 123.223 408.878 123.055C409.083 121.773 412.429 102.085 418.786 87.2287C417.017 86.8955 415.108 86.4468 413.057 85.87C411.006 85.2932 409.134 84.6651 407.455 84.0114C405.058 99.9827 397.521 118.505 397.047 119.697C396.982 119.855 396.858 119.981 396.7 120.047C396.543 120.113 396.365 120.114 396.207 120.049C396.049 119.985 395.923 119.86 395.857 119.703C395.791 119.545 395.79 119.368 395.855 119.21C395.97 118.915 403.815 99.6238 406.225 83.5115C393.778 78.3843 391.933 71.6676 391.766 68.7579C391.628 67.1515 391.991 65.5418 392.806 64.1506C393.621 62.7594 394.847 61.6552 396.316 60.9902C399.239 59.7853 402.482 60.7595 404.994 63.5538C408.378 67.3992 408.724 74.6286 407.647 82.704C409.352 83.3833 411.275 83.9858 413.403 84.6395C415.531 85.2932 417.504 85.6906 419.325 86.0238C422.657 78.5894 426.772 72.5905 431.656 71.1293C435.283 70.0397 438.552 70.9242 440.398 73.475C441.287 74.8126 441.742 76.392 441.701 77.9978C441.659 79.6035 441.124 81.1575 440.167 82.4476C438.488 84.8446 433.412 89.536 420.094 87.3954C413.685 102.367 410.198 122.888 410.147 123.209C410.137 123.369 410.067 123.519 409.95 123.628C409.833 123.738 409.679 123.799 409.519 123.799ZM420.632 86.2417C433.386 88.1644 437.924 83.473 439.116 81.7811C439.934 80.7033 440.398 79.3977 440.441 78.045C440.485 76.6923 440.107 75.3595 439.359 74.2312C437.847 72.1291 435.104 71.4241 432.015 72.3598C427.592 73.7185 423.773 79.2815 420.581 86.2802L420.632 86.2417ZM398.79 61.7721C398.096 61.7714 397.408 61.9064 396.765 62.1695C395.536 62.7367 394.513 63.6715 393.838 64.8448C393.163 66.018 392.869 67.3719 392.996 68.7195C393.125 70.796 394.509 77.1666 406.378 82.2297C407.378 74.6286 407.058 67.8991 403.994 64.4383C403.365 63.6505 402.576 63.0054 401.679 62.5458C400.782 62.0861 399.797 61.8224 398.79 61.7721Z" fill="white"/>
<path opacity="0.3" d="M276.923 303.556C307.166 288.537 307.766 228.2 278.262 168.791C248.758 109.381 200.323 73.3964 170.08 88.416C139.836 103.436 139.236 163.772 168.74 223.182C198.244 282.591 246.679 318.576 276.923 303.556Z" fill="#E37E26"/>
<path d="M197.188 464.323L206.674 464.169L208.853 442.173L199.367 442.314L197.188 464.323Z" fill="white"/>
<path d="M133.457 447.006L142.494 449.877L152.684 430.073L143.647 427.202L133.457 447.006Z" fill="white"/>
<path opacity="0.2" d="M208.853 442.173L207.725 453.517L198.239 453.671L199.367 442.327L208.853 442.173Z" fill="black"/>
<path opacity="0.2" d="M143.634 427.202L152.684 430.073L147.428 440.276L138.379 437.418L143.634 427.202Z" fill="black"/>
<path d="M211.25 451.274L195.189 451.517C195.189 451.517 201.598 389.132 203.61 359.651C204.139 347.89 204.002 336.108 203.2 324.363C202.239 307.161 201.623 300.277 200.329 278.538C199.406 263.028 198.278 252.992 198.278 252.992L231.515 255.722C231.515 255.722 232.797 330.977 229.054 359.676C225.132 389.517 211.25 451.274 211.25 451.274Z" fill="#EF4E23"/>
<path opacity="0.2" d="M207.417 273.834C211.583 289.318 207.545 323.965 203.635 333.386C203.52 330.438 203.366 327.426 203.2 324.414C202.238 307.212 201.61 300.329 200.316 278.589C200.316 278.154 200.316 277.731 200.316 277.308C202.465 275.75 204.867 274.575 207.417 273.834Z" fill="black"/>
<path d="M213.582 254.248C213.582 254.248 198.201 331.566 190.51 358.266C182.101 387.517 152.274 439.52 152.274 439.52L135.713 434.277C135.713 434.277 154.786 390.247 161.823 361.432C169.847 328.593 180.948 251.569 180.948 251.569L213.582 254.248Z" fill="#EF4E23"/>
<path d="M144.416 449.249L133.957 444.326C133.785 444.246 133.592 444.226 133.408 444.271C133.224 444.315 133.06 444.42 132.944 444.57L127.676 451.402C127.547 451.569 127.458 451.764 127.415 451.971C127.372 452.178 127.377 452.392 127.429 452.597C127.481 452.801 127.578 452.992 127.714 453.153C127.85 453.315 128.021 453.444 128.214 453.53C131.611 455.042 134.149 456.004 138.392 457.991C140.955 459.272 147.057 462.323 150.659 464.015C154.261 465.707 156.35 462.451 155.081 461.349C149.428 456.452 146.788 453.325 145.57 450.428C145.345 449.905 144.934 449.485 144.416 449.249Z" fill="#263238"/>
<path d="M206.597 463.067L196.24 463.233C196.051 463.236 195.868 463.304 195.724 463.425C195.579 463.546 195.48 463.714 195.445 463.9L193.702 472.347C193.657 472.551 193.659 472.763 193.708 472.966C193.757 473.169 193.852 473.358 193.986 473.519C194.12 473.68 194.288 473.808 194.479 473.893C194.669 473.979 194.877 474.02 195.086 474.013C198.829 473.898 204.212 473.59 208.917 473.513C214.403 473.436 215.031 473.654 221.466 473.513C225.311 473.513 226.375 469.501 224.747 469.168C217.3 467.668 215.364 467.591 208.891 463.733C208.2 463.308 207.408 463.078 206.597 463.067Z" fill="#263238"/>
<path d="M189.523 167.931C201.438 167.059 213.412 167.488 225.234 169.213C228.753 169.773 231.977 171.513 234.376 174.148C236.776 176.782 238.207 180.154 238.437 183.71C239.244 196.208 238.962 220.767 233.079 266.835C225.772 270.04 193.881 266.951 178.218 262.028C179.064 256.76 184.024 214.256 180.384 178.711C180.259 177.4 180.398 176.077 180.793 174.821C181.187 173.564 181.829 172.399 182.681 171.395C183.533 170.39 184.577 169.566 185.752 168.971C186.927 168.376 188.209 168.023 189.523 167.931Z" fill="#263238"/>
<path d="M192.151 184.954L190.202 188.94C189.561 190.307 188.933 191.692 188.318 193.093C187.036 195.875 185.947 198.682 184.857 201.502C183.768 204.322 182.832 207.167 181.973 210C181.16 212.8 180.492 215.641 179.974 218.511L178.692 214.14C179.787 215.576 181.254 216.684 182.935 217.345C185.089 218.203 187.355 218.746 189.664 218.96C192.218 219.231 194.789 219.304 197.355 219.178C200.006 219.076 202.65 218.837 205.276 218.46H205.469C206.235 218.354 207.014 218.531 207.661 218.957C208.307 219.382 208.776 220.029 208.982 220.775C209.187 221.521 209.114 222.316 208.777 223.013C208.44 223.71 207.861 224.26 207.148 224.561C205.648 225.202 204.302 225.676 202.854 226.138C201.405 226.599 199.983 227.01 198.508 227.343C195.506 228.061 192.441 228.49 189.356 228.625C186.012 228.79 182.662 228.418 179.435 227.522C175.687 226.498 172.314 224.415 169.719 221.523C169.239 220.972 168.878 220.328 168.657 219.631C168.437 218.935 168.362 218.2 168.437 217.473V217.152C168.767 213.702 169.319 210.277 170.091 206.898C170.873 203.604 171.783 200.361 172.86 197.208C173.936 194.054 175.128 190.94 176.449 187.902C177.115 186.376 177.795 184.877 178.512 183.377C179.23 181.877 179.948 180.429 180.832 178.839C181.658 177.419 182.998 176.369 184.575 175.908C186.152 175.447 187.846 175.609 189.307 176.361C190.768 177.112 191.884 178.397 192.425 179.948C192.966 181.5 192.891 183.2 192.215 184.697L192.151 184.954Z" fill="white"/>
<path d="M202.149 219.101L207.276 213.346L215.672 221.036C215.672 221.036 209.968 227.369 203.918 224.049L202.149 219.101Z" fill="white"/>
<path d="M215.646 211.128L219.017 214.653C219.293 214.943 219.503 215.288 219.634 215.666C219.765 216.043 219.814 216.444 219.778 216.842C219.742 217.24 219.621 217.626 219.423 217.974C219.226 218.321 218.956 218.622 218.633 218.857L215.646 221.024L207.25 213.333L212.275 210.59C212.819 210.299 213.443 210.194 214.051 210.291C214.66 210.388 215.22 210.682 215.646 211.128Z" fill="white"/>
<path d="M184.96 169.418C177.269 174.135 169.578 199.169 169.578 199.169L189.831 206.603C193.581 200.66 196.395 194.175 198.175 187.376C201.239 175.776 193.458 164.227 184.96 169.418Z" fill="#263238"/>
<path d="M228.554 169.803C228.387 169.803 228.785 169.803 228.977 169.803L229.759 169.867C230.323 169.867 230.887 169.944 231.489 169.944C232.681 169.944 233.925 169.944 235.168 169.944C237.732 169.867 240.295 169.585 242.859 169.277C244.141 169.111 245.423 168.918 246.704 168.675C247.986 168.431 249.268 168.2 250.627 167.957L254.575 167.085L258.51 166.111L253.767 171.879C254.169 169.565 254.333 167.215 254.254 164.868C254.162 162.316 253.91 159.773 253.498 157.254C253.088 154.69 252.554 152.075 251.896 149.409C251.268 146.846 250.473 144.103 249.742 141.629L249.665 141.398C249.417 140.529 249.482 139.601 249.85 138.776C250.218 137.95 250.865 137.281 251.677 136.885C252.489 136.489 253.415 136.391 254.291 136.609C255.168 136.828 255.94 137.348 256.472 138.078C258.218 140.579 259.777 143.205 261.137 145.936C262.51 148.665 263.7 151.483 264.701 154.37C265.741 157.35 266.529 160.411 267.059 163.522C267.63 166.831 267.798 170.196 267.559 173.546C267.46 174.792 267.004 175.984 266.244 176.977C265.485 177.971 264.455 178.724 263.278 179.147L262.817 179.314L258.535 180.852C257.087 181.326 255.639 181.775 254.164 182.134C251.213 183.002 248.218 183.712 245.192 184.261C242.083 184.838 238.94 185.21 235.783 185.377C234.168 185.377 232.553 185.492 230.874 185.377C230.041 185.377 229.182 185.287 228.31 185.197L226.952 185.031C226.439 184.954 226.119 184.915 225.247 184.723C223.317 184.231 221.654 183.009 220.607 181.316C219.559 179.622 219.21 177.588 219.632 175.642C220.053 173.696 221.214 171.989 222.868 170.881C224.523 169.773 226.543 169.349 228.503 169.7L228.554 169.803Z" fill="white"/>
<path d="M248.473 141.398L244.743 135.143L255.639 131.925C255.639 131.925 257.869 136.95 256.92 140.398C256.723 141.059 256.336 141.647 255.808 142.089C255.279 142.531 254.632 142.808 253.947 142.885L251.998 143.128C251.306 143.212 250.605 143.093 249.979 142.786C249.354 142.479 248.83 141.997 248.473 141.398Z" fill="white"/>
<path d="M247.409 125.17L250.421 124.824C251.328 124.732 252.239 124.964 252.99 125.481C253.741 125.998 254.285 126.764 254.523 127.644L255.638 131.925L244.743 135.143L244.064 129.387C243.958 128.387 244.25 127.384 244.875 126.596C245.501 125.807 246.41 125.296 247.409 125.17Z" fill="white"/>
<path d="M216.89 167.508C225.862 168.29 245.371 166.047 245.371 166.047L246.499 190.555C239.864 192.718 232.748 192.94 225.99 191.196C214.3 188.222 206.981 166.65 216.89 167.508Z" fill="#263238"/>
<path d="M201.905 143.5C202.956 150.499 203.738 163.253 198.675 167.662C202.277 171.572 207.494 176.635 215.723 177.314C220.94 175.02 222.26 171.725 220.222 168.636C212.531 166.444 213.031 160.715 214.621 155.395L201.905 143.5Z" fill="white"/>
<path opacity="0.5" d="M207.097 148.358L214.621 155.382C214.229 156.638 213.946 157.924 213.775 159.228C210.852 158.677 206.943 155.241 206.763 152.139C206.633 150.869 206.746 149.586 207.097 148.358Z" fill="#F7C6B9"/>
<path d="M217.03 119.953C226.618 126.362 218.415 136.617 218.415 136.617C218.415 136.617 213.659 128.208 217.03 119.953Z" fill="#263238"/>
<path d="M196.842 136.027C199.124 145.154 199.995 150.614 205.533 154.485C213.877 160.317 224.49 153.972 224.99 144.346C225.426 135.681 221.619 122.196 211.903 120.197C209.759 119.74 207.534 119.84 205.44 120.488C203.347 121.136 201.454 122.31 199.943 123.898C198.432 125.486 197.354 127.434 196.811 129.558C196.268 131.682 196.279 133.909 196.842 136.027Z" fill="white"/>
<path d="M199.431 142.398C203.277 142.013 201.559 136.13 200.072 134.797C203.059 133.515 205.571 128.503 203.482 125.824C214.544 126.683 220.863 125.504 221.709 115.57C218.543 116.211 215.21 113.006 210.955 115.993C211.265 115.377 211.444 114.704 211.482 114.015C211.519 113.327 211.414 112.638 211.174 111.992C210.933 111.346 210.562 110.757 210.083 110.261C209.604 109.765 209.028 109.373 208.391 109.109C208.391 109.109 207.699 115.518 202.841 116.48C197.983 117.441 192.843 120.851 192.523 124.44C191.369 121.479 190.177 121.286 190.177 121.286C190.723 122.395 191.007 123.614 191.007 124.85C191.007 126.086 190.723 127.305 190.177 128.413C188.357 132.502 191.459 133.848 191.459 133.848C191.459 133.848 187.485 133.848 189.985 139.206C191.83 142.949 198.573 147.756 199.431 142.398Z" fill="#263238"/>
<path d="M194.355 144.603C195.564 146.473 197.462 147.79 199.636 148.268C202.52 148.871 203.764 146.243 202.802 143.616C201.931 141.257 199.393 138.104 196.573 138.681C195.959 138.816 195.389 139.103 194.914 139.515C194.44 139.926 194.076 140.451 193.855 141.039C193.635 141.628 193.565 142.262 193.652 142.884C193.74 143.507 193.981 144.097 194.355 144.603Z" fill="white"/>
<path d="M154.158 440.507L134.662 434.328L136.508 428.509L158.414 433.393L154.158 440.507Z" fill="#EF4E23"/>
<path opacity="0.3" d="M154.158 440.507L134.662 434.328L136.508 428.509L158.414 433.393L154.158 440.507Z" fill="black"/>
<path d="M213.275 451.607L194.138 451.915L194.035 445.724L214.505 445.07L213.275 451.607Z" fill="#EF4E23"/>
<path opacity="0.3" d="M213.275 451.607L194.138 451.915L194.035 445.724L214.505 445.07L213.275 451.607Z" fill="black"/>
<path d="M212.762 135.732C212.877 136.489 213.365 137.014 213.864 137.014C214.364 137.014 214.672 136.271 214.557 135.514C214.441 134.758 213.954 134.233 213.454 134.233C212.954 134.233 212.647 134.976 212.762 135.732Z" fill="#263238"/>
<path d="M221.312 134.463C221.427 135.22 221.914 135.745 222.414 135.745C222.914 135.745 223.222 135.002 223.106 134.245C222.991 133.489 222.504 132.964 222.004 132.964C221.504 132.964 221.196 133.707 221.312 134.463Z" fill="#263238"/>
<path opacity="0.5" d="M218.658 135.232C219.899 137.414 221.44 139.412 223.234 141.167C222.773 141.614 222.22 141.954 221.613 142.164C221.006 142.375 220.361 142.45 219.722 142.385L218.658 135.232Z" fill="#F7C6B9"/>
<path d="M216.941 145.295C216.091 145.426 215.222 145.379 214.391 145.159C213.559 144.938 212.782 144.548 212.109 144.013C212.087 143.994 212.069 143.97 212.056 143.944C212.043 143.918 212.036 143.889 212.034 143.86C212.032 143.831 212.036 143.801 212.046 143.774C212.055 143.746 212.07 143.721 212.089 143.699C212.109 143.677 212.132 143.659 212.158 143.646C212.185 143.633 212.213 143.626 212.242 143.624C212.271 143.622 212.301 143.626 212.328 143.636C212.356 143.645 212.381 143.66 212.403 143.68C213.167 144.247 214.054 144.626 214.991 144.786C215.929 144.947 216.891 144.884 217.8 144.603C217.828 144.595 217.857 144.593 217.885 144.596C217.914 144.6 217.941 144.609 217.966 144.623C217.991 144.638 218.013 144.657 218.031 144.679C218.049 144.702 218.061 144.728 218.069 144.756C218.079 144.785 218.082 144.815 218.08 144.845C218.077 144.875 218.068 144.905 218.054 144.931C218.04 144.958 218.02 144.981 217.996 144.999C217.972 145.018 217.944 145.031 217.915 145.038C217.597 145.147 217.271 145.233 216.941 145.295Z" fill="#263238"/>
<path d="M208.199 133.746C208.128 133.765 208.052 133.765 207.981 133.746C207.927 133.721 207.878 133.686 207.838 133.641C207.798 133.597 207.767 133.545 207.748 133.489C207.729 133.432 207.721 133.372 207.726 133.313C207.731 133.254 207.748 133.196 207.776 133.143C208.081 132.499 208.536 131.938 209.102 131.505C209.669 131.073 210.33 130.782 211.032 130.656C211.15 130.645 211.268 130.681 211.362 130.755C211.455 130.829 211.516 130.936 211.532 131.054C211.543 131.172 211.507 131.29 211.433 131.384C211.359 131.477 211.252 131.538 211.134 131.554C210.577 131.655 210.053 131.889 209.606 132.238C209.16 132.586 208.804 133.037 208.571 133.553C208.527 133.611 208.471 133.658 208.407 133.691C208.342 133.725 208.271 133.743 208.199 133.746Z" fill="#263238"/>
<path d="M222.952 130.823C222.879 130.827 222.805 130.813 222.738 130.782C222.671 130.75 222.612 130.703 222.568 130.644C222.247 130.179 221.821 129.798 221.324 129.53C220.827 129.263 220.274 129.117 219.709 129.105C219.59 129.105 219.476 129.058 219.392 128.974C219.308 128.89 219.261 128.776 219.261 128.657C219.261 128.538 219.308 128.424 219.392 128.34C219.476 128.255 219.59 128.208 219.709 128.208C220.422 128.212 221.123 128.386 221.754 128.716C222.385 129.046 222.928 129.522 223.337 130.105C223.372 130.152 223.398 130.206 223.413 130.263C223.427 130.32 223.431 130.38 223.422 130.438C223.414 130.496 223.394 130.552 223.364 130.603C223.334 130.654 223.294 130.698 223.247 130.733C223.162 130.795 223.058 130.827 222.952 130.823Z" fill="#263238"/>
<path d="M146.557 452.082C145.806 451.706 145.101 451.246 144.455 450.71C144.419 450.685 144.392 450.649 144.378 450.607C144.365 450.566 144.364 450.521 144.378 450.479C144.39 450.436 144.415 450.397 144.449 450.367C144.483 450.338 144.525 450.319 144.57 450.313C144.968 450.313 148.544 449.864 149.262 450.8C149.343 450.904 149.393 451.029 149.407 451.16C149.42 451.292 149.397 451.425 149.338 451.543C149.267 451.753 149.146 451.942 148.985 452.093C148.824 452.245 148.629 452.356 148.416 452.415C147.776 452.515 147.122 452.398 146.557 452.082ZM145.173 450.659C146.013 451.471 147.132 451.929 148.3 451.941C148.445 451.9 148.577 451.823 148.685 451.718C148.792 451.613 148.872 451.482 148.915 451.338C148.915 451.172 148.915 451.095 148.915 451.043C148.531 450.659 146.608 450.582 145.173 450.659Z" fill="#EF4E23"/>
<path d="M144.493 450.748C144.457 450.725 144.426 450.695 144.403 450.658C144.384 450.623 144.374 450.583 144.374 450.543C144.374 450.503 144.384 450.463 144.403 450.428C144.403 450.325 145.826 447.954 147.211 447.595C147.377 447.549 147.551 447.538 147.721 447.565C147.891 447.591 148.054 447.654 148.198 447.749C148.347 447.824 148.466 447.947 148.538 448.098C148.61 448.248 148.63 448.419 148.595 448.582C148.326 449.62 145.724 450.697 144.609 450.761L144.493 450.748ZM147.864 448.082C147.686 448.017 147.491 448.017 147.313 448.082C146.429 448.313 145.48 449.62 145.044 450.3C146.236 450.043 147.992 449.133 148.159 448.518C148.159 448.518 148.159 448.338 147.954 448.172L147.864 448.082Z" fill="#EF4E23"/>
<path d="M207.545 464.361C207.507 464.349 207.473 464.327 207.446 464.298C207.419 464.269 207.4 464.233 207.391 464.195C207.386 464.147 207.394 464.099 207.414 464.056C207.435 464.013 207.467 463.977 207.507 463.951C207.93 463.733 211.724 461.733 212.877 462.362C212.988 462.416 213.083 462.5 213.15 462.604C213.218 462.708 213.256 462.827 213.262 462.951C213.286 463.154 213.262 463.36 213.191 463.552C213.119 463.744 213.003 463.916 212.852 464.054C211.826 464.989 209.109 464.656 207.571 464.374L207.545 464.361ZM212.583 462.72C211.865 462.477 209.814 463.297 208.314 464.002C210.416 464.323 211.98 464.207 212.557 463.682C212.654 463.589 212.728 463.474 212.772 463.347C212.817 463.22 212.831 463.085 212.813 462.951C212.815 462.903 212.803 462.856 212.778 462.814C212.753 462.773 212.716 462.741 212.672 462.72H212.583Z" fill="#EF4E23"/>
<path d="M207.545 464.361H207.481C207.448 464.339 207.421 464.308 207.406 464.272C207.39 464.235 207.385 464.195 207.391 464.156C207.391 464.053 207.609 461.49 208.801 460.49C208.974 460.336 209.178 460.22 209.399 460.15C209.619 460.079 209.852 460.055 210.083 460.08C210.698 460.08 210.89 460.439 210.929 460.695C211.121 461.772 208.891 463.848 207.75 464.387C207.717 464.402 207.68 464.408 207.644 464.404C207.607 464.399 207.573 464.384 207.545 464.361ZM210.237 460.516H210.006C209.842 460.5 209.677 460.518 209.52 460.569C209.364 460.62 209.219 460.702 209.096 460.811C208.399 461.645 207.978 462.675 207.891 463.759C209.045 463.041 210.557 461.4 210.455 460.759C210.442 460.708 210.429 460.605 210.237 460.541V460.516Z" fill="#EF4E23"/>
<path d="M125.317 147.204C123.799 133.608 124.496 119.855 127.381 106.482L128.663 106.776C125.812 120.016 125.124 133.63 126.625 147.089L125.317 147.204ZM131.726 96.4194L130.534 95.9836C131.717 92.7707 133.122 89.6441 134.739 86.6265L135.879 87.2289C134.278 90.1934 132.882 93.2641 131.701 96.4194H131.726Z" fill="#EF4E23"/>
<path d="M170.514 64.0667C213.172 55.5427 270.764 104.495 299.169 173.392C327.573 242.289 316.024 305.059 273.391 313.57C230.759 322.081 173.193 273.142 144.737 204.245C116.281 135.348 127.881 72.5266 170.514 64.0667ZM167.156 199.771C192.253 260.67 240.218 304.533 274.135 297.739C308.051 290.946 315.306 236.085 290.209 175.186C265.111 114.288 217.146 70.4116 183.217 77.2051C149.287 83.9987 142.045 138.86 167.156 199.771ZM132.944 166.611C135.61 161.932 151.389 155.703 154.876 159.176L132.944 166.611ZM292.029 287.447C296.041 286.96 299.989 296.624 297.31 300.201L292.029 287.447ZM232.54 94.4069C235.232 93.6763 237.591 89.9719 237.911 87.8057L232.54 94.4069Z" fill="white"/>
<path d="M263.496 315.172C222.004 315.172 170.45 268.297 144.147 204.488C125.843 160.112 123.523 115.647 138.071 88.4466C145.339 74.8595 156.516 66.2073 170.386 63.4387C213.249 54.8762 271.289 104.085 299.758 173.148C318.049 217.537 320.382 262.003 305.821 289.19C303.652 293.302 300.963 297.119 297.822 300.547C291.4 307.564 282.895 312.336 273.558 314.159C270.246 314.83 266.875 315.169 263.496 315.172ZM133.662 166.675C136.419 179.443 140.323 191.936 145.326 204.001C173.526 272.514 230.964 321.389 273.263 312.955C282.33 311.18 290.591 306.548 296.835 299.739C298.117 297.778 297.361 293.728 295.797 291.036C294.721 289.164 293.426 288.088 292.272 288.088C287.542 293.371 281.22 296.97 274.263 298.342C240.052 305.2 191.74 261.054 166.591 199.989C161.155 186.933 157.046 173.363 154.325 159.484C153.504 158.818 151.851 158.625 149.62 158.92C143.711 159.689 135.713 163.637 133.662 166.675ZM167.745 199.528C192.702 260.055 240.372 303.841 274.019 297.111C283.915 295.137 291.631 289.087 296.964 279.166C309.295 256.094 306.475 216.358 289.606 175.481C264.649 114.942 216.992 71.1679 183.345 77.8846C173.436 79.8586 165.707 85.9215 160.375 95.8298C148.057 118.877 150.877 158.6 167.745 199.528ZM293.259 286.947C294.859 287.601 296.161 288.825 296.912 290.382C298.182 292.531 298.838 294.987 298.809 297.483C301.072 294.723 303.051 291.743 304.719 288.587C319.1 261.734 316.755 217.678 298.604 173.635C284.158 138.591 262.073 108.686 238.36 88.9594C237.536 91.313 235.93 93.3128 233.809 94.6249C255.715 112.25 276.865 140.975 290.875 174.943C307.885 216.204 310.679 256.35 298.181 279.717C296.789 282.287 295.139 284.709 293.259 286.947ZM170.629 64.6948C157.145 67.3866 146.275 75.8081 139.186 89.0491C129.099 107.904 127.24 135.194 133.316 165.047C136.443 161.715 144.147 158.369 149.402 157.664C150.925 157.382 152.492 157.461 153.978 157.895C149.441 132.771 151.094 110.468 159.234 95.2146C164.682 85.037 172.924 78.5511 183.075 76.5643C197.932 73.6034 215.454 80.2431 232.579 93.7149C234.732 92.9586 236.719 89.9848 237.193 88.0621C214.8 69.822 190.971 60.6315 170.629 64.6948Z" fill="#A1A1AA"/>
<path d="M228.413 136.937L268.367 132.81L267.418 125.555L227.747 131.81L228.413 136.937Z" fill="#EF4E23"/>
<path opacity="0.2" d="M250.819 128.17L251.652 134.527L268.354 132.81L267.406 125.555L250.819 128.17Z" fill="black"/>
<path d="M253.806 134.156C253.857 134.457 254.015 134.729 254.25 134.924C254.485 135.119 254.782 135.224 255.087 135.22L301.425 130.938C303.27 130.695 301.694 118.633 299.861 118.877L253.959 126.568C253.652 126.632 253.379 126.808 253.192 127.061C253.005 127.313 252.918 127.626 252.947 127.939L253.806 134.156Z" fill="#EF4E23"/>
<path d="M228.554 137.988C228.763 137.963 228.953 137.855 229.083 137.689C229.213 137.524 229.271 137.313 229.246 137.104L228.503 131.438C228.474 131.228 228.364 131.038 228.196 130.908C228.028 130.779 227.816 130.721 227.605 130.746C227.398 130.778 227.21 130.889 227.084 131.057C226.957 131.224 226.9 131.435 226.926 131.643L227.669 137.309C227.682 137.412 227.715 137.512 227.767 137.602C227.818 137.692 227.887 137.771 227.969 137.834C228.052 137.897 228.146 137.944 228.246 137.97C228.346 137.997 228.451 138.003 228.554 137.988Z" fill="#EF4E23"/>
<path d="M395.727 331.72C395.81 331.389 396.021 331.104 396.315 330.928C396.608 330.753 396.959 330.701 397.29 330.784C397.622 330.868 397.907 331.079 398.082 331.373C398.258 331.666 398.309 332.017 398.226 332.348C398.423 336.354 397.538 340.339 395.663 343.884C391.612 350.845 383.191 353.318 383.191 353.318L395.727 331.72Z" fill="#92CCA7"/>
<path d="M385.344 368.38C378.217 368.48 371.257 366.228 365.54 361.971C360.886 358.073 357.159 353.186 354.632 347.666C354.523 347.533 354.442 347.38 354.393 347.215C354.343 347.051 354.327 346.878 354.344 346.708C354.361 346.537 354.412 346.371 354.493 346.22C354.575 346.069 354.685 345.935 354.818 345.826C354.951 345.718 355.104 345.636 355.268 345.587C355.433 345.538 355.605 345.521 355.776 345.538C355.947 345.556 356.113 345.606 356.264 345.688C356.415 345.769 356.549 345.879 356.657 346.012L385.344 368.38Z" fill="#92CCA7"/>
<path d="M409.57 384.518C402.148 395.439 388.036 398.502 388.036 398.502L412.723 362.214C412.842 361.919 413.067 361.679 413.353 361.54C413.64 361.401 413.967 361.374 414.273 361.464C414.578 361.553 414.839 361.753 415.005 362.025C415.172 362.296 415.231 362.62 415.172 362.932C415.261 367.97 414.608 377.096 409.57 384.518Z" fill="#92CCA7"/>
<path d="M387.728 443.186H387.651C387.576 443.177 387.503 443.152 387.437 443.114C387.371 443.075 387.314 443.024 387.268 442.963C387.222 442.902 387.19 442.832 387.172 442.758C387.154 442.684 387.151 442.607 387.164 442.532C391.01 415.307 383.972 342.68 375.718 324.786C375.686 324.717 375.668 324.642 375.664 324.566C375.661 324.49 375.673 324.414 375.699 324.343C375.726 324.271 375.766 324.206 375.817 324.15C375.869 324.094 375.931 324.049 376 324.017C376.069 323.985 376.143 323.967 376.219 323.963C376.295 323.96 376.371 323.972 376.443 323.998C376.514 324.025 376.58 324.065 376.636 324.116C376.691 324.168 376.737 324.23 376.769 324.299C385.088 342.244 392.15 415.307 388.305 442.699C388.283 442.836 388.213 442.96 388.107 443.05C388.001 443.139 387.867 443.188 387.728 443.186Z" fill="#263238"/>
<path d="M371.641 410.923H403.815C404.217 410.921 404.614 411.004 404.983 411.164C405.351 411.325 405.682 411.56 405.954 411.856C406.227 412.151 406.435 412.5 406.565 412.88C406.695 413.26 406.745 413.663 406.712 414.063L402.161 471.552C402.103 472.28 401.772 472.959 401.235 473.453C400.698 473.947 399.994 474.221 399.264 474.218H376.192C375.462 474.221 374.758 473.947 374.221 473.453C373.684 472.959 373.353 472.28 373.295 471.552L368.732 414.063C368.7 413.662 368.751 413.259 368.883 412.879C369.015 412.499 369.224 412.15 369.498 411.855C369.771 411.56 370.103 411.325 370.472 411.164C370.841 411.004 371.239 410.922 371.641 410.923Z" fill="#EF4E23"/>
<path d="M371.462 327.746C372.098 328.694 373.001 329.431 374.057 329.865C375.112 330.299 376.273 330.41 377.392 330.185C378.51 329.959 379.537 329.406 380.342 328.597C381.146 327.787 381.692 326.757 381.911 325.637C382.13 324.517 382.012 323.357 381.572 322.304C381.131 321.252 380.388 320.353 379.437 319.723C378.486 319.092 377.369 318.758 376.228 318.762C375.086 318.767 373.972 319.11 373.026 319.748C371.759 320.602 370.883 321.924 370.59 323.424C370.296 324.923 370.61 326.478 371.462 327.746Z" fill="white"/>
<path d="M376.256 331.066C374.689 331.069 373.173 330.509 371.985 329.488C370.796 328.467 370.014 327.052 369.78 325.503C369.547 323.953 369.878 322.372 370.713 321.046C371.548 319.72 372.831 318.738 374.33 318.279C375.828 317.82 377.441 317.914 378.876 318.545C380.31 319.176 381.471 320.301 382.145 321.715C382.82 323.13 382.964 324.739 382.551 326.251C382.138 327.763 381.196 329.076 379.896 329.951C378.821 330.676 377.553 331.064 376.256 331.066ZM376.256 319.53C375.145 319.533 374.066 319.908 373.192 320.594C372.317 321.281 371.698 322.24 371.431 323.319C371.164 324.398 371.265 325.535 371.718 326.55C372.172 327.565 372.951 328.399 373.933 328.92C374.915 329.442 376.042 329.62 377.137 329.427C378.232 329.234 379.231 328.68 379.975 327.855C380.719 327.029 381.166 325.978 381.245 324.869C381.323 323.761 381.029 322.657 380.409 321.735C379.946 321.054 379.323 320.499 378.594 320.116C377.865 319.734 377.053 319.537 376.23 319.543L376.256 319.53Z" fill="#EF4E23"/>
<path d="M376.653 344.115C376.701 344.594 376.89 345.048 377.195 345.42C377.501 345.792 377.91 346.065 378.37 346.204C378.831 346.344 379.322 346.344 379.783 346.204C380.244 346.065 380.652 345.792 380.958 345.42C381.264 345.048 381.452 344.594 381.5 344.116C381.548 343.637 381.453 343.154 381.227 342.73C381.001 342.305 380.654 341.956 380.23 341.729C379.806 341.501 379.324 341.403 378.845 341.449C378.526 341.48 378.216 341.573 377.933 341.724C377.65 341.874 377.399 342.079 377.195 342.327C376.992 342.575 376.839 342.86 376.746 343.167C376.653 343.474 376.622 343.796 376.653 344.115Z" fill="#263238"/>
<path d="M382.934 393.58C382.934 394.062 383.077 394.533 383.345 394.933C383.612 395.334 383.992 395.646 384.437 395.83C384.883 396.014 385.372 396.063 385.845 395.969C386.317 395.875 386.751 395.643 387.092 395.302C387.432 394.962 387.664 394.528 387.758 394.055C387.852 393.583 387.804 393.093 387.62 392.648C387.435 392.203 387.123 391.823 386.723 391.555C386.322 391.287 385.851 391.145 385.37 391.145C384.724 391.145 384.104 391.401 383.647 391.858C383.191 392.315 382.934 392.934 382.934 393.58Z" fill="#263238"/>
<path d="M390.099 377.788C390.806 377.685 391.466 377.375 391.997 376.897C392.527 376.419 392.904 375.795 393.08 375.103C393.257 374.411 393.224 373.683 392.986 373.009C392.749 372.336 392.317 371.748 391.746 371.319C391.175 370.891 390.49 370.641 389.777 370.602C389.064 370.563 388.355 370.735 387.74 371.098C387.126 371.461 386.632 371.998 386.322 372.641C386.012 373.284 385.899 374.005 385.998 374.712C386.134 375.663 386.643 376.522 387.412 377.099C388.181 377.675 389.148 377.923 390.099 377.788Z" fill="#263238"/>
<path d="M369.472 136.312L359.712 132.78L360.009 132.033L358.388 132.482C357.952 132.559 357.568 132.859 357.407 133.305L349.077 156.327C348.836 156.991 349.18 157.723 349.843 157.964L360.272 161.737C360.468 161.808 360.67 161.827 360.864 161.803V161.803L360.865 161.803C360.981 161.788 361.093 161.758 361.2 161.713L362.794 161.286L362.026 160.647L370.239 137.948C370.479 137.285 370.136 136.552 369.472 136.312Z" fill="#EF4E23"/>
<path d="M361.957 161.275L351.528 157.502C350.864 157.262 350.521 156.529 350.761 155.865L359.091 132.843C359.332 132.18 360.064 131.836 360.728 132.077L371.157 135.85C371.82 136.09 372.164 136.823 371.923 137.487L363.593 160.509C363.353 161.172 362.62 161.516 361.957 161.275Z" fill="#EF4E23"/>
<path d="M363.695 156.917L353.472 153.083L360.155 134.447L370.403 138.069L363.695 156.917Z" fill="white"/>
<path d="M359.146 157.351C358.906 158.015 358.173 158.358 357.51 158.118C356.846 157.878 356.503 157.145 356.743 156.482C356.983 155.819 357.716 155.475 358.379 155.715C359.042 155.955 359.386 156.688 359.146 157.351Z" fill="white"/>
<path d="M366.789 135.719L365.112 135.112C364.999 135.071 364.941 134.947 364.981 134.834C365.022 134.721 365.147 134.663 365.259 134.704L366.937 135.311C367.05 135.352 367.108 135.476 367.067 135.589C367.026 135.701 366.902 135.76 366.789 135.719Z" fill="#F48365"/>
<path d="M364.045 134.726L364.024 134.718C363.911 134.678 363.853 134.553 363.894 134.44C363.935 134.328 364.059 134.269 364.172 134.31L364.192 134.318C364.305 134.359 364.363 134.483 364.322 134.596C364.282 134.708 364.157 134.767 364.045 134.726Z" fill="#F48365"/>
</svg>
