<svg width="322" height="200" viewBox="0 0 322 200" fill="none" xmlns="http://www.w3.org/2000/svg">
<g clip-path="url(#clip0_8732_57947)">
<rect width="322" height="200" fill="url(#paint0_linear_8732_57947)"/>
<path d="M155.03 178.996H41.0084C40.1151 178.994 39.259 178.638 38.6279 178.006C37.9969 177.374 37.6425 176.517 37.6425 175.624V15.3423C37.6502 14.4542 38.0081 13.605 38.6383 12.9792C39.2685 12.3534 40.1202 12.0015 41.0084 12H155.03C155.924 12 156.782 12.3552 157.414 12.9876C158.046 13.6199 158.402 14.4775 158.402 15.3718V175.624C158.402 176.518 158.046 177.376 157.414 178.008C156.782 178.641 155.924 178.996 155.03 178.996ZM41.0084 12.1181C40.1543 12.1197 39.3357 12.46 38.7323 13.0645C38.129 13.669 37.7901 14.4882 37.7901 15.3423V175.624C37.7901 176.478 38.129 177.297 38.7323 177.902C39.3357 178.506 40.1543 178.847 41.0084 178.848H155.03C155.884 178.847 156.703 178.507 157.308 177.902C157.912 177.298 158.252 176.479 158.254 175.624V15.3423C158.252 14.4877 157.912 13.6685 157.308 13.0642C156.703 12.4599 155.884 12.1197 155.03 12.1181H41.0084Z" fill="#F6EFE6"/>
<path d="M282.762 178.996H168.735C167.841 178.994 166.985 178.639 166.353 178.007C165.721 177.375 165.365 176.518 165.363 175.624V15.3423C165.373 14.4536 165.732 13.6045 166.363 12.9788C166.994 12.3532 167.846 12.0015 168.735 12H282.762C283.649 12.0031 284.5 12.3556 285.129 12.9813C285.757 13.6069 286.115 14.4552 286.122 15.3423V175.624C286.122 176.516 285.769 177.372 285.139 178.004C284.509 178.636 283.655 178.993 282.762 178.996ZM168.735 12.1181C167.88 12.1197 167.061 12.4599 166.457 13.0642C165.853 13.6685 165.512 14.4877 165.511 15.3423V175.624C165.512 176.479 165.853 177.298 166.457 177.902C167.061 178.507 167.88 178.847 168.735 178.848H282.762C283.617 178.847 284.436 178.507 285.04 177.902C285.645 177.298 285.985 176.479 285.986 175.624V15.3423C285.985 14.4877 285.645 13.6685 285.04 13.0642C284.436 12.4599 283.617 12.1197 282.762 12.1181H168.735Z" fill="#F6EFE6"/>
<path d="M66.0047 111.2L258.888 111.2V27.5305L66.0047 27.5305V111.2Z" fill="#F6EFE6"/>
<path d="M63.3473 111.2L257.731 111.2V27.5305L63.3473 27.5305V111.2Z" fill="#FFFBF5"/>
<path d="M252.96 106.375V32.3552L68.1126 32.3552V106.375L252.96 106.375Z" fill="#FFFBF5"/>
<path opacity="0.5" d="M146.71 106.375L125.629 32.3608H110.919L132 106.375H146.71Z" fill="white"/>
<path opacity="0.5" d="M127.825 106.375L106.749 32.3608H96.6162L117.697 106.375H127.825Z" fill="white"/>
<path d="M235.209 106.375L214.133 32.3608H199.418L220.499 106.375H235.209Z" fill="white"/>
<path d="M216.33 106.375L195.249 32.3611H185.122L206.197 106.375H216.33Z" fill="white"/>
<path d="M108.976 106.375V32.355H103.283V106.375H108.976Z" fill="#F6EFE6"/>
<path d="M221.604 106.381V32.3611H215.911V106.381H221.604Z" fill="#F6EFE6"/>
<path d="M107.948 109.44V28.7705H100.756V109.44H107.948Z" fill="#FFFBF5"/>
<path d="M220.582 109.44V28.7705H213.39V109.44H220.582Z" fill="#FFFBF5"/>
<path d="M68.6201 106.381V32.3608H68.1123V106.381H68.6201Z" fill="#F6EFE6"/>
<path d="M61.3395 21.3301H264.073C264.23 21.3301 264.38 21.3923 264.491 21.503C264.601 21.6138 264.663 21.764 264.663 21.9206C264.663 22.0772 264.601 22.2274 264.491 22.3381C264.38 22.4489 264.23 22.5111 264.073 22.5111H61.3395C61.1829 22.5111 61.0327 22.4489 60.922 22.3381C60.8112 22.2274 60.749 22.0772 60.749 21.9206C60.749 21.764 60.8112 21.6138 60.922 21.503C61.0327 21.3923 61.1829 21.3301 61.3395 21.3301Z" fill="#F6EFE6"/>
<path d="M258.882 25.3869C259.102 25.3869 259.313 25.3 259.469 25.1451C259.625 24.9903 259.714 24.78 259.715 24.5602V22.7887C259.715 22.5678 259.627 22.3561 259.471 22.1999C259.315 22.0438 259.103 21.9561 258.882 21.9561C258.663 21.9576 258.452 22.046 258.298 22.202C258.143 22.358 258.056 22.5689 258.056 22.7887V24.5602C258.056 24.7795 258.143 24.9897 258.298 25.1448C258.453 25.2998 258.663 25.3869 258.882 25.3869Z" fill="#F6EFE6"/>
<path d="M70.6168 25.3869C70.8366 25.3869 71.0474 25.3 71.2034 25.1451C71.3594 24.9903 71.4478 24.78 71.4494 24.5602V22.7887C71.4494 22.5678 71.3616 22.3561 71.2055 22.1999C71.0494 22.0438 70.8376 21.9561 70.6168 21.9561C70.397 21.9576 70.1867 22.046 70.0318 22.202C69.8769 22.358 69.79 22.5689 69.79 22.7887V24.5602C69.79 24.7795 69.8771 24.9897 70.0322 25.1448C70.1872 25.2998 70.3975 25.3869 70.6168 25.3869Z" fill="#F6EFE6"/>
<path opacity="0.6" d="M61.5345 42.8716L255.835 42.8716V21.944L61.5345 21.944V42.8716Z" fill="#F6EFE6"/>
<path d="M130.087 175.394C132.183 174.685 133.701 172.666 132.372 170.593C130.17 167.168 135.679 166.459 134.144 160.714C131.965 152.624 125.192 159.633 123.515 151.856C122.292 146.205 112.803 142.502 112.431 149.943C112.023 158.086 107.943 152.765 107.034 161.824C106.408 168.083 115.301 168.993 112.661 170.953C110.718 172.382 109.567 174.874 112.277 176.581C115.974 178.901 112.484 180.714 115 182.332C117.515 183.95 117.917 181.37 121.814 182.627C125.298 183.749 128.251 180.307 127.56 178.151C126.892 176.161 127.985 176.108 130.087 175.394Z" fill="#F6EFE6"/>
<path d="M109.944 179.114C109.944 179.114 110.228 205.333 121.217 205.333C132.207 205.333 132.49 179.114 132.49 179.114H109.944Z" fill="#F5F1EA"/>
<path d="M99.4864 175.394C101.577 174.685 103.1 172.666 101.766 170.593C99.5632 167.168 105.079 166.459 103.537 160.714C101.352 152.624 94.5793 159.633 92.9081 151.856C91.6858 146.205 82.1963 142.502 81.8243 149.943C81.4168 158.086 77.3364 152.765 76.427 161.824C75.8011 168.083 84.6942 168.993 82.0546 170.953C80.1118 172.382 78.9603 174.874 81.6767 176.581C85.3673 178.901 81.8833 180.714 84.393 182.332C86.9027 183.95 87.3101 181.37 91.2075 182.627C94.6974 183.749 97.6499 180.307 96.9531 178.151C96.2859 176.161 97.3783 176.108 99.4864 175.394Z" fill="#F6EFE6"/>
<path d="M79.3379 179.114C79.3379 179.114 79.6272 205.333 90.6107 205.333C101.594 205.333 101.884 179.114 101.884 179.114H79.3379Z" fill="#F5F1EA"/>
<path d="M195.568 150.108C197.151 132.588 198.255 104.149 197.399 94.6358C197.385 94.4751 197.339 94.3188 197.263 94.1766C197.187 94.0344 197.082 93.9094 196.956 93.8091C196.786 93.6754 196.58 93.5948 196.365 93.5773C196.15 93.5599 195.934 93.6064 195.745 93.711C195.555 93.8157 195.401 93.9738 195.302 94.1657C195.202 94.3575 195.161 94.5744 195.184 94.7894C195.338 99.5134 195.509 111.282 194.594 131.608C194.127 141.723 193.454 148.65 193.915 150.108H195.568Z" fill="#F5F1EA"/>
<path d="M200.446 113.827C204.237 109.103 211.972 105.702 219.856 105.72C222.95 105.72 210.437 111.241 205.235 117.329C201.196 122.053 196.637 130.013 195.09 134.424C196.088 125.136 196.66 118.575 200.446 113.827Z" fill="#F5F1EA"/>
<path d="M192.527 113.78C188.783 108.56 180.126 104.544 170.767 104.09C167.088 103.913 181.077 110.461 186.291 117.175C190.348 122.39 194.505 131.035 195.645 135.77C195.922 125.968 196.277 119 192.527 113.78Z" fill="#F5F1EA"/>
<path d="M200.446 121.451C204.237 116.727 211.972 113.325 219.856 113.343C222.95 113.343 210.437 118.864 205.235 124.952C201.196 129.677 196.637 137.637 195.09 142.077C196.088 132.759 196.66 126.198 200.446 121.451Z" fill="#F5F1EA"/>
<path d="M192.527 121.834C188.783 116.614 180.126 112.599 170.767 112.144C167.088 111.967 181.077 118.516 186.291 125.23C190.348 130.45 194.505 139.089 195.645 143.825C195.922 133.987 196.277 127.049 192.527 121.834Z" fill="#F5F1EA"/>
<path d="M199.767 95.8937C202.247 92.3506 207.555 89.6107 213.1 89.2386C215.279 89.091 206.693 93.5848 203.268 98.0963C200.605 101.639 197.706 107.438 196.773 110.621C197.133 104.06 197.281 99.3954 199.767 95.8937Z" fill="#F5F1EA"/>
<path d="M194.83 97.3817C192.19 93.7028 186.09 90.8861 179.477 90.5554C176.884 90.4314 186.74 95.0492 190.419 99.7792C193.277 103.452 196.206 109.546 197.009 112.883C197.221 105.956 197.475 101.061 194.83 97.3817Z" fill="#F5F1EA"/>
<path d="M200.617 100.47C203.823 96.4486 210.372 93.5905 217.051 93.6023C219.673 93.6023 209.079 98.2792 204.65 103.434C201.225 107.438 197.369 114.176 196.052 117.914C196.956 110.024 197.41 104.485 200.617 100.47Z" fill="#F5F1EA"/>
<path d="M194.104 102.608C190.927 98.2145 183.599 94.7895 175.697 94.4057C172.586 94.2522 184.425 99.8029 188.842 105.484C192.232 109.901 195.775 117.217 196.743 121.244C196.956 112.906 197.275 107.031 194.104 102.608Z" fill="#F5F1EA"/>
<path d="M200.829 106.044C204.29 101.71 211.358 98.6218 218.545 98.6395C221.373 98.6395 209.947 103.682 205.193 109.269C201.503 113.591 197.34 120.854 195.922 124.888C196.849 116.378 197.369 110.379 200.829 106.044Z" fill="#F5F1EA"/>
<path d="M193.602 108.418C190.059 103.511 181.945 99.7377 173.141 99.3126C169.686 99.1413 182.831 105.3 187.738 111.613C191.553 116.52 195.462 124.645 196.537 129.098C196.791 119.85 197.127 113.331 193.602 108.418Z" fill="#F5F1EA"/>
<path d="M184.915 147.15L185.506 152.069C185.537 152.6 185.771 153.1 186.158 153.465C186.546 153.831 187.058 154.035 187.59 154.035H202.27C202.803 154.035 203.315 153.831 203.703 153.465C204.09 153.1 204.323 152.6 204.355 152.069L204.945 147.15C204.961 146.866 204.919 146.583 204.822 146.316C204.724 146.049 204.573 145.805 204.378 145.599C204.183 145.393 203.948 145.228 203.687 145.116C203.426 145.004 203.145 144.947 202.861 144.947H187C186.716 144.947 186.435 145.004 186.174 145.116C185.913 145.228 185.678 145.393 185.483 145.599C185.287 145.805 185.136 146.049 185.039 146.316C184.941 146.583 184.899 146.866 184.915 147.15Z" fill="#F6EFE6"/>
<path d="M184.041 148.189H205.813C205.968 148.189 206.116 148.132 206.231 148.03C206.347 147.928 206.421 147.787 206.439 147.634L206.959 142.945C206.968 142.858 206.959 142.769 206.931 142.685C206.904 142.601 206.86 142.524 206.801 142.458C206.742 142.392 206.67 142.34 206.589 142.304C206.509 142.268 206.421 142.249 206.333 142.249H183.522C183.434 142.249 183.346 142.268 183.266 142.304C183.185 142.34 183.113 142.392 183.054 142.458C182.995 142.524 182.951 142.601 182.923 142.685C182.896 142.769 182.887 142.858 182.896 142.945L183.415 147.634C183.434 147.787 183.508 147.928 183.623 148.03C183.739 148.132 183.887 148.189 184.041 148.189Z" fill="#EAE4DC"/>
<path d="M151.451 205.333H160.911V154.035H151.451V205.333Z" fill="#F6EFE6"/>
<path d="M154.286 205.333H151.451V195.513H157.256L154.286 205.333Z" fill="#F5F1EA"/>
<path d="M269.299 205.333H278.759V154.035H269.299V205.333Z" fill="#F6EFE6"/>
<path d="M151.451 199.309L271.779 199.309V154.035H151.451V199.309Z" fill="#F5F1EA"/>
<path d="M268.939 205.333H271.773V195.513H265.969L268.939 205.333Z" fill="#F5F1EA"/>
<path d="M153.648 175.341H269.577V157.224H153.648V175.341Z" fill="#F6EFE6"/>
<path d="M170.637 162.851H250.692C253.456 162.851 256.101 160.613 258.008 156.669H163.326C165.228 160.613 167.873 162.851 170.637 162.851Z" fill="#F5F1EA"/>
<path d="M153.648 196.381H269.577V178.264H153.648V196.381Z" fill="#F6EFE6"/>
<path d="M170.637 183.891H250.692C253.456 183.891 256.101 181.659 258.008 177.714H163.326C165.228 181.659 167.873 183.891 170.637 183.891Z" fill="#F5F1EA"/>
<path d="M270.321 142.012C270.321 142.012 269.801 154.035 249.972 154.035C230.142 154.035 229.629 142.012 229.629 142.012H270.321Z" fill="#EAE4DC"/>
<path d="M270.321 135.771C270.321 135.771 269.801 147.817 249.972 147.817C230.142 147.817 229.629 135.794 229.629 135.794L270.321 135.771Z" fill="#EAE4DC"/>
<path d="M236.327 49.4592C232.784 51.3961 231.603 57.1359 233.262 59.6337C227.121 61.4761 230.31 72.0344 240.349 72.6249C250.387 73.2154 258.028 69.5484 253.098 61.7182C257.975 55.1458 255.731 47.8058 251.456 48.6148C246.868 39.4206 231.503 39.6922 236.327 49.4592Z" fill="#263238"/>
<path d="M247.015 73.3337C245.467 73.3288 243.948 72.9043 242.622 72.1054C242.601 72.0977 242.581 72.0854 242.566 72.0694C242.55 72.0535 242.537 72.0342 242.53 72.0129C242.522 71.9917 242.519 71.969 242.521 71.9466C242.524 71.9241 242.531 71.9024 242.542 71.883C242.554 71.8636 242.569 71.8469 242.588 71.8342C242.606 71.8215 242.628 71.8131 242.65 71.8095C242.672 71.8059 242.695 71.8073 242.717 71.8135C242.738 71.8198 242.758 71.8307 242.775 71.8456C244.486 72.8696 246.508 73.2457 248.473 72.9054C250.437 72.5652 252.215 71.5312 253.481 69.9914C255.093 67.9955 255.843 64.7949 253.027 61.8069C253.013 61.7926 253.002 61.7757 252.995 61.7573C252.988 61.7388 252.985 61.7192 252.986 61.6994C252.986 61.6797 252.991 61.6602 252.999 61.6422C253.007 61.6242 253.018 61.6079 253.033 61.5944C253.047 61.5808 253.064 61.5702 253.082 61.5631C253.101 61.5561 253.12 61.5527 253.14 61.5533C253.16 61.5538 253.179 61.5583 253.197 61.5663C253.215 61.5744 253.232 61.5859 253.245 61.6003C256.162 64.7299 255.401 68.0959 253.712 70.1804C252.894 71.1633 251.87 71.955 250.713 72.4998C249.556 73.0446 248.294 73.3292 247.015 73.3337Z" fill="#263238"/>
<path d="M232.152 61.5941C232.122 61.5933 232.093 61.5832 232.069 61.5653C232.044 61.5473 232.026 61.5223 232.016 61.4937C230.446 56.9941 232.548 50.9532 236.262 49.2997C236.298 49.2868 236.338 49.2875 236.374 49.3016C236.41 49.3157 236.439 49.3423 236.457 49.3765C236.465 49.3943 236.469 49.4135 236.469 49.433C236.47 49.4524 236.466 49.4718 236.459 49.4899C236.452 49.508 236.441 49.5245 236.428 49.5385C236.414 49.5525 236.398 49.5637 236.38 49.5714C232.79 51.1657 230.764 57.0236 232.294 61.3815C232.3 61.4001 232.303 61.4198 232.302 61.4395C232.3 61.4591 232.295 61.4783 232.286 61.4959C232.278 61.5135 232.265 61.5292 232.25 61.542C232.236 61.5548 232.218 61.5645 232.199 61.5705L232.152 61.5941Z" fill="#263238"/>
<path d="M231.19 55.0929H231.137C231.101 55.0784 231.072 55.0509 231.055 55.0158C231.039 54.9808 231.036 54.9408 231.048 54.904C232.111 52.0872 234.119 49.9437 236.28 49.306C236.318 49.295 236.358 49.2994 236.392 49.3182C236.427 49.3371 236.452 49.3688 236.463 49.4063C236.474 49.4439 236.47 49.4843 236.451 49.5187C236.432 49.553 236.4 49.5784 236.363 49.5894C234.29 50.1799 232.359 52.2762 231.326 55.0103C231.313 55.0356 231.294 55.0568 231.27 55.0715C231.246 55.0861 231.218 55.0936 231.19 55.0929Z" fill="#263238"/>
<path d="M239.457 212.168L236.044 212.174L235.471 199.354L241.217 199.495L239.457 212.168Z" fill="#FFB573"/>
<path d="M233.522 101.542C233.522 101.542 233.221 137.12 232.471 152.609C232.442 153.07 232.442 153.531 232.471 153.991C233.593 169.516 235.453 199.354 235.453 199.354L241.234 199.502C241.234 199.502 246.271 175.675 243.153 154.092C248.167 129.68 250.865 107.896 246.324 101.536L233.522 101.542Z" fill="#60696E"/>
<path opacity="0.2" d="M243.207 115.673C241.435 121.614 243.159 140.711 244.075 149.521C245.321 143.155 246.383 137.032 247.169 131.387L243.207 115.673Z" fill="black"/>
<path d="M237.118 75.3594C236.9 76.5818 236.652 77.7214 236.386 78.9025C236.121 80.0835 235.849 81.2645 235.536 82.4455C234.916 84.8075 234.272 87.1223 233.422 89.4608C232.995 90.6697 232.498 91.8527 231.934 93.0038C231.621 93.6426 231.26 94.2565 230.853 94.8403C230.735 94.9997 230.629 95.1533 230.475 95.3304C230.328 95.5184 230.164 95.6924 229.985 95.85C229.532 96.2779 228.987 96.5952 228.391 96.7772C227.766 96.966 227.103 96.9924 226.466 96.8539C225.964 96.7377 225.485 96.5381 225.048 96.2634C224.387 95.8397 223.8 95.3089 223.312 94.6927C222.475 93.6505 221.807 92.4827 221.334 91.2323C221.23 90.9665 221.221 90.6729 221.309 90.4013C221.396 90.1296 221.575 89.8964 221.814 89.7409C222.053 89.5855 222.339 89.5174 222.623 89.5482C222.906 89.5789 223.171 89.7065 223.371 89.9095L223.442 89.9863C224.175 90.7604 224.965 91.4789 225.804 92.1358C226.132 92.3864 226.497 92.5855 226.885 92.7263C227.027 92.7617 227.127 92.7617 227.139 92.7263C227.151 92.6908 227.056 92.6672 226.974 92.6731C226.891 92.679 226.838 92.7085 226.861 92.6731C226.889 92.6216 226.921 92.5723 226.956 92.5255C227.014 92.454 227.066 92.3768 227.109 92.2952C227.357 91.8885 227.574 91.4642 227.759 91.0256C228.189 90.014 228.567 88.9812 228.893 87.9313C229.566 85.7701 230.18 83.5202 230.711 81.2586C231.243 78.9969 231.768 76.688 232.241 74.4323C232.386 73.8087 232.768 73.2658 233.306 72.9177C233.843 72.5696 234.495 72.4435 235.123 72.5659C235.752 72.6882 236.308 73.0495 236.676 73.5738C237.044 74.098 237.194 74.7444 237.095 75.3771L237.118 75.3594Z" fill="#FFB573"/>
<path d="M231.751 96.712C231.751 98.1647 254.391 98.4481 254.391 96.529L242.823 93.5764L231.751 96.712Z" fill="#263238"/>
<path d="M235.908 71.5502C241.877 70.5518 247.976 70.6117 253.924 71.7273C254.273 71.7826 254.607 71.9087 254.905 72.0979C255.204 72.2872 255.46 72.5355 255.659 72.8277C255.857 73.1198 255.994 73.4495 256.06 73.7965C256.127 74.1435 256.121 74.5004 256.044 74.8452C252.844 89.1768 253.027 93.9954 253.334 101.542H233.528C232.536 88.9525 232.01 81.766 231.881 77.6855C231.774 74.5736 232.843 72.0049 235.908 71.5502Z" fill="#FFB573"/>
<path opacity="0.2" d="M253.865 75.7131C253.741 77.7134 254.005 79.7188 254.645 81.6182C254.899 80.2541 255.194 78.7897 255.53 77.1894L253.865 75.7131Z" fill="black"/>
<path d="M247.423 61.0867C246.832 63.9506 246.295 69.2121 248.303 71.1253C248.303 71.1253 247.517 74.0365 242.191 74.0365C236.327 74.0365 239.386 71.1253 239.386 71.1253C242.587 70.3577 242.504 67.9838 241.949 65.7576L247.423 61.0867Z" fill="#FFB573"/>
<path opacity="0.2" d="M245.191 62.9937L241.949 65.775C242.087 66.2935 242.179 66.823 242.226 67.3575C243.449 67.1804 245.126 65.8399 245.256 64.5585C245.328 64.0372 245.306 63.5071 245.191 62.9937Z" fill="black"/>
<path d="M250.517 56.1147C249.419 60.7856 249.059 62.7875 246.26 64.8011C242.055 67.8363 236.552 65.4743 236.221 60.5672C235.926 56.1561 237.762 49.253 242.716 48.1665C243.805 47.9211 244.938 47.9578 246.008 48.2731C247.078 48.5883 248.049 49.1717 248.831 49.9678C249.612 50.7639 250.177 51.7465 250.472 52.8222C250.767 53.898 250.783 55.0313 250.517 56.1147Z" fill="#FFB573"/>
<path d="M248.734 49.0874C243.785 49.6366 245.291 58.8603 249.011 59.752C253.369 57.6203 256.056 49.5244 248.734 49.0874Z" fill="#263238"/>
<path d="M272.956 203.724L269.537 204.763L264.548 194.311L269.809 192.876L272.956 203.724Z" fill="#FFB573"/>
<path d="M238.961 101.542C238.961 101.542 246.242 138.786 248.999 153.507C251.852 168.86 264.559 194.288 264.559 194.288L269.833 192.847C269.833 192.847 262.611 165.648 259.245 152.167C258.583 127.755 259.363 107.879 253.34 101.519L238.961 101.542Z" fill="#60696E"/>
<path d="M242.77 56.085C242.705 56.4688 242.451 56.7464 242.179 56.6755C241.907 56.6047 241.777 56.2858 241.842 55.9019C241.907 55.5181 242.167 55.2406 242.433 55.2819C242.699 55.3232 242.84 55.7012 242.77 56.085Z" fill="#263238"/>
<path d="M238.429 55.3466C238.364 55.7304 238.105 56.008 237.839 55.9371C237.573 55.8662 237.437 55.5533 237.502 55.1635C237.567 54.7738 237.827 54.5022 238.093 54.573C238.359 54.6439 238.494 54.9628 238.429 55.3466Z" fill="#263238"/>
<path d="M238.199 54.6146L237.319 54.1895C237.319 54.1895 237.674 54.9925 238.199 54.6146Z" fill="#263238"/>
<path d="M239.646 56.2681C239.158 57.0848 238.562 57.8316 237.874 58.4884C238.046 58.6606 238.253 58.7936 238.482 58.8782C238.71 58.9628 238.954 58.997 239.197 58.9785L239.646 56.2681Z" fill="#ED893E"/>
<path d="M241.028 60.8384C240.829 60.8385 240.632 60.8207 240.437 60.7852C240.422 60.7831 240.408 60.778 240.395 60.7703C240.382 60.7625 240.371 60.7523 240.362 60.7402C240.354 60.7281 240.347 60.7143 240.344 60.6998C240.34 60.6852 240.34 60.6701 240.343 60.6553C240.348 60.6261 240.365 60.6001 240.389 60.5826C240.413 60.5651 240.443 60.5573 240.472 60.5608C240.949 60.6517 241.44 60.6295 241.907 60.4962C242.374 60.3629 242.803 60.1221 243.159 59.7932C243.17 59.7817 243.183 59.7726 243.197 59.7663C243.211 59.7601 243.226 59.7568 243.242 59.7568C243.257 59.7568 243.273 59.7601 243.287 59.7663C243.301 59.7726 243.314 59.7817 243.325 59.7932C243.345 59.8149 243.356 59.8434 243.356 59.8729C243.356 59.9024 243.345 59.9308 243.325 59.9526C242.706 60.5401 241.88 60.8586 241.028 60.8384Z" fill="#263238"/>
<path d="M251.19 60.1415C250.72 60.941 249.954 61.524 249.059 61.7654C247.877 62.0665 247.287 60.9977 247.653 59.8875C247.966 58.8896 248.97 57.5255 250.157 57.7086C250.415 57.7557 250.657 57.866 250.861 58.0298C251.066 58.1935 251.227 58.4055 251.329 58.6466C251.431 58.8878 251.472 59.1506 251.448 59.4115C251.424 59.6724 251.335 59.9233 251.19 60.1415Z" fill="#FFB573"/>
<path d="M244.653 55.4943C244.606 55.4938 244.559 55.4781 244.521 55.4494C244.483 55.4208 244.455 55.3806 244.441 55.3349C244.128 54.3251 242.835 53.8881 242.823 53.8881C242.794 53.8794 242.767 53.8649 242.743 53.8455C242.72 53.8261 242.701 53.8021 242.687 53.7751C242.673 53.748 242.665 53.7184 242.663 53.6881C242.661 53.6578 242.665 53.6274 242.675 53.5988C242.684 53.5697 242.698 53.5426 242.718 53.5193C242.737 53.4959 242.761 53.4768 242.788 53.463C242.815 53.4492 242.845 53.441 242.875 53.439C242.905 53.4369 242.936 53.4411 242.964 53.4511C243.024 53.4511 244.494 53.9649 244.878 55.2227C244.887 55.2517 244.89 55.2823 244.887 55.3127C244.884 55.343 244.876 55.3725 244.861 55.3994C244.847 55.4263 244.828 55.4501 244.804 55.4695C244.781 55.4888 244.753 55.5032 244.724 55.512L244.653 55.4943Z" fill="#263238"/>
<path d="M237.461 53.1148C237.422 53.1143 237.383 53.1037 237.349 53.0841C237.315 53.0644 237.286 53.0364 237.266 53.0026C237.236 52.9493 237.229 52.8864 237.246 52.8278C237.262 52.7691 237.301 52.7194 237.355 52.6896C237.666 52.5015 238.017 52.3905 238.38 52.3658C238.742 52.3412 239.106 52.4036 239.439 52.5479C239.493 52.5757 239.533 52.6234 239.552 52.6809C239.571 52.7383 239.566 52.8008 239.54 52.8549C239.512 52.9086 239.464 52.9492 239.407 52.968C239.349 52.9868 239.287 52.9822 239.232 52.9553C238.966 52.8462 238.677 52.8012 238.39 52.8237C238.103 52.8463 237.825 52.9358 237.579 53.0852C237.544 53.1067 237.502 53.117 237.461 53.1148Z" fill="#263238"/>
<path d="M255.542 72.5485C257.225 74.7511 258.755 76.9773 260.207 79.3276C260.928 80.5086 261.636 81.6896 262.286 82.9474C262.992 84.2507 263.575 85.6167 264.028 87.0278C264.093 87.2168 264.14 87.4353 264.193 87.6183L264.235 87.7896L264.288 88.0376C264.312 88.1921 264.327 88.3479 264.335 88.5041C264.362 89.0166 264.324 89.5304 264.223 90.0335C264.055 90.8312 263.803 91.609 263.473 92.3542C262.89 93.6708 262.203 94.9386 261.418 96.1453C259.923 98.4643 258.242 100.658 256.393 102.706C256.19 102.933 255.91 103.076 255.608 103.109C255.305 103.141 255.002 103.06 254.756 102.882C254.509 102.703 254.338 102.439 254.275 102.142C254.212 101.844 254.262 101.534 254.414 101.271V101.241C255.719 98.9679 257.013 96.6295 258.129 94.3147C258.676 93.1987 259.151 92.0488 259.552 90.872C259.724 90.3723 259.843 89.8556 259.906 89.3308C259.928 89.176 259.928 89.019 259.906 88.8643V88.8289V88.758C259.865 88.6399 259.835 88.5336 259.782 88.4096C259.322 87.3025 258.782 86.2307 258.164 85.2031C257.515 84.1107 256.824 83.0183 256.115 81.9258C254.674 79.7646 253.163 77.5915 251.627 75.4893C251.259 74.9618 251.111 74.3119 251.214 73.6771C251.318 73.0424 251.664 72.4727 252.18 72.0888C252.696 71.7049 253.341 71.537 253.978 71.6206C254.616 71.7042 255.196 72.0328 255.595 72.5367L255.542 72.5485Z" fill="#FFB573"/>
<path d="M242.545 55.3527L241.665 54.9275C241.665 54.9275 242.014 55.7365 242.545 55.3527Z" fill="#263238"/>
<path d="M232.436 76.2741C232.8 74.7843 233.27 73.3221 233.841 71.8985C234.747 71.6279 235.673 71.4304 236.611 71.3079C238.52 73.0006 240.091 75.0405 241.24 77.3193C243.773 74.7565 248.622 72.1642 251.574 71.2194C252.573 71.1564 253.575 71.2826 254.527 71.5914C252.513 77.9453 250.458 84.3346 254.101 85.9762C254.036 88.9937 254.208 92.7375 254.361 96.5227C250.919 96.1447 237.266 95.4893 231.721 96.7057C231.438 92.8674 231.337 89.6196 231.355 86.8147C228.775 83.5256 231.361 79.0495 232.436 76.2741Z" fill="#1D3947"/>
<mask id="mask0_8732_57947" style="mask-type:luminance" maskUnits="userSpaceOnUse" x="230" y="71" width="25" height="26">
<path d="M232.436 76.2741C232.8 74.7843 233.27 73.3221 233.841 71.8985C234.747 71.6279 235.673 71.4304 236.611 71.3079C238.52 73.0006 240.091 75.0405 241.24 77.3193C243.773 74.7565 248.622 72.1642 251.574 71.2194C252.573 71.1564 253.575 71.2826 254.527 71.5914C252.513 77.9453 250.458 84.3346 254.101 85.9762C254.036 88.9937 254.208 92.7375 254.361 96.5227C250.919 96.1447 237.266 95.4893 231.721 96.7057C231.438 92.8674 231.337 89.6196 231.355 86.8147C228.775 83.5256 231.361 79.0495 232.436 76.2741Z" fill="white"/>
</mask>
<g mask="url(#mask0_8732_57947)">
<g opacity="0.2">
<path d="M237.862 88.0901C237.832 88.0938 237.802 88.1056 237.777 88.1242C237.753 88.1429 237.733 88.1678 237.721 88.1964C237.302 89.3709 237.315 90.656 237.756 91.8221C237.349 91.4796 236.947 91.143 236.575 90.8005C236.908 90.0894 237.036 89.3 236.947 88.5201C236.857 87.7403 236.553 87.0006 236.067 86.3835C236.049 86.3594 236.024 86.3403 235.997 86.3279C235.969 86.3155 235.938 86.3103 235.908 86.3127C235.877 86.3151 235.847 86.3264 235.822 86.3452C235.796 86.364 235.777 86.3896 235.766 86.419C235.334 87.6264 235.361 88.9506 235.843 90.1392C235.311 89.6549 234.804 89.1707 234.337 88.7042C234.686 87.9895 234.826 87.191 234.741 86.4003C234.657 85.6096 234.351 84.8588 233.859 84.2341C233.84 84.2099 233.816 84.1908 233.788 84.1784C233.76 84.166 233.73 84.1608 233.699 84.1632C233.668 84.1657 233.638 84.177 233.613 84.1958C233.588 84.2146 233.569 84.2402 233.558 84.2695C233.128 85.4794 233.156 86.8044 233.634 87.9956C232.825 87.1512 232.152 86.3835 231.65 85.7458C231.47 85.0318 231.112 84.3751 230.609 83.8371C230.106 83.2991 229.475 82.8973 228.775 82.6692C228.746 82.6643 228.717 82.6661 228.689 82.6746C228.661 82.6832 228.636 82.6981 228.616 82.7183C228.595 82.7385 228.579 82.7633 228.57 82.7907C228.56 82.8181 228.558 82.8473 228.562 82.8759C229.093 85.4919 231.018 85.9465 231.408 86.0115C231.686 86.3599 231.999 86.7437 232.377 87.1571C231.451 86.7424 230.421 86.6188 229.424 86.8028C229.394 86.8097 229.366 86.8251 229.344 86.847C229.322 86.8689 229.307 86.8966 229.3 86.9268C229.291 86.956 229.29 86.987 229.296 87.0169C229.302 87.0468 229.316 87.0747 229.336 87.098C229.843 87.677 230.503 88.1026 231.239 88.3269C231.976 88.5512 232.76 88.5653 233.505 88.3676C233.835 88.7101 234.19 89.0585 234.562 89.4187C233.311 89.0612 231.976 89.1403 230.776 89.6431C230.748 89.6582 230.724 89.6807 230.708 89.7083C230.691 89.7359 230.682 89.7674 230.682 89.7996C230.682 89.8318 230.691 89.8633 230.708 89.8909C230.724 89.9185 230.748 89.941 230.776 89.9561C231.451 90.3759 232.223 90.6116 233.017 90.6395C233.81 90.6675 234.598 90.4868 235.3 90.1155C235.796 90.582 236.321 91.0485 236.865 91.515C235.655 90.969 234.286 90.8891 233.02 91.2907C232.991 91.3025 232.965 91.3219 232.945 91.3467C232.926 91.3715 232.913 91.4011 232.908 91.4324C232.905 91.4631 232.909 91.4941 232.921 91.5229C232.932 91.5516 232.95 91.5773 232.973 91.5977C233.595 92.1012 234.343 92.4229 235.137 92.5272C235.93 92.6314 236.736 92.5141 237.467 92.1882L237.514 92.1587C237.533 92.1391 237.545 92.1145 237.55 92.0878L238.217 92.6311C238.237 92.659 238.266 92.6796 238.299 92.6902C238.654 92.9736 239.014 93.2511 239.38 93.5228C239.412 93.5502 239.453 93.5653 239.495 93.5653C239.537 93.5653 239.578 93.5502 239.61 93.5228C239.624 93.5038 239.634 93.4823 239.639 93.4596C239.644 93.4368 239.645 93.4132 239.641 93.3902C239.637 93.3671 239.629 93.345 239.617 93.3252C239.604 93.3054 239.588 93.2883 239.569 93.2748C239.232 93.0208 238.896 92.7669 238.571 92.5012C238.878 91.7978 238.988 91.0244 238.89 90.2633C238.793 89.5022 238.491 88.7817 238.016 88.1787C238 88.1517 237.978 88.1293 237.951 88.1138C237.924 88.0982 237.894 88.0901 237.862 88.0901Z" fill="white"/>
<path d="M232.04 78.9432C232.071 78.9395 232.1 78.9277 232.125 78.9091C232.15 78.8904 232.17 78.8655 232.182 78.8369C232.601 77.6624 232.588 76.3773 232.146 75.2112C232.554 75.5537 232.955 75.8903 233.327 76.2328C232.995 76.9439 232.866 77.7333 232.956 78.5132C233.046 79.2931 233.35 80.0327 233.835 80.6498C233.854 80.6739 233.878 80.6931 233.906 80.7054C233.934 80.7178 233.964 80.723 233.995 80.7207C234.026 80.7182 234.056 80.7069 234.081 80.6881C234.106 80.6693 234.125 80.6437 234.136 80.6144C234.569 79.407 234.541 78.0827 234.06 76.8942C234.591 77.3784 235.099 77.8626 235.565 78.3291C235.217 79.0438 235.077 79.8423 235.161 80.633C235.246 81.4237 235.552 82.1745 236.044 82.7992C236.062 82.8234 236.087 82.8425 236.115 82.8549C236.142 82.8673 236.173 82.8725 236.203 82.8701C236.235 82.8677 236.264 82.8564 236.29 82.8375C236.315 82.8187 236.334 82.7932 236.345 82.7638C236.774 81.5539 236.747 80.2289 236.268 79.0377C237.077 79.8821 237.75 80.6498 238.252 81.2875C238.433 82.0016 238.791 82.6582 239.294 83.1962C239.797 83.7343 240.428 84.136 241.128 84.3641C241.157 84.3691 241.186 84.3672 241.213 84.3587C241.241 84.3501 241.266 84.3352 241.287 84.315C241.308 84.2948 241.324 84.27 241.333 84.2426C241.342 84.2153 241.345 84.186 241.341 84.1574C240.809 81.5415 238.884 81.0868 238.494 81.0218C238.217 80.6734 237.904 80.2896 237.526 79.8762C238.451 80.2926 239.482 80.4143 240.479 80.2246C240.509 80.2195 240.536 80.2055 240.559 80.1845C240.581 80.1634 240.596 80.1363 240.603 80.1065C240.611 80.0773 240.613 80.0463 240.607 80.0164C240.6 79.9865 240.587 79.9586 240.567 79.9353C240.059 79.3564 239.4 78.9308 238.663 78.7064C237.927 78.4821 237.142 78.468 236.398 78.6657C236.067 78.3232 235.713 77.9748 235.341 77.6146C236.592 77.9722 237.927 77.893 239.126 77.3902C239.155 77.3751 239.178 77.3526 239.195 77.325C239.212 77.2974 239.22 77.2659 239.22 77.2337C239.22 77.2015 239.212 77.17 239.195 77.1424C239.178 77.1148 239.155 77.0923 239.126 77.0772C238.452 76.6574 237.68 76.4218 236.886 76.3938C236.092 76.3658 235.305 76.5465 234.603 76.9178C234.107 76.4513 233.581 75.9848 233.038 75.5183C234.248 76.0643 235.617 76.1442 236.882 75.7427C236.911 75.7299 236.936 75.7103 236.956 75.6856C236.975 75.6609 236.989 75.6319 236.995 75.6009C236.998 75.5702 236.993 75.5392 236.982 75.5104C236.971 75.4817 236.953 75.456 236.93 75.4356C236.308 74.9321 235.559 74.6104 234.766 74.5062C233.973 74.4019 233.166 74.5192 232.436 74.8451L232.389 74.8746C232.37 74.8942 232.358 74.9189 232.353 74.9455L231.686 74.4022C231.665 74.3743 231.636 74.3537 231.603 74.3432C231.249 74.0597 230.889 73.7822 230.523 73.5105C230.49 73.4831 230.45 73.468 230.407 73.468C230.365 73.468 230.324 73.4831 230.292 73.5105C230.266 73.5486 230.254 73.5955 230.261 73.6416C230.267 73.6876 230.291 73.7295 230.328 73.7586C230.67 74.0125 231.007 74.2664 231.332 74.5321C231.025 75.2355 230.914 76.0089 231.012 76.77C231.11 77.5312 231.412 78.2516 231.887 78.8546C231.902 78.8816 231.925 78.904 231.952 78.9195C231.978 78.9351 232.009 78.9432 232.04 78.9432Z" fill="white"/>
<path d="M250.246 92.401C250.216 92.4052 250.187 92.4165 250.162 92.4339C250.138 92.4514 250.118 92.4745 250.104 92.5014C249.69 93.6767 249.703 94.96 250.139 96.1271C249.732 95.7905 249.33 95.448 248.958 95.1055C249.291 94.3955 249.42 93.6069 249.33 92.8279C249.24 92.049 248.936 91.3103 248.45 90.6944C248.432 90.6701 248.408 90.6509 248.38 90.6387C248.352 90.6265 248.322 90.6216 248.291 90.6246C248.261 90.6275 248.232 90.6382 248.207 90.6556C248.182 90.673 248.162 90.6966 248.149 90.7239C247.72 91.9338 247.747 93.2589 248.226 94.45C247.695 93.9599 247.187 93.4816 246.72 93.0151C247.07 92.3018 247.211 91.5039 247.127 90.7138C247.042 89.9237 246.735 89.1737 246.242 88.5509C246.225 88.5254 246.2 88.5052 246.172 88.4927C246.144 88.4802 246.113 88.4758 246.082 88.48C246.052 88.4837 246.024 88.4948 245.999 88.5123C245.974 88.5298 245.954 88.5532 245.941 88.5804C245.511 89.7903 245.539 91.1153 246.017 92.3065C245.208 91.468 244.535 90.6944 244.033 90.0567C243.851 89.3436 243.492 88.6879 242.989 88.1502C242.487 87.6125 241.857 87.2101 241.158 86.9801C241.129 86.9743 241.1 86.9756 241.072 86.9839C241.044 86.9921 241.019 87.007 240.998 87.0274C240.977 87.0487 240.961 87.0748 240.951 87.1036C240.942 87.1323 240.94 87.1629 240.945 87.1927C241.476 89.8027 243.407 90.2574 243.791 90.3224C244.069 90.6708 244.382 91.0605 244.76 91.4739C243.834 91.0588 242.804 90.9352 241.807 91.1196C241.777 91.1277 241.75 91.1434 241.729 91.1652C241.707 91.1869 241.691 91.2139 241.683 91.2436C241.674 91.2719 241.673 91.302 241.679 91.3309C241.685 91.3599 241.699 91.3868 241.719 91.4089C242.223 91.9918 242.882 92.4202 243.62 92.6448C244.358 92.8695 245.144 92.8811 245.888 92.6785C246.218 93.021 246.573 93.3753 246.945 93.7355C245.694 93.3746 244.358 93.4538 243.159 93.9599C243.132 93.976 243.11 93.9984 243.093 94.0251C243.077 94.0518 243.067 94.0821 243.065 94.1135C243.064 94.1447 243.072 94.1755 243.088 94.2026C243.103 94.2296 243.126 94.2519 243.153 94.267C243.827 94.6871 244.6 94.9235 245.393 94.9525C246.187 94.9815 246.974 94.8022 247.677 94.4323C248.173 94.8929 248.698 95.3594 249.242 95.8318C248.032 95.2858 246.663 95.2059 245.397 95.6074C245.368 95.6193 245.342 95.6386 245.323 95.6635C245.303 95.6883 245.29 95.7178 245.285 95.7492C245.282 95.7796 245.286 95.8105 245.299 95.8386C245.311 95.8666 245.331 95.8908 245.356 95.9086C245.978 96.4121 246.727 96.7338 247.52 96.838C248.313 96.9423 249.119 96.825 249.85 96.4991L249.891 96.4637C249.908 96.4444 249.922 96.4224 249.933 96.3987L250.6 96.942C250.618 96.9694 250.645 96.9902 250.677 97.001C251.031 97.2845 251.391 97.562 251.757 97.8396C251.789 97.867 251.83 97.8821 251.872 97.8821C251.915 97.8821 251.955 97.867 251.988 97.8396C252.016 97.802 252.028 97.7547 252.021 97.7082C252.015 97.6617 251.99 97.6197 251.952 97.5916C251.61 97.3376 251.279 97.0778 250.948 96.818C251.256 96.1152 251.368 95.342 251.271 94.5808C251.175 93.8195 250.873 93.0988 250.399 92.4955C250.384 92.4678 250.362 92.4446 250.335 92.428C250.308 92.4115 250.277 92.4021 250.246 92.401Z" fill="white"/>
<path d="M261.601 96.4815C261.57 96.484 261.54 96.4953 261.515 96.5141C261.49 96.5329 261.47 96.5585 261.459 96.5878C261.038 97.7615 261.049 99.0468 261.489 100.214C261.081 99.8711 260.686 99.5286 260.308 99.192C260.642 98.4816 260.772 97.6923 260.683 96.9123C260.595 96.1323 260.291 95.3923 259.806 94.775C259.787 94.7499 259.761 94.7302 259.732 94.7178C259.704 94.7054 259.672 94.7007 259.641 94.7041C259.61 94.7084 259.581 94.7204 259.556 94.739C259.531 94.7576 259.511 94.7821 259.499 94.8104C259.069 96.0182 259.097 97.3415 259.576 98.5306C259.044 98.0464 258.542 97.5622 258.076 97.0957C258.424 96.381 258.564 95.5825 258.48 94.7918C258.395 94.0011 258.089 93.2502 257.597 92.6255C257.579 92.6014 257.554 92.5822 257.527 92.5699C257.499 92.5575 257.468 92.5523 257.438 92.5547C257.407 92.5571 257.377 92.5684 257.352 92.5872C257.327 92.606 257.307 92.6316 257.296 92.6609C256.864 93.8704 256.891 95.1964 257.373 96.3871C256.564 95.5426 255.885 94.775 255.389 94.1372C255.209 93.4232 254.85 92.7665 254.347 92.2285C253.844 91.6905 253.213 91.2887 252.513 91.0607C252.484 91.0542 252.454 91.0551 252.426 91.0631C252.398 91.0711 252.372 91.086 252.351 91.1065C252.33 91.127 252.314 91.1525 252.305 91.1806C252.297 91.2086 252.295 91.2385 252.3 91.2673C252.832 93.8833 254.757 94.338 255.147 94.4029C255.418 94.7513 255.737 95.1352 256.115 95.5485C255.189 95.1349 254.16 95.0114 253.163 95.1942C253.133 95.2033 253.107 95.2194 253.085 95.241C253.064 95.2626 253.048 95.2891 253.039 95.3182C253.031 95.348 253.03 95.3792 253.037 95.4092C253.045 95.4391 253.059 95.4667 253.08 95.4895C253.587 96.0674 254.245 96.4923 254.981 96.7166C255.716 96.9409 256.5 96.9556 257.243 96.7591C257.58 97.1016 257.928 97.45 258.3 97.8102C257.051 97.4526 255.718 97.5317 254.521 98.0346C254.492 98.0489 254.468 98.0708 254.452 98.0979C254.435 98.125 254.426 98.1563 254.426 98.1881C254.426 98.2195 254.433 98.2504 254.448 98.2783C254.462 98.3061 254.483 98.3299 254.509 98.3475C255.185 98.7656 255.958 99.0002 256.752 99.0282C257.547 99.0561 258.335 98.8765 259.038 98.507C259.534 98.9715 260.054 99.438 260.597 99.9065C259.387 99.3605 258.018 99.2806 256.753 99.6821C256.724 99.6932 256.698 99.7124 256.679 99.7375C256.66 99.7626 256.649 99.7925 256.647 99.8238C256.644 99.8546 256.648 99.8856 256.659 99.9143C256.67 99.9431 256.688 99.9687 256.712 99.9892C257.334 100.492 258.082 100.813 258.875 100.918C259.668 101.022 260.475 100.905 261.205 100.58C261.219 100.582 261.233 100.582 261.247 100.58C261.269 100.562 261.284 100.537 261.288 100.509L261.955 101.052C261.975 101.078 262.002 101.099 262.032 101.111C262.386 101.395 262.747 101.672 263.113 101.944C263.145 101.971 263.186 101.986 263.228 101.986C263.27 101.986 263.311 101.971 263.343 101.944C263.358 101.925 263.369 101.904 263.375 101.882C263.381 101.859 263.383 101.835 263.379 101.812C263.376 101.789 263.368 101.766 263.355 101.746C263.343 101.726 263.327 101.709 263.308 101.696L262.304 100.922C262.612 100.219 262.724 99.4462 262.627 98.685C262.53 97.9237 262.229 97.203 261.755 96.5996C261.743 96.5676 261.722 96.5395 261.695 96.5186C261.668 96.4977 261.635 96.4849 261.601 96.4815Z" fill="white"/>
<path d="M235.636 97.1488C235.606 97.1514 235.577 97.162 235.552 97.1797C235.527 97.1973 235.507 97.2213 235.495 97.2492C235.073 98.4229 235.084 99.7082 235.524 100.875C235.117 100.538 234.721 100.196 234.343 99.8533C234.677 99.1429 234.807 98.3536 234.718 97.5736C234.63 96.7936 234.326 96.0536 233.841 95.4363C233.822 95.4123 233.797 95.3937 233.768 95.382C233.74 95.3704 233.709 95.3661 233.678 95.3696C233.647 95.3732 233.618 95.3844 233.593 95.4022C233.568 95.4201 233.548 95.444 233.534 95.4717C233.105 96.6816 233.132 98.0067 233.611 99.1979C233.079 98.7077 232.577 98.2294 232.111 97.7629C232.46 97.0482 232.6 96.2497 232.515 95.459C232.431 94.6683 232.125 93.9175 231.633 93.2928C231.615 93.2683 231.59 93.2494 231.562 93.2379C231.534 93.2264 231.503 93.223 231.473 93.2278C231.442 93.2291 231.413 93.2392 231.387 93.257C231.362 93.2748 231.343 93.2996 231.331 93.3282C230.899 94.5376 230.927 95.8637 231.408 97.0543C230.709 96.3388 230.047 95.5879 229.424 94.8045C229.242 94.0914 228.883 93.4357 228.38 92.898C227.878 92.3603 227.248 91.9579 226.548 91.7279C226.519 91.7221 226.489 91.7234 226.46 91.7316C226.431 91.7398 226.405 91.7548 226.383 91.7752C226.364 91.7968 226.35 91.8223 226.342 91.8498C226.334 91.8773 226.332 91.9062 226.336 91.9346C226.867 94.5505 228.792 95.0052 229.182 95.0702C229.454 95.4186 229.773 95.8024 230.15 96.2512C229.226 95.8317 228.195 95.708 227.198 95.8969C227.169 95.9045 227.142 95.9193 227.121 95.94C227.099 95.9606 227.083 95.9865 227.074 96.015C227.066 96.0447 227.065 96.076 227.073 96.1059C227.08 96.1359 227.095 96.1635 227.115 96.1863C227.619 96.7692 228.277 97.1978 229.013 97.4225C229.75 97.6471 230.535 97.6587 231.278 97.4558C231.615 97.7983 231.963 98.1527 232.335 98.5129C231.087 98.1494 229.752 98.2287 228.556 98.7373C228.528 98.7505 228.504 98.7714 228.488 98.7975C228.471 98.8236 228.462 98.8539 228.462 98.8849C228.461 98.9163 228.468 98.9475 228.482 98.9754C228.497 99.0034 228.518 99.0271 228.544 99.0443C229.219 99.4644 229.992 99.7007 230.787 99.7297C231.581 99.7587 232.37 99.5794 233.074 99.2097C233.57 99.6703 234.089 100.137 234.632 100.603C233.422 100.059 232.053 99.9808 230.788 100.385C230.76 100.395 230.735 100.414 230.716 100.438C230.697 100.462 230.685 100.49 230.682 100.521C230.678 100.551 230.682 100.583 230.693 100.612C230.704 100.641 230.723 100.666 230.747 100.686C231.369 101.189 232.118 101.51 232.911 101.614C233.704 101.719 234.51 101.602 235.241 101.276C235.254 101.279 235.268 101.279 235.282 101.276C235.303 101.26 235.318 101.237 235.323 101.211L235.991 101.755C236.01 101.781 236.037 101.801 236.067 101.814C236.428 102.097 236.782 102.375 237.148 102.652C237.18 102.68 237.221 102.695 237.263 102.695C237.305 102.695 237.346 102.68 237.378 102.652C237.393 102.634 237.404 102.613 237.41 102.59C237.416 102.568 237.418 102.544 237.415 102.521C237.411 102.497 237.403 102.475 237.391 102.455C237.378 102.435 237.362 102.418 237.343 102.404L236.339 101.631C236.647 100.927 236.759 100.153 236.662 99.3907C236.565 98.6286 236.264 97.9069 235.79 97.3023C235.787 97.2625 235.77 97.225 235.742 97.1968C235.714 97.1686 235.676 97.1515 235.636 97.1488Z" fill="white"/>
<path d="M249.867 72.2708C249.837 72.275 249.808 72.287 249.783 72.3056C249.758 72.3242 249.738 72.3488 249.726 72.377C249.312 73.5524 249.325 74.8357 249.761 76.0028C249.354 75.6603 248.952 75.3237 248.58 74.9812C248.913 74.2701 249.041 73.4806 248.952 72.7008C248.862 71.9209 248.558 71.1812 248.072 70.5642C248.054 70.54 248.029 70.5209 248.002 70.5085C247.974 70.4962 247.943 70.4909 247.913 70.4933C247.882 70.4958 247.852 70.5071 247.827 70.5259C247.802 70.5447 247.782 70.5703 247.771 70.5996C247.342 71.8075 247.369 73.1307 247.848 74.3198C247.316 73.8356 246.809 73.3514 246.342 72.8849C246.691 72.1702 246.831 71.3717 246.746 70.581C246.662 69.7903 246.356 69.0394 245.864 68.4147C245.846 68.3902 245.821 68.3707 245.793 68.3583C245.766 68.3459 245.735 68.3409 245.704 68.3439C245.673 68.3463 245.643 68.3576 245.618 68.3764C245.593 68.3953 245.574 68.4208 245.563 68.4502C245.133 69.66 245.161 70.9851 245.639 72.1763C244.83 71.3318 244.157 70.5642 243.655 69.9264C243.475 69.2124 243.117 68.5557 242.614 68.0177C242.111 67.4797 241.48 67.0779 240.78 66.8499C240.751 66.8449 240.722 66.8468 240.694 66.8553C240.666 66.8638 240.641 66.8788 240.621 66.899C240.6 66.9191 240.584 66.9439 240.575 66.9713C240.565 66.9987 240.563 67.0279 240.567 67.0566C241.098 69.6725 243.029 70.1272 243.413 70.1922C243.691 70.5406 244.004 70.9244 244.382 71.3377C243.456 70.9227 242.426 70.7991 241.429 70.9834C241.4 70.9926 241.373 71.0086 241.352 71.0302C241.33 71.0518 241.314 71.0783 241.305 71.1074C241.296 71.1367 241.295 71.1677 241.301 71.1976C241.307 71.2275 241.321 71.2554 241.341 71.2787C241.848 71.8576 242.508 72.2832 243.244 72.5075C243.981 72.7319 244.765 72.746 245.51 72.5483C245.84 72.8908 246.195 73.2392 246.567 73.5994C245.316 73.2418 243.981 73.321 242.781 73.8238C242.754 73.8399 242.732 73.8622 242.715 73.889C242.699 73.9157 242.689 73.946 242.687 73.9773C242.686 74.0093 242.694 74.0409 242.71 74.0689C242.725 74.0968 242.748 74.1202 242.775 74.1368C243.45 74.5566 244.222 74.7922 245.016 74.8202C245.81 74.8482 246.597 74.6675 247.299 74.2962C247.795 74.7627 248.32 75.2292 248.864 75.6957C247.654 75.1497 246.285 75.0698 245.019 75.4713C244.99 75.4832 244.964 75.5025 244.945 75.5274C244.925 75.5522 244.912 75.5817 244.907 75.613C244.904 75.6444 244.909 75.676 244.921 75.705C244.933 75.734 244.953 75.7592 244.978 75.7784C245.599 76.2814 246.347 76.6028 247.139 76.707C247.931 76.8113 248.736 76.6942 249.466 76.3689L249.513 76.3394C249.532 76.3198 249.544 76.2951 249.549 76.2685L250.216 76.8118C250.238 76.8384 250.266 76.8588 250.299 76.8708C250.653 77.1543 251.013 77.4318 251.379 77.7034C251.411 77.7309 251.452 77.746 251.494 77.746C251.537 77.746 251.577 77.7309 251.609 77.7034C251.638 77.6658 251.65 77.6186 251.643 77.5721C251.636 77.5256 251.612 77.4836 251.574 77.4554C251.232 77.2015 250.901 76.9476 250.57 76.6819C250.878 75.9791 250.99 75.2059 250.893 74.4446C250.797 73.6834 250.495 72.9627 250.021 72.3593C250.004 72.3335 249.982 72.312 249.955 72.2966C249.928 72.2812 249.898 72.2723 249.867 72.2708Z" fill="white"/>
<path d="M244.258 83.4902C244.288 83.4876 244.317 83.4769 244.342 83.4593C244.367 83.4416 244.387 83.4176 244.399 83.3898C244.821 82.216 244.81 80.9308 244.37 79.764C244.777 80.1006 245.173 80.4431 245.551 80.7856C245.217 81.496 245.087 82.2853 245.176 83.0653C245.264 83.8453 245.568 84.5853 246.053 85.2026C246.072 85.2266 246.097 85.2453 246.126 85.2569C246.154 85.2686 246.186 85.2729 246.216 85.2693C246.247 85.2658 246.276 85.2546 246.301 85.2367C246.326 85.2189 246.347 85.195 246.36 85.1672C246.789 83.9573 246.762 82.6323 246.283 81.4411C246.815 81.9292 247.317 82.4076 247.789 82.876C247.44 83.5907 247.3 84.3892 247.385 85.1799C247.469 85.9706 247.775 86.7215 248.267 87.3462C248.287 87.3701 248.312 87.3888 248.34 87.4005C248.369 87.4121 248.4 87.4164 248.431 87.4129C248.461 87.4093 248.49 87.3981 248.516 87.3803C248.541 87.3624 248.561 87.3385 248.574 87.3108C249.005 86.1006 248.975 84.7745 248.492 83.5846C249.191 84.3001 249.853 85.051 250.476 85.8345C250.658 86.5485 251.018 87.2048 251.522 87.7426C252.026 88.2805 252.657 88.6824 253.357 88.911C253.386 88.9168 253.415 88.9155 253.443 88.9073C253.471 88.899 253.496 88.8841 253.517 88.8638C253.537 88.8419 253.552 88.8155 253.56 88.7868C253.569 88.7581 253.57 88.7278 253.564 88.6985C253.039 86.0884 251.108 85.6337 250.718 85.5688C250.446 85.2204 250.127 84.8365 249.749 84.3877C250.674 84.8072 251.705 84.931 252.702 84.742C252.731 84.7344 252.758 84.7196 252.779 84.699C252.801 84.6783 252.817 84.6525 252.826 84.6239C252.834 84.5942 252.835 84.5629 252.827 84.533C252.82 84.5031 252.805 84.4755 252.785 84.4527C252.281 83.8697 251.623 83.4412 250.887 83.2165C250.15 82.9918 249.365 82.9802 248.622 83.1831C248.291 82.8406 247.937 82.4863 247.565 82.1261C248.812 82.4895 250.148 82.4102 251.344 81.9017C251.372 81.8874 251.396 81.8655 251.413 81.8384C251.43 81.8112 251.438 81.78 251.438 81.7482C251.44 81.7174 251.433 81.6867 251.419 81.6596C251.404 81.6325 251.382 81.61 251.356 81.5946C250.681 81.1745 249.908 80.9382 249.113 80.9092C248.319 80.8802 247.53 81.0595 246.826 81.4293C246.33 80.9687 245.811 80.5022 245.268 80.0357C246.479 80.5776 247.847 80.6553 249.112 80.2542C249.14 80.2435 249.165 80.2252 249.184 80.2012C249.203 80.1773 249.215 80.1486 249.218 80.1183C249.223 80.0875 249.22 80.0558 249.209 80.0266C249.197 79.9975 249.178 79.972 249.153 79.953C248.532 79.4483 247.783 79.1258 246.99 79.0215C246.196 78.9173 245.39 79.0353 244.659 79.3625C244.646 79.3598 244.632 79.3598 244.618 79.3625C244.601 79.3818 244.587 79.4037 244.577 79.4275L243.909 78.8842C243.891 78.8567 243.864 78.836 243.833 78.8251C243.478 78.5417 243.118 78.2346 242.752 77.9866C242.72 77.9592 242.679 77.9441 242.637 77.9441C242.595 77.9441 242.554 77.9592 242.522 77.9866C242.493 78.0242 242.481 78.0714 242.488 78.118C242.495 78.1645 242.519 78.2064 242.557 78.2346L243.561 79.0082C243.253 79.712 243.141 80.4861 243.238 81.2482C243.335 82.0104 243.636 82.7321 244.11 83.3366C244.116 83.3744 244.133 83.4095 244.159 83.4371C244.186 83.4646 244.22 83.4832 244.258 83.4902Z" fill="white"/>
</g>
</g>
<path d="M246.85 88.5689L207.286 92.5607C206.231 92.6681 205.261 93.1898 204.59 94.0113C203.919 94.8328 203.602 95.8869 203.707 96.9423L205.066 110.471C206.096 109.741 207.3 109.293 208.557 109.174C209.814 109.054 211.081 109.266 212.231 109.789C213.38 110.312 214.373 111.127 215.109 112.153C215.845 113.179 216.3 114.38 216.427 115.637C216.554 116.893 216.349 118.161 215.833 119.314C215.317 120.467 214.508 121.464 213.486 122.206C212.464 122.948 211.266 123.41 210.01 123.544C208.754 123.678 207.485 123.481 206.329 122.972L207.693 136.5C207.802 137.555 208.324 138.525 209.145 139.196C209.966 139.868 211.019 140.187 212.075 140.085L251.639 136.099C252.694 135.989 253.664 135.465 254.335 134.644C255.006 133.822 255.326 132.768 255.223 131.711L251.237 92.1474C251.126 91.0929 250.602 90.1253 249.78 89.4551C248.958 88.7849 247.905 88.4664 246.85 88.5689Z" fill="#EF4E23"/>
<path d="M257.645 100.704L255.814 99.9065L251.515 101.005C251.022 101.134 250.586 101.422 250.275 101.826L249.366 103.007C249.172 103.265 249.074 103.583 249.088 103.906C249.102 104.229 249.227 104.537 249.442 104.778L250.47 105.912C250.716 106.182 251.058 106.345 251.423 106.367C251.788 106.389 252.147 106.268 252.424 106.03L254.757 104.028C254.757 104.028 257.568 102.711 257.645 100.704Z" fill="#FFB573"/>
<path d="M220.377 93.3284L222.279 93.0863C222.535 93.0574 222.775 92.9453 222.962 92.7672C223.148 92.5891 223.271 92.3548 223.312 92.1002L223.572 90.5885C223.607 90.4085 223.599 90.2228 223.55 90.0463C223.5 89.8697 223.41 89.7071 223.287 89.5713C223.164 89.4356 223.011 89.3303 222.84 89.2639C222.669 89.1976 222.485 89.1719 222.303 89.189L220.082 89.3484C219.77 89.3652 219.477 89.5052 219.268 89.7377C219.059 89.9701 218.95 90.2761 218.966 90.5885L219.025 92.1828C219.028 92.3505 219.067 92.5155 219.139 92.6669C219.211 92.8183 219.315 92.9527 219.443 93.0611C219.571 93.1694 219.72 93.2493 219.881 93.2954C220.042 93.3415 220.212 93.3528 220.377 93.3284Z" fill="#FFB573"/>
<path d="M249.968 49.9318C245.279 52.2938 237.042 51.2073 237.042 51.2073C237.042 51.2073 241.636 43.696 249.968 49.9318Z" fill="#263238"/>
<path d="M165.461 199.756L163.105 212.021L157.141 210.58L159.497 198.315L165.461 199.756Z" fill="#7F3E3B"/>
<path opacity="0.2" d="M165.467 199.762L164.25 206.08L158.28 204.639L159.497 198.315L165.467 199.762Z" fill="black"/>
<path d="M175.842 152.521C182.84 131.936 188.379 107.642 188.379 107.642L168.419 106.378C168.419 106.378 165.467 137.9 163.943 152.438C162.349 167.543 157.395 201.645 157.395 201.645L166.4 203.47C166.4 203.47 174.844 171.358 175.842 152.521Z" fill="#263238"/>
<path opacity="0.2" d="M179.173 119.098L184.015 125.086C182.781 129.709 181.34 134.906 179.757 140.214C178.849 133.213 178.653 126.138 179.173 119.098Z" fill="#263238"/>
<path d="M157.525 202.926L165.792 204.733C165.957 204.77 166.129 204.744 166.276 204.662C166.424 204.579 166.535 204.444 166.589 204.285L167.498 201.621C167.53 201.531 167.542 201.435 167.534 201.34C167.526 201.245 167.498 201.152 167.451 201.069C167.405 200.985 167.342 200.912 167.265 200.855C167.189 200.798 167.101 200.757 167.008 200.736L158.039 198.639C157.944 198.617 157.846 198.615 157.751 198.633C157.656 198.652 157.566 198.69 157.486 198.746C157.407 198.802 157.341 198.874 157.291 198.957C157.242 199.04 157.211 199.133 157.2 199.23L156.993 202.182C156.975 202.35 157.019 202.519 157.117 202.656C157.215 202.793 157.36 202.89 157.525 202.926Z" fill="#263238"/>
<path opacity="0.1" d="M157.525 202.926L165.792 204.733C165.957 204.77 166.129 204.744 166.276 204.662C166.424 204.579 166.535 204.444 166.589 204.285L167.498 201.621C167.53 201.531 167.542 201.435 167.534 201.34C167.526 201.245 167.498 201.152 167.451 201.069C167.405 200.985 167.342 200.912 167.265 200.855C167.189 200.798 167.101 200.757 167.008 200.736L158.039 198.639C157.944 198.617 157.846 198.615 157.751 198.633C157.656 198.652 157.566 198.69 157.486 198.746C157.407 198.802 157.341 198.874 157.291 198.957C157.242 199.04 157.211 199.133 157.2 199.23L156.993 202.182C156.975 202.35 157.019 202.519 157.117 202.656C157.215 202.793 157.36 202.89 157.525 202.926Z" fill="white"/>
<path d="M198.294 199.33L198.666 211.985L192.613 211.902L192.241 199.248L198.294 199.33Z" fill="#7F3E3B"/>
<path opacity="0.2" d="M198.299 199.336L198.488 205.856L192.43 205.773L192.241 199.248L198.299 199.336Z" fill="black"/>
<path d="M196.788 152.101C195.075 130.448 196.522 118.767 194.006 108.014L175.842 106.886C175.842 106.886 181.482 138.715 184.594 153.111C187.706 167.508 191.054 202.478 191.054 202.478L199.982 202.59C199.982 202.59 201.075 168.996 196.788 152.101Z" fill="#263238"/>
<path d="M191.078 204.084L199.528 204.214C199.702 204.216 199.871 204.151 200 204.033C200.128 203.914 200.207 203.751 200.219 203.576L200.402 200.789C200.409 200.697 200.397 200.605 200.368 200.517C200.338 200.43 200.291 200.349 200.229 200.281C200.167 200.212 200.091 200.157 200.008 200.119C199.924 200.08 199.833 200.059 199.74 200.057L190.546 199.774C190.444 199.77 190.342 199.789 190.248 199.831C190.155 199.872 190.072 199.933 190.005 200.011C189.939 200.089 189.891 200.181 189.865 200.28C189.839 200.379 189.836 200.482 189.855 200.583L190.446 203.535C190.477 203.683 190.556 203.816 190.67 203.915C190.784 204.014 190.927 204.074 191.078 204.084Z" fill="#263238"/>
<path opacity="0.1" d="M191.078 204.084L199.528 204.214C199.702 204.216 199.871 204.151 200 204.033C200.128 203.914 200.207 203.751 200.219 203.576L200.402 200.789C200.409 200.697 200.397 200.605 200.368 200.517C200.338 200.43 200.291 200.349 200.229 200.281C200.167 200.212 200.091 200.157 200.008 200.119C199.924 200.08 199.833 200.059 199.74 200.057L190.546 199.774C190.444 199.77 190.342 199.789 190.248 199.831C190.155 199.872 190.072 199.933 190.005 200.011C189.939 200.089 189.891 200.181 189.865 200.28C189.839 200.379 189.836 200.482 189.855 200.583L190.446 203.535C190.477 203.683 190.556 203.816 190.67 203.915C190.784 204.014 190.927 204.074 191.078 204.084Z" fill="white"/>
<path d="M175.258 73.5761C174.561 75.0819 173.835 76.4165 173.044 77.7923C172.252 79.1682 171.42 80.5028 170.498 81.8137C169.567 83.1672 168.549 84.4592 167.451 85.6815C166.233 87.0889 164.805 88.2999 163.218 89.2718L163.011 89.3899C162.658 89.5976 162.265 89.7282 161.858 89.7729C161.451 89.8177 161.039 89.7757 160.649 89.6497C159.497 89.2777 158.381 88.8585 157.289 88.4097C156.196 87.9609 155.133 87.4649 154.088 86.9452C153.043 86.4256 152.021 85.8764 151.018 85.2859C150.014 84.6954 149.034 84.1049 148.065 83.3904C147.718 83.1445 147.468 82.7853 147.358 82.3747C147.248 81.9642 147.285 81.5281 147.462 81.1417C147.639 80.7553 147.945 80.4428 148.328 80.2583C148.711 80.0737 149.146 80.0286 149.559 80.1307H149.624C150.681 80.3847 151.773 80.6917 152.836 80.9693L156.031 81.8137C157.088 82.103 158.151 82.3452 159.196 82.605C160.241 82.8648 161.287 83.0656 162.314 83.2782L159.769 83.662C160.653 82.9287 161.446 82.0921 162.131 81.17C162.94 80.1308 163.719 78.9852 164.493 77.8041C165.267 76.6231 165.969 75.389 166.666 74.1371C167.363 72.8852 168.072 71.592 168.697 70.3992L168.733 70.3342C169.204 69.5503 169.952 68.9725 170.83 68.7157C171.707 68.4589 172.65 68.5421 173.469 68.9486C174.288 69.3552 174.924 70.0553 175.25 70.9095C175.576 71.7637 175.568 72.7095 175.228 73.5584L175.258 73.5761Z" fill="#CE7A63"/>
<path d="M176.71 63.2533C169.66 64.0564 164.31 74.9749 164.31 74.9749L171.585 82.7165C171.585 82.7165 174.827 78.8545 178.311 73.971C182.114 68.6505 182.291 62.6214 176.71 63.2533Z" fill="#EF4E23"/>
<path d="M175.842 64.8893C178.553 63.9268 190.694 65.4798 190.694 65.4798C188.332 68.5269 186.359 93.7593 186.141 108.262C183.56 108.617 173.663 107.937 171.378 107.406C171.673 101.713 174.047 75.0107 175.842 64.8893Z" fill="white"/>
<path d="M168.006 72.5423C168.325 69.9183 169.596 67.5027 171.578 65.7543C173.561 64.006 176.116 63.0467 178.759 63.0587C183.832 63.0993 188.888 63.6572 193.847 64.7239C194.619 64.8874 195.351 65.2042 195.999 65.6554C196.647 66.1066 197.198 66.6832 197.619 67.351C198.04 68.0188 198.323 68.7643 198.451 69.5434C198.579 70.3225 198.55 71.1193 198.364 71.8868C194.626 87.5648 195.613 102.44 194.615 109.361C191.057 110.669 187.278 111.27 183.489 111.132C183.489 111.132 183.578 105.162 184.411 95.082C185.072 87.0688 186.259 68.2257 188.704 65.096C188.704 65.096 179.941 63.915 177.23 64.8657C175.216 76.233 173.74 110.666 173.74 110.671C169.453 110.364 167.434 107.979 167.499 107.27C166.63 93.34 167.067 80.709 168.006 72.5423Z" fill="#EF4E23"/>
<path d="M189.017 55.1047C188.196 57.4668 187.245 61.6535 188.763 64.0037C188.84 64.1129 188.891 64.2378 188.914 64.3694C188.937 64.501 188.931 64.6361 188.895 64.7649C188.859 64.8936 188.796 65.0129 188.709 65.1141C188.621 65.2153 188.513 65.2959 188.391 65.3501C185.951 66.7571 183.132 67.3643 180.33 67.0862C176.521 66.7791 176.787 65.0607 177.767 63.9447C177.999 63.6869 178.32 63.5266 178.665 63.4959C182.261 63.0648 182.297 60.8976 181.777 58.7718L189.017 55.1047Z" fill="#CE7A63"/>
<path opacity="0.2" d="M186.064 56.6106L181.783 58.7896C181.918 59.2928 181.996 59.8099 182.013 60.3308C183.572 60.3308 185.781 59.2856 186.034 58.0869C186.165 57.6046 186.175 57.0977 186.064 56.6106Z" fill="black"/>
<path d="M183.307 46.8946C183.468 44.7645 182.31 42.9404 180.719 42.8202C179.129 42.7001 177.71 44.3295 177.549 46.4596C177.388 48.5896 178.546 50.4138 180.137 50.5339C181.727 50.654 183.147 49.0247 183.307 46.8946Z" fill="#263238"/>
<path d="M191.331 48.6505C190.54 53.3096 190.31 56.0791 187.723 58.2463C183.832 61.5 178.37 58.7482 177.779 53.9474C177.242 49.6308 178.624 42.7277 183.336 41.3341C188.048 39.9405 192.123 43.9855 191.331 48.6505Z" fill="#CE7A63"/>
<path d="M190.316 52.5888C190.257 52.5888 190.186 52.512 190.121 52.5474C188.007 53.7284 187.322 51.1892 187.452 49.5004C187.495 48.937 187.657 48.3891 187.927 47.8925C188.196 47.396 188.568 46.9619 189.017 46.6187C186.725 46.8785 184.505 45.4023 184.47 44.0264C181.936 45.1424 178.883 45.2074 177.508 42.8454C176.132 40.4833 178.098 37.395 180.72 38.2158C179.657 36.3143 184.151 32.5115 188.857 38.1213C189.005 34.0527 195.583 38.1213 194.502 42.119C197.549 43.1701 200.159 48.9571 194.992 50.1913C194.65 55.5531 190.316 52.5888 190.316 52.5888Z" fill="#263238"/>
<path d="M192.808 54.0537C192.092 54.9313 191.071 55.5052 189.95 55.6599C188.532 55.8193 188.219 54.3785 188.946 53.0676C189.601 51.8865 191.125 50.3867 192.388 50.8473C193.652 51.3079 193.729 52.9317 192.808 54.0537Z" fill="#CE7A63"/>
<path d="M184.576 48.9985C184.541 49.3883 184.31 49.6776 184.056 49.654C183.802 49.6304 183.625 49.2997 183.661 48.91C183.696 48.5202 183.926 48.2368 184.18 48.2604C184.434 48.284 184.606 48.6147 184.576 48.9985Z" fill="#263238"/>
<path d="M180 48.491C179.964 48.8748 179.734 49.1642 179.48 49.1405C179.226 49.1169 179.055 48.7862 179.084 48.4024C179.114 48.0186 179.35 47.7233 179.604 47.7469C179.858 47.7705 180.059 48.1012 180 48.491Z" fill="#263238"/>
<path d="M181.789 48.7092C181.224 49.8413 180.507 50.8904 179.657 51.8271C179.902 52.0407 180.19 52.1983 180.503 52.289C180.815 52.3798 181.143 52.4015 181.464 52.3527L181.789 48.7092Z" fill="#924444"/>
<path d="M182.657 54.2305C183.086 54.2605 183.516 54.2033 183.922 54.0622C184.328 53.9211 184.701 53.6991 185.019 53.4097C185.029 53.3988 185.038 53.386 185.043 53.372C185.049 53.3579 185.051 53.3429 185.051 53.3278C185.051 53.3128 185.048 53.2979 185.042 53.2841C185.035 53.2702 185.027 53.2577 185.016 53.2473C185.005 53.2368 184.992 53.2286 184.978 53.223C184.964 53.2175 184.949 53.2148 184.934 53.2151C184.919 53.2154 184.904 53.2186 184.89 53.2246C184.877 53.2307 184.864 53.2394 184.854 53.2502C184.494 53.5684 184.064 53.7969 183.599 53.917C183.134 54.0371 182.647 54.0453 182.179 53.9411C182.164 53.9377 182.149 53.9373 182.135 53.94C182.12 53.9427 182.106 53.9483 182.094 53.9567C182.082 53.965 182.071 53.9758 182.064 53.9884C182.056 54.001 182.051 54.015 182.049 54.0297C182.043 54.0594 182.049 54.0899 182.066 54.1152C182.082 54.1404 182.108 54.1584 182.137 54.1655C182.326 54.195 182.492 54.2186 182.657 54.2305Z" fill="#263238"/>
<path d="M186.088 48.0598C186.125 48.0684 186.163 48.0684 186.2 48.0598C186.227 48.0477 186.252 48.0303 186.272 48.0085C186.293 47.9867 186.309 47.961 186.319 47.9329C186.33 47.9048 186.335 47.875 186.333 47.845C186.332 47.8151 186.325 47.7858 186.312 47.7587C186.173 47.4246 185.958 47.128 185.683 46.893C185.408 46.658 185.081 46.4913 184.729 46.4064C184.67 46.3978 184.61 46.4128 184.561 46.4481C184.513 46.4834 184.48 46.5362 184.47 46.5954C184.461 46.6548 184.476 46.7151 184.511 46.7637C184.547 46.8122 184.599 46.845 184.659 46.8552C184.936 46.9267 185.193 47.0622 185.408 47.2509C185.623 47.4397 185.791 47.6763 185.899 47.9417C185.918 47.9751 185.946 48.0033 185.979 48.0238C186.012 48.0444 186.049 48.0567 186.088 48.0598Z" fill="#263238"/>
<path d="M178.08 46.6072C178.117 46.6169 178.155 46.6177 178.192 46.6095C178.229 46.6013 178.264 46.5843 178.293 46.5599C178.503 46.3692 178.756 46.2308 179.03 46.1559C179.304 46.081 179.591 46.0717 179.87 46.1288C179.927 46.1453 179.988 46.1383 180.04 46.1095C180.092 46.0807 180.131 46.0325 180.147 45.9753C180.164 45.9174 180.157 45.8552 180.128 45.8022C180.1 45.7493 180.051 45.7096 179.994 45.6919C179.642 45.6119 179.277 45.6178 178.928 45.7093C178.58 45.8008 178.259 45.9751 177.992 46.2174C177.971 46.2383 177.954 46.2631 177.943 46.2905C177.931 46.3178 177.925 46.3472 177.925 46.3769C177.925 46.4065 177.931 46.4359 177.943 46.4632C177.954 46.4906 177.971 46.5154 177.992 46.5363C178.014 46.5675 178.045 46.592 178.08 46.6072Z" fill="#263238"/>
<path d="M199.77 71.5678C200.154 72.3178 200.467 72.9674 200.774 73.6701C201.081 74.3728 201.364 75.0518 201.671 75.7486C202.262 77.1422 202.775 78.5595 203.26 79.9944C204.244 82.8968 204.999 85.8723 205.515 88.8934L205.675 90.0744L205.758 90.6649V90.8066V91.0664C205.758 91.2554 205.787 91.4444 205.787 91.657C205.764 92.7333 205.55 93.797 205.155 94.7985C204.567 96.3278 203.819 97.7905 202.923 99.1623C202.11 100.446 201.229 101.686 200.284 102.877C199.357 104.061 198.372 105.199 197.331 106.284C197.032 106.601 196.629 106.799 196.196 106.844C195.762 106.889 195.327 106.777 194.97 106.528C194.612 106.279 194.356 105.91 194.247 105.488C194.139 105.066 194.185 104.619 194.378 104.229V104.182C195.601 101.637 196.894 99.0619 197.921 96.5523C198.187 95.9263 198.423 95.3004 198.63 94.6922C198.836 94.1242 199.007 93.5445 199.144 92.9561C199.24 92.5903 199.274 92.2111 199.244 91.8341L199.215 91.716L199.103 91.2259L198.884 90.2515C198.203 87.6072 197.369 85.0046 196.386 82.4568C195.914 81.1577 195.376 79.8763 194.857 78.589C194.597 77.9512 194.319 77.3135 194.042 76.6817L193.215 74.8393L193.168 74.733C192.753 73.8638 192.7 72.8653 193.021 71.9572C193.342 71.0491 194.011 70.3058 194.88 69.8908C195.75 69.4758 196.748 69.423 197.656 69.7442C198.564 70.0653 199.308 70.7341 199.723 71.6033L199.77 71.5678Z" fill="#CE7A63"/>
<path d="M194.455 64.8892C202.321 66.8733 204.494 76.9297 204.494 76.9297L194.727 83.9331C194.727 83.9331 192.306 81.3999 191.573 75.4475C191.237 72.6072 192.861 64.8125 194.455 64.8892Z" fill="#EF4E23"/>
<path d="M195.666 102.977L191.119 104.678L194.603 109.343C194.603 109.343 198.53 107.305 197.786 105.044L195.666 102.977Z" fill="#CE7A63"/>
<path d="M187.735 105.339C186.511 105.133 185.254 105.247 184.086 105.67L186.342 92.2651C186.516 91.2184 186.268 90.1452 185.653 89.2807C185.038 88.4162 184.105 87.831 183.058 87.6532L143.849 81.0513C142.804 80.8785 141.733 81.1261 140.87 81.7402C140.007 82.3542 139.422 83.2848 139.243 84.3286L136.951 97.7627C138.118 97.3344 139.376 97.2204 140.601 97.432C141.69 97.6147 142.722 98.0447 143.618 98.6891C144.515 99.3334 145.252 100.175 145.772 101.149C146.292 102.122 146.582 103.202 146.619 104.306C146.656 105.409 146.439 106.506 145.986 107.513C145.532 108.52 144.854 109.409 144.003 110.112C143.152 110.815 142.151 111.313 141.077 111.569C140.003 111.824 138.884 111.83 137.808 111.585C136.731 111.34 135.725 110.852 134.867 110.157L132.605 123.562C132.431 124.609 132.679 125.682 133.294 126.546C133.909 127.411 134.842 127.996 135.889 128.174L175.098 134.776C176.144 134.949 177.216 134.701 178.079 134.087C178.943 133.473 179.53 132.543 179.71 131.498L181.966 118.088C182.825 118.772 183.829 119.25 184.901 119.487C185.973 119.724 187.085 119.713 188.152 119.456C189.219 119.198 190.214 118.7 191.059 118C191.905 117.3 192.58 116.416 193.033 115.416C193.485 114.416 193.704 113.326 193.671 112.228C193.639 111.131 193.357 110.055 192.846 109.083C192.335 108.112 191.609 107.269 190.723 106.62C189.838 105.971 188.816 105.533 187.735 105.339Z" fill="#FFB8A5"/>
<path d="M188.993 109.26L190.487 110.689C190.775 110.966 191.151 111.131 191.55 111.154C191.948 111.178 192.342 111.059 192.66 110.819L194.603 109.36L191.119 104.695L188.963 106.857C188.805 107.015 188.68 107.203 188.595 107.411C188.51 107.618 188.468 107.84 188.471 108.064C188.474 108.289 188.521 108.51 188.611 108.715C188.701 108.92 188.831 109.106 188.993 109.26Z" fill="#CE7A63"/>
<path d="M145.218 82.3093L145.762 80.2956C145.852 80.0588 146.015 79.8563 146.227 79.7165C146.439 79.5767 146.689 79.5067 146.943 79.5162C147.712 79.4848 148.48 79.6031 149.204 79.8646L152.275 80.9983L152.127 82.2502C152.003 83.3249 150.804 84.2225 149.446 84.2639C148.535 84.276 147.625 84.1789 146.736 83.9745L146.405 83.9036C146.217 83.8904 146.034 83.8366 145.868 83.746C145.703 83.6554 145.559 83.5302 145.446 83.3788C145.333 83.2274 145.255 83.0535 145.215 82.8689C145.176 82.6843 145.177 82.4934 145.218 82.3093Z" fill="#CE7A63"/>
<path d="M89.8511 54.5138C91.8175 52.2286 94.7759 46.294 89.2133 44.0264C85.1093 42.3494 76.3993 43.2056 71.3977 50.9944C67.9786 52.1754 66.9689 59.7812 74.864 61.3815C82.7591 62.9817 89.8511 54.5138 89.8511 54.5138Z" fill="#263238"/>
<path d="M90.4412 169.829C86.8982 156.247 77.7217 140.079 83.5382 127.011L108.818 126.934C108.818 126.934 109.444 153.832 109.621 166.498C109.798 179.744 108.694 204.663 108.694 204.663L98.354 205.448C98.354 205.448 91.2679 185.058 90.4412 169.829Z" fill="#D5B689"/>
<path opacity="0.2" d="M83.4496 139.866C83.3517 143.074 83.4819 146.284 83.8394 149.474C85.0735 153.743 86.6502 158.018 88.0674 162.164C89.9216 150.424 89.9275 136.742 83.4496 139.866Z" fill="black"/>
<path d="M63.9572 165.436C62.729 151.718 58.8789 133.241 63.2486 126.935H92.8331C92.8331 126.935 86.804 154.287 84.3298 166.947C81.7611 180.11 74.3738 205.384 74.3738 205.384L64.5773 205.413C64.5773 205.413 60.863 181.096 63.9572 165.436Z" fill="#D5B689"/>
<path opacity="0.2" d="M65.7344 202.608C65.6707 202.607 65.609 202.586 65.5581 202.548C65.5072 202.509 65.4697 202.456 65.4509 202.395C64.7482 200.033 64.8604 172.899 66.632 165.471C66.632 164.49 66.4253 162.565 66.1891 160.127C65.3801 151.859 63.8802 136.506 66.1182 127.796C66.1378 127.718 66.1877 127.651 66.2569 127.609C66.3261 127.568 66.409 127.555 66.4873 127.575C66.5656 127.594 66.6329 127.644 66.6745 127.713C66.716 127.783 66.7283 127.866 66.7087 127.944C64.4943 136.559 65.9883 151.854 66.7914 160.073C67.0335 162.554 67.2284 164.508 67.2402 165.5C67.2431 165.526 67.2431 165.551 67.2402 165.577C65.5395 172.604 65.3742 199.945 66.0592 202.23C66.0813 202.304 66.0733 202.384 66.0368 202.453C66.0004 202.521 65.9384 202.573 65.8643 202.596C65.823 202.612 65.7779 202.616 65.7344 202.608Z" fill="white"/>
<path d="M102.883 79.1564C103.473 81.5185 104.017 83.8805 104.542 86.2425C105.068 88.6046 105.564 90.9666 106.024 93.3286L106.733 96.8717L107.394 100.415C107.849 102.777 108.251 105.174 108.664 107.56L107.701 105.405C107.83 105.846 108.107 106.23 108.487 106.491C109.243 107.002 110.094 107.353 110.99 107.524C112.185 107.8 113.403 107.96 114.628 108.003C115.283 108.038 115.957 108.062 116.636 108.05C116.972 108.05 117.315 108.05 117.657 108.05C118 108.05 118.372 108.05 118.608 108.05L119.447 108.109C120.152 108.154 120.824 108.428 121.36 108.888C121.897 109.349 122.269 109.971 122.421 110.661C122.573 111.352 122.497 112.073 122.203 112.716C121.909 113.359 121.414 113.889 120.793 114.227C120.321 114.487 119.984 114.681 119.582 114.888C119.181 115.095 118.809 115.272 118.401 115.479C117.61 115.821 116.801 116.146 115.963 116.418C115.112 116.696 114.246 116.929 113.37 117.114C112.448 117.298 111.515 117.428 110.577 117.504C109.564 117.576 108.546 117.56 107.536 117.457C106.413 117.363 105.306 117.128 104.241 116.76C103.046 116.362 101.912 115.802 100.869 115.095C99.7699 114.333 98.7906 113.412 97.9639 112.361C97.6072 111.917 97.3423 111.408 97.1844 110.861L97.0013 110.205C96.3518 107.879 95.6845 105.558 95.0704 103.22L94.1315 99.7238L93.2398 96.2162C92.6493 93.8542 92.0588 91.5276 91.5214 89.1774C90.9841 86.8271 90.4467 84.4533 89.9802 82.0913C89.6459 80.4011 89.9844 78.6471 90.9236 77.2027C91.8628 75.7583 93.3286 74.7374 95.0091 74.3573C96.6896 73.9772 98.4521 74.2679 99.9215 75.1675C101.391 76.0671 102.451 77.5046 102.877 79.1741L102.883 79.1564Z" fill="#FFC3BD"/>
<path d="M118.195 108.634L118.319 112.449C119.86 116.151 124.277 113.341 124.277 113.341L126.947 112.85C127.411 112.732 127.819 112.453 128.098 112.063C128.377 111.673 128.509 111.197 128.47 110.719L128.399 108.05C128.417 107.499 128.219 106.962 127.847 106.555C127.476 106.148 126.959 105.903 126.409 105.871L124.047 105.918C123.358 105.93 122.682 106.112 122.081 106.449L118.195 108.634Z" fill="#FFC3BD"/>
<path d="M98.3603 72.5777C103.793 75.4358 107.342 85.5217 107.342 85.5217C106.196 90.2457 101.579 98.8612 97.3032 98.8081C97.3032 98.8081 91.0261 90.7122 90.347 84.8544C89.5203 77.7742 87.3768 66.8025 98.3603 72.5777Z" fill="#263238"/>
<path d="M93.3409 70.9008C84.9568 70.1037 76.5102 70.2383 68.1557 71.3023C63.3254 71.9814 59.8886 74.9871 60.4791 84.884C61.6601 104.961 59.8295 120.61 62.3805 127.826C62.3805 127.826 99.5353 138.455 110.129 128.269C112.704 104.111 104.035 84.0573 100.09 75.7134C99.4727 74.3996 98.5274 73.2669 97.3453 72.424C96.1633 71.5812 94.7843 71.0566 93.3409 70.9008Z" fill="#263238"/>
<path d="M90.5476 73.0973C89.585 72.1525 88.5753 72.7016 88.1088 71.2785C87.9031 70.1613 88.0909 69.0073 88.6402 68.013L77.1784 61.8245C77.4028 66.0407 77.5741 69.3712 75.7022 71.0482C75.1589 74.1897 81.0167 77.3253 88.8174 77.3726C93.7835 77.4021 91.9353 74.4554 90.5476 73.0973Z" fill="#FCCEA8"/>
<path opacity="0.2" d="M88.4685 68.3671L79.4219 66.1055C81.7071 69.7017 85.823 71.6681 88.0374 70.8C87.9741 69.9657 88.1224 69.1289 88.4685 68.3671Z" fill="black"/>
<path d="M84.7251 47.7351C78.7374 46.4065 73.5645 51.3786 74.7219 56.7994C75.8793 62.2203 76.7946 65.8815 80.5443 67.7239C87.9965 71.3968 91.6341 67.8538 92.2423 62.1908C92.7915 57.0888 90.8015 49.0756 84.7251 47.7351Z" fill="#FCCEA8"/>
<path opacity="0.2" d="M83.5501 57.3601C82.8465 57.184 82.1018 57.2922 81.4774 57.6613C82.1814 57.6984 82.8858 57.5961 83.5501 57.3601Z" fill="black"/>
<path opacity="0.2" d="M83.5909 57.8623C83.2599 57.8468 82.9296 57.9044 82.6235 58.0309C82.3173 58.1575 82.0427 58.3499 81.8193 58.5946C82.456 58.482 83.0605 58.2321 83.5909 57.8623Z" fill="black"/>
<path d="M75.4777 61.3818C78.8259 62.1318 80.2018 60.4547 80.2018 58.5769C80.2018 56.581 78.3181 53.2092 76.2513 52.5891C76.9894 48.1603 89.1952 54.3607 88.0319 48.2253C88.0319 48.2253 87.7013 47.1742 84.5479 46.5837C81.3946 45.9932 72.9681 47.8946 73.5586 54.1953C74.1491 60.496 75.4777 61.3818 75.4777 61.3818Z" fill="#263238"/>
<path d="M71.2139 51.3073C72.0335 49.6627 72.2648 47.787 71.8693 45.9927C71.8693 45.9927 75.5423 48.4197 71.2139 51.3073Z" fill="#263238"/>
<path d="M86.6144 63.0644C86.8649 63.0455 87.1136 63.008 87.3585 62.9522C87.3775 62.948 87.3955 62.9401 87.4115 62.9289C87.4275 62.9177 87.441 62.9034 87.4515 62.887C87.4619 62.8705 87.469 62.8521 87.4723 62.8329C87.4756 62.8137 87.475 62.794 87.4706 62.775C87.4672 62.7556 87.4598 62.737 87.4488 62.7206C87.4379 62.7042 87.4236 62.6903 87.4069 62.6797C87.3902 62.6692 87.3715 62.6622 87.352 62.6593C87.3325 62.6564 87.3125 62.6576 87.2935 62.6628C86.6803 62.8124 86.0406 62.8166 85.4254 62.6752C84.8103 62.5337 84.2367 62.2504 83.7504 61.8479C83.7367 61.8336 83.7202 61.8223 83.7019 61.8145C83.6836 61.8067 83.664 61.8027 83.6442 61.8027C83.6243 61.8027 83.6047 61.8067 83.5864 61.8145C83.5681 61.8223 83.5516 61.8336 83.5379 61.8479C83.5104 61.8765 83.4951 61.9146 83.4951 61.9542C83.4951 61.9938 83.5104 62.0319 83.5379 62.0605C83.9586 62.4233 84.4472 62.6989 84.9754 62.8712C85.5035 63.0436 86.0607 63.1092 86.6144 63.0644Z" fill="#263238"/>
<path d="M73.3579 61.6414C73.741 62.1609 74.2232 62.5994 74.7765 62.9319C75.3298 63.2643 75.9435 63.484 76.582 63.5783C78.3004 63.8145 78.9441 62.226 78.2827 60.7261C77.6922 59.3739 76.086 57.626 74.4562 58.0747C72.8264 58.5235 72.4249 60.3482 73.3579 61.6414Z" fill="#FCCEA8"/>
<path d="M84.5244 57.4194C84.5952 57.8977 84.9023 58.252 85.2153 58.2047C85.5282 58.1575 85.729 57.7264 85.6581 57.2481C85.5873 56.7698 85.2861 56.4214 84.9732 56.4686C84.6602 56.5159 84.483 56.9174 84.5244 57.4194Z" fill="#263238"/>
<path d="M90.1519 56.6637C90.2227 57.1479 90.5298 57.4963 90.8427 57.4491C91.1557 57.4018 91.3565 56.9766 91.2856 56.4983C91.2148 56.02 90.9136 55.6657 90.6006 55.713C90.2877 55.7602 90.0869 56.1854 90.1519 56.6637Z" fill="#263238"/>
<path d="M88.0264 57.2954L88.298 61.3463C88.298 61.3463 89.6266 61.5766 90.3471 60.8089C89.8897 59.4571 89.0902 58.2466 88.0264 57.2954Z" fill="#ED847E"/>
<path d="M82.6698 56.3272C82.6214 56.3404 82.5704 56.3402 82.5221 56.3267C82.4739 56.3132 82.4302 56.2869 82.3957 56.2506C82.3611 56.2142 82.3371 56.1692 82.3261 56.1204C82.3151 56.0715 82.3175 56.0205 82.3332 55.9729C82.4455 55.5339 82.6603 55.1279 82.9601 54.7881C83.2598 54.4483 83.6359 54.1845 84.0574 54.0183C84.1287 53.996 84.2059 54.0027 84.2722 54.037C84.3386 54.0713 84.3887 54.1303 84.4118 54.2014C84.4343 54.2734 84.4277 54.3514 84.3935 54.4187C84.3593 54.486 84.3002 54.5373 84.2287 54.5616C83.8959 54.6973 83.5999 54.9099 83.3649 55.1818C83.1299 55.4538 82.9625 55.7775 82.8764 56.1264C82.8631 56.1753 82.8369 56.2197 82.8005 56.255C82.7642 56.2904 82.719 56.3153 82.6698 56.3272Z" fill="#263238"/>
<path d="M92.0006 54.514C91.9539 54.5183 91.9069 54.5102 91.8644 54.4905C91.8219 54.4707 91.7853 54.4402 91.7585 54.4018C91.5563 54.1084 91.2866 53.8679 90.9722 53.7005C90.6578 53.533 90.3077 53.4434 89.9515 53.4392C89.8732 53.4392 89.7981 53.4081 89.7427 53.3527C89.6874 53.2974 89.6562 53.2223 89.6562 53.144C89.6562 53.0657 89.6874 52.9906 89.7427 52.9352C89.7981 52.8798 89.8732 52.8487 89.9515 52.8487C90.4014 52.8451 90.8454 52.9507 91.2455 53.1564C91.6455 53.3621 91.9898 53.6618 92.2486 54.0297C92.2703 54.06 92.2859 54.0942 92.2943 54.1305C92.3028 54.1667 92.3041 54.2043 92.2981 54.241C92.292 54.2778 92.2788 54.3129 92.2592 54.3446C92.2396 54.3762 92.2139 54.4037 92.1836 54.4254C92.1609 54.452 92.1329 54.4736 92.1014 54.4888C92.0699 54.504 92.0355 54.5126 92.0006 54.514Z" fill="#263238"/>
<path d="M126.409 93.1334C125.173 93.2206 123.98 93.6276 122.948 94.3145L121.88 80.7328C121.792 79.6763 121.291 78.6972 120.484 78.0091C119.678 77.3211 118.632 76.9798 117.575 77.0598L77.934 80.1836C76.8781 80.2725 75.9 80.7745 75.2122 81.5806C74.5244 82.3867 74.1826 83.4317 74.261 84.4884L77.3907 124.129C77.4751 125.187 77.9759 126.168 78.7831 126.857C79.5902 127.545 80.6378 127.885 81.6955 127.802L121.33 124.673C122.388 124.587 123.369 124.086 124.058 123.279C124.747 122.472 125.089 121.426 125.009 120.368L123.935 106.816C125.06 107.343 126.304 107.567 127.543 107.465C129.322 107.166 130.924 106.21 132.034 104.788C133.144 103.365 133.681 101.579 133.538 99.7801C133.396 97.9815 132.585 96.3014 131.265 95.0711C129.946 93.8407 128.213 93.1494 126.409 93.1334Z" fill="#EF4E23"/>
<path d="M68.929 87.7124L68.3385 88.7989L67.6594 90.0153C67.2225 90.8421 66.7737 91.6688 66.3662 92.5073C65.5474 94.1412 64.8142 95.8165 64.1695 97.5266C63.8565 98.3533 63.579 99.1741 63.3723 99.9831C63.1365 100.758 62.9511 101.547 62.8173 102.345C62.5695 103.629 62.5276 104.945 62.6932 106.243L61.3351 103.88C61.9005 104.656 62.5747 105.346 63.3369 105.93C64.3388 106.729 65.39 107.465 66.4843 108.132C67.624 108.864 68.8463 109.567 70.0746 110.27L71.9524 111.315C72.5429 111.669 73.2515 112.024 73.8125 112.366L74.096 112.537C74.7228 112.917 75.2074 113.493 75.4751 114.175C75.7428 114.858 75.7787 115.609 75.5773 116.314C75.3759 117.019 74.9484 117.638 74.3607 118.076C73.7729 118.514 73.0574 118.746 72.3244 118.738C71.4269 118.738 70.6592 118.679 69.8325 118.614C69.0058 118.549 68.2204 118.448 67.4173 118.318C65.7851 118.073 64.1699 117.726 62.5811 117.279C60.8995 116.808 59.2601 116.198 57.6798 115.454C55.8117 114.594 54.0948 113.437 52.5955 112.03C52.0561 111.515 51.6506 110.876 51.4145 110.169L51.2492 109.662C50.3245 106.857 49.979 103.894 50.2335 100.952C50.4341 98.3886 50.9254 95.8568 51.698 93.4049C52.4174 91.1009 53.3096 88.8545 54.3671 86.6849C54.8808 85.622 55.4064 84.5709 55.9969 83.5493C56.2862 83.0355 56.5874 82.5218 56.8945 82.0139L57.3787 81.2463L57.6326 80.8565L57.9397 80.4019C58.8883 78.9664 60.3595 77.9576 62.0404 77.5899C63.7213 77.2222 65.4793 77.5247 66.9407 78.4331C68.402 79.3414 69.4514 80.7839 69.8657 82.4539C70.28 84.1239 70.0266 85.8897 69.1593 87.3758L68.929 87.7124Z" fill="#FCCEA8"/>
<path d="M64.3169 72.5775C54.5263 77.8094 50.877 89.4955 50.877 89.4955C52.8138 93.1862 64.4941 97.1721 68.8875 96.0856C68.8875 96.0856 73.0978 88.409 73.9658 81.5473C74.7689 75.1875 70.0508 69.5127 64.3169 72.5775Z" fill="#263238"/>
<path d="M71.1671 113.016L71.3679 116.83C72.9859 120.503 77.3438 117.604 77.3438 117.604L80.007 117.061C80.469 116.933 80.8709 116.646 81.1411 116.251C81.4114 115.855 81.5327 115.376 81.4833 114.899L81.3652 112.236C81.3797 111.682 81.1764 111.144 80.7989 110.738C80.4213 110.331 79.8996 110.089 79.3457 110.063L76.9836 110.158C76.2932 110.189 75.6214 110.392 75.029 110.748L71.1671 113.016Z" fill="#FCCEA8"/>
</g>
<defs>
<linearGradient id="paint0_linear_8732_57947" x1="161" y1="59" x2="161" y2="227.5" gradientUnits="userSpaceOnUse">
<stop stop-color="#FAF7F2"/>
<stop offset="1" stop-color="white"/>
</linearGradient>
<clipPath id="clip0_8732_57947">
<rect width="322" height="200" fill="white"/>
</clipPath>
</defs>
</svg>
