<svg width="519" height="400" viewBox="0 0 519 400" fill="none" xmlns="http://www.w3.org/2000/svg">
<path d="M71.426 194.021L452.211 194.021V7.78488L71.426 7.78488V194.021Z" fill="#E6E6E6"/>
<path d="M67.6241 194.021L448.409 194.021V7.78488L67.6241 7.78488V194.021Z" fill="#F5F5F5"/>
<path d="M441.58 187.647V14.1475L74.4409 14.1475V187.647L441.58 187.647Z" fill="#FAFAFA"/>
<path d="M270.841 187.647L349.754 14.1475H283.633L204.721 187.647H270.841Z" fill="white"/>
<path d="M327.596 187.647L406.508 14.1475H367.046L288.123 187.647H327.596Z" fill="white"/>
<path d="M130.508 187.647L209.421 14.1475H189.69L110.766 187.647H130.508Z" fill="white"/>
<path d="M77.3341 187.647L77.3341 14.1475H74.4631L74.4631 187.647H77.3341Z" fill="#E6E6E6"/>
<path d="M70.4617 175.043L445.593 175.043V172.693L70.4617 172.693V175.043Z" fill="#F5F5F5"/>
<path d="M70.4617 168.847L445.593 168.847V166.497L70.4617 166.497V168.847Z" fill="#F5F5F5"/>
<path d="M434.542 205.127H49.1569V213.009H434.542V205.127Z" fill="#F5F5F5"/>
<path d="M434.542 213.02H456.922V205.139H434.542V213.02Z" fill="#EBEBEB"/>
<path d="M444.773 242.938H437.413L437.235 241.63C437.081 240.406 436.487 239.281 435.562 238.464C434.638 237.648 433.447 237.197 432.214 237.196H394.614C393.892 237.196 393.178 237.35 392.52 237.649C391.862 237.947 391.276 238.383 390.8 238.927C390.324 239.471 389.971 240.11 389.762 240.802C389.554 241.493 389.496 242.222 389.593 242.938L390.602 250.365C390.688 251.017 391.009 251.615 391.505 252.048C392.001 252.481 392.637 252.717 393.295 252.715H447.422C447.809 252.715 448.191 252.632 448.543 252.473C448.896 252.313 449.21 252.08 449.465 251.79C449.72 251.499 449.91 251.157 450.022 250.787C450.134 250.417 450.166 250.027 450.116 249.644L449.794 247.283C449.621 246.075 449.017 244.971 448.095 244.173C447.172 243.375 445.993 242.936 444.773 242.938Z" fill="#EBEBEB"/>
<path d="M431.859 257.625H409.568L408.67 252.759H430.961L431.859 257.625Z" fill="#F5F5F5"/>
<path d="M422.36 255.198H418.17V346.104H422.36V255.198Z" fill="#F5F5F5"/>
<path d="M436.714 346.104H403.582L415.454 343.033H424.843L436.714 346.104Z" fill="#F5F5F5"/>
<path d="M336.896 242.938H329.524L329.347 241.63C329.198 240.406 328.606 239.279 327.683 238.462C326.76 237.645 325.569 237.195 324.337 237.196H286.726C286.005 237.197 285.292 237.353 284.635 237.652C283.979 237.951 283.394 238.387 282.919 238.931C282.445 239.475 282.092 240.113 281.885 240.804C281.677 241.495 281.619 242.223 281.716 242.938L282.724 250.365C282.811 251.015 283.13 251.612 283.624 252.044C284.117 252.477 284.751 252.715 285.407 252.715H339.545C339.931 252.715 340.313 252.633 340.665 252.473C341.017 252.313 341.33 252.08 341.585 251.789C341.839 251.498 342.028 251.156 342.139 250.786C342.25 250.416 342.28 250.027 342.228 249.644L341.917 247.283C341.744 246.075 341.14 244.971 340.218 244.173C339.295 243.375 338.116 242.936 336.896 242.938Z" fill="#EBEBEB"/>
<path d="M323.971 257.625H301.68L300.793 252.759H323.084L323.971 257.625Z" fill="#F5F5F5"/>
<path d="M314.482 255.198H310.292V346.104H314.482V255.198Z" fill="#F5F5F5"/>
<path d="M328.826 346.104H295.694L307.565 343.033H316.954L328.826 346.104Z" fill="#F5F5F5"/>
<path d="M229.019 242.938H221.647L221.47 241.63C221.318 240.407 220.726 239.282 219.803 238.465C218.881 237.649 217.691 237.197 216.459 237.196H178.849C178.127 237.197 177.414 237.353 176.758 237.652C176.101 237.951 175.516 238.387 175.042 238.931C174.568 239.475 174.215 240.113 174.007 240.804C173.8 241.495 173.742 242.223 173.838 242.938L174.836 250.365C174.925 251.016 175.246 251.613 175.742 252.045C176.237 252.477 176.872 252.715 177.53 252.715H231.657C232.044 252.716 232.427 252.635 232.78 252.476C233.133 252.318 233.448 252.085 233.704 251.794C233.959 251.502 234.149 251.16 234.261 250.789C234.372 250.418 234.403 250.028 234.35 249.644L234.029 247.283C233.858 246.076 233.257 244.972 232.336 244.174C231.415 243.375 230.237 242.936 229.019 242.938Z" fill="#EBEBEB"/>
<path d="M216.094 257.625H193.802L192.904 252.759H215.196L216.094 257.625Z" fill="#F5F5F5"/>
<path d="M206.594 255.198H202.404V346.104H206.594V255.198Z" fill="#F5F5F5"/>
<path d="M220.949 346.104H187.816L199.688 343.033H209.077L220.949 346.104Z" fill="#F5F5F5"/>
<path d="M121.141 242.938H113.77L113.593 241.63C113.439 240.406 112.844 239.281 111.919 238.464C110.995 237.648 109.804 237.197 108.571 237.196H70.9716C70.2439 237.193 69.5242 237.347 68.8615 237.648C68.1987 237.948 67.6085 238.388 67.131 238.937C66.6535 239.486 66.2998 240.132 66.0941 240.83C65.8885 241.528 65.8356 242.262 65.9391 242.982L66.9478 250.409C67.0341 251.061 67.3552 251.66 67.8511 252.092C68.3469 252.525 68.9834 252.762 69.6414 252.759H123.768C124.155 252.759 124.537 252.677 124.89 252.517C125.242 252.358 125.556 252.125 125.811 251.834C126.066 251.543 126.256 251.202 126.368 250.832C126.481 250.462 126.513 250.072 126.462 249.688L126.141 247.327C125.977 246.116 125.381 245.004 124.463 244.197C123.544 243.39 122.364 242.943 121.141 242.938Z" fill="#EBEBEB"/>
<path d="M108.216 257.625H85.9248L85.027 252.759H107.319L108.216 257.625Z" fill="#F5F5F5"/>
<path d="M98.7168 255.198H94.5267V346.104H98.7168V255.198Z" fill="#F5F5F5"/>
<path d="M113.071 346.104H79.939L91.8108 343.033H101.2L113.071 346.104Z" fill="#F5F5F5"/>
<path d="M259.923 396.163C378.622 396.163 474.846 390.545 474.846 383.615C474.846 376.685 378.622 371.067 259.923 371.067C141.224 371.067 45 376.685 45 383.615C45 390.545 141.224 396.163 259.923 396.163Z" fill="#F5F5F5"/>
<path d="M382.964 80.1243C382.962 81.2419 382.629 82.3338 382.006 83.2621C381.384 84.1903 380.5 84.9131 379.467 85.3393C378.433 85.7655 377.297 85.8759 376.201 85.6565C375.105 85.4371 374.099 84.8978 373.31 84.1067C372.52 83.3157 371.983 82.3084 371.766 81.212C371.548 80.1157 371.661 78.9796 372.089 77.9473C372.517 76.9149 373.242 76.0326 374.171 75.412C375.101 74.7913 376.193 74.46 377.311 74.46C378.054 74.46 378.79 74.6066 379.477 74.8914C380.164 75.1761 380.787 75.5936 381.312 76.1197C381.837 76.6458 382.254 77.2703 382.537 77.9575C382.82 78.6446 382.966 79.381 382.964 80.1243Z" fill="#263238"/>
<path d="M379.084 85.2455C379.087 86.29 378.779 87.3117 378.2 88.1811C377.621 89.0505 376.797 89.7284 375.832 90.1292C374.868 90.5299 373.806 90.6353 372.781 90.4321C371.757 90.2289 370.816 89.7261 370.077 88.9875C369.338 88.2489 368.836 87.3078 368.632 86.2832C368.429 85.2587 368.535 84.1969 368.935 83.2323C369.336 82.2677 370.014 81.4438 370.883 80.8648C371.753 80.2859 372.775 79.978 373.819 79.9802C375.215 79.9832 376.552 80.5388 377.539 81.5256C378.526 82.5124 379.081 83.85 379.084 85.2455Z" fill="#263238"/>
<path d="M411.009 330.286L405.777 336.161L391.488 324.799L396.72 318.924L411.009 330.286Z" fill="#7F3E3B"/>
<path d="M404.823 335.862L410.698 329.211C410.797 329.099 410.934 329.029 411.082 329.015C411.23 329 411.378 329.043 411.496 329.133L417.039 333.467C417.314 333.712 417.481 334.056 417.503 334.423C417.526 334.791 417.403 335.152 417.161 335.429C415.077 337.646 413.968 338.677 411.375 341.57C409.789 343.366 405.699 347.379 403.493 349.851C401.287 352.323 398.926 350.072 399.636 348.831C402.817 343.289 404.136 339.963 404.314 337.148C404.342 336.676 404.521 336.225 404.823 335.862Z" fill="#263238"/>
<path opacity="0.2" d="M396.732 318.924L391.488 324.799L398.86 330.652L404.092 324.777L396.732 318.924Z" fill="black"/>
<path d="M350.453 177.172C350.453 177.172 339.046 238.138 338.592 260.652C338.082 285.371 395.124 331.893 395.124 331.893L404.225 320.709C404.225 320.709 369.496 284.129 362.014 261.261C364.996 234.89 378.475 174.8 378.475 174.8L350.453 177.172Z" fill="#263238"/>
<path opacity="0.3" d="M360.983 217.299C358.866 227.995 360.274 241.829 363.256 252.083C365.639 236.398 369.907 215.037 373.298 198.754C369.563 198.898 363.633 203.886 360.983 217.299Z" fill="black"/>
<path d="M404.779 320.675L394.803 332.458L389.416 329.643L401.731 316.884L404.779 320.675Z" fill="#6A7479"/>
<path d="M404.025 338.855C404.48 338.314 404.878 337.727 405.211 337.103C405.23 337.073 405.24 337.039 405.24 337.003C405.24 336.968 405.23 336.934 405.211 336.904C405.189 336.877 405.159 336.857 405.126 336.845C405.093 336.833 405.057 336.831 405.023 336.837C404.735 336.915 402.108 337.558 401.697 338.533C401.657 338.643 401.645 338.762 401.662 338.878C401.679 338.995 401.726 339.105 401.797 339.198C401.891 339.351 402.023 339.477 402.181 339.563C402.338 339.648 402.516 339.691 402.695 339.686C403.225 339.58 403.698 339.285 404.025 338.855ZM404.679 337.303C403.948 338.544 403.227 339.287 402.706 339.32C402.589 339.318 402.473 339.285 402.372 339.225C402.271 339.165 402.188 339.079 402.13 338.977C402.093 338.933 402.068 338.88 402.058 338.823C402.049 338.767 402.054 338.709 402.074 338.655C402.23 338.134 403.604 337.602 404.646 337.303H404.679Z" fill="#EF4E23"/>
<path d="M405.134 337.136C405.14 337.111 405.14 337.084 405.134 337.059C405.149 337.034 405.158 337.005 405.158 336.976C405.158 336.946 405.149 336.917 405.134 336.893C405.067 336.826 403.493 335.186 402.396 335.263C402.254 335.273 402.116 335.315 401.993 335.386C401.87 335.457 401.765 335.555 401.686 335.673C401.587 335.796 401.533 335.948 401.533 336.106C401.533 336.263 401.587 336.416 401.686 336.538C402.207 337.247 404.214 337.469 405.078 337.192L405.134 337.136ZM402.03 335.817C402.129 335.706 402.269 335.638 402.418 335.629C403.072 335.629 404.08 336.394 404.635 336.915C403.698 337.067 402.739 336.857 401.952 336.327C401.886 336.239 401.83 336.106 401.952 335.884L402.03 335.817Z" fill="#EF4E23"/>
<path d="M353.523 116.272C353.301 117.147 353.124 117.801 352.924 118.544C352.725 119.287 352.492 119.974 352.27 120.672C351.812 122.084 351.324 123.48 350.807 124.862C349.766 127.646 348.57 130.37 347.227 133.021C344.496 138.613 340.804 143.682 336.319 147.996C335.086 149.115 333.775 150.145 332.395 151.078C332.041 151.311 331.475 151.621 331.032 151.887C330.588 152.153 330.068 152.33 329.58 152.552C329.092 152.774 328.604 152.896 328.117 153.051L326.676 153.384C323.276 153.939 319.798 153.773 316.466 152.896C313.509 152.184 310.634 151.166 307.887 149.859C306.546 149.238 305.249 148.551 303.974 147.83C302.699 147.11 301.48 146.367 300.194 145.48L302.965 140.259C304.14 140.636 305.459 141.068 306.712 141.434C307.964 141.8 309.272 142.121 310.536 142.443C312.991 143.059 315.488 143.489 318.007 143.729C320.123 143.976 322.265 143.825 324.326 143.285L324.891 143.064C325.046 142.975 325.223 142.908 325.379 142.82L325.778 142.565C325.911 142.454 325.966 142.432 326.177 142.265C327.043 141.583 327.861 140.842 328.626 140.049C331.894 136.398 334.568 132.257 336.552 127.778C337.661 125.483 338.625 123.078 339.556 120.661C340.011 119.453 340.443 118.223 340.842 116.992L341.418 115.152C341.607 114.565 341.806 113.888 341.939 113.423L353.523 116.272Z" fill="#A77865"/>
<path d="M331.065 133.132L344.256 141.312C344.256 141.312 344.688 140.747 345.364 139.772C345.874 139.062 346.539 138.109 347.304 137C351.616 130.726 357.735 119.409 357.347 114.155C356.76 106.34 348.546 105.885 340.121 114.664C336.486 118.444 334.934 124.353 333.238 128.077C332.672 129.296 332.207 130.372 331.841 131.203L331.065 133.132Z" fill="#F29356"/>
<path d="M387.853 373.683H379.982L378.963 355.459H386.833L387.853 373.683Z" fill="#7F3E3B"/>
<path d="M379.572 372.774H388.44C388.513 372.771 388.586 372.782 388.654 372.807C388.722 372.833 388.785 372.871 388.839 372.92C388.892 372.97 388.936 373.029 388.966 373.096C388.997 373.162 389.014 373.233 389.017 373.306L389.449 380.312C389.449 380.678 389.305 381.03 389.048 381.291C388.791 381.553 388.441 381.702 388.074 381.708C384.993 381.708 383.519 381.475 379.628 381.475C377.245 381.475 370.317 381.719 367.013 381.719C363.71 381.719 363.81 378.449 365.206 378.161C371.48 376.831 376.014 375.002 378.242 373.262C378.62 372.958 379.088 372.787 379.572 372.774Z" fill="#263238"/>
<path opacity="0.2" d="M386.833 355.459H378.963L379.495 364.859H387.365L386.833 355.459Z" fill="black"/>
<path d="M365.727 175.476C365.727 175.476 362.402 234.968 365.073 257.381C367.955 281.934 376.158 362.587 376.158 362.587H390.568C390.568 362.587 389.061 282.655 388.451 258.213C387.797 231.687 392.83 173.148 392.83 173.148L365.727 175.476Z" fill="#263238"/>
<path d="M391.089 362.587H375.05L374.163 356.213L391.865 357.211L391.089 362.587Z" fill="#6A7479"/>
<path d="M376.779 374.149C377.486 374.129 378.188 374.033 378.874 373.86C378.911 373.856 378.945 373.839 378.971 373.813C378.997 373.787 379.013 373.753 379.018 373.716C379.024 373.682 379.019 373.647 379.006 373.616C378.992 373.585 378.969 373.558 378.94 373.539C378.685 373.361 376.457 371.832 375.504 372.209C375.395 372.253 375.298 372.324 375.223 372.415C375.148 372.506 375.096 372.614 375.072 372.73C375.019 372.902 375.013 373.085 375.054 373.26C375.095 373.435 375.181 373.596 375.305 373.727C375.726 374.048 376.252 374.198 376.779 374.149ZM378.375 373.594C376.967 373.882 375.925 373.838 375.56 373.472C375.483 373.384 375.43 373.277 375.407 373.163C375.383 373.048 375.39 372.93 375.427 372.818C375.435 372.759 375.458 372.703 375.495 372.656C375.532 372.61 375.581 372.574 375.637 372.552C376.147 372.353 377.422 373.018 378.375 373.594Z" fill="#EF4E23"/>
<path d="M378.841 373.871H378.918C378.945 373.857 378.969 373.837 378.986 373.811C379.003 373.786 379.014 373.757 379.018 373.727C379.018 373.627 379.207 371.366 378.409 370.601C378.31 370.499 378.187 370.422 378.052 370.378C377.917 370.333 377.773 370.323 377.633 370.346C377.474 370.346 377.321 370.402 377.2 370.503C377.078 370.604 376.996 370.745 376.967 370.901C376.79 371.754 377.954 373.395 378.741 373.86L378.841 373.871ZM377.732 370.679C377.876 370.68 378.015 370.736 378.12 370.834C378.557 371.592 378.739 372.47 378.641 373.339C377.903 372.741 377.42 371.886 377.289 370.945C377.289 370.845 377.378 370.712 377.644 370.679H377.732Z" fill="#EF4E23"/>
<path opacity="0.3" d="M357.536 115.097C354.576 113.489 352.947 118.422 347.759 122.978C345.453 124.995 341.053 137.233 341.718 139.783L344.256 141.357C344.256 141.357 358.267 122.856 357.536 115.097Z" fill="black"/>
<path d="M304.506 141.08L298.121 134.639L294.253 142.399C294.253 142.399 301.214 147.487 303.198 145.724L304.506 141.08Z" fill="#A77865"/>
<path d="M290.018 135.105L288.743 141.235L294.253 142.443L298.121 134.639L290.018 135.105Z" fill="#A77865"/>
<path d="M350.452 177.172L392.386 173.569C392.386 169.8 390.446 157.685 389.759 142.11C389.167 130.576 389.578 119.011 390.989 107.548C391.1 106.683 391.222 105.83 391.355 104.965C391.355 104.965 389.194 104.721 386.101 104.533C383.54 104.378 380.337 104.278 377.233 104.389C371.267 104.565 365.316 105.079 359.409 105.93C356.693 106.417 354.055 107.105 351.96 107.692C349.277 108.479 347.703 109.089 347.703 109.089C347.703 109.089 339.39 133.719 350.452 177.172Z" fill="#F29356"/>
<path opacity="0.3" d="M389.759 142.144C389.172 130.605 389.584 119.038 390.99 107.57C388.163 107.57 383.397 108.258 382.986 112.858C382.554 117.79 384.616 129.141 389.759 142.144Z" fill="black"/>
<path d="M394.204 109.798C395.146 111.007 395.944 112.071 396.742 113.235C397.54 114.399 398.305 115.529 399.07 116.693C400.578 119.032 402.008 121.426 403.338 123.887C406.128 128.889 408.358 134.182 409.989 139.672L410.144 140.193L410.221 140.459L410.332 140.891C410.471 141.478 410.567 142.075 410.621 142.676C410.695 143.677 410.673 144.683 410.554 145.68C410.346 147.327 409.975 148.95 409.446 150.524C408.489 153.289 407.294 155.967 405.876 158.527C403.19 163.379 400.062 167.973 396.532 172.25L391.577 169.024C393.794 164.336 395.911 159.491 397.651 154.758C398.52 152.499 399.224 150.18 399.757 147.819C399.983 146.837 400.109 145.834 400.134 144.826C400.142 144.499 400.112 144.172 400.046 143.851C400.046 143.751 399.99 143.673 399.968 143.662L399.89 143.452L399.724 143.031C398.852 140.763 397.86 138.543 396.753 136.38C395.645 134.163 394.392 131.946 393.107 129.784C391.821 127.623 390.446 125.461 389.05 123.322C387.653 121.182 386.156 119.032 384.793 117.103L394.204 109.798Z" fill="#A77865"/>
<path d="M382.166 120.163C384.594 125.43 387.326 130.553 390.347 135.504C391.001 136.612 391.61 137.61 392.109 138.408C392.974 139.816 393.517 140.625 393.517 140.625L408.648 130.46L407.927 128.72C407.583 127.9 407.129 126.825 406.575 125.583C403.249 118.267 396.72 105.276 391.355 104.954C383.33 104.522 378.142 110.929 382.166 120.163Z" fill="#F29356"/>
<path d="M375.116 84.4585L370.682 88.8259L364.652 94.7784C364.919 95.6256 365.133 96.4881 365.295 97.3612C365.949 100.853 365.295 104.134 360.229 105.808C360.229 105.808 353.9 111.494 363.034 111.151C365.842 111.094 368.609 110.467 371.166 109.306C373.724 108.146 376.018 106.476 377.91 104.4C373.697 100.908 374.285 90.3113 375.116 84.4585Z" fill="#A77865"/>
<path d="M376.491 102.283C373.311 106.314 369.057 109.365 364.22 111.084C365.456 111.352 366.616 111.895 367.612 112.675C368.609 113.454 369.416 114.449 369.973 115.585C369.973 115.585 378.686 111.561 379.007 104.367C378.241 103.589 377.398 102.891 376.491 102.283Z" fill="white"/>
<path d="M360.917 105.442C360.917 105.442 358.511 109.299 362.734 111.162C361.014 112.178 359.681 113.738 358.943 115.596C358.943 115.596 355.43 110.286 358.101 106.029C359.686 105.608 360.917 105.442 360.917 105.442Z" fill="white"/>
<path opacity="0.2" d="M364.652 94.7785C364.918 95.6256 365.133 96.4881 365.295 97.3612C367.678 96.6629 370.693 93.8141 370.837 91.3089C370.885 90.4789 370.841 89.6461 370.704 88.8259L364.652 94.7785Z" fill="black"/>
<path d="M364.422 72.5939C368.807 68.2087 368.807 61.099 364.422 56.7138C360.036 52.3286 352.927 52.3286 348.542 56.7138C344.156 61.099 344.156 68.2087 348.542 72.5938C352.927 76.979 360.036 76.979 364.422 72.5939Z" fill="#263238"/>
<path d="M365.805 72.243C370.225 72.243 373.808 68.6598 373.808 64.2398C373.808 59.8197 370.225 56.2366 365.805 56.2366C361.385 56.2366 357.802 59.8197 357.802 64.2398C357.802 68.6598 361.385 72.243 365.805 72.243Z" fill="#263238"/>
<path d="M379.395 67.0108C379.395 68.2473 379.028 69.4561 378.341 70.4842C377.654 71.5123 376.678 72.3136 375.536 72.7868C374.393 73.26 373.136 73.3838 371.924 73.1425C370.711 72.9013 369.597 72.3059 368.722 71.4316C367.848 70.5572 367.253 69.4433 367.011 68.2305C366.77 67.0178 366.894 65.7608 367.367 64.6184C367.84 63.476 368.642 62.4996 369.67 61.8127C370.698 61.1257 371.907 60.759 373.143 60.759C374.801 60.759 376.391 61.4177 377.564 62.5901C378.736 63.7626 379.395 65.3528 379.395 67.0108Z" fill="#263238"/>
<path d="M362.734 75.0251C362.732 76.2611 362.364 77.4688 361.675 78.4954C360.987 79.5221 360.01 80.3217 358.867 80.7931C357.725 81.2646 356.468 81.3869 355.256 81.1444C354.044 80.9019 352.931 80.3056 352.058 79.4308C351.185 78.5561 350.59 77.4421 350.35 76.2296C350.11 75.0172 350.234 73.7607 350.708 72.619C351.181 71.4773 351.982 70.5015 353.01 69.8151C354.038 69.1286 355.246 68.7622 356.482 68.7622C357.304 68.7622 358.118 68.9243 358.877 69.2392C359.637 69.554 360.326 70.0155 360.907 70.5972C361.488 71.179 361.948 71.8695 362.262 72.6293C362.575 73.389 362.736 74.2032 362.734 75.0251Z" fill="#263238"/>
<path d="M377.91 79.3594C381.228 79.3594 383.918 76.6696 383.918 73.3515C383.918 70.0334 381.228 67.3435 377.91 67.3435C374.591 67.3435 371.902 70.0334 371.902 73.3515C371.902 76.6696 374.591 79.3594 377.91 79.3594Z" fill="#263238"/>
<path d="M376.369 76.0228C375.371 83.7822 375.183 88.3823 370.971 92.2399C369.619 93.5127 367.945 94.3914 366.129 94.7809C364.314 95.1704 362.427 95.0558 360.672 94.4496C358.917 93.8433 357.361 92.7684 356.174 91.3414C354.986 89.9144 354.211 88.1896 353.933 86.3538C352.725 79.3039 354.576 67.7868 362.413 64.938C364.093 64.2774 365.917 64.0702 367.703 64.3369C369.488 64.6037 371.172 65.3352 372.586 66.458C374 67.5808 375.093 69.0555 375.757 70.7343C376.421 72.413 376.632 74.2368 376.369 76.0228Z" fill="#A77865"/>
<path d="M375.947 81.6538C378.855 81.6538 381.213 79.2965 381.213 76.3886C381.213 73.4806 378.855 71.1233 375.947 71.1233C373.039 71.1233 370.682 73.4806 370.682 76.3886C370.682 79.2965 373.039 81.6538 375.947 81.6538Z" fill="#263238"/>
<path d="M366.836 73.7616C367.884 74.4159 369.05 74.8573 370.269 75.0605C371.487 75.2637 372.734 75.2246 373.938 74.9456C375.141 74.6666 376.278 74.1532 377.283 73.4345C378.287 72.7159 379.141 71.8062 379.794 70.7576L363.854 60.7812C363.197 61.8291 362.752 62.9962 362.546 64.2159C362.34 65.4356 362.377 66.684 362.654 67.8896C362.931 69.0951 363.443 70.2343 364.16 71.2418C364.878 72.2494 365.787 73.1056 366.836 73.7616Z" fill="#263238"/>
<path d="M355.773 70.126C358.068 70.8406 360.552 70.6151 362.68 69.4989C364.809 68.3828 366.407 66.4673 367.124 64.1734L349.832 58.7751C349.476 59.9106 349.348 61.1049 349.454 62.29C349.56 63.475 349.899 64.6275 350.45 65.6817C351.002 66.7358 351.756 67.6709 352.67 68.4334C353.583 69.196 354.637 69.7711 355.773 70.126Z" fill="#263238"/>
<path d="M378.818 83.8376C377.713 85.4423 376.088 86.6168 374.218 87.163C371.857 87.7727 371.114 85.6001 372.156 83.3388C373.087 81.3103 375.482 78.5391 377.643 78.9049C379.805 79.2707 380.215 81.8423 378.818 83.8376Z" fill="#A77865"/>
<path d="M364.408 77.8185C364.408 78.4504 363.998 78.927 363.577 78.927C363.155 78.927 362.856 78.395 362.9 77.752C362.945 77.1091 363.322 76.6436 363.732 76.6436C364.142 76.6436 364.452 77.1867 364.408 77.8185Z" fill="#263238"/>
<path d="M357.236 77.5859C357.236 78.2177 356.815 78.6944 356.405 78.6944C355.995 78.6944 355.684 78.1512 355.729 77.5194C355.773 76.8875 356.15 76.4109 356.56 76.4109C356.97 76.4109 357.281 76.954 357.236 77.5859Z" fill="#263238"/>
<path d="M359.498 77.9739C358.603 79.8896 357.458 81.6786 356.095 83.2946C356.514 83.6194 356.999 83.8475 357.517 83.9625C358.034 84.0775 358.571 84.0766 359.088 83.9597L359.498 77.9739Z" fill="#5B3D3D"/>
<path d="M361.57 85.7552C362.303 85.695 363.017 85.4895 363.67 85.1508C364.323 84.812 364.901 84.3468 365.373 83.7821C365.39 83.7655 365.403 83.7457 365.413 83.7238C365.422 83.7019 365.427 83.6784 365.427 83.6546C365.427 83.6308 365.422 83.6073 365.413 83.5854C365.403 83.5635 365.39 83.5437 365.373 83.5271C365.337 83.4919 365.289 83.4722 365.24 83.4722C365.19 83.4722 365.142 83.4919 365.106 83.5271C364.586 84.134 363.934 84.6142 363.201 84.9311C362.467 85.2481 361.671 85.3934 360.872 85.3561C360.831 85.3663 360.795 85.3898 360.769 85.4229C360.743 85.4561 360.729 85.4969 360.729 85.539C360.729 85.5811 360.743 85.622 360.769 85.6551C360.795 85.6883 360.831 85.7118 360.872 85.7219C361.104 85.7477 361.337 85.7588 361.57 85.7552Z" fill="#263238"/>
<path d="M366.78 75.5795C366.843 75.5692 366.903 75.5466 366.958 75.513C367.037 75.4551 367.092 75.369 367.111 75.2722C367.129 75.1755 367.11 75.0753 367.057 74.9921C366.738 74.5009 366.303 74.0949 365.791 73.809C365.28 73.5232 364.706 73.3662 364.12 73.3515C364.066 73.3421 364.01 73.3447 363.957 73.359C363.904 73.3733 363.855 73.3991 363.813 73.4345C363.771 73.4698 363.737 73.514 363.714 73.5638C363.691 73.6136 363.679 73.6679 363.679 73.7228C363.679 73.7778 363.691 73.8321 363.714 73.8819C363.737 73.9317 363.771 73.9758 363.813 74.0112C363.855 74.0466 363.904 74.0723 363.957 74.0867C364.01 74.101 364.066 74.1036 364.12 74.0942C364.581 74.111 365.031 74.24 365.43 74.4698C365.83 74.6997 366.168 75.0235 366.415 75.4133C366.455 75.4717 366.51 75.5181 366.574 75.5474C366.639 75.5768 366.71 75.5879 366.78 75.5795Z" fill="#263238"/>
<path d="M354.321 75.0143C354.38 75.0072 354.437 74.9865 354.487 74.9538C354.537 74.9211 354.579 74.8773 354.609 74.8258C354.831 74.4052 355.146 74.0408 355.531 73.7603C355.915 73.4799 356.358 73.2908 356.826 73.2075C356.924 73.1963 357.014 73.1471 357.076 73.0704C357.139 72.9937 357.168 72.8956 357.159 72.7973C357.155 72.7492 357.141 72.7024 357.119 72.6596C357.096 72.6168 357.066 72.5788 357.029 72.5479C356.991 72.517 356.949 72.4937 356.902 72.4795C356.856 72.4652 356.808 72.4602 356.76 72.4648C356.169 72.5592 355.608 72.7883 355.119 73.1342C354.631 73.4802 354.229 73.9338 353.944 74.46C353.896 74.5469 353.885 74.6491 353.912 74.7446C353.939 74.84 354.002 74.921 354.088 74.97C354.157 75.0149 354.241 75.0309 354.321 75.0143Z" fill="#263238"/>
<path d="M393.484 167.107L385.558 166.419L390.347 175.11C390.347 175.11 397.463 174.456 396.82 170.809L393.484 167.107Z" fill="#A77865"/>
<path d="M380.126 171.463L384.416 178.446L390.335 175.11L385.558 166.419L380.126 171.463Z" fill="#A77865"/>
<path d="M245.047 96.4852C237.653 109.998 241.156 128.332 252.274 135.282C263.924 142.587 286.238 128.631 292.634 122.135C282.491 122.357 280.042 113.545 279.62 104.943C279.133 95.0441 274.388 85.4225 268.137 88.7147C258.393 81.8422 250.002 87.4511 245.047 96.4852Z" fill="#263238"/>
<path d="M287.923 120.196C286.092 120.273 284.297 119.664 282.891 118.489C280.84 116.671 279.998 113.434 280.463 109.144C281.494 99.4892 277.736 91.1423 273.668 88.9364C272.864 88.463 271.929 88.2603 271.001 88.3581C270.073 88.4559 269.201 88.849 268.514 89.4796L268.17 89.0473C268.938 88.3436 269.912 87.9056 270.948 87.7978C271.984 87.69 273.027 87.9182 273.923 88.4487C278.157 90.7322 282.07 99.3229 281.017 109.199C280.574 113.312 281.35 116.371 283.234 118.067C284.964 119.597 287.58 120.018 290.816 119.276L290.938 119.819C289.95 120.055 288.939 120.181 287.923 120.196Z" fill="#263238"/>
<path d="M245.103 140.703C243.679 142.657 242.151 144.534 240.525 146.323C238.91 148.116 237.188 149.812 235.37 151.399C233.506 153.051 231.499 154.535 229.373 155.833C228.253 156.52 227.082 157.12 225.87 157.629C224.586 158.2 223.239 158.62 221.858 158.882C220.364 159.195 218.829 159.262 217.313 159.081C215.81 158.889 214.35 158.451 212.99 157.784C210.645 156.603 208.504 155.053 206.649 153.195C203.262 149.805 200.397 145.931 198.147 141.7L201.561 139.483C204.373 142.731 207.491 145.701 210.873 148.351C212.383 149.536 214.056 150.499 215.839 151.211C216.547 151.486 217.296 151.643 218.056 151.676C218.804 151.716 219.554 151.626 220.273 151.41C222.018 150.914 223.667 150.127 225.15 149.083C226.844 147.951 228.445 146.687 229.939 145.303C231.479 143.895 232.931 142.343 234.372 140.769C235.813 139.195 237.21 137.444 238.418 135.903L245.103 140.703Z" fill="#FFC3BD"/>
<path d="M246.078 131.613C238.695 131.424 236.534 136.047 236.534 136.047L244.049 149.637C246.378 147.427 248.168 144.711 249.281 141.7C250.634 137.2 251.055 131.724 246.078 131.613Z" fill="#5DB08E"/>
<path d="M202.005 140.137L199.311 133.642L194.523 140.703C194.523 140.703 197.316 143.574 200.642 143.197L202.005 140.137Z" fill="#FFC3BD"/>
<path d="M193.47 129.806L190.865 135.703L194.523 140.703L199.311 133.642L193.47 129.806Z" fill="#FFC3BD"/>
<path d="M287.524 373.672L279.488 374.436L277.038 355.858L285.074 355.094L287.524 373.672Z" fill="#FFC3BD"/>
<path d="M352.159 354.296L345.996 359.14L335.399 342.967L341.573 338.112L352.159 354.296Z" fill="#FFC3BD"/>
<path d="M343.458 356.235L349.399 349.241C349.498 349.118 349.638 349.035 349.793 349.008C349.948 348.982 350.108 349.013 350.242 349.097L356.361 352.854C356.509 352.959 356.635 353.094 356.729 353.249C356.823 353.405 356.883 353.579 356.906 353.759C356.929 353.94 356.914 354.123 356.862 354.298C356.81 354.472 356.722 354.634 356.604 354.772C354.487 357.178 353.346 358.231 350.73 361.301C349.122 363.197 345.841 367.608 343.624 370.224C341.407 372.84 338.736 370.845 339.434 369.559C342.549 363.817 342.904 360.37 342.948 357.588C342.95 357.09 343.131 356.61 343.458 356.235Z" fill="#263238"/>
<path d="M278.767 372.02H288.344C288.518 372.023 288.686 372.081 288.824 372.187C288.962 372.293 289.062 372.44 289.109 372.607L291.193 380.189C291.243 380.369 291.251 380.558 291.215 380.741C291.179 380.924 291.101 381.096 290.987 381.244C290.873 381.391 290.726 381.51 290.558 381.591C290.389 381.671 290.205 381.711 290.018 381.708C286.693 381.708 285.041 381.453 280.818 381.453C278.224 381.453 271.529 381.719 267.948 381.719C264.368 381.719 263.714 378.183 265.155 377.862C271.651 376.421 275.397 374.436 277.348 372.552C277.732 372.194 278.242 372.003 278.767 372.02Z" fill="#263238"/>
<path opacity="0.2" d="M277.038 355.858L278.301 365.436H286.449L285.085 355.094L277.038 355.858Z" fill="black"/>
<path opacity="0.2" d="M341.573 338.123L335.399 342.967L340.864 351.303L347.038 346.459L341.573 338.123Z" fill="black"/>
<path d="M240.391 132.7C240.391 132.7 236.822 134.783 252.651 179.699L285.03 173.303C282.17 160.334 280.729 152.242 282.281 124.198C277.576 124.166 272.875 124.473 268.214 125.118C263.248 125.733 258.332 126.703 253.505 128.022C247.297 129.84 240.391 132.7 240.391 132.7Z" fill="#5DB08E"/>
<path d="M271.584 124.696C270.476 124.807 269.367 124.951 268.259 125.117C263.292 125.733 258.377 126.703 253.549 128.022C252.241 128.41 250.889 128.842 249.592 129.274C249.038 132.312 249.492 137.411 255.035 144.25L257.473 147.265L260.078 144.394C268.58 135.049 272.393 128.532 271.584 124.696Z" fill="#418267"/>
<path d="M263.847 108.978C263.747 113.855 264.346 122.634 268.214 125.117C268.214 125.117 270.309 128.177 257.573 142.155C250.013 132.821 253.505 128.021 253.505 128.021C258.559 125.727 257.739 121.869 256.176 118.4L263.847 108.978Z" fill="#FFC3BD"/>
<path opacity="0.2" d="M263.016 109.998C263.441 112.82 263.255 115.7 262.472 118.444C261.929 120.34 259.723 121.593 257.34 122.235C257.17 120.908 256.796 119.614 256.232 118.4L263.016 109.998Z" fill="black"/>
<path d="M271.096 103.801C268.879 111.561 268.104 114.886 263.248 118.09C255.966 122.967 246.965 118.766 246.832 110.574C246.721 103.192 250.368 91.73 258.726 90.1781C260.545 89.8022 262.431 89.907 264.198 90.4824C265.964 91.0578 267.55 92.0839 268.799 93.4592C270.048 94.8346 270.917 96.5119 271.32 98.3255C271.722 100.139 271.646 102.026 271.096 103.801Z" fill="#FFC3BD"/>
<path d="M269.057 91.8185C272.848 95.1994 246.056 97.8486 248.472 93.7362C250.889 89.6237 262.65 86.0877 269.057 91.8185Z" fill="#263238"/>
<path d="M270.73 108.169C262.694 110.386 261.929 88.216 266.463 89.7457C270.996 91.2754 279 105.885 270.73 108.169Z" fill="#263238"/>
<path d="M272.571 109.887C272.068 111.37 271.012 112.601 269.622 113.323C267.76 114.254 266.474 112.724 266.685 110.785C266.873 109.044 268.059 106.45 270.01 106.351C270.446 106.32 270.882 106.401 271.278 106.586C271.674 106.771 272.016 107.054 272.272 107.408C272.528 107.762 272.69 108.175 272.742 108.609C272.795 109.042 272.736 109.482 272.571 109.887Z" fill="#FFC3BD"/>
<path d="M252.651 179.699C252.651 179.699 253.915 256.261 258.471 280.36C263.226 305.445 274.455 362.653 274.455 362.653L289.597 361.922C289.597 361.922 281.66 295.08 280.33 275.693C278.49 248.979 276.361 175.01 276.361 175.01L252.651 179.699Z" fill="#3E4F61"/>
<path opacity="0.5" d="M276.971 194.996C274.566 193.4 270.731 185.097 269.212 202.035C268.104 214.35 274.655 229.37 278.324 234.724C277.825 220.646 277.337 206.169 276.971 194.996Z" fill="#243446"/>
<path d="M290.65 362.653L273.391 363.485L271.351 357.177L290.062 355.714L290.65 362.653Z" fill="#314253"/>
<path d="M261.198 178.003C261.198 178.003 281.882 245.62 294.286 274.441C304.262 297.719 337.395 350.239 337.395 350.239L346.473 343.588C346.473 343.588 323.439 285.947 316.544 270.195C294.374 219.682 297.977 185.585 285.063 173.292L261.198 178.003Z" fill="#3E4F61"/>
<path d="M347.426 343.299L337.25 351.081L332.717 347.312L345.974 337.779L347.426 343.299Z" fill="#314253"/>
<path d="M285.185 171.319L287.147 173.913C287.302 174.112 287.081 174.389 286.704 174.467L252.74 181.173C252.452 181.173 252.186 181.173 252.13 180.952L251.332 178.136C251.277 177.936 251.498 177.726 251.82 177.659L284.609 171.186C284.708 171.159 284.813 171.158 284.913 171.181C285.014 171.204 285.107 171.251 285.185 171.319Z" fill="#775C55"/>
<path d="M281.416 175.83L282.303 175.653C282.469 175.653 282.591 175.509 282.558 175.398L281.45 171.74C281.45 171.64 281.25 171.574 281.084 171.607L280.197 171.784C280.031 171.784 279.909 171.939 279.942 172.039L281.05 175.697C281.073 175.808 281.25 175.863 281.416 175.83Z" fill="#AA9F8F"/>
<path d="M255.267 180.996L256.143 180.818C256.32 180.818 256.431 180.674 256.398 180.564L255.289 176.906C255.289 176.795 255.09 176.739 254.913 176.773L254.037 176.95C253.86 176.95 253.738 177.094 253.771 177.205L254.879 180.863C254.924 180.963 255.09 181.029 255.267 180.996Z" fill="#AA9F8F"/>
<path d="M268.348 178.413L269.223 178.236C269.401 178.236 269.511 178.091 269.478 177.981L268.37 174.323C268.37 174.223 268.159 174.156 267.993 174.19L267.106 174.367C266.94 174.367 266.818 174.522 266.851 174.622L267.96 178.28C268.004 178.391 268.17 178.446 268.348 178.413Z" fill="#AA9F8F"/>
<path d="M257.273 103.513C257.14 104.156 256.686 104.622 256.265 104.522C255.843 104.422 255.622 103.857 255.766 103.214C255.91 102.571 256.364 102.105 256.775 102.216C257.185 102.327 257.417 102.904 257.273 103.513Z" fill="#263238"/>
<path d="M250.068 102.083C249.935 102.726 249.481 103.192 249.06 103.092C248.638 102.992 248.417 102.416 248.561 101.784C248.705 101.152 249.159 100.675 249.57 100.775C249.98 100.875 250.213 101.44 250.068 102.083Z" fill="#263238"/>
<path d="M249.747 100.853L248.317 100.099C248.317 100.099 248.838 101.451 249.747 100.853Z" fill="#263238"/>
<path d="M253.195 103.668C252.299 105.012 251.229 106.23 250.013 107.293C250.294 107.595 250.639 107.831 251.022 107.982C251.406 108.134 251.819 108.198 252.23 108.169L253.195 103.668Z" fill="#ED847E"/>
<path d="M253.804 111.095C253.775 111.074 253.753 111.045 253.742 111.011C253.73 110.978 253.728 110.941 253.737 110.907C253.741 110.882 253.75 110.858 253.764 110.837C253.777 110.815 253.795 110.797 253.815 110.782C253.836 110.768 253.859 110.758 253.884 110.752C253.909 110.747 253.934 110.747 253.959 110.752C254.753 110.929 255.576 110.921 256.366 110.729C257.156 110.536 257.891 110.165 258.515 109.643C258.532 109.624 258.553 109.608 258.576 109.598C258.599 109.587 258.625 109.581 258.65 109.58C258.676 109.579 258.701 109.584 258.725 109.593C258.749 109.603 258.771 109.617 258.789 109.635C258.807 109.653 258.821 109.675 258.831 109.699C258.84 109.723 258.845 109.748 258.844 109.774C258.843 109.8 258.837 109.825 258.827 109.848C258.816 109.871 258.8 109.892 258.781 109.909C258.123 110.494 257.336 110.913 256.484 111.133C255.632 111.352 254.74 111.366 253.881 111.173L253.804 111.095Z" fill="#263238"/>
<path d="M262.029 100.853C261.973 100.816 261.928 100.767 261.896 100.709C261.707 100.272 261.416 99.8872 261.048 99.5862C260.679 99.2853 260.244 99.0773 259.779 98.9796C259.729 98.9728 259.681 98.9562 259.638 98.9307C259.595 98.9052 259.557 98.8713 259.527 98.8311C259.497 98.7908 259.475 98.7449 259.463 98.6962C259.451 98.6475 259.449 98.5969 259.457 98.5473C259.474 98.4482 259.528 98.3593 259.608 98.2993C259.689 98.2393 259.79 98.213 259.889 98.2258C260.484 98.3308 261.042 98.5825 261.515 98.958C261.987 99.3335 262.358 99.821 262.594 100.376C262.636 100.469 262.639 100.574 262.604 100.67C262.569 100.765 262.498 100.843 262.406 100.886C262.346 100.914 262.279 100.926 262.213 100.92C262.147 100.914 262.083 100.891 262.029 100.853Z" fill="#263238"/>
<path d="M248.838 98.1589H248.783C248.711 98.0864 248.672 97.9889 248.672 97.8873C248.672 97.7858 248.711 97.6882 248.783 97.6157C249.212 97.1844 249.736 96.8595 250.314 96.667C250.891 96.4746 251.506 96.4198 252.108 96.5072C252.205 96.531 252.29 96.5917 252.344 96.6764C252.397 96.7611 252.416 96.8634 252.396 96.9617C252.372 97.0621 252.311 97.1494 252.224 97.2052C252.137 97.261 252.032 97.281 251.931 97.261C251.45 97.1989 250.962 97.2508 250.506 97.4126C250.049 97.5744 249.637 97.8414 249.304 98.1921C249.233 98.2379 249.149 98.2593 249.065 98.2533C248.981 98.2473 248.901 98.2142 248.838 98.1589Z" fill="#263238"/>
<path d="M283.677 127.667C284.952 128.52 285.983 129.296 287.08 130.161C288.178 131.025 289.209 131.89 290.24 132.799C292.297 134.625 294.251 136.564 296.092 138.607C297.969 140.672 299.685 142.877 301.225 145.203C302.819 147.584 304.16 150.125 305.226 152.785L305.614 153.749L305.514 154.558C305.234 156.941 304.599 159.269 303.63 161.464C302.69 163.605 301.463 165.607 299.983 167.417C298.545 169.155 296.929 170.737 295.161 172.139C294.288 172.819 293.382 173.456 292.445 174.046C291.488 174.656 290.488 175.197 289.453 175.664L287.468 172.084C288.122 171.563 288.909 170.909 289.586 170.266C290.262 169.623 290.949 168.924 291.581 168.237C292.838 166.877 293.952 165.391 294.906 163.803C295.835 162.286 296.579 160.664 297.123 158.97C297.65 157.341 297.956 155.648 298.032 153.938L298.309 155.711C296.169 151.446 293.375 147.542 290.029 144.139C288.355 142.365 286.548 140.691 284.697 139.062C283.766 138.253 282.813 137.466 281.86 136.69C280.906 135.914 279.875 135.149 279 134.528L283.677 127.667Z" fill="#FFC3BD"/>
<path d="M290.151 171.629L284.298 172.272L287.114 178.779C287.114 178.779 291.271 177.271 292.346 174.057L290.151 171.629Z" fill="#FFC3BD"/>
<path d="M278.989 173.791L280.773 179.023L287.114 178.723L284.298 172.217L278.989 173.791Z" fill="#FFC3BD"/>
<path d="M282.281 124.197C285.695 124.53 287.513 128.132 287.513 128.132L280.674 141.434C280.674 141.434 275.619 137.787 276.24 133.364C276.894 128.786 278.379 123.809 282.281 124.197Z" fill="#5DB08E"/>
<path d="M340.631 359.982C340.547 359.924 340.472 359.853 340.41 359.771C340.327 359.691 340.268 359.59 340.238 359.479C340.209 359.367 340.211 359.25 340.243 359.14C340.543 358.142 343.347 357.266 343.669 357.167C343.704 357.155 343.741 357.154 343.777 357.164C343.812 357.174 343.844 357.194 343.868 357.222C343.887 357.254 343.896 357.29 343.896 357.327C343.896 357.364 343.887 357.401 343.868 357.433C343.369 358.397 342.383 360.037 341.363 360.182C341.103 360.209 340.841 360.138 340.631 359.982ZM343.325 357.676C342.216 358.064 340.775 358.718 340.62 359.239C340.604 359.288 340.602 359.34 340.616 359.39C340.63 359.439 340.658 359.483 340.698 359.516C340.771 359.615 340.869 359.693 340.982 359.741C341.095 359.79 341.219 359.808 341.341 359.794C341.95 359.716 342.615 358.962 343.325 357.676Z" fill="#EF4E23"/>
<path d="M340.265 357.299C340.202 357.256 340.146 357.204 340.099 357.144C340.003 357.027 339.95 356.88 339.95 356.728C339.95 356.577 340.003 356.43 340.099 356.313C340.182 356.191 340.289 356.087 340.413 356.007C340.536 355.927 340.675 355.873 340.82 355.847C341.995 355.67 343.757 357.133 343.835 357.2C343.861 357.221 343.88 357.248 343.892 357.279C343.904 357.31 343.907 357.344 343.901 357.377C343.893 357.41 343.877 357.441 343.854 357.466C343.83 357.492 343.801 357.51 343.768 357.521C342.612 357.872 341.368 357.793 340.265 357.299ZM343.258 357.233C342.592 356.657 341.763 356.304 340.886 356.224C340.795 356.238 340.707 356.27 340.628 356.32C340.55 356.37 340.483 356.435 340.432 356.512C340.288 356.723 340.343 356.834 340.432 356.9C340.775 357.344 342.372 357.466 343.336 357.266L343.258 357.233Z" fill="#EF4E23"/>
<path d="M274.51 373.605C273.855 373.653 273.201 373.498 272.637 373.161C272.49 373.059 272.366 372.926 272.276 372.771C272.186 372.616 272.131 372.442 272.116 372.264C272.11 372.163 272.129 372.063 272.171 371.972C272.214 371.881 272.279 371.802 272.36 371.743C273.236 371.155 276.495 372.64 277.137 372.94C277.173 372.955 277.203 372.981 277.225 373.013C277.246 373.046 277.257 373.084 277.257 373.123C277.257 373.162 277.246 373.2 277.225 373.232C277.203 373.264 277.173 373.29 277.137 373.306C276.275 373.496 275.394 373.596 274.51 373.605ZM272.981 371.953C272.854 371.944 272.727 371.971 272.615 372.031C272.615 372.031 272.526 372.097 272.537 372.219C272.539 372.343 272.57 372.465 272.628 372.575C272.686 372.685 272.769 372.779 272.87 372.851C273.435 373.272 274.754 373.328 276.472 373.017C275.37 372.485 274.192 372.126 272.981 371.953Z" fill="#EF4E23"/>
<path d="M277.093 373.273H277.016C275.907 372.829 273.757 371.056 273.879 370.18C273.879 369.98 274.045 369.726 274.533 369.67C276.428 369.448 277.249 372.907 277.282 373.051C277.288 373.085 277.285 373.121 277.274 373.154C277.262 373.187 277.242 373.217 277.215 373.239C277.181 373.266 277.137 373.278 277.093 373.273ZM274.71 370.047H274.577C274.378 370.047 274.267 370.136 274.256 370.224C274.189 370.756 275.697 372.131 276.794 372.741C276.55 371.898 275.852 370.047 274.71 370.047Z" fill="#EF4E23"/>
<path d="M256.952 102.283L255.522 101.54C255.522 101.54 256.043 102.903 256.952 102.283Z" fill="#263238"/>
<path d="M168.252 373.461L159.982 373.827L159.849 354.384L168.119 354.018L168.252 373.461Z" fill="#FCCEA8"/>
<path d="M159.849 372.153L169.216 372.275C169.373 372.272 169.525 372.331 169.639 372.439C169.753 372.547 169.82 372.695 169.826 372.852L170.18 380.256C170.18 380.449 170.142 380.641 170.068 380.819C169.994 380.997 169.885 381.159 169.748 381.295C169.611 381.431 169.448 381.538 169.269 381.611C169.091 381.684 168.899 381.721 168.706 381.72C165.447 381.62 163.895 381.409 159.783 381.365C157.244 381.365 151.159 381.365 147.667 381.365C144.175 381.365 144.342 377.862 145.794 377.574C152.445 376.255 156.036 374.503 158.408 372.685C158.816 372.352 159.323 372.165 159.849 372.153Z" fill="#263238"/>
<path opacity="0.2" d="M168.119 354.03L159.849 354.384L159.927 364.405L168.196 364.527L168.119 354.03Z" fill="black"/>
<path d="M152.256 178.723C152.256 178.723 148.377 230.888 147.822 254.776C147.235 280.936 156.868 359.605 156.868 359.605L171.278 360.425C171.278 360.425 169.183 284.783 172.131 259.077C175.335 231.166 181.842 176.063 181.842 176.063L152.256 178.723Z" fill="#BBB1A2"/>
<path opacity="0.3" d="M171.976 197.291C169.127 208.653 171.61 226.355 174.581 238.471C176.476 222.22 178.638 203.942 180.123 191.394C176.92 190.795 173.284 192.048 171.976 197.291Z" fill="black"/>
<path d="M172.419 362.077L156.08 362.288L154.595 356.047L174.005 355.659L172.419 362.077Z" fill="#7A746B"/>
<path d="M156.834 373.561C157.581 373.553 158.324 373.464 159.051 373.295C159.089 373.288 159.123 373.269 159.149 373.241C159.175 373.213 159.191 373.178 159.195 373.14C159.205 373.104 159.203 373.066 159.189 373.032C159.175 372.998 159.15 372.97 159.118 372.951C158.863 372.763 156.524 371.122 155.493 371.499C155.377 371.547 155.275 371.622 155.196 371.719C155.116 371.816 155.062 371.931 155.038 372.053C154.984 372.234 154.977 372.426 155.018 372.61C155.059 372.794 155.146 372.965 155.271 373.106C155.716 373.451 156.274 373.613 156.834 373.561ZM158.53 373.007C157.034 373.284 155.936 373.228 155.559 372.829C155.477 372.738 155.42 372.625 155.397 372.504C155.374 372.383 155.384 372.258 155.426 372.142C155.435 372.08 155.46 372.022 155.499 371.973C155.538 371.924 155.589 371.887 155.648 371.865C156.236 371.665 157.621 372.375 158.574 373.007H158.53Z" fill="#EF4E23"/>
<path d="M159.051 373.295H159.14C159.168 373.278 159.193 373.256 159.212 373.229C159.231 373.202 159.244 373.172 159.251 373.14C159.251 373.029 159.472 370.646 158.641 369.814C158.534 369.709 158.405 369.63 158.263 369.582C158.12 369.534 157.97 369.519 157.821 369.537C157.656 369.542 157.497 369.601 157.369 369.705C157.241 369.81 157.15 369.953 157.111 370.113C156.912 371.022 158.131 372.774 158.951 373.284C158.983 373.298 159.018 373.301 159.051 373.295ZM157.943 369.914C158.099 369.912 158.251 369.972 158.364 370.08C158.807 370.892 158.986 371.822 158.874 372.741C158.153 372.12 157.344 370.79 157.477 370.191C157.477 370.08 157.566 369.947 157.854 369.914H157.943Z" fill="#EF4E23"/>
<path d="M161.268 114.576C160.536 116.549 159.838 118.267 159.051 120.063C158.264 121.858 157.477 123.588 156.646 125.339C154.961 128.82 153.154 132.256 151.103 135.615C149.082 139.056 146.834 142.359 144.375 145.502C141.809 148.9 138.831 151.965 135.507 154.625L135.152 154.902C134.783 155.189 134.372 155.417 133.933 155.578C132.367 156.168 130.738 156.57 129.078 156.776C127.471 156.942 125.851 156.942 124.245 156.776C121.31 156.414 118.46 155.548 115.82 154.215C113.438 153.001 111.206 151.513 109.169 149.781C108.183 148.939 107.252 148.052 106.354 147.132C105.439 146.185 104.58 145.186 103.782 144.139C103.265 143.471 102.996 142.644 103.021 141.8C103.047 140.956 103.366 140.147 103.923 139.512C104.481 138.877 105.242 138.456 106.076 138.322C106.91 138.187 107.764 138.347 108.493 138.774L108.892 139.007C109.657 139.461 110.655 140.06 111.553 140.547C112.451 141.035 113.415 141.523 114.346 141.966C116.125 142.819 117.981 143.502 119.888 144.006C121.519 144.453 123.21 144.64 124.899 144.56C126.25 144.477 127.567 144.099 128.756 143.452L127.182 144.416C129.464 142.232 131.504 139.809 133.268 137.189C134.221 135.814 135.141 134.388 136.028 132.91C136.926 131.447 137.801 129.95 138.633 128.41C140.307 125.35 141.892 122.191 143.41 118.987C144.175 117.391 144.918 115.773 145.627 114.154C146.337 112.536 147.068 110.829 147.678 109.366L147.733 109.244C148.555 107.62 149.953 106.36 151.654 105.713C153.355 105.065 155.236 105.076 156.93 105.743C158.623 106.41 160.007 107.686 160.809 109.319C161.612 110.953 161.775 112.828 161.268 114.576Z" fill="#EF4E23"/>
<path opacity="0.3" d="M143.411 136.491C143.087 139.89 143.087 143.312 143.411 146.711L144.364 145.502C146.825 142.363 149.069 139.059 151.081 135.615C151.924 134.218 152.733 132.799 153.498 131.38C153.897 129.884 154.252 128.399 154.606 126.891L154.906 125.417C151.015 124.042 144.563 126.559 143.411 136.491Z" fill="black"/>
<path d="M105.179 137.643L98.6056 135.05L97.6301 144.571C99.9529 145.172 102.329 145.543 104.724 145.68C105.286 145.719 105.849 145.623 106.367 145.402C106.885 145.181 107.343 144.84 107.704 144.407C108.064 143.974 108.316 143.462 108.44 142.912C108.564 142.363 108.556 141.792 108.416 141.246C108.201 140.431 107.796 139.68 107.233 139.053C106.67 138.427 105.966 137.943 105.179 137.643Z" fill="#FCCEA8"/>
<path d="M92.0769 136.878L94.0057 144.693L97.6304 144.56L98.6058 135.038L92.0769 136.878Z" fill="#FCCEA8"/>
<path d="M225.449 364.815L217.313 366.6L212.103 347.988L220.239 346.204L225.449 364.815Z" fill="#FCCEA8"/>
<path d="M216.692 364.727L225.46 361.468C225.532 361.437 225.609 361.421 225.688 361.42C225.766 361.42 225.843 361.435 225.916 361.465C225.988 361.495 226.053 361.539 226.108 361.595C226.163 361.65 226.207 361.716 226.236 361.789L229.251 368.573C229.388 368.938 229.375 369.342 229.215 369.697C229.055 370.052 228.761 370.329 228.397 370.468C225.327 371.577 223.797 371.909 219.94 373.351C217.568 374.226 211.072 376.909 207.835 378.128C204.598 379.347 203.401 376.066 204.731 375.257C210.473 371.621 213.965 368.263 215.528 365.713C215.795 365.263 216.205 364.916 216.692 364.727Z" fill="#263238"/>
<path opacity="0.2" d="M220.25 346.204L212.103 347.999L214.797 357.588L222.933 355.792L220.25 346.204Z" fill="black"/>
<path d="M168.462 177.271C168.462 177.271 176.964 232.108 181.11 255.63C185.655 281.402 210.784 356.014 210.784 356.014L225.693 352.688C225.693 352.688 207.958 280.837 205.829 255.042C203.524 227.053 196.64 174.7 196.64 174.7L168.462 177.271Z" fill="#BBB1A2"/>
<path d="M227.167 352.367L208.999 356.369L206.86 350.915L226.89 347.423L227.167 352.367Z" fill="#7A746B"/>
<path d="M214.475 367.121C215.17 366.845 215.832 366.492 216.448 366.068C216.479 366.047 216.503 366.017 216.518 365.983C216.532 365.948 216.537 365.91 216.531 365.873C216.526 365.836 216.51 365.802 216.485 365.773C216.46 365.745 216.428 365.724 216.393 365.713C216.082 365.636 213.3 364.948 212.491 365.713C212.399 365.796 212.33 365.9 212.289 366.016C212.248 366.132 212.238 366.257 212.258 366.378C212.271 366.569 212.333 366.752 212.438 366.911C212.543 367.071 212.687 367.2 212.857 367.287C213.398 367.433 213.974 367.373 214.475 367.121ZM215.849 366.013C214.553 366.811 213.511 367.121 213.012 366.922C212.903 366.863 212.812 366.777 212.748 366.672C212.684 366.566 212.649 366.446 212.646 366.323C212.632 366.264 212.633 366.202 212.651 366.143C212.668 366.085 212.701 366.032 212.746 365.99C213.145 365.614 214.686 365.747 215.805 365.99L215.849 366.013Z" fill="#EF4E23"/>
<path d="M216.371 366.09C216.397 366.077 216.42 366.058 216.437 366.034C216.453 366.007 216.461 365.977 216.461 365.945C216.461 365.914 216.453 365.884 216.437 365.857C216.437 365.757 215.75 363.44 214.686 362.975C214.551 362.909 214.403 362.875 214.253 362.875C214.104 362.875 213.956 362.909 213.821 362.975C213.667 363.038 213.538 363.15 213.456 363.295C213.373 363.44 213.342 363.608 213.367 363.773C213.5 364.693 215.273 365.89 216.215 366.067L216.371 366.09ZM214.154 363.318C214.226 363.288 214.303 363.273 214.381 363.273C214.459 363.273 214.536 363.288 214.608 363.318C215.24 363.596 215.783 364.859 216.038 365.613C215.151 365.291 213.91 364.338 213.821 363.74C213.821 363.618 213.821 363.474 214.076 363.341L214.154 363.318Z" fill="#EF4E23"/>
<path d="M149.695 110.995C149.998 109.566 150.681 108.246 151.673 107.173C152.664 106.1 153.926 105.314 155.327 104.899C157.327 104.22 159.371 103.679 161.445 103.28C167.689 102.353 173.981 101.786 180.29 101.584C183.615 101.44 186.94 101.584 189.701 101.695H189.8C190.509 101.734 191.203 101.915 191.84 102.228C192.478 102.541 193.045 102.979 193.51 103.515C193.974 104.052 194.326 104.677 194.544 105.353C194.761 106.029 194.841 106.741 194.777 107.448C193.673 118.745 193.302 130.101 193.669 141.445C194.489 157.929 196.529 170.743 196.573 174.7L152.234 178.679C145.96 138.896 147.811 120.362 149.695 110.995Z" fill="white"/>
<path d="M147.434 111.395C147.775 109.804 148.522 108.329 149.602 107.114C150.682 105.898 152.059 104.982 153.597 104.455C156.52 103.722 159.48 103.148 162.465 102.737C160.071 115.108 156.557 152.02 160.747 179.666C160.78 179.876 160.769 180.09 160.716 180.296C160.662 180.501 160.567 180.694 160.436 180.861C160.305 181.028 160.141 181.167 159.954 181.268C159.768 181.37 159.562 181.432 159.35 181.45L151.192 182.182C150.644 182.233 150.096 182.072 149.663 181.732C149.23 181.392 148.944 180.898 148.864 180.353C142.668 139.927 145.517 119.198 147.434 111.395Z" fill="#EF4E23"/>
<path d="M162.377 103.125C167.742 101.34 168.396 97.8598 167.697 94.1686C167.53 93.2416 167.3 92.3269 167.01 91.4306L173.373 85.1012L178.04 80.4678C177.186 86.6642 176.61 97.882 181.077 101.529C177.693 105.533 173.327 108.589 168.407 110.397C161.268 106.761 162.377 103.125 162.377 103.125Z" fill="#FCCEA8"/>
<path opacity="0.2" d="M166.966 91.4307C167.256 92.327 167.485 93.2417 167.653 94.1687C170.169 93.4149 173.351 90.3777 173.473 87.7284C173.517 86.8501 173.469 85.9695 173.328 85.1013L166.966 91.4307Z" fill="black"/>
<path d="M165.879 69.7048C165.879 73.6288 164.128 76.8212 161.922 76.8212C159.716 76.8212 157.932 73.6621 157.92 69.738C157.909 65.814 159.672 62.6327 161.878 62.6216C164.084 62.6105 165.868 65.7808 165.879 69.7048Z" fill="#263238"/>
<path d="M182.063 72.4091C180.511 80.5564 180.024 85.3894 175.335 89.2137C173.825 90.4696 172 91.2894 170.058 91.5844C168.117 91.8795 166.131 91.6388 164.316 90.8881C162.501 90.1375 160.925 88.9054 159.759 87.3249C158.593 85.7445 157.881 83.8756 157.699 81.9199C156.878 74.3933 159.539 62.333 168.008 59.8168C169.825 59.2252 171.766 59.1214 173.636 59.5159C175.506 59.9104 177.239 60.7892 178.662 62.0645C180.086 63.3397 181.149 64.9665 181.746 66.7821C182.343 68.5976 182.452 70.538 182.063 72.4091Z" fill="#FCCEA8"/>
<path d="M165.114 64.8716C168.019 66.9888 175.534 67.7647 178.826 66.889C177.718 67.6428 177.585 69.9595 178.56 73.4068C177.439 74.9153 176.57 76.5963 175.989 78.3839L182.274 77.2754C182.274 77.2754 198.579 66.4013 186.564 61.7567C187.417 52.6118 168.662 51.991 161.9 57.9214C155.726 63.2753 160.038 66.5897 165.114 64.8716Z" fill="#263238"/>
<path d="M185.954 62.6216C185.954 62.6216 188.005 60.2494 187.063 55.9707C189.557 58.886 188.88 61.2914 185.954 62.6216Z" fill="#263238"/>
<path d="M183.438 78.9159C182.52 80.4635 181.088 81.6402 179.392 82.2414C177.241 82.9508 176.443 80.9777 177.264 78.8383C178.006 76.9096 180.024 74.216 182.074 74.4044C184.125 74.5928 184.657 76.9872 183.438 78.9159Z" fill="#FCCEA8"/>
<path d="M169.105 73.6841C169.027 74.3492 168.606 74.8591 168.163 74.7926C167.719 74.7261 167.442 74.183 167.531 73.5179C167.62 72.8528 168.03 72.3429 168.473 72.4094C168.917 72.4759 169.194 72.9747 169.105 73.6841Z" fill="#263238"/>
<path d="M161.545 72.9745C161.457 73.6396 161.035 74.1495 160.603 74.083C160.171 74.0165 159.883 73.4623 159.96 72.7972C160.038 72.1321 160.47 71.6222 160.914 71.6887C161.357 71.7552 161.634 72.3205 161.545 72.9745Z" fill="#263238"/>
<path d="M164.106 73.407C163.044 75.3764 161.724 77.1956 160.182 78.8164C160.606 79.1853 161.105 79.4568 161.645 79.6119C162.185 79.7671 162.753 79.802 163.308 79.7142L164.106 73.407Z" fill="#DCA386"/>
<path d="M165.802 81.7648C166.582 81.7509 167.352 81.5809 168.066 81.2649C168.78 80.9489 169.423 80.4932 169.958 79.9248C169.994 79.8876 170.014 79.8379 170.014 79.7862C170.014 79.7345 169.994 79.6848 169.958 79.6477C169.941 79.6285 169.919 79.6132 169.896 79.6028C169.872 79.5923 169.846 79.5869 169.82 79.5869C169.794 79.5869 169.768 79.5923 169.744 79.6028C169.72 79.6132 169.699 79.6285 169.681 79.6477C169.095 80.2587 168.377 80.7272 167.581 81.0174C166.786 81.3075 165.934 81.4116 165.092 81.3215C165.049 81.3319 165.01 81.3568 164.982 81.392C164.955 81.4272 164.939 81.4706 164.939 81.5154C164.939 81.5602 164.955 81.6037 164.982 81.6389C165.01 81.6741 165.049 81.6989 165.092 81.7094L165.802 81.7648Z" fill="#263238"/>
<path d="M172.896 71.3119C172.962 71.3074 173.026 71.2885 173.084 71.2565C173.173 71.2014 173.237 71.1137 173.262 71.0121C173.287 70.9105 173.271 70.8032 173.217 70.7133C172.914 70.1707 172.481 69.7116 171.956 69.377C171.432 69.0424 170.834 68.8427 170.214 68.7957C170.12 68.8113 170.036 68.8595 169.975 68.9315C169.914 69.0035 169.881 69.0948 169.881 69.1892C169.881 69.2835 169.914 69.3748 169.975 69.4468C170.036 69.5189 170.12 69.567 170.214 69.5827C170.698 69.6309 171.163 69.7951 171.57 70.0614C171.977 70.3277 172.314 70.6882 172.552 71.1124C172.587 71.1728 172.637 71.2229 172.698 71.258C172.758 71.293 172.826 71.3116 172.896 71.3119Z" fill="#263238"/>
<path d="M158.586 70.1921C158.65 70.1883 158.713 70.1692 158.769 70.1365C158.825 70.1037 158.872 70.0582 158.907 70.0036C159.169 69.5726 159.526 69.2069 159.95 68.9342C160.375 68.6615 160.856 68.489 161.357 68.4296C161.408 68.4297 161.459 68.4193 161.506 68.3989C161.554 68.3786 161.596 68.3489 161.631 68.3115C161.667 68.2741 161.694 68.2299 161.712 68.1816C161.729 68.1333 161.737 68.0819 161.734 68.0305C161.731 67.9266 161.687 67.828 161.613 67.7555C161.538 67.6831 161.439 67.6425 161.335 67.6426C160.704 67.7035 160.096 67.9105 159.559 68.2472C159.022 68.5839 158.571 69.0411 158.242 69.5824C158.186 69.6697 158.167 69.7751 158.188 69.8764C158.208 69.9777 158.268 70.067 158.353 70.1256C158.423 70.1679 158.503 70.1908 158.586 70.1921Z" fill="#263238"/>
<path d="M195.01 142.875C194.61 130.911 194.98 118.933 196.119 107.016C196.182 106.269 196.095 105.517 195.863 104.805C195.631 104.092 195.259 103.433 194.768 102.867C194.277 102.301 193.678 101.839 193.006 101.508C192.333 101.177 191.601 100.985 190.853 100.941H190.754C187.894 100.786 184.324 100.675 180.777 100.819C176.443 121.803 176.942 148.872 179.126 178.069C179.141 178.277 179.197 178.48 179.292 178.666C179.386 178.852 179.517 179.017 179.675 179.152C179.834 179.287 180.018 179.39 180.217 179.453C180.416 179.516 180.625 179.54 180.833 179.521L195.93 178.158C196.497 178.11 197.022 177.839 197.39 177.405C197.758 176.971 197.938 176.408 197.892 175.841C197.504 170.144 195.775 157.973 195.01 142.875Z" fill="#EF4E23"/>
<path opacity="0.3" d="M191.375 106.761C188.914 108.124 186.797 113.412 189.867 120.14C191.131 122.972 192.829 125.59 194.899 127.899C194.977 124.851 195.11 121.88 195.276 119.098C193.702 114.409 192.394 110.142 191.375 106.761Z" fill="black"/>
<path d="M195.243 102.97L196.352 103.824L197.36 104.611C198.014 105.143 198.646 105.719 199.278 106.251C200.527 107.345 201.75 108.479 202.947 109.654C205.355 112.007 207.599 114.522 209.664 117.181C211.816 119.906 213.719 122.818 215.351 125.882C217.117 129.11 218.433 132.563 219.264 136.147C219.502 137.158 219.676 138.184 219.785 139.217L219.896 140.802V142.332C219.813 144.258 219.557 146.172 219.131 148.052C218.325 151.467 217.127 154.777 215.562 157.917C214.086 160.881 212.396 163.734 210.507 166.453C208.66 169.155 206.619 171.718 204.399 174.123C203.799 174.754 202.993 175.148 202.127 175.236C201.261 175.324 200.392 175.1 199.678 174.603C198.963 174.107 198.449 173.371 198.23 172.528C198.01 171.686 198.099 170.793 198.48 170.011L198.557 169.845C201.239 164.679 203.497 159.303 205.308 153.772C206.982 148.44 207.78 143.008 206.417 139.528C206.039 138.386 205.575 137.274 205.031 136.202C204.477 135.06 203.859 133.949 203.18 132.877C201.738 130.599 200.134 128.429 198.38 126.381C196.595 124.275 194.656 122.235 192.627 120.262C191.618 119.276 190.588 118.311 189.523 117.38L187.938 115.995L187.151 115.33L186.453 114.753L186.154 114.509C184.718 113.282 183.814 111.546 183.631 109.666C183.448 107.786 184 105.908 185.172 104.426C186.343 102.944 188.044 101.974 189.915 101.719C191.787 101.465 193.685 101.945 195.21 103.059L195.243 102.97Z" fill="#EF4E23"/>
<path d="M196.241 170.443L191.74 171.552L199.5 178.613C199.5 178.613 206.406 175.509 204.51 172.084L203.202 171.352C201.079 170.182 198.593 169.858 196.241 170.443Z" fill="#FCCEA8"/>
<path d="M188.071 176.041L193.436 179.865L199.511 178.624L191.74 171.563L188.071 176.041Z" fill="#FCCEA8"/>
<path d="M124.279 58.0376L124.646 56.9727C127.039 57.7975 129.563 58.1798 132.092 58.1011L132.13 59.2145C129.463 59.3044 126.803 58.9056 124.279 58.0376Z" fill="#52525B"/>
<path d="M115.09 11.7529L114.71 12.8129C112.328 11.9566 109.81 11.541 107.279 11.5863L107.256 10.4725C109.924 10.4178 112.579 10.8517 115.09 11.7529Z" fill="#52525B"/>
<path d="M82.8464 12.4432C86.1654 12.9806 89.2091 14.365 92.4759 15.2992C96.0719 16.3294 98.992 15.8217 102.211 15.2425C105.237 14.6989 107.929 14.6505 111.243 15.6534C114.22 16.553 117.149 18.0079 120.189 18.3C122.778 18.5508 125.07 17.9012 127.438 17.5257C130.472 17.0437 133.143 17.1155 136.426 18.1939C139.746 19.284 143.007 20.7885 146.371 20.7332C150.036 20.6733 153.181 19.4764 156.918 19.5864C158.514 31.5725 160.107 43.5591 161.701 55.5412C157.963 55.4272 154.815 56.6287 151.155 56.688C147.79 56.7432 144.529 55.2388 141.21 54.1487C137.931 53.0697 135.256 52.9985 132.221 53.4805C129.853 53.856 127.561 54.5055 124.972 54.2547C121.933 53.9627 119.004 52.5077 116.026 51.6081C112.712 50.6052 110.025 50.6531 106.994 51.1973C103.775 51.7764 100.86 52.2836 97.2595 51.254C93.9926 50.3198 90.949 48.9354 87.63 48.398C86.0352 36.4159 84.4387 24.4299 82.8464 12.4432Z" fill="white"/>
<path d="M86.6008 40.6955C89.9199 41.2329 92.9635 42.6173 96.2304 43.5514C99.8264 44.5816 102.746 44.0739 105.965 43.4948C108.991 42.9511 111.683 42.9027 114.997 43.9056C117.974 44.8052 120.904 46.2601 123.943 46.5522C126.536 46.8024 128.824 46.1534 131.192 45.7779C134.227 45.2959 136.897 45.3677 140.18 46.4462C143.5 47.5363 146.761 49.0407 150.126 48.9854C153.786 48.9262 156.936 47.7287 160.672 47.8387C160.533 46.8114 160.468 46.2972 160.329 45.2699C156.59 45.1559 153.443 46.3574 149.782 46.4166C146.418 46.4719 143.156 44.9674 139.837 43.8774C136.554 42.7989 133.883 42.7271 130.848 43.2091C128.481 43.5846 126.193 44.2336 123.599 43.9834C120.565 43.6907 117.631 42.2364 114.654 41.3368C111.339 40.3339 108.652 40.3817 105.621 40.926C102.407 41.5045 99.487 42.0122 95.8868 40.9826C92.62 40.0484 89.5763 38.664 86.2615 38.1261C86.3964 39.1539 86.466 39.6676 86.6051 40.6949L86.6008 40.6955Z" fill="#CD0000"/>
<path d="M85.9181 35.5573C89.2371 36.0947 92.2807 37.4791 95.5433 38.4139C99.1393 39.4441 102.059 38.9364 105.278 38.3573C108.304 37.8136 110.998 37.7691 114.31 38.7681C117.287 39.6677 120.217 41.1226 123.256 41.4147C125.849 41.6649 128.137 41.0159 130.505 40.6404C133.54 40.1584 136.21 40.2302 139.493 41.3086C142.813 42.3987 146.074 43.9032 149.439 43.8479C153.102 43.7841 156.247 42.5872 159.985 42.7012C159.846 41.6739 159.777 41.1602 159.642 40.1323C155.905 40.0223 152.756 41.2198 149.095 41.2791C145.731 41.3344 142.469 39.8299 139.15 38.7398C135.871 37.6608 133.2 37.589 130.166 38.071C127.798 38.4465 125.506 39.096 122.917 38.8452C119.878 38.5532 116.948 37.0983 113.969 36.1947C110.655 35.1918 107.968 35.2396 104.937 35.7839C101.718 36.363 98.8026 36.8701 95.2024 35.8405C91.9355 34.9063 88.8919 33.522 85.5728 32.9846C85.7077 34.0125 85.7773 34.5261 85.9164 35.5534L85.9181 35.5573Z" fill="#CD0000"/>
<path d="M97.2551 51.2546C100.851 52.2848 103.771 51.7771 106.99 51.198C110.016 50.6543 112.708 50.6059 116.022 51.6088C118.999 52.5084 121.929 53.9633 124.968 54.2554C127.561 54.5056 129.851 53.8606 132.217 53.4811C135.251 52.9991 137.922 53.0709 141.205 54.1494C144.525 55.2395 147.786 56.7439 151.151 56.6886C154.809 56.6254 157.959 55.4279 161.697 55.5419C157.959 55.4279 154.811 56.6294 151.151 56.6886C147.786 56.7439 144.525 55.2395 141.205 54.1494C137.926 53.0703 135.25 52.9952 132.217 53.4811C129.849 53.8566 127.557 54.5062 124.968 54.2554C121.933 53.9627 118.999 52.5084 116.022 51.6088C112.708 50.6059 110.02 50.6537 106.99 51.198C103.771 51.7771 100.855 52.2842 97.2551 51.2546Z" fill="#CD0000"/>
<path d="M87.2837 45.8337C90.6027 46.3711 93.6464 47.7554 96.9132 48.6896C100.509 49.7198 103.429 49.2121 106.648 48.633C109.674 48.0893 112.366 48.0409 115.68 49.0438C118.657 49.9434 121.591 51.3977 124.626 51.6904C127.215 51.9412 129.507 51.2916 131.875 50.9161C134.909 50.4341 137.58 50.5059 140.863 51.5844C144.183 52.6744 147.444 54.1789 150.809 54.1236C154.469 54.0644 157.619 52.8668 161.355 52.9769C161.22 51.949 161.151 51.4353 161.016 50.4075C157.278 50.2935 154.13 51.4949 150.465 51.5548C147.101 51.6101 143.839 50.1056 140.52 49.0155C137.237 47.9371 134.566 47.8653 131.531 48.3473C129.163 48.7228 126.876 49.3718 124.282 49.1216C121.243 48.8295 118.314 47.3746 115.336 46.475C112.022 45.4721 109.335 45.5199 106.304 46.0641C103.086 46.6433 100.17 47.1504 96.5697 46.1208C93.3028 45.1866 90.2592 43.8022 86.9401 43.2648C87.075 44.2927 87.1446 44.8064 87.2837 45.8337Z" fill="#CD0000"/>
<path d="M156.915 19.5912C153.179 19.4811 150.029 20.6786 146.369 20.7379C143.004 20.7932 139.743 19.2887 136.423 18.1986C133.144 17.1196 130.47 17.0484 127.435 17.5304C125.067 17.9059 122.775 18.5555 120.186 18.3047C117.147 18.0126 114.217 16.5577 111.24 15.6581C107.926 14.6552 105.238 14.703 102.208 15.2473C98.9892 15.8264 96.0735 16.3335 92.4732 15.3039C89.2064 14.3697 86.1627 12.9853 82.8437 12.4479C82.9828 13.4752 83.0481 13.9895 83.1873 15.0168C86.5063 15.5542 89.5499 16.9385 92.8168 17.8727C96.4128 18.9029 99.3328 18.3952 102.551 17.8161C105.578 17.2724 108.269 17.224 111.584 18.2269C114.561 19.1265 117.49 20.5814 120.529 20.8735C123.118 21.1243 125.411 20.4747 127.778 20.0992C130.813 19.6172 133.485 19.693 136.767 20.7675C140.086 21.8576 143.348 23.362 146.712 23.3067C150.377 23.2469 153.52 22.046 157.259 22.16C157.124 21.1321 157.054 20.6185 156.915 19.5912Z" fill="#CD0000"/>
<path d="M83.8668 20.1469C87.1858 20.6843 90.2295 22.0687 93.4921 23.0035C97.0923 24.0331 100.008 23.526 103.227 22.9469C106.253 22.4032 108.945 22.3548 112.259 23.3577C115.236 24.2573 118.166 25.7122 121.205 26.0043C123.794 26.2551 126.086 25.6055 128.454 25.23C131.488 24.748 134.161 24.8237 137.442 25.8982C140.762 26.9883 144.023 28.4928 147.388 28.4375C151.046 28.3743 154.197 27.1807 157.938 27.2902C157.803 26.2623 157.734 25.7486 157.595 24.7213C153.858 24.6113 150.709 25.8088 147.048 25.8681C143.684 25.9234 140.422 24.4189 137.103 23.3288C133.824 22.2498 131.149 22.1786 128.114 22.6606C125.746 23.0361 123.459 23.685 120.865 23.4348C117.826 23.1428 114.897 21.6879 111.918 20.7843C108.604 19.7814 105.916 19.8292 102.886 20.3735C99.6671 20.9526 96.7513 21.4597 93.1511 20.4301C89.8842 19.4959 86.8406 18.1115 83.5216 17.5742C83.6564 18.6021 83.726 19.1157 83.8651 20.143L83.8668 20.1469Z" fill="#CD0000"/>
<path d="M85.2369 30.423C88.5559 30.9604 91.5995 32.3448 94.8664 33.2789C98.4624 34.3091 101.382 33.8014 104.601 33.2223C107.627 32.6786 110.319 32.6302 113.633 33.6331C116.61 34.5327 119.54 35.9876 122.581 36.2837C125.174 36.5339 127.462 35.8849 129.83 35.5094C132.864 35.0274 135.535 35.0992 138.818 36.1776C142.138 37.2677 145.399 38.7722 148.764 38.7169C152.428 38.657 155.573 37.4601 159.31 37.5701C159.175 36.5423 159.106 36.0286 158.971 35.0007C155.228 34.8873 152.083 36.0842 148.42 36.1481C145.057 36.2073 141.794 34.6989 138.475 33.6088C135.191 32.5303 132.521 32.4586 129.486 32.9405C127.118 33.3161 124.826 33.9656 122.237 33.7148C119.202 33.4222 116.269 31.9678 113.291 31.0682C109.977 30.0653 107.29 30.1132 104.259 30.6574C101.041 31.2365 98.1247 31.7436 94.5245 30.7141C91.2576 29.7799 88.214 28.3955 84.895 27.8581C85.0299 28.886 85.0994 29.3996 85.2385 30.4269L85.2369 30.423Z" fill="#CD0000"/>
<path d="M84.5538 25.2846C87.8728 25.822 90.9165 27.2064 94.1833 28.1406C97.7793 29.1708 100.699 28.6631 103.918 28.084C106.944 27.5403 109.636 27.4919 112.95 28.4948C115.927 29.3944 118.861 30.8487 121.896 31.1414C124.485 31.3922 126.777 30.7426 129.145 30.3671C132.18 29.8851 134.85 29.9569 138.133 31.0353C141.453 32.1254 144.714 33.6299 148.079 33.5746C151.739 33.5153 154.889 32.3178 158.625 32.4279C158.49 31.4 158.421 30.8863 158.286 29.8584C154.549 29.7484 151.4 30.9459 147.735 31.0058C144.371 31.0611 141.109 29.5566 137.79 28.4665C134.511 27.3875 131.836 27.3163 128.801 27.7983C126.433 28.1738 124.141 28.8233 121.552 28.5725C118.513 28.2805 115.584 26.8256 112.605 25.922C109.291 24.9191 106.603 24.9669 103.573 25.5112C100.354 26.0903 97.4383 26.5974 93.8381 25.5678C90.5712 24.6336 87.5276 23.2492 84.2086 22.7119C84.3435 23.7397 84.413 24.2534 84.5521 25.2807L84.5538 25.2846Z" fill="#CD0000"/>
<path d="M82.8462 12.4434C86.3639 13.0031 89.6037 14.5734 93.0738 15.4664C96.1647 16.262 98.7409 15.8572 101.514 15.3744C104.287 14.8915 106.867 14.4861 109.958 15.2818C113.428 16.1747 116.668 17.7451 120.186 18.3047C121.151 25.5808 122.122 32.8602 123.086 40.1362C119.573 39.576 116.329 38.0063 112.859 37.1133C109.768 36.3176 107.193 36.7264 104.415 37.2059C101.642 37.6887 99.0611 38.0942 95.9703 37.2985C92.5002 36.4055 89.2604 34.8352 85.7427 34.2756C84.782 26.9989 83.8111 19.7195 82.8462 12.4434Z" fill="#000066"/>
<path d="M106.518 18.6265C106.888 19.9312 107.253 21.2365 107.618 22.5418C108.198 21.5095 108.811 20.5019 109.469 19.5172C109.218 20.7083 108.975 21.9067 108.74 23.1039C109.823 22.629 110.884 22.2534 112.06 21.9244C111.205 22.6269 110.392 23.3444 109.595 24.0974C111.007 24.2921 112.315 24.5726 113.724 24.9395C112.438 24.9782 111.243 25.0712 110.011 25.2574C111.429 26.0166 112.779 26.8942 114.1 27.7969C112.723 27.2078 111.316 26.6732 109.887 26.3218C111.005 27.5001 112.076 28.706 113.118 29.9285C111.893 28.9328 110.618 27.9691 109.269 27.1165C109.853 28.4371 110.43 29.7629 111.005 31.0847C110.129 29.8931 109.225 28.7098 108.282 27.5488C108.26 28.8542 108.239 30.1636 108.221 31.4685C107.855 30.1717 107.489 28.8749 107.123 27.5781C106.507 28.7493 105.922 29.9374 105.341 31.1248C105.565 29.8076 105.793 28.4898 106.024 27.176C104.946 28.0019 103.921 28.8751 102.889 29.7449C103.65 28.6201 104.416 27.4947 105.194 26.3799C103.884 26.6901 102.616 27.0657 101.313 27.3917C102.482 26.7077 103.617 25.9866 104.788 25.3065C103.505 25.0435 102.218 24.7934 100.932 24.5349C102.257 24.4194 103.565 24.2519 104.898 24.1562C103.885 23.34 102.857 22.5427 101.824 21.7459C103.052 22.1969 104.279 22.6563 105.488 23.1686C104.927 21.9661 104.367 20.7637 103.802 19.5619C104.7 20.5618 105.581 21.5642 106.457 22.5756C106.476 21.2622 106.493 19.945 106.516 18.631L106.518 18.6265ZM103.322 19.1522C99.6539 18.2494 95.6582 20.4246 94.658 23.1073C93.6069 25.9355 95.4821 31.0063 99.4487 32.4951C101.63 33.3142 103.431 32.537 104.986 31.6689C101.882 34.7863 97.0861 34.4528 93.8152 29.8718C91.2534 26.3132 90.4593 21.4963 94.2503 19.6347C96.5992 18.5039 100.275 17.6636 103.32 19.1482L103.322 19.1522Z" fill="#FFCC00"/>
<g style="mix-blend-mode:multiply">
<path d="M129.615 47.2312C122.272 50.414 119.254 47.1709 112.305 43.1165C108.502 40.897 101.868 42.2294 98.9488 40.1198C92.8826 35.7359 89.5041 30.0854 84.9438 28.2489C85.8394 34.9694 86.7333 41.686 87.6255 48.3986C90.9446 48.936 93.9882 50.3204 97.2551 51.2545C100.851 52.2847 103.771 51.777 106.99 51.1979C110.016 50.6542 112.708 50.6058 116.022 51.6087C118.999 52.5083 121.929 53.9632 124.968 54.2553C127.561 54.5055 129.85 53.8605 132.217 53.481C135.251 52.999 137.922 53.0708 141.205 54.1493C144.525 55.2394 147.786 56.7438 151.151 56.6885C154.809 56.6253 157.959 55.4278 161.697 55.5418C161.689 55.4801 161.682 55.4224 161.674 55.3608C155.667 51.2533 152.696 53.4766 149.99 52.7063C143.744 50.9314 136.961 44.0438 129.618 47.2266L129.615 47.2312Z" fill="#DBDBDB"/>
</g>
<path d="M120.787 324.333C120.26 324.387 119.734 324.232 119.32 323.903C118.905 323.574 118.636 323.096 118.57 322.571L79.795 12.385C79.7445 11.8592 79.9 11.3342 80.2287 10.9207C80.5574 10.5072 81.0338 10.2374 81.5575 10.168C82.0839 10.1234 82.6073 10.2824 83.0199 10.6125C83.4324 10.9425 83.7025 11.4182 83.7744 11.9416L122.505 322.116C122.553 322.635 122.403 323.153 122.084 323.564C121.765 323.976 121.301 324.251 120.787 324.333Z" fill="#263238"/>
</svg>
