<svg width="519" height="400" viewBox="0 0 519 400" fill="none" xmlns="http://www.w3.org/2000/svg">
<path d="M143.995 126.413H136.207V339.098H143.995V126.413Z" fill="#F5F5F5"/>
<path d="M174.789 153.415H167.001V339.098H174.789V153.415Z" fill="#F5F5F5"/>
<path d="M205.295 180.416H197.506V339.098H205.295V180.416Z" fill="#F5F5F5"/>
<path d="M235.812 162.411H228.023V339.098H235.812V162.411Z" fill="#F5F5F5"/>
<path d="M266.328 153.415H258.54V339.098H266.328V153.415Z" fill="#F5F5F5"/>
<path d="M296.833 135.41H289.045V339.098H296.833V135.41Z" fill="#F5F5F5"/>
<path d="M327.351 144.418H319.562V339.098H327.351V144.418Z" fill="#F5F5F5"/>
<path d="M357.867 135.41H350.079V339.098H357.867V135.41Z" fill="#F5F5F5"/>
<path d="M388.372 117.405H380.584V339.086H388.372V117.405Z" fill="#F5F5F5"/>
<path d="M418.889 99.4121H411.101V339.098H418.889V99.4121Z" fill="#F5F5F5"/>
<path d="M449.394 81.4072H441.606V339.098H449.394V81.4072Z" fill="#F5F5F5"/>
<path d="M201.36 167.77C200.926 167.753 200.514 167.576 200.203 167.273L135.003 103.835C134.673 103.514 134.485 103.074 134.479 102.614C134.474 102.154 134.652 101.71 134.974 101.381C135.296 101.052 135.737 100.864 136.198 100.858C136.659 100.853 137.103 101.031 137.433 101.352L201.58 163.774L291.927 97.9454C292.276 97.6965 292.706 97.5848 293.133 97.6317C293.56 97.6785 293.954 97.8807 294.241 98.1995L323.821 131.622L446.258 61.6126C446.457 61.4996 446.675 61.4267 446.902 61.398C447.128 61.3694 447.358 61.3856 447.579 61.4456C447.799 61.5057 448.005 61.6084 448.186 61.7481C448.366 61.8877 448.517 62.0614 448.631 62.2593C448.744 62.4572 448.817 62.6755 448.846 62.9016C448.874 63.1276 448.858 63.3572 448.798 63.577C448.738 63.7969 448.635 64.0027 448.495 64.1828C448.355 64.363 448.181 64.5139 447.982 64.6268L324.318 135.352C323.971 135.548 323.567 135.619 323.173 135.554C322.779 135.489 322.42 135.292 322.154 134.994L292.691 101.733L202.425 167.435C202.116 167.661 201.742 167.778 201.36 167.77Z" fill="#F0F0F0"/>
<path d="M194.011 337.77L137.109 113.825L139.956 102.634H136.994V38.6765H129.356V102.634H126.393L129.24 113.825L72.3262 337.77H80.2071L129.356 144.349V338.948H136.994V144.349L186.142 337.77H194.011Z" fill="#E0E0E0"/>
<path d="M176.049 111.6C181.638 87.9676 166.972 64.2877 143.291 58.7099C119.61 53.132 95.8812 67.7684 90.292 91.4012C84.7027 115.034 99.3691 138.714 123.05 144.292C146.731 149.87 170.46 135.233 176.049 111.6Z" fill="#E6E6E6"/>
<path d="M133.175 139.048C153.946 139.048 170.785 122.243 170.785 101.514C170.785 80.7845 153.946 63.98 133.175 63.98C112.403 63.98 95.5638 80.7845 95.5638 101.514C95.5638 122.243 112.403 139.048 133.175 139.048Z" fill="#F5F5F5"/>
<path d="M133.174 130.894C149.434 130.894 162.615 117.74 162.615 101.514C162.615 85.2876 149.434 72.1335 133.174 72.1335C116.915 72.1335 103.734 85.2876 103.734 101.514C103.734 117.74 116.915 130.894 133.174 130.894Z" fill="#E6E6E6"/>
<path d="M142.414 123.755C154.726 118.666 160.572 104.581 155.473 92.2942C150.373 80.0078 136.259 74.1733 123.947 79.2625C111.635 84.3517 105.789 98.4374 110.889 110.724C115.988 123.01 130.103 128.845 142.414 123.755Z" fill="#F5F5F5"/>
<path d="M149.468 105.339C151.593 96.3568 146.018 87.3563 137.017 85.2363C128.016 83.1162 118.997 88.6793 116.873 97.6619C114.749 106.644 120.323 115.645 129.324 117.765C138.325 119.885 147.344 114.322 149.468 105.339Z" fill="#E6E6E6"/>
<path d="M137.782 112.595C143.917 110.059 146.831 103.04 144.289 96.9169C141.748 90.7944 134.714 87.8869 128.579 90.423C122.444 92.959 119.531 99.9782 122.072 106.101C124.613 112.223 131.647 115.131 137.782 112.595Z" fill="#F5F5F5"/>
<path d="M138.625 101.514C138.625 102.593 138.305 103.647 137.704 104.544C137.103 105.44 136.249 106.139 135.251 106.551C134.252 106.964 133.153 107.071 132.093 106.86C131.033 106.648 130.06 106.128 129.297 105.364C128.533 104.601 128.014 103.629 127.804 102.57C127.595 101.512 127.705 100.416 128.12 99.42C128.535 98.4242 129.237 97.5736 130.137 96.976C131.037 96.3785 132.094 96.0607 133.175 96.063C133.891 96.063 134.601 96.2041 135.263 96.4782C135.925 96.7522 136.527 97.1539 137.033 97.6603C137.539 98.1666 137.94 98.7676 138.214 99.4289C138.487 100.09 138.627 100.799 138.625 101.514Z" fill="#E6E6E6"/>
<path d="M76.6311 65.2505L77.8231 73.1961L69.5372 75.9794L77.8231 80.3218L86.0859 77.423L84.6393 69.5929L76.6311 65.2505Z" fill="#E6E6E6"/>
<path d="M133.175 102.669C132.99 102.667 132.808 102.623 132.642 102.542L73.3562 72.2145C73.0923 72.07 72.8953 71.8285 72.807 71.5413C72.7186 71.2542 72.7458 70.944 72.8828 70.6766C73.0198 70.4091 73.2559 70.2054 73.5408 70.1088C73.8258 70.0121 74.1373 70.0301 74.4093 70.1588L133.695 100.44C133.968 100.578 134.175 100.819 134.27 101.109C134.365 101.399 134.342 101.715 134.205 101.988C134.115 102.187 133.971 102.356 133.788 102.477C133.606 102.598 133.393 102.664 133.175 102.669Z" fill="#E0E0E0"/>
<path d="M214.761 52.1194C214.756 50.5303 215.124 48.9621 215.836 47.541C216.549 46.1199 217.586 44.8856 218.864 43.9374C220.141 42.9892 221.624 42.3536 223.193 42.0817C224.762 41.8098 226.373 41.9093 227.896 42.3721C227.444 39.3078 227.658 36.1821 228.526 33.2081C229.393 30.2342 230.893 27.4817 232.923 25.1384C234.952 22.795 237.464 20.9158 240.287 19.6289C243.11 18.3419 246.178 17.6774 249.282 17.6806C250.614 17.6801 251.943 17.8038 253.251 18.0501C255.381 14.5572 258.592 11.8502 262.398 10.3374C266.204 8.82468 270.401 8.58822 274.353 9.66371C278.306 10.7392 281.801 13.0683 284.312 16.2998C286.822 19.5312 288.211 23.4896 288.27 27.578H288.594C293.21 27.578 297.637 29.408 300.901 32.6654C304.165 35.9228 305.999 40.3408 305.999 44.9475C305.999 49.5542 304.165 53.9722 300.901 57.2296C297.637 60.487 293.21 62.317 288.594 62.317H224.667C222.01 62.2418 219.487 61.1335 217.636 59.2285C215.786 57.3235 214.754 54.7725 214.761 52.1194Z" fill="#F0F0F0"/>
<path d="M396.323 46.5296C396.323 45.2278 396.841 43.9794 397.763 43.0589C398.686 42.1384 399.937 41.6213 401.241 41.6213C401.719 41.6256 402.194 41.6956 402.653 41.8292C402.579 41.332 402.541 40.8304 402.537 40.3278C402.536 38.8 402.873 37.2908 403.523 35.9077C404.174 34.5245 405.122 33.3015 406.299 32.3256C407.477 31.3497 408.856 30.6449 410.338 30.2614C411.82 29.878 413.369 29.8253 414.873 30.1071C415.904 28.4276 417.454 27.1279 419.289 26.4034C421.125 25.6789 423.146 25.5689 425.049 26.09C426.952 26.6111 428.634 27.735 429.842 29.2927C431.05 30.8503 431.718 32.7573 431.746 34.7266H431.897C434.122 34.7266 436.256 35.6088 437.829 37.179C439.403 38.7492 440.287 40.8789 440.287 43.0996C440.287 45.3202 439.403 47.4499 437.829 49.0201C436.256 50.5904 434.122 51.4725 431.897 51.4725H401.102C399.815 51.4393 398.592 50.9024 397.698 49.9777C396.804 49.053 396.31 47.8146 396.323 46.5296Z" fill="#F0F0F0"/>
<path d="M80.6817 52.6393C80.6817 52.2061 80.7674 51.7771 80.9338 51.377C81.1003 50.9769 81.3443 50.6136 81.6518 50.3078C81.9593 50.002 82.3242 49.7598 82.7257 49.595C83.1272 49.4303 83.5573 49.3463 83.9914 49.3478C84.3129 49.347 84.6327 49.3937 84.9404 49.4864C84.89 49.1499 84.8629 48.8103 84.8594 48.4701C84.8745 46.637 85.6109 44.8833 86.9098 43.587C88.2087 42.2908 89.966 41.5559 91.8029 41.5408C92.238 41.5425 92.6719 41.585 93.099 41.6678C93.7859 40.5323 94.825 39.6512 96.0589 39.1581C97.2927 38.6651 98.654 38.587 99.9364 38.9356C101.219 39.2843 102.352 40.0407 103.165 41.0902C103.978 42.1397 104.425 43.4251 104.44 44.7514H104.544C105.996 44.817 107.367 45.4389 108.371 46.4875C109.376 47.5362 109.936 48.9309 109.936 50.3815C109.936 51.832 109.376 53.2267 108.371 54.2754C107.367 55.324 105.996 55.9459 104.544 56.0115H83.8988C83.4657 56.0011 83.0388 55.9055 82.6427 55.7303C82.2466 55.5551 81.8889 55.3038 81.5901 54.9906C81.2913 54.6774 81.0573 54.3086 80.9015 53.9051C80.7456 53.5017 80.6709 53.0715 80.6817 52.6393Z" fill="#F0F0F0"/>
<path d="M260.38 390.964C384.302 390.964 484.76 385.111 484.76 377.89C484.76 370.67 384.302 364.817 260.38 364.817C136.458 364.817 36 370.67 36 377.89C36 385.111 136.458 390.964 260.38 390.964Z" fill="#F5F5F5"/>
<path d="M131.207 157.676L139.146 153.149C139.146 153.149 142.201 148.449 143.115 148.229C144.03 148.01 154.098 148.229 154.098 148.229C154.098 148.229 152.582 154.743 152.42 156.025C152.258 157.307 142.653 156.025 142.653 156.025L134.876 160.644L131.207 157.676Z" fill="#EBB376"/>
<path d="M57.2703 368.374L48.9612 366.722C48.8129 366.722 48.6688 366.772 48.5529 366.864C48.4371 366.957 48.3565 367.086 48.3248 367.231L46.0913 375.523C46.0442 375.806 46.1047 376.097 46.2609 376.338C46.4171 376.579 46.6578 376.754 46.936 376.828H47.1791C50.1185 376.828 52.2594 376.597 55.9395 376.597C58.254 376.597 65.0586 376.839 68.1948 376.839C71.331 376.839 71.7476 373.744 70.5093 373.467C64.723 372.208 60.4181 370.476 58.578 368.847C58.2217 368.524 57.7517 368.354 57.2703 368.374Z" fill="#263238"/>
<path d="M158.958 368.097H149.886C149.737 368.094 149.591 368.143 149.475 368.236C149.359 368.329 149.279 368.46 149.249 368.605L147.768 375.304C147.724 375.587 147.788 375.876 147.946 376.115C148.104 376.354 148.346 376.526 148.624 376.597H148.867C151.807 376.539 153.936 376.366 157.628 376.366C159.942 376.366 166.747 376.597 169.883 376.597C173.019 376.597 173.424 373.514 172.14 373.225C166.353 371.978 162.048 370.234 160.208 368.605C160.045 368.441 159.85 368.311 159.635 368.224C159.42 368.137 159.19 368.094 158.958 368.097Z" fill="#263238"/>
<path d="M73.2867 215.548L111.708 205.823C120.422 224.81 152.397 302.765 160.15 367.623L147.143 370.915C147.143 370.915 124.113 275.267 104.799 247.342C104.799 247.342 103.769 289.795 101.674 295.974C99.9498 301.056 60.4065 369.044 60.4065 369.044L47.5609 367.6C47.5609 367.6 79.8483 298.215 81.7462 289.565C83.0887 283.675 77.2098 240.412 77.2098 240.412C76.1798 236.555 74.6291 220.583 74.6291 220.583C74.6291 220.583 73.4719 216.345 73.2867 215.548Z" fill="#BBB1A2"/>
<path opacity="0.2" d="M104.81 247.365C108.071 252.287 110.916 257.471 113.316 262.864C110.654 247.919 102.403 233.448 102.403 233.448L104.81 247.365Z" fill="black"/>
<path d="M140.083 158.334C140.083 158.334 122.563 170.137 117.945 170.761C116.105 171.015 112.309 170.392 108.386 169.606C102.438 168.336 96.2351 166.557 96.2351 166.557L95.4598 160.702L94.6381 154.442C96.0268 153.981 114.149 161.372 116.857 162.527C119.565 163.682 137.075 153.288 137.075 153.288L140.083 158.334Z" fill="#263238"/>
<path d="M85.9008 212.845L87.0349 217.28L74.6291 220.583L73.4719 215.987L85.9008 212.845Z" fill="black"/>
<path d="M105.47 207.891L106.546 212.094L88.4119 216.922L87.2778 212.499L105.47 207.891Z" fill="black"/>
<path d="M113.687 210.2L107.912 211.736L106.847 207.544L112.147 206.204L113.687 210.2Z" fill="black"/>
<path d="M95.6044 215.009L102.761 213.198L101.453 208.049L94.2958 209.86L95.6044 215.009Z" fill="white"/>
<path d="M112.136 206.193L73.4603 215.986C71.5739 210.893 69.6529 205.766 67.7781 200.765C66.401 197.104 65.047 193.512 63.7278 190.036C63.396 189.143 63.0604 188.265 62.7209 187.403L61.5637 184.331C60.7073 182.083 59.8818 179.915 59.0872 177.829L56.9578 172.274L55.951 169.641L54.0415 164.675L94.6496 154.396C108.039 177.713 112.136 206.193 112.136 206.193Z" fill="#263238"/>
<path d="M68.785 163.681C72.9627 165.679 80.67 162.157 80.67 162.157C80.67 162.157 83.2276 159.339 81.7 158.092C78.5985 158.496 78.7953 157.48 77.6727 155.897C77.0309 154.899 76.5906 153.785 76.3766 152.618C76.2378 151.973 76.1335 151.321 76.0642 150.666L63.8783 146.3C66.6441 150.758 70.9375 159.2 68.785 163.681Z" fill="#EBB376"/>
<path opacity="0.2" d="M67.5815 150.285C69.7803 156.117 75.1731 156.29 77.6728 155.898C77.0309 154.899 76.5906 153.785 76.3767 152.618L67.5815 150.285Z" fill="black"/>
<path d="M83.4591 128.157C83.4591 128.157 86.6415 137.743 82.0472 142.42C77.4529 147.097 74.3399 128.769 74.3399 128.769L83.4591 128.157Z" fill="#263238"/>
<path d="M68.1833 152.86C69.5581 154.292 71.3652 155.234 73.3279 155.543C75.2906 155.852 77.3006 155.51 79.0499 154.569C81.3435 153.386 83.0984 151.375 83.9567 148.945C84.0724 148.622 84.1766 148.275 84.2691 147.929C85.8199 141.473 84.8478 130.813 77.8001 127.949C76.2468 127.31 74.5554 127.078 72.8869 127.276C71.2184 127.473 69.6283 128.093 68.2678 129.077C66.9073 130.061 65.8216 131.376 65.1141 132.897C64.4065 134.417 64.1007 136.094 64.2255 137.766C64.6421 144.961 64.5495 149.188 68.1833 152.86Z" fill="#EBB376"/>
<path d="M75.1383 139.81C75.1383 140.387 75.4392 140.861 75.8327 140.861C76.2261 140.861 76.5154 140.387 76.527 139.81C76.5386 139.233 76.2146 138.748 75.8327 138.748C75.4508 138.748 75.1383 139.221 75.1383 139.81Z" fill="#263238"/>
<path d="M81.7578 139.81C81.7578 140.399 82.0703 140.872 82.4522 140.872C82.8341 140.872 83.135 140.387 83.1465 139.81C83.1581 139.233 82.8225 138.759 82.4522 138.759C82.0819 138.759 81.7578 139.256 81.7578 139.81Z" fill="#263238"/>
<path d="M79.6516 140.099C80.3435 141.887 81.2822 143.57 82.4406 145.1C82.0388 145.387 81.5786 145.582 81.0926 145.672C80.6066 145.762 80.1067 145.744 79.6285 145.619L79.6516 140.099Z" fill="#D58745"/>
<path d="M84.1764 137.108C84.1209 137.136 84.0594 137.151 83.9971 137.151C83.9347 137.151 83.8732 137.136 83.8177 137.108C83.4754 136.845 83.0761 136.666 82.652 136.586C82.2278 136.506 81.7907 136.526 81.3759 136.646C81.2915 136.678 81.1977 136.675 81.1153 136.638C81.0328 136.601 80.9684 136.533 80.9361 136.449C80.9039 136.365 80.9065 136.271 80.9434 136.189C80.9803 136.107 81.0485 136.043 81.1329 136.01C81.6518 135.847 82.2027 135.811 82.7387 135.905C83.2746 136 83.7798 136.222 84.2112 136.553C84.2491 136.578 84.2816 136.609 84.3069 136.647C84.3322 136.684 84.3497 136.726 84.3583 136.77C84.367 136.814 84.3666 136.86 84.3572 136.904C84.3478 136.948 84.3296 136.99 84.3037 137.027C84.2649 137.059 84.2221 137.086 84.1764 137.108Z" fill="#263238"/>
<path d="M73.8306 137.188C73.7644 137.18 73.7011 137.156 73.6454 137.119C73.5818 137.054 73.5462 136.967 73.5462 136.877C73.5462 136.786 73.5818 136.699 73.6454 136.634C74.0499 136.264 74.5379 135.998 75.0679 135.857C75.5978 135.716 76.154 135.706 76.689 135.826C76.7735 135.852 76.8445 135.91 76.8875 135.988C76.9306 136.065 76.9423 136.156 76.9205 136.241C76.8936 136.329 76.8343 136.402 76.7547 136.447C76.6751 136.493 76.5812 136.506 76.4923 136.484C76.0702 136.399 75.6339 136.416 75.2195 136.532C74.805 136.649 74.4242 136.862 74.1083 137.154C74.067 137.178 74.0209 137.194 73.9731 137.2C73.9253 137.206 73.8768 137.202 73.8306 137.188Z" fill="#263238"/>
<path d="M69.5026 128.85L70.1969 130.178C67.8824 131.067 68.461 133.793 69.0397 135.006C70.1969 137.616 68.8661 141.808 66.9103 143.552C66.9103 143.552 66.783 142.397 65.8225 142.72C64.862 143.044 65.4175 149.026 67.4542 151.798C67.4542 151.798 64.4569 149.338 62.5359 143.125C60.7653 137.35 60.3487 132.534 61.4481 130.224L69.5026 128.85Z" fill="#263238"/>
<path d="M61.0777 143.679C61.4714 144.485 62.0205 145.206 62.6936 145.801C63.3668 146.395 64.1508 146.852 65.0008 147.143C67.3153 147.906 68.4725 145.908 68.0096 143.679C67.5236 141.727 65.7761 138.898 63.3806 139.117C62.8755 139.173 62.3924 139.354 61.9751 139.644C61.5578 139.933 61.2195 140.322 60.9909 140.775C60.7622 141.228 60.6504 141.731 60.6655 142.238C60.6807 142.745 60.8223 143.24 61.0777 143.679Z" fill="#EBB376"/>
<path d="M69.433 155.747C72.8353 158.127 79.4664 158.9 82.7183 154.593C85.9702 150.285 84.9287 143.367 84.9287 143.367C84.5552 144.912 83.8438 146.356 82.8456 147.594C81.0056 145.377 77.881 146.635 77.881 146.635C77.2225 145.78 76.2778 145.19 75.2193 144.972C73.7033 144.822 69.433 145.076 69.433 145.076C68.0675 144.21 68.0096 140.353 68.0096 140.353L67.1764 141.046C67.1764 141.046 66.0191 153.357 69.433 155.747Z" fill="#263238"/>
<path d="M78.529 131.298C78.529 131.298 86.6298 127.372 85.6693 123.445C84.7088 119.518 82.348 123.999 82.348 123.999C82.348 123.999 83.4358 121.02 81.3064 120.535C79.1771 120.05 79.8483 121.955 78.691 123.099C77.5338 124.242 66.3084 122.579 62.6862 124.819C59.064 127.06 61.8298 134.809 61.8298 134.809C63.9691 132.666 66.6885 131.192 69.6548 130.568C72.621 129.945 75.7051 130.198 78.529 131.298Z" fill="#263238"/>
<path opacity="0.2" d="M69.433 155.747C72.8353 158.127 79.4664 158.9 82.7183 154.593C85.9702 150.285 84.9287 143.367 84.9287 143.367C84.5552 144.912 83.8438 146.356 82.8456 147.594C81.0056 145.377 77.881 146.635 77.881 146.635C77.2225 145.78 76.2778 145.19 75.2193 144.972C73.7033 144.822 69.433 145.076 69.433 145.076C68.0675 144.21 68.0096 140.353 68.0096 140.353L67.1764 141.046C67.1764 141.046 66.0191 153.357 69.433 155.747Z" fill="white"/>
<path d="M78.2282 148.83C77.6055 149.662 77.0446 150.538 76.5502 151.451L76.0295 151.255C73.7149 150.412 72.8817 149.257 72.6966 148.218C72.6217 147.714 72.6653 147.2 72.8239 146.716C72.9082 146.436 73.0288 146.168 73.1826 145.919C74.3999 147.079 75.852 147.965 77.4413 148.518C77.9158 148.726 78.2282 148.83 78.2282 148.83Z" fill="#263238"/>
<path d="M77.4413 148.529L76.9205 149.292C74.7218 148.495 73.2752 147.64 72.8239 146.728C72.9082 146.448 73.0288 146.18 73.1826 145.931C74.3999 147.091 75.852 147.977 77.4413 148.529Z" fill="white"/>
<path d="M76.0295 151.255C73.715 150.412 72.8818 149.257 72.6966 148.218C73.5804 148.561 74.3986 149.053 75.1153 149.673C75.5791 150.091 75.899 150.645 76.0295 151.255Z" fill="#DE5753"/>
<path d="M82.1975 162.168L81.5148 168.151L94.0131 194.725L92.7748 198.247L88.6897 196.365L79.7789 169.259L73.2288 164.836L77.9967 162.226L82.1975 162.168Z" fill="#E37E26"/>
<path d="M69.0628 158.08L77.3371 161.487L77.6727 155.897L83.7715 157.399L84.2922 165.91L78.4249 163.52L75.9716 168.971L65.5447 162.018L69.0628 158.08Z" fill="#263238"/>
<path opacity="0.2" d="M69.0628 158.08L77.3371 161.487L77.6727 155.897L83.7715 157.399L84.2922 165.91L78.4249 163.52L75.9716 168.971L65.5447 162.018L69.0628 158.08Z" fill="white"/>
<path opacity="0.2" d="M61.5522 184.331C60.6958 182.083 59.8703 179.915 59.0757 177.829L56.9463 172.274L55.9395 169.641C57.0967 169.075 60.0477 169.41 60.8694 170.796C63.8783 176.039 61.5522 184.331 61.5522 184.331Z" fill="black"/>
<path opacity="0.2" d="M76.0526 190.198C75.5583 192.467 74.5576 194.595 73.125 196.425C71.6924 198.254 69.8648 199.738 67.7782 200.765C66.4011 197.104 65.0471 193.512 63.7279 190.036C63.3961 189.143 63.0605 188.265 62.721 187.403L61.5638 184.331L74.9648 186.028L76.0526 190.198Z" fill="black"/>
<path opacity="0.2" d="M108.386 169.56C102.438 168.29 96.2352 166.511 96.2352 166.511L95.4598 160.656C95.4598 160.656 106.396 161.822 108.386 169.56Z" fill="black"/>
<path d="M54.0301 306.01C53.6673 306.022 53.3098 305.92 53.0079 305.719C52.7061 305.518 52.4751 305.227 52.3473 304.888C52.2196 304.549 52.2016 304.179 52.2958 303.829C52.3901 303.479 52.5919 303.167 52.8728 302.938C72.1874 287.116 71.8171 262.321 71.4583 238.334C71.1806 220.248 70.926 203.156 79.4549 191.537C91.421 175.207 139.551 149.303 147.525 148.564C153.23 147.998 327.246 99.7353 418.473 74.2931C418.916 74.169 419.391 74.2259 419.792 74.4511C420.194 74.6764 420.489 75.0515 420.613 75.4941C420.738 75.9367 420.681 76.4105 420.455 76.8112C420.229 77.2119 419.853 77.5066 419.41 77.6307C408.613 80.645 155 151.359 147.849 152.017C140.986 152.652 93.342 178.453 82.2555 193.593C74.4209 204.276 74.6639 220.802 74.9301 238.287C75.2773 261.939 75.6823 288.756 55.0716 305.629C54.7764 305.868 54.41 306.002 54.0301 306.01Z" fill="#263238"/>
<path opacity="0.4" d="M419.468 77.6193L395.675 84.2714C330.232 102.496 153.809 151.486 147.907 152.029C141.044 152.664 93.3998 178.464 82.3133 193.605C74.4787 204.287 74.7217 220.814 74.9879 238.299C75.3351 261.951 75.7401 288.768 55.1294 305.641C54.8052 305.909 54.3932 306.049 53.9722 306.033C53.6094 306.045 53.2519 305.944 52.9501 305.742C52.6482 305.541 52.4172 305.251 52.2894 304.911C52.1617 304.572 52.1437 304.202 52.238 303.852C52.3322 303.502 52.534 303.191 52.8149 302.961C72.1295 287.139 71.7592 262.344 71.4004 238.357C71.1227 220.271 70.8681 203.179 79.3971 191.561C91.3631 175.23 139.493 149.326 147.467 148.587C152.836 148.056 307.006 105.348 401.229 79.1091L418.415 74.3163C418.858 74.1922 419.333 74.2491 419.734 74.4743C420.136 74.6996 420.431 75.0747 420.556 75.5173C420.68 75.9599 420.623 76.4337 420.397 76.8344C420.172 77.2351 419.796 77.5298 419.352 77.6539L419.468 77.6193Z" fill="white"/>
<path opacity="0.2" d="M419.468 77.6191L395.675 84.2712C397.343 82.3187 399.247 80.5808 401.345 79.0973L418.53 74.3045C418.974 74.1805 419.449 74.2374 419.85 74.4626C420.252 74.6878 420.547 75.063 420.671 75.5056C420.796 75.9482 420.739 76.422 420.513 76.8227C420.287 77.2233 419.911 77.5181 419.468 77.6422V77.6191Z" fill="black"/>
<path d="M65.8571 186.826L74.9532 186.029C74.9532 186.029 79.7095 183.026 80.6237 183.222C81.5379 183.419 90.5992 187.842 90.5992 187.842C90.5992 187.842 86.491 193.12 85.8082 194.217C85.1254 195.314 76.9436 190.14 76.9436 190.14L67.9286 191.099L65.8571 186.826Z" fill="#EBB376"/>
<path d="M54.0301 164.675C49.8987 167.62 39.1362 191.63 40.2819 195.337C41.4276 199.044 74.9185 191.734 74.9185 191.734L73.4372 185.486H55.4188L59.7006 178.741C59.7006 178.741 62.3391 176.177 60.719 170.218C59.5502 165.922 54.0301 164.675 54.0301 164.675Z" fill="#263238"/>
<path d="M402.965 167.089L396.103 163.844C396.103 163.844 392.631 157.215 391.613 156.152C390.594 155.09 385.676 159.213 385.676 159.929C385.676 160.645 389.24 167.343 390.166 167.747C391.544 167.949 392.943 167.949 394.321 167.747L400.848 170.9L402.965 167.089Z" fill="#9F5B53"/>
<path d="M418.982 126.009L420.359 121.101C420.359 121.101 422.534 114.703 422.303 113.224C421.877 111.475 421.328 109.757 420.66 108.085C420.66 108.085 414.642 115.396 414.642 116.308C414.642 117.22 417.026 120.535 417.026 120.535L415.869 126.009H418.982Z" fill="#9F5B53"/>
<path d="M424.27 162.573C424.27 162.573 419.086 156.14 417.558 150.158C416.031 144.176 420.648 124.751 420.648 124.751L415.776 123.457C415.776 123.457 409.99 143.333 409.793 150.585C409.596 157.838 420.405 179.123 420.405 179.123L424.27 162.573Z" fill="#DC2626"/>
<path opacity="0.2" d="M421.134 175.924L420.393 179.077C420.393 179.077 416.667 171.743 413.623 164.213C416.791 166.484 419.179 169.674 420.463 173.348C420.757 174.187 420.981 175.048 421.134 175.924Z" fill="black"/>
<path d="M451.72 176.663C451.655 178.005 451.492 179.34 451.234 180.659C450.702 183.546 449.799 186.953 448.769 190.706C448.214 192.681 447.612 194.794 447.08 197.023C444.499 207.036 443.099 211.021 441.189 223.805L404.562 215.132C406.542 204.188 409.56 193.457 413.577 183.084C414.642 180.324 415.892 177.564 417.153 174.838C419.175 170.565 421.556 166.469 424.27 162.596C424.27 162.596 430.195 168.001 448.804 171.246C451.061 171.593 451.836 173.556 451.72 176.663Z" fill="#DC2626"/>
<path opacity="0.2" d="M447.115 172.493C447.115 173.648 451.501 179.146 451.234 180.578C450.737 180.913 450.147 181.282 449.475 181.733C437.081 188.927 420.822 185.278 413.6 183.049C414.665 180.289 417.072 175.219 418.322 172.493L427.013 174.422C427.013 174.422 441.224 171.188 447.115 172.493Z" fill="black"/>
<path d="M432.221 164.779C433.551 164.271 444.476 166.985 443.666 167.216C442.856 167.447 438.782 179.92 433.077 178.984C427.372 178.049 427.476 166.581 432.221 164.779Z" fill="#DC2626"/>
<path d="M382.76 369.137L375.885 370.626L371.87 354.851L378.755 353.361L382.76 369.137Z" fill="#9F5B53"/>
<path d="M374.173 367.762H382.725C382.864 367.762 382.999 367.811 383.107 367.899C383.215 367.988 383.288 368.111 383.315 368.247L384.704 374.495C384.734 374.629 384.738 374.767 384.714 374.902C384.69 375.037 384.64 375.166 384.565 375.281C384.491 375.396 384.394 375.495 384.281 375.572C384.167 375.65 384.04 375.704 383.905 375.731H383.674C380.908 375.731 378.894 375.512 375.423 375.512C373.282 375.512 366.824 375.731 363.85 375.731C360.876 375.731 360.517 372.821 361.721 372.555C367.148 371.4 371.233 369.737 372.969 368.19C373.131 368.042 373.321 367.929 373.528 367.855C373.735 367.782 373.954 367.75 374.173 367.762Z" fill="#263238"/>
<path d="M371.847 368.998C371.368 369.033 370.891 368.907 370.493 368.64C370.363 368.534 370.263 368.396 370.202 368.241C370.141 368.085 370.122 367.916 370.146 367.75C370.14 367.653 370.164 367.556 370.213 367.472C370.262 367.388 370.336 367.32 370.423 367.277C371.21 366.873 373.479 368.27 373.733 368.432C373.762 368.446 373.786 368.47 373.801 368.499C373.815 368.528 373.82 368.561 373.814 368.594C373.81 368.627 373.796 368.658 373.773 368.683C373.75 368.708 373.72 368.725 373.687 368.732C373.085 368.889 372.468 368.978 371.847 368.998ZM370.794 367.543C370.726 367.52 370.653 367.52 370.585 367.543C370.585 367.543 370.481 367.6 370.47 367.739C370.458 367.848 370.472 367.959 370.513 368.062C370.553 368.164 370.618 368.256 370.701 368.328C371.488 368.687 372.382 368.732 373.201 368.455C372.465 367.998 371.648 367.689 370.794 367.543Z" fill="#EF4E23"/>
<path d="M373.64 368.744H373.559C372.842 368.351 371.43 366.804 371.569 366.065C371.596 365.94 371.664 365.829 371.763 365.749C371.862 365.669 371.986 365.626 372.113 365.626C372.239 365.609 372.368 365.62 372.49 365.658C372.612 365.696 372.724 365.76 372.819 365.845C373.629 366.503 373.802 368.525 373.814 368.617C373.816 368.647 373.809 368.677 373.795 368.704C373.781 368.73 373.759 368.752 373.733 368.767C373.717 368.772 373.7 368.772 373.684 368.768C373.667 368.764 373.652 368.756 373.64 368.744ZM372.229 365.891H372.148C371.928 365.891 371.916 366.018 371.905 366.065C371.812 366.527 372.715 367.693 373.432 368.236C373.393 367.448 373.114 366.691 372.634 366.065C372.582 366.01 372.519 365.966 372.449 365.936C372.379 365.906 372.304 365.891 372.229 365.891Z" fill="#EF4E23"/>
<path d="M441.49 224.764C441.49 224.764 435.554 253.012 421.667 260.565C420.073 261.46 418.327 262.051 416.517 262.309C416.517 262.309 402.433 268.084 390.259 273.546C382.852 276.884 376.152 280.141 373.756 281.965C367.415 286.781 382.945 361.965 382.945 361.965L372.391 362.08C372.391 362.08 350.183 295.512 353.875 278.039C357.566 260.565 397.422 233.818 397.422 233.818L403.556 216.98L441.49 224.764Z" fill="#263238"/>
<path opacity="0.2" d="M421.667 260.6C420.073 261.495 418.327 262.086 416.517 262.344C416.517 262.344 402.433 268.118 390.259 273.581C398.093 259.203 412.061 249.86 412.061 249.86L421.667 260.6Z" fill="black"/>
<path d="M471.243 369.137L464.369 370.626L460.354 354.851L467.239 353.361L471.243 369.137Z" fill="#9F5B53"/>
<path d="M462.656 367.762H471.208C471.348 367.762 471.483 367.811 471.591 367.899C471.698 367.988 471.772 368.111 471.799 368.247L473.187 374.495C473.218 374.629 473.221 374.767 473.198 374.902C473.174 375.037 473.123 375.166 473.049 375.281C472.974 375.396 472.878 375.495 472.764 375.572C472.651 375.65 472.523 375.704 472.389 375.731H472.157C469.392 375.731 467.378 375.512 463.906 375.512C461.765 375.512 455.308 375.731 452.334 375.731C449.359 375.731 449.001 372.821 450.204 372.555C455.632 371.4 459.717 369.737 461.453 368.19C461.615 368.042 461.805 367.929 462.012 367.855C462.218 367.782 462.437 367.75 462.656 367.762Z" fill="#263238"/>
<path d="M460.33 368.998C459.852 369.033 459.375 368.907 458.976 368.64C458.847 368.534 458.747 368.396 458.686 368.241C458.625 368.085 458.605 367.916 458.629 367.75C458.624 367.653 458.647 367.556 458.697 367.472C458.746 367.388 458.819 367.32 458.907 367.277C459.694 366.873 461.962 368.27 462.217 368.432C462.246 368.446 462.27 368.47 462.284 368.499C462.299 368.528 462.304 368.561 462.298 368.594C462.294 368.627 462.279 368.658 462.256 368.683C462.234 368.708 462.204 368.725 462.17 368.732C461.569 368.889 460.952 368.978 460.33 368.998ZM459.277 367.543C459.21 367.52 459.137 367.52 459.069 367.543C459.069 367.543 458.965 367.6 458.953 367.739C458.941 367.848 458.956 367.959 458.996 368.062C459.037 368.164 459.101 368.256 459.185 368.328C459.971 368.687 460.865 368.732 461.684 368.455C460.949 367.998 460.131 367.689 459.277 367.543Z" fill="#EF4E23"/>
<path d="M462.124 368.744H462.043C461.326 368.351 459.914 366.804 460.053 366.065C460.079 365.94 460.148 365.829 460.247 365.749C460.346 365.669 460.469 365.626 460.596 365.626C460.723 365.609 460.852 365.62 460.974 365.658C461.096 365.696 461.208 365.76 461.302 365.845C462.112 366.503 462.286 368.525 462.298 368.617C462.3 368.647 462.293 368.677 462.279 368.704C462.264 368.73 462.243 368.752 462.217 368.767C462.201 368.772 462.183 368.772 462.167 368.768C462.151 368.764 462.136 368.756 462.124 368.744ZM460.712 365.891H460.585C460.365 365.891 460.353 366.018 460.342 366.065C460.249 366.527 461.152 367.693 461.869 368.236C461.825 367.436 461.534 366.67 461.036 366.042C460.948 365.957 460.834 365.904 460.712 365.891Z" fill="#EF4E23"/>
<path d="M443.863 170.761C442.138 171.916 434.188 171.478 434.188 171.478L430.496 175.508L430.138 168.844C430.138 168.844 427.65 167.817 428.332 167.1C429.198 167.165 430.067 167.056 430.89 166.78C431.713 166.505 432.472 166.068 433.123 165.495C434.732 163.925 435.044 161.395 435.021 158.889C435.021 158.889 435.021 158.82 435.021 158.797L441.814 155.332L446.513 152.918C444.302 157.677 441.143 166.604 443.863 170.761Z" fill="#A77865"/>
<path opacity="0.2" d="M444.059 156.914C441.814 162.585 435.959 165.114 433.077 165.483C434.686 163.913 434.998 161.384 434.975 158.877C434.981 158.843 434.981 158.808 434.975 158.774L441.768 155.309C441.78 156.233 444.384 156.048 444.059 156.914Z" fill="black"/>
<path d="M448.376 156.683C448.376 156.683 452.785 158.993 454.255 156.233C455.724 153.473 453.63 153.311 455.794 152.318C457.958 151.325 461.036 150.632 460.33 148.541C459.624 146.451 457.437 146.231 459.867 143.922C462.298 141.612 462.83 138.355 459.196 137.72C455.562 137.085 456.951 134.255 456.766 133.1C456.581 131.946 454.544 131.137 452.334 131.599C450.123 132.061 449.198 128.793 447.832 127.776C446.466 126.76 444.58 128.007 444.082 129.382C443.585 130.756 442.277 128.931 440.333 128.7C438.389 128.469 438.84 130.513 438.238 132.419C437.637 134.325 436.445 133.089 435.056 134.66C433.667 136.23 433.54 146.948 448.376 156.683Z" fill="#263238"/>
<path d="M450.297 150.1C446.976 155.297 445.089 158.727 441.363 160.413C440.861 160.644 440.343 160.837 439.812 160.991C432.568 163.116 426.596 156.152 428.506 149.257C428.869 148.013 429.334 146.8 429.895 145.631C432.487 140.214 437.475 134.671 443.434 135.398C444.679 135.54 445.883 135.926 446.978 136.533C448.073 137.14 449.037 137.957 449.815 138.936C450.594 139.915 451.171 141.038 451.514 142.241C451.856 143.443 451.958 144.701 451.813 145.942C451.638 147.427 451.119 148.85 450.297 150.1Z" fill="#A77865"/>
<path d="M440.102 146.635C439.859 147.155 439.338 147.386 439.014 147.213C438.69 147.04 438.655 146.474 438.921 145.989C439.187 145.504 439.697 145.238 440.009 145.411C440.321 145.584 440.379 146.162 440.102 146.635Z" fill="#263238"/>
<path d="M434.489 143.552C434.417 143.769 434.263 143.95 434.06 144.056C433.857 144.161 433.621 144.184 433.401 144.118C433.089 143.933 433.042 143.39 433.32 142.894C433.598 142.397 434.084 142.143 434.408 142.328C434.732 142.513 434.755 143.079 434.489 143.552Z" fill="#263238"/>
<path d="M436.144 144.788C434.706 145.968 433.113 146.947 431.411 147.698C431.614 148.13 431.91 148.513 432.278 148.818C432.646 149.124 433.077 149.344 433.54 149.465L436.144 144.788Z" fill="#892B29"/>
<path d="M443.458 145.342C443.397 145.351 443.335 145.344 443.278 145.322C443.222 145.3 443.172 145.263 443.134 145.215C442.899 144.87 442.586 144.585 442.22 144.385C441.854 144.184 441.445 144.073 441.027 144.06C440.979 144.069 440.929 144.068 440.881 144.055C440.833 144.043 440.789 144.02 440.751 143.989C440.713 143.958 440.682 143.918 440.661 143.874C440.641 143.829 440.63 143.78 440.63 143.731C440.63 143.682 440.641 143.633 440.661 143.589C440.682 143.544 440.713 143.505 440.751 143.473C440.789 143.442 440.833 143.419 440.881 143.407C440.929 143.395 440.979 143.393 441.027 143.402C441.555 143.406 442.073 143.537 442.539 143.784C443.005 144.031 443.403 144.388 443.701 144.823C443.728 144.856 443.748 144.895 443.76 144.937C443.772 144.979 443.775 145.023 443.77 145.066C443.765 145.109 443.751 145.15 443.729 145.188C443.707 145.226 443.678 145.258 443.643 145.284C443.587 145.318 443.523 145.338 443.458 145.342Z" fill="#263238"/>
<path d="M434.894 152.56C435.671 152.812 436.498 152.873 437.303 152.739C438.109 152.604 438.871 152.277 439.523 151.786C439.552 151.753 439.568 151.71 439.568 151.665C439.568 151.621 439.552 151.578 439.523 151.544C439.491 151.512 439.447 151.494 439.402 151.494C439.356 151.494 439.312 151.512 439.28 151.544C438.662 151.987 437.949 152.281 437.198 152.401C436.447 152.521 435.678 152.465 434.952 152.237C434.932 152.228 434.909 152.223 434.887 152.224C434.865 152.224 434.843 152.23 434.823 152.24C434.803 152.249 434.786 152.264 434.772 152.281C434.758 152.299 434.748 152.319 434.744 152.341C434.734 152.361 434.73 152.383 434.73 152.405C434.731 152.428 434.736 152.449 434.746 152.469C434.756 152.489 434.77 152.507 434.788 152.52C434.806 152.534 434.826 152.544 434.848 152.549L434.894 152.56Z" fill="#263238"/>
<path d="M433.968 138.759C433.95 138.695 433.95 138.627 433.968 138.563C434.006 138.484 434.073 138.423 434.155 138.393C434.237 138.363 434.328 138.366 434.408 138.401C434.893 138.618 435.32 138.949 435.65 139.365C435.98 139.781 436.205 140.271 436.306 140.792C436.316 140.879 436.291 140.967 436.237 141.036C436.183 141.105 436.104 141.15 436.016 141.162C435.929 141.171 435.841 141.147 435.772 141.093C435.703 141.039 435.658 140.96 435.646 140.873C435.555 140.465 435.369 140.085 435.104 139.762C434.839 139.439 434.501 139.182 434.119 139.013C434.077 138.984 434.043 138.946 434.017 138.902C433.991 138.858 433.974 138.81 433.968 138.759Z" fill="#263238"/>
<path d="M438.736 135.884C440.426 136.092 441.259 138.193 441.259 138.193C443.302 138.939 445.276 139.858 447.161 140.942C447.736 141.41 448.168 142.029 448.409 142.728C448.651 143.428 448.691 144.182 448.526 144.903C448.468 145.458 447.103 145.966 447.103 145.966C447.103 145.966 444.603 151.856 443.92 153.484L444.268 158.924C448.861 156.025 452.54 151.889 454.88 146.994C458.826 138.794 442.358 131.576 442.358 131.576L438.736 135.884Z" fill="#263238"/>
<path d="M449.302 158.323C447.763 159.164 445.953 159.363 444.268 158.877C442.034 158.208 442.161 155.921 443.816 154.454C445.298 153.184 448.272 151.925 449.996 153.403C450.373 153.725 450.663 154.136 450.839 154.6C451.015 155.063 451.071 155.563 451.002 156.053C450.932 156.544 450.74 157.009 450.443 157.406C450.146 157.802 449.753 158.118 449.302 158.323Z" fill="#A77865"/>
<path d="M443.666 167.216L434.466 169.861L430.496 175.231L431.573 168.659C431.573 168.659 430.589 167.147 432.221 164.779L426.62 165.934L423.24 171.57L429.814 170.034L430.265 176.582L434.095 172.078L437.232 177.021L446.559 171.119L443.666 167.216Z" fill="#DC2626"/>
<path opacity="0.2" d="M443.666 167.216L434.466 169.861L430.496 175.231L431.573 168.659C431.573 168.659 430.589 167.147 432.221 164.779L426.62 165.934L423.24 171.57L429.814 170.034L430.265 176.582L434.095 172.078L437.232 177.021L446.559 171.119L443.666 167.216Z" fill="black"/>
<path d="M405.048 211.31L403.613 217.015L441.479 224.764L442.046 218.424L405.048 211.31Z" fill="black"/>
<path d="M421.956 214.3C421.655 213.873 413.23 212.06 412.431 212.661C412.431 212.661 410.8 218.285 411.077 218.874C411.355 219.463 419.549 220.606 420.336 220.768C421.122 220.93 422.257 214.774 421.956 214.3ZM419.641 220.075C419.016 219.948 412.281 219.012 412.05 218.527C411.818 218.042 413.207 213.423 413.207 213.423C413.866 212.926 420.787 214.416 421.03 214.762C421.273 215.109 420.266 220.144 419.641 220.017V220.075Z" fill="white"/>
<path d="M419.965 216.218L418.287 215.871C418.135 215.842 417.976 215.871 417.844 215.952C417.711 216.033 417.613 216.161 417.57 216.31C417.546 216.394 417.54 216.481 417.551 216.567C417.563 216.653 417.593 216.736 417.639 216.81C417.685 216.884 417.745 216.948 417.817 216.997C417.889 217.046 417.97 217.079 418.056 217.095L419.734 217.419C419.897 217.451 420.066 217.417 420.203 217.325C420.341 217.233 420.437 217.09 420.469 216.928C420.501 216.766 420.467 216.597 420.375 216.46C420.283 216.322 420.14 216.227 419.977 216.195L419.965 216.218Z" fill="white"/>
<path d="M441.479 224.764C441.479 224.764 442.208 267.495 441.004 279.967C439.801 292.44 471 360.706 471 360.706H460.897C460.897 360.706 430.288 310.722 423.275 295.339C416.262 279.956 411.078 243.253 411.078 243.253L441.479 224.764Z" fill="#263238"/>
<path d="M451.848 173.66C450.285 170.126 426.295 175.358 424.131 174.746C421.967 174.134 399.447 164.721 399.447 164.721L397.491 169.733C397.491 169.733 417.685 181.282 422.106 183.107C426.527 184.932 444.198 184.054 448.723 182.102C449.497 181.769 450.196 181.282 450.776 180.672C451.356 180.061 451.806 179.339 452.098 178.549C452.391 177.76 452.519 176.92 452.476 176.079C452.433 175.239 452.219 174.416 451.848 173.66Z" fill="#DC2626"/>
<path d="M447.6 81.8806L440.333 35.6851L402.051 62.6979L414.781 68.0797C402.491 96.1897 362.623 178.545 294.021 239.269C206.429 316.82 83.8292 354.977 82.6025 355.347L89.384 377.44C94.5916 375.846 217.932 337.504 309.424 256.511C382.331 191.976 423.321 106.861 436.19 77.0647L447.6 81.8806Z" fill="#EF4E23"/>
<path opacity="0.77" d="M440.657 73.7964L440.333 35.6851L402.051 62.6979L414.781 68.0797C402.491 96.1897 362.623 178.545 294.021 239.269C206.429 316.82 83.8292 354.977 82.6025 355.347L92.6347 366.369C97.8423 364.775 213.303 332.884 304.795 251.892C377.702 187.357 416.378 101.086 429.246 71.2903L440.657 73.7964Z" fill="#F3A765"/>
<path d="M433.968 83.8327C433.787 83.8341 433.608 83.8068 433.436 83.7519L411.205 76.58C410.976 76.5208 410.761 76.4155 410.575 76.2706C410.388 76.1257 410.233 75.9443 410.119 75.7374C410.005 75.5305 409.935 75.3026 409.912 75.0676C409.89 74.8326 409.915 74.5955 409.988 74.3708C410.061 74.1462 410.179 73.9387 410.335 73.7612C410.491 73.5836 410.681 73.4398 410.895 73.3384C411.108 73.2371 411.341 73.1804 411.577 73.1718C411.813 73.1632 412.049 73.203 412.27 73.2886L434.5 80.4489C434.896 80.5739 435.234 80.8364 435.452 81.1887C435.671 81.541 435.756 81.9598 435.691 82.3691C435.627 82.7783 435.418 83.1511 435.101 83.4196C434.785 83.6881 434.383 83.8347 433.968 83.8327Z" fill="#263238"/>
<path opacity="0.4" d="M433.968 83.8327C433.787 83.8341 433.608 83.8068 433.436 83.7519L411.205 76.58C410.976 76.5208 410.761 76.4155 410.575 76.2706C410.388 76.1257 410.233 75.9443 410.119 75.7374C410.005 75.5305 409.935 75.3026 409.912 75.0676C409.89 74.8326 409.915 74.5955 409.988 74.3708C410.061 74.1462 410.179 73.9387 410.335 73.7612C410.491 73.5836 410.681 73.4398 410.895 73.3384C411.108 73.2371 411.341 73.1804 411.577 73.1718C411.813 73.1632 412.049 73.203 412.27 73.2886L434.5 80.4489C434.896 80.5739 435.234 80.8364 435.452 81.1887C435.671 81.541 435.756 81.9598 435.691 82.3691C435.627 82.7783 435.418 83.1511 435.101 83.4196C434.785 83.6881 434.383 83.8347 433.968 83.8327Z" fill="white"/>
<path d="M167.719 300.028C167.258 300.028 166.817 299.845 166.491 299.52C166.166 299.195 165.983 298.755 165.983 298.295C165.983 243.161 182.034 235.931 185.043 235.042L236.078 199.414L236.194 199.344L432.255 83.3241C432.651 83.0992 433.119 83.0384 433.559 83.1546C433.999 83.2709 434.376 83.5549 434.608 83.9456C434.84 84.3364 434.909 84.8024 434.8 85.2435C434.692 85.6846 434.414 86.0653 434.026 86.3038L238.057 202.289L186.779 238.091C186.56 238.242 186.312 238.345 186.05 238.391C185.922 238.391 169.455 242.433 169.455 298.33C169.446 298.783 169.259 299.215 168.934 299.532C168.61 299.85 168.173 300.028 167.719 300.028Z" fill="#263238"/>
<path opacity="0.4" d="M167.719 300.028C167.258 300.028 166.817 299.845 166.491 299.52C166.166 299.195 165.983 298.755 165.983 298.295C165.983 243.161 182.034 235.931 185.043 235.042L236.078 199.414L236.194 199.344L432.255 83.3241C432.651 83.0992 433.119 83.0384 433.559 83.1546C433.999 83.2709 434.376 83.5549 434.608 83.9456C434.84 84.3364 434.909 84.8024 434.8 85.2435C434.692 85.6846 434.414 86.0653 434.026 86.3038L238.057 202.289L186.779 238.091C186.56 238.242 186.312 238.345 186.05 238.391C185.922 238.391 169.455 242.433 169.455 298.33C169.446 298.783 169.259 299.215 168.934 299.532C168.61 299.85 168.173 300.028 167.719 300.028Z" fill="white"/>
<path d="M181.05 242.815C181.05 242.815 172.128 248.589 165.346 250.333C163.673 250.898 161.876 250.997 160.15 250.622C155.105 249.028 158.102 239.281 161.111 233.125C161.597 232.12 162.083 231.22 162.534 230.457L171.352 235.897C171.352 235.897 166.006 243.508 166.619 243.981C167.233 244.455 175.472 239.87 175.877 239.72C176.282 239.569 181.05 242.815 181.05 242.815Z" fill="#3A75F6"/>
<path opacity="0.2" d="M181.05 242.815C181.05 242.815 172.128 248.589 165.346 250.333C163.464 244.723 162.047 238.967 161.111 233.125C161.597 232.12 162.083 231.22 162.534 230.457L171.353 235.897C171.353 235.897 166.006 243.508 166.619 243.981C167.233 244.455 175.472 239.87 175.877 239.72C176.282 239.569 181.05 242.815 181.05 242.815Z" fill="black"/>
<path d="M224.505 209.3L229.736 204.68C230.154 203.361 230.729 202.097 231.449 200.915C232.016 200.442 241.54 199.703 241.54 199.703C241.54 199.703 241.725 204.726 240.973 206.031C240.221 207.336 232.444 207.902 232.444 207.902L228.278 211.91L224.505 209.3Z" fill="#EEC1BB"/>
<path d="M252.372 318.772C250.879 340.206 246.887 370.626 246.887 370.626L241.748 371.781C241.748 371.781 237.004 346.316 237.756 322.687C237.89 317.536 238.378 312.4 239.214 307.315C239.214 307.315 221.415 300.49 209.056 294.38C203.154 291.47 198.49 288.71 197.599 286.931C194.845 281.446 207.366 268.557 207.366 268.557C207.76 268.869 215.317 273.673 224.112 279.367C235.788 286.92 249.641 296.043 251.886 298.319C253.228 299.624 253.113 308.077 252.372 318.772Z" fill="#EEC1BB"/>
<path opacity="0.2" d="M252.372 318.771C247.622 320.49 242.732 321.792 237.756 322.663C237.89 317.512 238.377 312.377 239.214 307.292C239.214 307.292 221.415 300.466 209.056 294.357L224.1 279.344C235.777 286.896 249.629 296.02 251.874 298.295C253.228 299.623 253.113 308.077 252.372 318.771Z" fill="black"/>
<path d="M212.308 264.977C212.308 264.977 261.688 293.306 268.4 299.705C275.112 306.103 313.857 365.891 313.857 365.891L310.593 368.998C310.593 368.998 278.422 341.442 265.588 315.249L212.354 289.576L212.308 264.977Z" fill="#EEC1BB"/>
<path d="M174.743 212.672C174.823 212.727 174.908 212.773 174.998 212.81C176.21 213.496 177.548 213.932 178.933 214.092C182.96 214.45 185.552 213.55 187.033 211.54C189.093 208.561 189.047 203.802 187.913 198.201C187.537 195.96 186.807 193.792 185.749 191.78C185.749 191.78 185.749 191.699 185.749 191.688L185.61 191.457C184.966 190.33 184.049 189.382 182.943 188.7C181.837 188.018 180.578 187.624 179.28 187.553C178.15 187.46 177.013 187.491 175.889 187.645C164.895 189.066 165.485 207.567 174.743 212.672Z" fill="#EEC1BB"/>
<path opacity="0.2" d="M175.044 212.81C176.259 213.458 177.594 213.851 178.967 213.965C182.983 214.323 185.564 213.284 187.068 211.263C184.817 212.158 182.336 212.3 179.997 211.667C179.139 211.469 178.247 211.469 177.388 211.667C176.53 211.865 175.728 212.256 175.044 212.81Z" fill="black"/>
<path d="M174.304 221.842C173.343 224.937 177.312 226.577 177.312 226.577C184.256 224.267 185.818 220.883 185.818 220.883C180.495 217.419 182.833 209.404 182.833 209.404L181.675 209.866L173.575 210.72C173.575 210.72 175.415 215.144 175.623 216.137C176.641 221.345 174.304 221.842 174.304 221.842Z" fill="#EBB376"/>
<path d="M185.818 191.676C185.818 191.676 187.508 199.31 180.645 203.641C180.645 203.641 178.62 212.106 174.003 212.88C167.707 213.919 160.891 205.731 161.794 196.284C162.974 184.065 180.819 180.589 185.818 191.676Z" fill="#263238"/>
<path d="M184.001 200.915C183.828 199.76 182.578 197.82 180.738 198.363C178.898 198.906 178.423 203.837 183.353 204.241C184.106 204.38 184.406 203.456 184.001 200.915Z" fill="#EBB376"/>
<path d="M311.705 362.218L306.381 366.307C306.272 366.394 306.196 366.516 306.164 366.652C306.133 366.788 306.148 366.931 306.208 367.057L308.916 372.832C308.974 372.954 309.056 373.064 309.156 373.155C309.257 373.245 309.375 373.315 309.503 373.36C309.631 373.405 309.767 373.425 309.902 373.417C310.038 373.41 310.17 373.376 310.293 373.317C310.362 373.285 310.428 373.246 310.489 373.201C312.642 371.481 312.711 371.215 315.454 369.113C317.132 367.82 322.398 364.078 324.712 362.288C327.027 360.498 325.568 357.968 324.457 358.488C319.458 360.798 315.199 362.034 312.885 361.86C312.46 361.828 312.039 361.956 311.705 362.218Z" fill="#263238"/>
<path d="M312.862 362.114C312.832 362.129 312.799 362.134 312.766 362.129C312.734 362.123 312.704 362.109 312.68 362.086C312.656 362.064 312.64 362.034 312.633 362.002C312.626 361.97 312.629 361.937 312.642 361.907C312.746 361.629 313.695 359.146 314.551 358.996C314.646 358.976 314.745 358.984 314.835 359.018C314.926 359.053 315.004 359.114 315.06 359.193C315.178 359.31 315.265 359.455 315.311 359.614C315.358 359.774 315.363 359.943 315.327 360.105C315.189 360.577 314.89 360.985 314.482 361.26C313.976 361.606 313.433 361.893 312.862 362.114ZM313.105 361.641C313.921 361.364 314.601 360.786 315.003 360.024C315.025 359.915 315.02 359.801 314.988 359.695C314.955 359.588 314.897 359.49 314.817 359.412C314.725 359.32 314.644 359.296 314.609 359.331C314.537 359.345 314.469 359.377 314.412 359.424C313.839 360.073 313.395 360.826 313.105 361.641Z" fill="#EF4E23"/>
<path d="M312.85 362.172C312.821 362.173 312.793 362.168 312.766 362.156C312.74 362.144 312.717 362.126 312.699 362.103C312.699 362.022 311.542 360.325 311.785 359.308C311.813 359.185 311.865 359.068 311.938 358.965C312.012 358.862 312.105 358.774 312.213 358.708C312.312 358.629 312.434 358.586 312.561 358.586C312.687 358.586 312.809 358.629 312.908 358.708C313.475 359.204 313.301 361.272 312.966 362.022L312.908 362.08L312.85 362.172ZM312.075 359.331C312.071 360.13 312.309 360.911 312.757 361.572C313.034 360.708 312.993 359.775 312.642 358.939C312.642 358.939 312.514 358.812 312.352 358.939H312.283C312.168 359.04 312.094 359.18 312.075 359.331Z" fill="#EF4E23"/>
<path d="M247.789 367.219L241.066 367.346C240.928 367.354 240.796 367.406 240.691 367.496C240.587 367.586 240.515 367.708 240.487 367.843L239.226 374.091C239.188 374.352 239.252 374.617 239.405 374.832C239.558 375.047 239.788 375.195 240.047 375.246C240.124 375.257 240.202 375.257 240.279 375.246C243.021 375.142 243.241 374.969 246.701 374.899C248.831 374.899 255.254 374.957 258.193 374.899C261.132 374.842 261.456 371.931 260.253 371.689C254.825 370.626 250.74 369.079 248.981 367.566C248.643 367.302 248.216 367.178 247.789 367.219Z" fill="#263238"/>
<path d="M248.391 367.959C248.357 367.953 248.326 367.937 248.303 367.912C248.28 367.886 248.266 367.854 248.264 367.82C248.255 367.789 248.257 367.756 248.27 367.727C248.282 367.697 248.305 367.673 248.333 367.658C248.576 367.497 250.81 366.064 251.597 366.446C251.686 366.486 251.762 366.55 251.815 366.632C251.869 366.714 251.897 366.81 251.898 366.908C251.921 367.072 251.902 367.24 251.843 367.395C251.785 367.55 251.688 367.688 251.562 367.797C251.173 368.077 250.698 368.212 250.22 368.178C249.604 368.174 248.99 368.101 248.391 367.959ZM248.866 367.716C249.687 367.978 250.577 367.916 251.354 367.543C251.436 367.468 251.497 367.374 251.534 367.269C251.57 367.164 251.58 367.052 251.562 366.942C251.562 366.815 251.493 366.757 251.458 366.757C251.385 366.741 251.31 366.741 251.238 366.757C250.394 366.925 249.589 367.25 248.866 367.716Z" fill="#EF4E23"/>
<path d="M248.345 367.993C248.318 367.979 248.295 367.957 248.281 367.93C248.266 367.903 248.26 367.873 248.264 367.843C248.264 367.75 248.391 365.741 249.19 365.059C249.284 364.974 249.396 364.91 249.518 364.872C249.64 364.834 249.769 364.823 249.895 364.84C250.022 364.837 250.145 364.878 250.244 364.956C250.344 365.034 250.413 365.144 250.439 365.267C250.59 365.995 249.282 367.577 248.507 367.97H248.426C248.403 367.987 248.374 367.995 248.345 367.993ZM249.409 365.256C248.932 365.896 248.658 366.664 248.622 367.461C249.34 366.907 250.208 365.718 250.104 365.267C250.104 365.267 250.104 365.106 249.861 365.106H249.78C249.642 365.108 249.51 365.161 249.409 365.256Z" fill="#EF4E23"/>
<path d="M210.931 257.389L186.432 267.656C176.306 242.537 162.534 230.457 162.534 230.457C172.348 218.712 190.47 213.307 190.47 213.307C193.147 215.481 195.456 218.07 197.31 220.976C199.353 224.132 201.133 227.45 202.633 230.896C206.273 239.43 209.053 248.305 210.931 257.389Z" fill="#3A75F6"/>
<path d="M185.587 196.781C185.587 196.781 193.282 188.95 185.911 183.788C178.539 178.626 171.225 185.52 171.225 185.52C171.225 185.52 153.716 189.921 157.558 201.527C161.4 213.134 163.853 214.092 158.356 220.121C152.86 226.149 147.258 235.042 152.998 240.643C158.738 246.245 178.527 240.239 184.464 231.647C190.401 223.054 179.592 204.842 185.587 196.781Z" fill="#263238"/>
<path d="M209.149 249.86L182.532 258.972C182.532 258.972 188.422 287.902 192.692 292.741C196.963 297.58 225.512 319.984 229.551 318.218C233.59 316.451 260.38 292.741 260.38 292.741L215.051 261.72L209.149 249.86Z" fill="#263238"/>
<path d="M205.272 255.299L210.931 253.428L209.531 250.633L204.172 252.516L205.272 255.299Z" fill="black"/>
<path d="M188.353 258.071L182.555 260.103L183.33 262.575L189.001 260.692L188.353 258.071Z" fill="black"/>
<path d="M190.216 260.288L204.138 255.68L203.096 252.885L189.452 257.678L190.216 260.288Z" fill="black"/>
<path opacity="0.2" d="M202.633 230.942C196.777 230.261 193.479 221.472 193.479 221.472C194.746 221.245 196.025 221.095 197.31 221.022C199.353 224.178 201.133 227.496 202.633 230.942Z" fill="black"/>
<path d="M190.47 213.307C196.835 212.36 211.069 217.511 212.308 217.453C213.546 217.395 227.352 206.562 227.352 206.562L230.94 209.715C230.94 209.715 216.474 224.602 213.5 224.729C210.526 224.856 194.984 223.736 194.984 223.736C194.984 223.736 191.176 222.384 190.447 218.954C190.003 217.097 190.011 215.161 190.47 213.307Z" fill="#3A75F6"/>
</svg>
