<svg width="322" height="200" viewBox="0 0 322 200" fill="none" xmlns="http://www.w3.org/2000/svg">
<g clip-path="url(#clip0_8732_57620)">
<rect width="322" height="200" fill="url(#paint0_linear_8732_57620)"/>
<path d="M128.926 179.494H17.2953C16.4208 179.492 15.5827 179.144 14.9648 178.525C14.347 177.906 14 177.067 14 176.193V19.2722C14.0076 18.4027 14.358 17.5713 14.975 16.9587C15.592 16.346 16.4258 16.0015 17.2953 16H128.926C129.801 16 130.641 16.3478 131.26 16.9669C131.879 17.5859 132.227 18.4256 132.227 19.3011V176.193C132.227 177.068 131.879 177.908 131.26 178.527C130.641 179.146 129.801 179.494 128.926 179.494ZM17.2953 16.1156C16.4591 16.1172 15.6577 16.4504 15.067 17.0422C14.4763 17.634 14.1445 18.436 14.1445 19.2722V176.193C14.1445 177.029 14.4763 177.831 15.067 178.423C15.6577 179.015 16.4591 179.348 17.2953 179.349H128.926C129.762 179.348 130.564 179.015 131.156 178.423C131.748 177.832 132.081 177.03 132.082 176.193V19.2722C132.081 18.4355 131.748 17.6335 131.156 17.0418C130.564 16.4502 129.762 16.1172 128.926 16.1156H17.2953Z" fill="#FFFBF5"/>
<path d="M303.937 179.494H192.301C191.426 179.492 190.587 179.144 189.969 178.525C189.35 177.907 189.002 177.068 189 176.193V19.2722C189.009 18.4022 189.361 17.5708 189.979 16.9583C190.597 16.3458 191.431 16.0015 192.301 16H303.937C304.806 16.003 305.638 16.3482 306.254 16.9607C306.87 17.5732 307.219 18.4037 307.227 19.2722V176.193C307.227 177.066 306.88 177.904 306.264 178.523C305.647 179.142 304.811 179.491 303.937 179.494ZM192.301 16.1156C191.464 16.1172 190.662 16.4502 190.071 17.0418C189.479 17.6335 189.146 18.4355 189.145 19.2722V176.193C189.146 177.03 189.479 177.832 190.071 178.423C190.662 179.015 191.464 179.348 192.301 179.349H303.937C304.774 179.348 305.576 179.015 306.167 178.423C306.759 177.832 307.092 177.03 307.094 176.193V19.2722C307.092 18.4355 306.759 17.6335 306.167 17.0418C305.576 16.4502 304.774 16.1172 303.937 16.1156H192.301Z" fill="#FFFBF5"/>
<path d="M55.3126 203.278H64.9442L64.9442 143.627H55.3126L55.3126 203.278Z" fill="#F5F1EA"/>
<path d="M181.604 143.622H64.9442V203.273H181.604V143.622Z" fill="#F6EFE6"/>
<path d="M182.373 171.609H76.0037V196.769H182.373V171.609Z" fill="#FAFAFA"/>
<path d="M182.373 154.34H76.0037V167.4H182.373V154.34Z" fill="#FAFAFA"/>
<g style="mix-blend-mode:multiply" opacity="0.7">
<path d="M75.3446 196.763H76.0037V171.603H75.3446V196.763Z" fill="#F6EFE6"/>
</g>
<g style="mix-blend-mode:multiply" opacity="0.7">
<path d="M75.3446 167.4H76.0037V154.34H75.3446V167.4Z" fill="#F6EFE6"/>
</g>
<g style="mix-blend-mode:multiply" opacity="0.7">
<path d="M55.3067 148.426L181.818 148.426V146.749L55.3067 146.749V148.426Z" fill="#F6EFE6"/>
</g>
<path d="M54.1794 147.461H64.9384V142.61H54.1794V147.461Z" fill="#F5F1EA"/>
<path d="M182.732 142.61H64.9442V147.46H182.732V142.61Z" fill="#F6EFE6"/>
<path d="M240.486 188.288C239.67 186.426 239.035 184.49 238.59 182.506C238.117 180.511 237.76 178.49 237.52 176.453C237.042 172.386 236.924 168.285 237.168 164.197C237.667 156.011 239.296 147.933 242.007 140.193L243.047 137.303L244.175 134.458C244.556 133.516 244.978 132.585 245.4 131.66C245.822 130.735 246.221 129.793 246.678 128.885C247.62 127.076 248.476 125.231 249.517 123.485L251.025 120.838L252.65 118.265C256.962 111.409 262.162 105.154 268.115 99.6609C267.305 101.528 266.444 103.338 265.56 105.124C264.675 106.911 263.825 108.714 262.981 110.501C261.293 114.079 259.582 117.606 257.998 121.173L256.795 123.844L255.639 126.521C254.853 128.295 254.136 130.099 253.39 131.88L252.32 134.574C251.962 135.476 251.604 136.366 251.291 137.28L250.268 139.985L249.326 142.714C246.791 149.986 244.745 157.42 243.203 164.966C242.435 168.747 241.781 172.568 241.325 176.448C240.813 180.374 240.533 184.328 240.486 188.288Z" fill="#F6EFE6"/>
<path d="M202.526 174.309C203.106 167.642 202.947 160.932 202.052 154.3C201.966 153.496 201.815 152.693 201.682 151.895C201.549 151.097 201.416 150.299 201.26 149.513C201.104 148.727 200.925 147.935 200.752 147.148L200.491 145.992L200.185 144.836C199.399 141.733 198.414 138.684 197.237 135.707C194.857 129.689 191.856 123.937 188.281 118.543L186.929 116.473C186.455 115.802 185.963 115.132 185.501 114.444L184.772 113.438C184.535 113.097 184.269 112.779 184.026 112.438L182.529 110.414C182.055 109.709 181.5 109.079 180.991 108.402C180.483 107.726 179.951 107.061 179.442 106.367C178.372 105.032 177.285 103.696 176.262 102.257C182.599 105.347 188.296 109.603 193.057 114.802C197.964 120.052 201.836 126.182 204.469 132.869C207.111 139.599 208.356 146.796 208.128 154.022C208.006 157.587 207.498 161.129 206.614 164.585C206.162 166.293 205.606 167.973 204.949 169.614C204.301 171.257 203.49 172.829 202.526 174.309Z" fill="#F6EFE6"/>
<path d="M204.267 174.308C204.376 170.204 204.388 166.186 204.296 162.168C204.203 158.15 204.047 154.213 203.717 150.282C203.151 142.484 202.05 134.734 200.422 127.087C199.989 125.197 199.59 123.289 199.058 121.422C198.618 119.531 198.017 117.687 197.491 115.808C196.335 112.108 195.069 108.419 193.606 104.789C190.715 97.4929 187.067 90.486 183.113 83.271C186.347 85.8369 189.305 88.7314 191.941 91.9082C194.617 95.0932 197.004 98.5099 199.075 102.118L200.596 104.852C201.087 105.772 201.509 106.726 201.971 107.668L202.648 109.079C202.873 109.553 203.053 110.044 203.255 110.524L204.44 113.414C205.145 115.38 205.851 117.357 206.429 119.363C207.007 121.369 207.498 123.41 207.99 125.434C209.729 133.588 210.334 141.944 209.788 150.264C209.512 154.391 208.933 158.491 208.053 162.532C207.614 164.544 207.088 166.544 206.469 168.51C205.87 170.491 205.134 172.429 204.267 174.308Z" fill="#F6EFE6"/>
<path d="M238.411 179.24C237.382 176.887 236.439 174.494 235.578 172.089C235.139 170.88 234.728 169.672 234.306 168.464L233.15 164.816C231.606 159.936 230.259 154.988 229.045 150.05C226.645 140.112 224.806 130.046 223.536 119.901C222.27 109.738 221.661 99.5027 221.715 89.2606C221.776 86.7014 221.865 84.1384 221.98 81.5715C222.038 79.0162 222.362 76.4551 222.587 73.8998C222.813 71.3444 223.09 68.8007 223.576 66.2685C224.062 63.7363 224.49 61.2157 225.033 58.7124C226.016 68.951 226.767 78.9468 227.796 88.9888C228.825 99.0309 229.976 108.98 231.219 118.959L235.011 148.952C236.266 158.977 237.503 169.013 238.411 179.24Z" fill="#F6EFE6"/>
<path d="M236.723 177.61C235.509 175.361 234.375 173.066 233.317 170.747C232.78 169.591 232.271 168.435 231.751 167.279L230.265 163.735C228.322 159.029 226.565 154.259 224.917 149.444C221.666 139.802 218.938 129.993 216.743 120.057C214.537 110.096 212.948 100.008 211.985 89.8504C211.784 87.3066 211.609 84.7609 211.458 82.2133C211.268 79.6753 211.314 77.1085 211.268 74.5589C211.221 72.0094 211.233 69.4599 211.43 66.8988C211.626 64.3377 211.776 61.7997 212.042 59.2617C214.17 69.2806 215.962 79.1319 218.009 88.9658C220.055 98.7997 222.125 108.582 224.287 118.375L230.756 147.802C232.878 157.647 234.994 167.51 236.723 177.61Z" fill="#F6EFE6"/>
<path d="M243.331 190.282C241.862 188.448 240.471 186.565 239.157 184.634C238.492 183.674 237.844 182.697 237.202 181.744L235.329 178.766C234.086 176.783 232.924 174.766 231.757 172.748C231.178 171.742 230.629 170.713 230.068 169.69C229.508 168.666 228.953 167.643 228.415 166.608C224.126 158.327 220.364 149.782 217.153 141.026C213.919 132.26 211.323 123.272 209.383 114.132C208.932 111.819 208.502 109.52 208.094 107.235C207.689 104.922 207.452 102.61 207.157 100.297L206.782 96.8285C206.672 95.6722 206.631 94.487 206.579 93.3192C206.464 90.9797 206.412 88.6403 206.423 86.3008C209.562 95.1519 212.204 103.905 215.257 112.559C218.309 121.214 221.235 129.799 224.426 138.373L233.953 164.145C237.15 172.771 240.376 181.391 243.331 190.282Z" fill="#F6EFE6"/>
<path d="M233.375 175.748C231.905 174.165 230.518 172.507 229.219 170.782C227.889 169.082 226.675 167.313 225.438 165.544C224.2 163.775 223.073 161.948 221.969 160.104C221.391 159.185 220.876 158.26 220.333 157.329C219.789 156.398 219.24 155.473 218.749 154.519C217.743 152.617 216.702 150.733 215.766 148.796C214.829 146.859 213.921 144.911 213.008 142.963C212.094 141.014 211.343 138.997 210.505 137.014L209.926 135.516L209.348 134.002L208.238 130.972C206.741 126.925 205.556 122.792 204.353 118.658C203.845 116.565 203.307 114.478 202.827 112.38C202.602 111.327 202.313 110.293 202.128 109.229L201.549 106.049C201.353 104.991 201.185 103.927 201.006 102.864C200.827 101.8 200.619 100.754 200.526 99.6725C200.283 97.5295 200.067 95.3866 199.879 93.2437C199.803 92.1684 199.671 91.1046 199.642 90.0235C199.613 88.9424 199.578 87.8671 199.572 86.7918C199.538 84.6373 199.563 82.4829 199.647 80.3284C202.538 88.4973 204.741 96.6026 207.458 104.575C208.672 108.622 210.111 112.536 211.372 116.525L213.436 122.456C213.777 123.445 214.083 124.445 214.436 125.428L215.517 128.376C216.87 132.337 218.379 136.239 219.789 140.188C220.535 142.147 221.292 144.096 222.004 146.073L224.247 151.964L228.791 163.787C230.346 167.735 231.878 171.701 233.375 175.748Z" fill="#F6EFE6"/>
<path d="M241.33 185.044C240.169 183.462 239.175 181.763 238.364 179.974C237.53 178.189 236.81 176.353 236.208 174.476C235.021 170.71 234.202 166.838 233.763 162.914C233.32 158.986 233.194 155.028 233.387 151.08C233.45 149.102 233.676 147.142 233.867 145.177C234.057 143.211 234.404 141.269 234.78 139.338C236.26 131.628 238.702 124.135 242.047 117.034C245.285 109.947 249.473 103.335 254.494 97.3774C253.974 99.2621 253.407 101.11 252.794 102.922C252.245 104.766 251.638 106.57 251.06 108.373L249.36 113.785C248.846 115.6 248.204 117.369 247.736 119.173C245.598 126.271 243.817 133.472 242.4 140.748C241.691 144.364 241.124 147.992 240.7 151.635C240.276 155.277 239.987 158.938 239.833 162.619C239.694 166.302 239.717 170.007 239.943 173.736C240.135 177.534 240.598 181.313 241.33 185.044Z" fill="#F6EFE6"/>
<path d="M238.318 174.384C237.328 172.626 236.449 170.807 235.688 168.938C234.902 167.07 234.225 165.168 233.589 163.249C232.348 159.389 231.365 155.451 230.647 151.461C229.928 147.448 229.466 143.393 229.265 139.32C229.225 138.303 229.207 137.28 229.184 136.256C229.161 135.233 229.184 134.21 229.184 133.187C229.184 132.163 229.259 131.14 229.311 130.117C229.363 129.093 229.421 128.07 229.531 127.047C229.641 126.024 229.733 125 229.872 123.983L230.317 120.93C230.485 119.913 230.716 118.907 230.895 117.895C230.999 117.392 231.092 116.883 231.202 116.386C231.312 115.889 231.456 115.38 231.589 114.883C232.572 110.875 233.927 106.967 235.636 103.211C239.018 95.6951 243.926 88.8501 250.147 83.6816C249.719 84.6124 249.251 85.497 248.817 86.3988L248.135 87.717L247.516 89.0756L246.268 91.7407L245.14 94.4406C243.678 97.9993 242.423 101.64 241.383 105.344L240.972 106.714L240.631 108.102C240.4 109.027 240.134 109.94 239.926 110.871C239.718 111.802 239.538 112.732 239.319 113.657C239.099 114.582 238.966 115.525 238.787 116.461C238.7 116.924 238.619 117.392 238.521 117.86C238.423 118.329 238.376 118.797 238.301 119.265C238.162 120.208 237.995 121.144 237.885 122.092L237.521 124.919C237.405 125.867 237.341 126.821 237.243 127.77C237.145 128.718 237.064 129.666 237 130.62C236.937 131.574 236.856 132.527 236.821 133.481C236.786 134.435 236.7 135.395 236.677 136.372C236.653 137.349 236.636 138.291 236.59 139.263C236.509 143.107 236.555 146.963 236.677 150.825C236.925 158.56 237.538 166.359 238.318 174.384Z" fill="#F6EFE6"/>
<path d="M230.381 166.486L204.978 116.375L205.995 165.515L230.381 166.486Z" fill="#F6EFE6"/>
<path d="M249.933 153.126H198.867L205.55 203.278H243.244L249.933 153.126Z" fill="#F6EFE6"/>
<path d="M218.032 153.126H198.867L205.55 203.278H215.615L218.032 153.126Z" fill="#FFFBF5"/>
<path d="M88.9079 135.216H72.333V142.61H88.9079V135.216Z" fill="#E0E0E0"/>
<path d="M126.653 142.61H88.9072V135.216H126.653C126.915 135.216 127.167 135.32 127.352 135.505C127.537 135.691 127.642 135.942 127.642 136.204V141.627C127.64 141.888 127.535 142.138 127.35 142.322C127.165 142.507 126.914 142.61 126.653 142.61Z" fill="#F5F1EA"/>
<path d="M87.7979 136.176H72.333V141.645H87.7979V136.176Z" fill="#F5F1EA"/>
<path d="M92.2428 129.816H75.668V135.21H92.2428V129.816Z" fill="#F6EFE6"/>
<path d="M121.583 135.216H92.2428V129.822H121.583C121.845 129.822 122.096 129.926 122.282 130.111C122.467 130.297 122.571 130.548 122.571 130.81V134.25C122.565 134.509 122.458 134.754 122.274 134.934C122.089 135.115 121.841 135.216 121.583 135.216Z" fill="#FAFAFA"/>
<path d="M113.038 129.816H100.464V135.21H113.038V129.816Z" fill="#F6EFE6"/>
<path d="M91.1328 130.782H75.668V134.25H91.1328V130.782Z" fill="#F6EFE6"/>
<path d="M237.953 69.0272C239.586 63.7388 222.881 62.5356 218.855 72.035C213.216 85.3421 221.44 92.8252 221.44 92.8252C226.233 90.2537 235.606 89.8703 240.73 91.5692L237.953 69.0272Z" fill="#263238"/>
<path d="M222.28 130.453C221.44 136.799 224.302 166.903 226.715 180.032C229.921 197.477 232.956 235.303 232.956 235.303L239.903 234.886C239.903 234.886 240.743 193.418 238.614 179.358C238.475 160.908 238.806 128.595 238.806 128.595L222.28 130.453Z" fill="#60696E"/>
<path opacity="0.2" d="M238.647 148.704C238.647 144.024 235.183 140.329 234.317 149.266C233.769 154.958 235.983 164.503 238.581 171.114C238.575 163.915 238.608 155.85 238.647 148.704Z" fill="black"/>
<path d="M230.212 129.56C230.212 129.56 240.928 168.794 246.309 180.369C249.806 198.25 262.32 235.726 262.32 235.726L269.591 235.223C269.591 235.223 261.659 197.305 256.78 179.695C254.136 163.333 252.41 136.065 244.881 127.907L230.212 129.56Z" fill="#60696E"/>
<path d="M219.827 101.273C219.688 104.579 219.404 107.785 219.014 111.031C218.624 114.276 218.148 117.489 217.52 120.708L217.275 121.918L217.143 122.579C217.061 122.969 216.935 123.348 216.766 123.71C216.511 124.278 216.118 124.773 215.623 125.151C215.007 125.602 214.258 125.835 213.494 125.812C212.999 125.793 212.511 125.685 212.053 125.494C211.738 125.363 211.434 125.204 211.147 125.019C210.317 124.453 209.56 123.787 208.893 123.035C208.292 122.374 207.743 121.713 207.221 121.052C205.229 118.412 203.46 115.61 201.932 112.677C201.772 112.367 201.731 112.01 201.817 111.672C201.903 111.334 202.11 111.04 202.399 110.845C202.688 110.65 203.038 110.568 203.384 110.614C203.729 110.66 204.045 110.832 204.272 111.097C206.308 113.503 208.364 115.969 210.519 118.137C211.048 118.679 211.59 119.201 212.132 119.664C212.582 120.08 213.079 120.441 213.613 120.741C213.699 120.775 213.778 120.814 213.785 120.801C213.792 120.788 213.745 120.755 213.514 120.735C213.155 120.729 212.805 120.84 212.516 121.052C212.332 121.179 212.181 121.346 212.073 121.541L212.152 120.993L212.317 119.823C212.734 116.709 213.064 113.562 213.369 110.416C213.673 107.269 213.904 104.083 214.116 100.976V100.936C214.158 100.18 214.498 99.4709 215.063 98.9657C215.628 98.4605 216.37 98.2004 217.127 98.2424C217.883 98.2845 218.592 98.6254 219.097 99.1901C219.602 99.7548 219.863 100.497 219.82 101.254L219.827 101.273Z" fill="#B55B52"/>
<path d="M217.401 96.8581C212.496 99.2578 213.263 105.617 213.263 105.617L221.109 111.144C221.109 111.144 223.978 104.236 223.383 100.924C222.769 97.5192 221.037 95.1064 217.401 96.8581Z" fill="#D5B689"/>
<path opacity="0.2" d="M216.588 102.186C217.738 100.375 219.715 100.811 222.015 102.252C222.55 102.716 222.997 103.271 223.337 103.892C222.844 106.38 222.113 108.815 221.156 111.163L215.623 107.27C215.403 105.516 215.74 103.737 216.588 102.186Z" fill="black"/>
<path d="M204.643 111.996L203.472 107.521L199.506 111.09C199.506 111.09 200.941 113.483 203.248 113.807L204.643 111.996Z" fill="#B55B52"/>
<path d="M200.432 105.696L199.625 106.496C199.012 107.096 198.657 107.911 198.633 108.768C198.61 109.625 198.92 110.458 199.499 111.091L203.466 107.521L202.355 105.888C202.251 105.736 202.115 105.608 201.957 105.514C201.798 105.421 201.621 105.362 201.438 105.344C201.255 105.326 201.07 105.348 200.896 105.409C200.722 105.47 200.564 105.568 200.432 105.696Z" fill="#B55B52"/>
<path d="M202.441 106C201.44 104.656 200.532 103.245 199.724 101.776C199.473 101.274 198.66 101.974 199.063 102.708C199.466 103.442 200.213 105.835 201.007 106.707C201.8 107.58 202.441 106 202.441 106Z" fill="#B55B52"/>
<path d="M215.583 100.486C216.978 113.258 221.142 122.162 222.279 130.452L244.848 127.927C243.572 119.631 242.924 114.203 244.511 98.8404C244.581 98.1723 244.511 97.4969 244.305 96.8574C244.1 96.2179 243.763 95.6281 243.317 95.1256C242.872 94.6232 242.326 94.2191 241.715 93.9391C241.105 93.659 240.443 93.5092 239.771 93.499C238.396 93.499 236.876 93.499 235.342 93.5982C231.903 93.7339 228.479 94.1183 225.096 94.7484C222.716 95.2376 220.184 95.9251 218.373 96.4539C217.511 96.6967 216.761 97.2322 216.252 97.9682C215.743 98.7042 215.506 99.5947 215.583 100.486Z" fill="#D5B689"/>
<path d="M225.096 94.7355C225.096 94.7355 221.473 98.6556 226.874 103.99C228.884 99.9276 231.778 96.3658 235.342 93.5654L225.096 94.7355Z" fill="white"/>
<path d="M233.035 82.1562C232.757 85.5276 232.79 91.6424 235.342 93.5859C235.342 93.5859 229.703 96.6532 226.662 102.047C222.696 98.0811 225.096 94.7361 225.096 94.7361C228.672 93.414 228.275 90.7235 227.343 88.238L233.035 82.1562Z" fill="#B55B52"/>
<path opacity="0.2" d="M232.414 82.8235C232.585 84.7905 232.335 86.7715 231.68 88.6342C231.224 89.9166 229.65 90.6504 227.984 90.9611C227.905 90.0248 227.682 89.1062 227.323 88.2375L232.414 82.8235Z" fill="black"/>
<path d="M237.821 77.4424C236.843 82.9027 236.538 85.2362 233.432 87.735C228.751 91.4898 222.26 89.0902 221.592 83.4448C220.99 78.3612 222.703 70.2831 228.341 68.723C229.584 68.374 230.895 68.3484 232.15 68.6488C233.405 68.9491 234.563 69.5654 235.513 70.4391C236.463 71.3128 237.173 72.4149 237.577 73.6407C237.981 74.8664 238.065 76.1751 237.821 77.4424Z" fill="#B55B52"/>
<path d="M233.61 73.0598C232.288 75.9817 233.445 80.9396 237.636 80.6355C234.245 84.5027 235.051 92.9841 235.051 92.9841C237.172 93.1353 239.291 92.6765 241.159 91.662C241.159 91.662 239.837 83.6433 241.232 78.0178C242.369 73.4433 242.204 64.5653 232.288 66.4956C231.131 66.7203 223.595 68.6969 222.835 72.6566C222.775 73.0136 230.88 75.3603 233.61 73.0598Z" fill="#263238"/>
<path d="M239.064 80.5427C238.946 81.0609 238.727 81.5508 238.42 81.9841C238.113 82.4175 237.723 82.7858 237.272 83.068C236.063 83.815 235.064 82.83 235.071 81.4814C235.071 80.2651 235.732 78.4141 237.087 78.2158C237.388 78.1764 237.694 78.213 237.978 78.3223C238.261 78.4316 238.512 78.6101 238.709 78.8414C238.905 79.0728 239.041 79.3497 239.103 79.6469C239.165 79.9441 239.151 80.2521 239.064 80.5427Z" fill="#B55B52"/>
<path opacity="0.2" d="M240.961 102.503C240.874 103.631 241.084 104.762 241.572 105.783C242.059 106.804 242.806 107.679 243.737 108.321C243.856 106.033 244.055 103.469 244.346 100.52C243.195 99.2841 241.232 100.362 240.961 102.503Z" fill="black"/>
<path d="M245.013 126.559L246.256 128.463C246.355 128.615 246.19 128.794 245.926 128.82L222.26 131.464C222.055 131.464 221.876 131.405 221.85 131.279L221.414 129.296C221.414 129.157 221.552 129.019 221.771 128.992L244.63 126.427C244.7 126.414 244.772 126.419 244.839 126.443C244.906 126.466 244.966 126.506 245.013 126.559Z" fill="#A73719"/>
<path d="M242.257 129.461L242.871 129.388C242.99 129.388 243.076 129.302 243.063 129.23L242.481 126.632C242.481 126.559 242.349 126.506 242.224 126.519L241.615 126.592C241.49 126.592 241.404 126.678 241.424 126.751L242.005 129.342C242.019 129.421 242.138 129.474 242.257 129.461Z" fill="#EF4E23"/>
<path d="M224.031 131.503L224.639 131.437C224.765 131.437 224.851 131.345 224.831 131.272L224.249 128.681C224.249 128.601 224.117 128.555 223.998 128.568L223.383 128.635C223.264 128.635 223.179 128.72 223.192 128.8L223.774 131.391C223.793 131.464 223.906 131.517 224.031 131.503Z" fill="#263238"/>
<path d="M233.114 130.479L233.729 130.413C233.848 130.413 233.934 130.327 233.921 130.247L233.339 127.656C233.339 127.583 233.207 127.531 233.088 127.544L232.473 127.61C232.354 127.61 232.268 127.696 232.281 127.775L232.863 130.366C232.909 130.446 233.022 130.492 233.114 130.479Z" fill="#263238"/>
<path d="M228.487 77.9983C228.434 78.4479 228.156 78.785 227.865 78.7519C227.575 78.7189 227.376 78.3222 227.429 77.8793C227.482 77.4364 227.76 77.0927 228.057 77.1257C228.355 77.1588 228.56 77.5554 228.487 77.9983Z" fill="#263238"/>
<path d="M223.443 77.4031C223.39 77.8526 223.112 78.1898 222.822 78.1567C222.531 78.1237 222.332 77.727 222.385 77.2841C222.438 76.8412 222.716 76.4975 223.046 76.5305C223.377 76.5636 223.496 76.9602 223.443 77.4031Z" fill="#263238"/>
<path d="M223.139 76.5703L222.094 76.134C222.094 76.134 222.537 77.0265 223.139 76.5703Z" fill="#263238"/>
<path d="M224.692 78.3479C224.172 79.313 223.523 80.2026 222.762 80.9921C222.971 81.1821 223.219 81.3238 223.488 81.4072C223.758 81.4906 224.043 81.5136 224.322 81.4747L224.692 78.3479Z" fill="#A02724"/>
<path d="M225.578 83.0553C225.557 83.0409 225.54 83.021 225.53 82.9976C225.519 82.9743 225.515 82.9485 225.519 82.9231C225.521 82.9057 225.527 82.8889 225.536 82.8738C225.545 82.8586 225.557 82.8454 225.571 82.835C225.585 82.8245 225.601 82.817 225.618 82.8128C225.636 82.8086 225.653 82.8079 225.671 82.8108C226.223 82.9074 226.791 82.8721 227.328 82.7078C227.864 82.5436 228.354 82.2549 228.758 81.8655C228.77 81.8524 228.784 81.8418 228.8 81.8343C228.815 81.8267 228.833 81.8224 228.85 81.8215C228.868 81.8206 228.885 81.8231 228.902 81.8289C228.918 81.8348 228.933 81.8438 228.946 81.8555C228.959 81.8672 228.97 81.8814 228.977 81.8972C228.985 81.913 228.989 81.9302 228.99 81.9477C228.991 81.9652 228.989 81.9827 228.983 81.9992C228.977 82.0157 228.968 82.0309 228.956 82.0439C228.527 82.4666 228.003 82.7807 227.429 82.9601C226.854 83.1395 226.244 83.1789 225.651 83.0752L225.578 83.0553Z" fill="#263238"/>
<path d="M230.913 75.645C230.873 75.6247 230.841 75.5923 230.82 75.5524C230.659 75.2609 230.431 75.0114 230.156 74.8242C229.88 74.637 229.564 74.5173 229.234 74.4749C229.164 74.4749 229.096 74.447 229.047 74.3974C228.997 74.3479 228.969 74.2806 228.969 74.2105C228.969 74.1403 228.997 74.0731 229.047 74.0235C229.096 73.9739 229.164 73.946 229.234 73.946C229.651 73.9908 230.051 74.134 230.401 74.3639C230.752 74.5938 231.043 74.9037 231.25 75.2682C231.268 75.2981 231.28 75.3312 231.285 75.3657C231.29 75.4003 231.288 75.4354 231.279 75.4692C231.271 75.503 231.256 75.5348 231.235 75.5627C231.214 75.5905 231.187 75.614 231.157 75.6317C231.12 75.652 231.079 75.6638 231.037 75.666C230.994 75.6683 230.952 75.6611 230.913 75.645Z" fill="#263238"/>
<path d="M222.108 74.7716L222.068 74.7385C222.043 74.7145 222.023 74.6857 222.01 74.6539C221.997 74.6221 221.99 74.588 221.99 74.5534C221.99 74.5189 221.997 74.4847 222.01 74.4529C222.023 74.4211 222.043 74.3924 222.068 74.3683C222.333 74.0419 222.672 73.7835 223.058 73.6145C223.443 73.4455 223.863 73.3708 224.283 73.3966C224.353 73.4054 224.416 73.4416 224.46 73.4974C224.503 73.5532 224.523 73.6239 224.514 73.6941C224.505 73.7642 224.469 73.828 224.413 73.8714C224.357 73.9148 224.287 73.9342 224.216 73.9254C223.884 73.9069 223.551 73.9687 223.248 74.1056C222.944 74.2425 222.678 74.4505 222.471 74.7121C222.429 74.766 222.369 74.8021 222.301 74.8131C222.234 74.8241 222.165 74.8093 222.108 74.7716Z" fill="#263238"/>
<path d="M244.253 96.9836C246.197 98.9668 248.041 100.95 249.839 103.046C250.738 104.09 251.644 105.141 252.483 106.252C253.397 107.395 254.243 108.591 255.015 109.835C255.26 110.221 255.481 110.623 255.676 111.038C255.816 111.357 255.927 111.689 256.007 112.029C256.037 112.167 256.059 112.306 256.073 112.446V112.704C256.079 112.818 256.079 112.933 256.073 113.047V113.226V113.305V113.371L256.04 113.503C255.868 114.217 255.742 114.938 255.517 115.639C255.122 117.067 254.602 118.459 253.964 119.797C253.31 121.155 252.5 122.433 251.551 123.604C251.064 124.198 250.529 124.751 249.951 125.257C249.661 125.515 249.363 125.759 249.039 125.997C248.88 126.11 248.709 126.222 248.537 126.328C248.365 126.434 248.206 126.526 247.929 126.672L246.494 124.232C246.494 124.199 246.639 124.08 246.712 123.988L246.99 123.677C247.175 123.459 247.353 123.228 247.525 123.016C247.865 122.528 248.176 122.02 248.457 121.496C249.021 120.437 249.49 119.331 249.859 118.19C250.024 117.595 250.209 117.02 250.335 116.405C250.46 115.791 250.599 115.202 250.698 114.594C250.798 113.986 250.87 113.358 250.963 112.743V112.624V112.571V112.69C250.963 112.763 250.963 112.862 250.963 112.908C250.959 112.95 250.959 112.992 250.963 113.034V113.199C250.963 113.332 250.963 113.292 250.963 113.239C250.963 113.186 250.751 112.895 250.599 112.677C249.938 111.771 249.105 110.747 248.259 109.775C247.413 108.803 246.527 107.792 245.615 106.82L240.161 100.963L244.253 96.9836Z" fill="#B55B52"/>
<path d="M249.356 125.786L245.39 129.468L242.819 125.283C242.819 125.283 245.291 123.505 247.512 124.173L249.356 125.786Z" fill="#B55B52"/>
<path d="M242.369 130.241L241.047 128.859C240.796 128.594 240.659 128.241 240.667 127.876C240.674 127.511 240.825 127.164 241.087 126.909L242.779 125.25L245.344 129.467L244.24 130.373C243.967 130.587 243.625 130.693 243.279 130.668C242.933 130.644 242.609 130.491 242.369 130.241Z" fill="#B55B52"/>
<path d="M235.309 96.798C235.005 99.1579 241.291 106.053 241.291 106.053L247.175 98.6886C247.175 98.6886 244.431 94.8412 242.336 93.9686C238.971 92.5474 235.653 94.1075 235.309 96.798Z" fill="#D5B689"/>
<path d="M228.203 77.1651L227.158 76.7288C227.158 76.7288 227.614 77.6344 228.203 77.1651Z" fill="#263238"/>
<path d="M90.1762 72.5376C87.7369 75.2413 84.7027 83.3459 94.1029 81.7197C103.503 80.0935 90.1762 72.5376 90.1762 72.5376Z" fill="#263238"/>
<path d="M93.1709 65.0868C93.746 61.4907 87.1685 53.2341 84.5772 58.3308C81.3975 64.4654 93.1709 65.0868 93.1709 65.0868Z" fill="#263238"/>
<path d="M93.1906 67.269C96.172 65.1801 97.5073 54.7089 92.0272 56.388C85.4232 58.4042 93.1906 67.269 93.1906 67.269Z" fill="#263238"/>
<path d="M108.276 99.3435C108.217 99.8988 108.164 100.593 108.117 101.227C108.071 101.862 108.045 102.55 108.025 103.211C108.025 104.533 107.946 105.855 107.985 107.144C108.041 109.755 108.277 112.359 108.693 114.938C108.785 115.599 108.931 116.207 109.05 116.842L109.089 117.06C109.088 117.084 109.088 117.108 109.089 117.133C109.089 117.133 109.089 117.132 109.089 117.192C109.089 117.251 109.406 117.41 109.856 117.456C110.381 117.518 110.911 117.518 111.436 117.456C113.976 117.046 116.461 116.343 118.84 115.361L120.122 117.642C119.507 118.084 118.919 118.455 118.298 118.825C117.676 119.195 117.062 119.552 116.407 119.869C115.074 120.56 113.671 121.108 112.223 121.502C111.402 121.721 110.559 121.843 109.711 121.866C108.602 121.898 107.506 121.616 106.551 121.053C105.976 120.696 105.486 120.218 105.116 119.651C104.94 119.385 104.792 119.101 104.673 118.805C104.613 118.667 104.56 118.526 104.515 118.382L104.449 118.17L104.416 118.038C104.237 117.337 104.025 116.63 103.873 115.923C103.24 113.098 102.862 110.222 102.743 107.329C102.67 105.895 102.644 104.467 102.697 103.032C102.697 102.312 102.756 101.598 102.809 100.877C102.862 100.157 102.928 99.4691 103.034 98.6626L108.276 99.3435Z" fill="#FCCEA8"/>
<path d="M107.615 93.1093C109.598 94.0084 109.598 102.9 109.598 102.9L100.621 106.972C100.621 106.972 99.0872 96.1634 101.103 94.134C103.12 92.1045 104.713 91.8004 107.615 93.1093Z" fill="#60696E"/>
<path opacity="0.2" d="M107.119 95.0066L108.468 103.435L103.596 105.636L107.119 95.0066Z" fill="black"/>
<path d="M117.689 116.471L121.438 112.366L122.614 116.888C122.614 116.888 120.215 119.181 118.172 118.52L117.689 116.471Z" fill="#FCCEA8"/>
<path d="M123.85 112.234L124.406 114.475C124.447 114.651 124.443 114.836 124.392 115.009C124.341 115.183 124.245 115.341 124.115 115.467L122.614 116.888L121.438 112.366L122.165 111.705C122.297 111.585 122.459 111.502 122.633 111.464C122.807 111.426 122.989 111.434 123.159 111.487C123.329 111.541 123.483 111.638 123.604 111.769C123.725 111.9 123.81 112.06 123.85 112.234Z" fill="#FCCEA8"/>
<path d="M108.746 95.1588C108.495 98.1799 106.981 105.544 100.813 123.393L80.1221 119.816C81.8342 111.884 82.7332 106.82 81.94 91.0074C81.9209 90.6505 81.9754 90.2935 82.1003 89.9586C82.2251 89.6237 82.4175 89.3181 82.6655 89.0607C82.9136 88.8034 83.2119 88.5999 83.542 88.4628C83.8721 88.3257 84.2268 88.2581 84.5842 88.264C86.6588 88.2828 88.7309 88.413 90.7915 88.6541C93.9563 88.9634 97.0953 89.4957 100.185 90.2472C102.71 90.9083 105.414 91.8734 107.047 92.4683C107.588 92.665 108.049 93.036 108.356 93.5231C108.664 94.0101 108.801 94.5855 108.746 95.1588Z" fill="#60696E"/>
<path opacity="0.2" d="M82.33 95.4297C84.1215 96.223 85.5031 98.5631 84.6437 102.291C84.2326 103.983 83.3501 105.524 82.0986 106.734C82.2705 103.779 82.2969 100.322 82.1581 95.866L82.33 95.4297Z" fill="black"/>
<path d="M93.5408 78.2358C93.6135 81.3626 93.2499 87.0014 90.7842 88.6541C90.7842 88.6541 92.5757 90.8951 97.5798 94.7556C102.353 92.1114 100.184 90.2737 100.184 90.2737C96.9518 88.8921 97.4675 86.4065 98.459 84.1589L93.5408 78.2358Z" fill="#FCCEA8"/>
<path opacity="0.2" d="M95.5507 80.655L98.4593 84.152C98.22 84.6738 98.0275 85.2158 97.8842 85.7716C96.6282 85.3617 94.7905 83.914 94.7574 82.4663C94.7376 81.7854 95.3854 80.9459 95.5507 80.655Z" fill="black"/>
<path d="M91.0885 72.4782C91.3727 77.6014 91.3793 79.7498 93.9509 82.394C97.818 86.3604 104.045 84.906 105.301 79.8027C106.432 75.1753 105.777 67.5996 100.78 65.5305C99.677 65.068 98.4745 64.8957 97.2864 65.0298C96.0984 65.1639 94.9645 65.6001 93.9928 66.2967C93.0212 66.9933 92.2441 67.9271 91.7357 69.0092C91.2273 70.0913 91.0045 71.2856 91.0885 72.4782Z" fill="#FCCEA8"/>
<path d="M91.0425 75.909C93.2504 76.0214 95.7823 71.7642 94.7576 69.8405C95.9145 69.5827 100.846 70.138 100.826 68.3201C103.054 69.8735 107.946 69.9529 108.759 67.8441C109.572 65.7353 107.721 63.772 105.315 64.5388C103.576 60.0569 95.2138 59.1314 92.0936 63.3886C88.1405 63.2894 79.5534 69.7545 91.0425 75.909Z" fill="#263238"/>
<path d="M99.9463 73.8928C99.9463 74.3092 100.158 74.6464 100.435 74.6464C100.713 74.6464 100.925 74.3158 100.931 73.8994C100.938 73.4829 100.713 73.1392 100.442 73.1392C100.171 73.1392 99.9463 73.4763 99.9463 73.8928Z" fill="#263238"/>
<path d="M104.653 73.9187C104.653 74.3352 104.871 74.6723 105.142 74.6789C105.414 74.6856 105.638 74.3418 105.645 73.9253C105.652 73.5089 105.427 73.1717 105.156 73.1651C104.885 73.1585 104.66 73.5023 104.653 73.9187Z" fill="#263238"/>
<path d="M105.037 73.192L106.035 72.9077C106.035 72.9077 105.52 73.7208 105.037 73.192Z" fill="#263238"/>
<path d="M103.2 74.6597C103.565 75.6044 104.059 76.4942 104.667 77.3039C104.454 77.4543 104.21 77.5565 103.953 77.6033C103.696 77.6501 103.432 77.6404 103.18 77.5749L103.2 74.6597Z" fill="#ED893E"/>
<path d="M100.753 79.2211C100.957 79.2539 101.162 79.2694 101.368 79.2673C101.384 79.2682 101.401 79.2658 101.416 79.2603C101.431 79.2547 101.445 79.2461 101.457 79.2349C101.468 79.2238 101.478 79.2104 101.484 79.1955C101.491 79.1806 101.494 79.1646 101.494 79.1484C101.492 79.1156 101.479 79.0845 101.455 79.0613C101.432 79.0381 101.401 79.0244 101.368 79.0228C100.848 79.029 100.335 78.9125 99.8682 78.6828C99.4018 78.453 98.9963 78.1166 98.6844 77.7006C98.6763 77.6861 98.6652 77.6735 98.652 77.6635C98.6387 77.6535 98.6234 77.6464 98.6073 77.6427C98.5911 77.639 98.5743 77.6387 98.558 77.6418C98.5416 77.645 98.5262 77.6515 98.5125 77.661C98.4907 77.6843 98.4785 77.715 98.4785 77.7469C98.4785 77.7788 98.4907 77.8096 98.5125 77.8329C98.7766 78.2001 99.1104 78.5117 99.4949 78.7499C99.8794 78.988 100.307 79.1482 100.753 79.2211Z" fill="#263238"/>
<path d="M100.059 79.9215C100.234 80.0263 100.418 80.1169 100.608 80.1926C100.622 80.199 100.638 80.2024 100.654 80.2025C100.67 80.2027 100.686 80.1996 100.701 80.1934C100.716 80.1872 100.729 80.1781 100.741 80.1666C100.752 80.1551 100.761 80.1414 100.766 80.1265C100.773 80.1118 100.776 80.0959 100.776 80.0798C100.776 80.0638 100.773 80.0479 100.767 80.033C100.761 80.0182 100.752 80.0048 100.74 79.9936C100.729 79.9824 100.715 79.9736 100.7 79.9678C100.22 79.7792 99.79 79.4806 99.4456 79.0961C99.1012 78.7115 98.8517 78.2516 98.717 77.7533C98.7139 77.7375 98.7076 77.7224 98.6985 77.7091C98.6895 77.6958 98.6777 77.6845 98.6641 77.6758C98.6505 77.6672 98.6353 77.6614 98.6194 77.6588C98.6035 77.6562 98.5872 77.6568 98.5716 77.6607C98.5406 77.6671 98.5132 77.685 98.4948 77.7107C98.4764 77.7365 98.4685 77.7682 98.4724 77.7996C98.5837 78.2405 98.7812 78.655 99.0535 79.0192C99.3258 79.3834 99.6675 79.6901 100.059 79.9215Z" fill="#263238"/>
<path d="M89.5214 76.4709C89.8062 77.4201 90.4517 78.2199 91.3195 78.6986C92.4763 79.32 93.3423 78.3483 93.2629 77.1055C93.1902 75.9883 92.4961 74.3158 91.2137 74.2101C90.9339 74.1919 90.6539 74.2439 90.3992 74.3612C90.1446 74.4786 89.9232 74.6576 89.7551 74.8821C89.5871 75.1066 89.4777 75.3694 89.4369 75.6469C89.3961 75.9243 89.4251 76.2075 89.5214 76.4709Z" fill="#FCCEA8"/>
<path d="M97.8053 71.5657C97.8521 71.5882 97.9049 71.5952 97.956 71.5857C98.0072 71.5762 98.0539 71.5507 98.0895 71.5128C98.8894 70.7129 100.33 70.9443 100.344 70.9443C100.408 70.954 100.473 70.9389 100.526 70.902C100.578 70.8651 100.615 70.8092 100.628 70.7459C100.634 70.7138 100.633 70.6808 100.625 70.649C100.618 70.6171 100.605 70.5871 100.585 70.5606C100.566 70.5341 100.542 70.5117 100.514 70.4947C100.486 70.4777 100.455 70.4665 100.423 70.4617C100.357 70.4617 98.7175 70.1907 97.7458 71.169C97.7224 71.1918 97.7038 71.2191 97.6911 71.2491C97.6784 71.2792 97.6719 71.3115 97.6719 71.3442C97.6719 71.3769 97.6784 71.4092 97.6911 71.4393C97.7038 71.4694 97.7224 71.4966 97.7458 71.5194L97.8053 71.5657Z" fill="#263238"/>
<path d="M106.247 71.6582C106.288 71.6639 106.331 71.6589 106.37 71.6439C106.409 71.6289 106.444 71.6043 106.471 71.5723C106.512 71.5223 106.532 71.458 106.526 71.3936C106.52 71.3292 106.488 71.2698 106.438 71.2285C106.146 70.9731 105.796 70.7912 105.419 70.6981C105.042 70.605 104.648 70.6032 104.27 70.6931C104.209 70.7128 104.158 70.7558 104.128 70.8127C104.099 70.8696 104.093 70.9358 104.111 70.9972C104.12 71.0285 104.134 71.0578 104.154 71.0833C104.174 71.1088 104.199 71.1299 104.228 71.1454C104.256 71.1608 104.288 71.1703 104.32 71.1733C104.352 71.1762 104.385 71.1725 104.415 71.1624C104.715 71.0939 105.028 71.0984 105.325 71.1755C105.623 71.2525 105.898 71.4 106.128 71.6054C106.162 71.6334 106.203 71.6517 106.247 71.6582Z" fill="#263238"/>
<path d="M100.825 123.392C100.825 123.392 104.051 155.672 105.056 171.418C106.101 187.792 104.732 230.913 104.732 230.913H97.7449C97.7449 230.913 93.4282 182.339 93.4282 172.648C90.6782 155.083 83.0959 136.891 85.674 120.781L100.825 123.392Z" fill="#BBB1A2"/>
<path opacity="0.4" d="M89.8457 136.171C88.3758 136.566 87.0656 137.409 86.0975 138.584C87.1618 145.28 88.9599 152.148 90.6125 159.023C91.7958 151.553 91.0885 138.967 89.8457 136.171Z" fill="#877E70"/>
<path d="M95.0157 122.387C95.0157 122.387 86.5674 159.486 85.1395 175.192C81.55 189.782 64.6468 225.763 64.6468 225.763L58.1816 223.119C58.1816 223.119 68.3156 184.679 73.8817 174.088C74.4106 156.531 74.318 135.377 79.8973 119.783L95.0157 122.387Z" fill="#BBB1A2"/>
<path d="M100.343 73.159L101.341 72.8813C101.341 72.8813 100.806 73.6548 100.343 73.159Z" fill="#263238"/>
<path d="M80.0359 118.554L79.1898 120.312C79.0906 120.444 79.236 120.616 79.474 120.662L100.767 124.338C100.952 124.371 101.124 124.338 101.157 124.186L101.666 122.368C101.699 122.242 101.553 122.104 101.348 122.071L80.3995 118.455C80.3355 118.438 80.2684 118.439 80.2047 118.456C80.141 118.474 80.0828 118.507 80.0359 118.554Z" fill="#263238"/>
<path d="M82.4948 121.39L81.9329 121.297C81.8205 121.297 81.7478 121.204 81.7677 121.132L82.4287 118.772C82.4287 118.706 82.5543 118.666 82.6667 118.686L83.2286 118.778C83.341 118.778 83.4137 118.871 83.3939 118.944L82.7328 121.304C82.7328 121.37 82.627 121.409 82.4948 121.39Z" fill="#EF4E23"/>
<g opacity="0.6">
<path d="M82.4948 121.39L81.9329 121.297C81.8205 121.297 81.7478 121.204 81.7677 121.132L82.4287 118.772C82.4287 118.706 82.5543 118.666 82.6667 118.686L83.2286 118.778C83.341 118.778 83.4137 118.871 83.3939 118.944L82.7328 121.304C82.7328 121.37 82.627 121.409 82.4948 121.39Z" fill="white"/>
</g>
<path d="M99.1531 124.265L98.5978 124.166C98.4854 124.166 98.4061 124.073 98.4259 124.007L99.087 121.647C99.087 121.574 99.2126 121.535 99.3249 121.554L99.8868 121.654C99.9992 121.654 100.072 121.746 100.052 121.812L99.391 124.172C99.3778 124.245 99.2654 124.285 99.1531 124.265Z" fill="#EF4E23"/>
<g opacity="0.6">
<path d="M99.1531 124.265L98.5978 124.166C98.4854 124.166 98.4061 124.073 98.4259 124.007L99.087 121.647C99.087 121.574 99.2126 121.535 99.3249 121.554L99.8868 121.654C99.9992 121.654 100.072 121.746 100.052 121.812L99.391 124.172C99.3778 124.245 99.2654 124.285 99.1531 124.265Z" fill="white"/>
</g>
<path d="M90.8701 122.838L90.3082 122.738C90.1958 122.738 90.1231 122.646 90.1429 122.58L90.804 120.213C90.804 120.147 90.9296 120.107 91.0419 120.127L91.6038 120.22C91.7096 120.22 91.7889 120.312 91.7691 120.385L91.108 122.745C91.0882 122.811 90.9824 122.851 90.8701 122.838Z" fill="#EF4E23"/>
<g opacity="0.6">
<path d="M90.8701 122.838L90.3082 122.738C90.1958 122.738 90.1231 122.646 90.1429 122.58L90.804 120.213C90.804 120.147 90.9296 120.107 91.0419 120.127L91.6038 120.22C91.7096 120.22 91.7889 120.312 91.7691 120.385L91.108 122.745C91.0882 122.811 90.9824 122.851 90.8701 122.838Z" fill="white"/>
</g>
<path d="M77.7744 122.586L81.6482 126.605L76.406 126.955C76.406 126.955 74.6146 124.159 75.6591 122.282L77.7744 122.586Z" fill="#FCCEA8"/>
<path d="M83.3278 95.258C81.8338 97.6378 80.2869 100.004 78.74 102.351C77.1932 104.698 75.6132 107.078 74.1986 109.352L73.9738 109.709C73.9738 109.709 73.9738 109.748 73.9209 109.795C73.8666 109.946 73.8332 110.104 73.8218 110.264C73.7799 110.787 73.8043 111.314 73.8945 111.831C74.1162 113.094 74.4435 114.337 74.8729 115.546C75.2959 116.815 75.7917 118.091 76.3404 119.353C76.8891 120.616 77.4576 121.899 78.0327 123.135L75.8116 124.523C74.0376 122.193 72.4882 119.701 71.1842 117.079C70.4897 115.686 69.9361 114.227 69.5315 112.723C69.3031 111.86 69.1832 110.972 69.1746 110.079C69.1766 109.533 69.2455 108.989 69.3795 108.459C69.4653 108.151 69.5759 107.851 69.71 107.56L69.8687 107.243L70.0009 106.985C70.7016 105.663 71.4023 104.433 72.1295 103.191C72.8566 101.948 73.5838 100.745 74.3242 99.535C75.805 97.1089 77.3122 94.7225 78.8921 92.3625L83.3278 95.258Z" fill="#FCCEA8"/>
<path d="M84.7291 88.383C79.6522 87.5104 75.8379 95.344 75.8379 95.344L81.7874 102.668C81.7874 102.668 85.6017 98.4046 86.4478 95.6745C87.3469 92.8319 87.2014 88.8127 84.7291 88.383Z" fill="#60696E"/>
<path d="M82.0979 130.928L77.6887 130.981L76.4062 126.955L81.6484 126.605L82.0979 130.928Z" fill="#FCCEA8"/>
<path d="M264.408 35.659C265.709 35.6603 266.997 35.9175 268.199 36.4157C269.4 36.914 270.491 37.6436 271.41 38.5628C272.329 39.4821 273.057 40.573 273.554 41.7732C274.05 42.9734 274.304 44.2594 274.302 45.5577V138.469C274.299 141.087 273.256 143.597 271.401 145.448C269.546 147.299 267.031 148.34 264.408 148.342H205.648C203.607 148.342 201.649 149.152 200.205 150.592C198.761 152.033 197.95 153.987 197.95 156.024V163.306L182.601 150.186C181.205 148.995 179.429 148.341 177.592 148.342L63.5921 148.339C60.9688 148.337 58.4537 147.296 56.5988 145.445C54.7438 143.594 53.7005 141.084 53.6978 138.466V45.5548C53.7005 42.9371 54.7438 40.4274 56.5988 38.5764C58.4537 36.7254 60.9688 35.6844 63.5921 35.6816L264.408 35.6846M264.408 28.0032L63.5921 28.0002C58.9305 28.0138 54.4638 29.8676 51.1676 33.1568C47.8713 36.446 46.0135 40.9032 46 45.5548V138.466C46.0135 143.118 47.8713 147.575 51.1676 150.864C54.4638 154.154 58.9305 156.007 63.5921 156.021L177.592 156.024L205.648 180V156.024H264.408C269.069 156.01 273.536 154.156 276.832 150.867C280.129 147.578 281.986 143.121 282 138.469V45.5577C281.986 40.9061 280.129 36.4489 276.832 33.1597C273.536 29.8705 269.069 28.0167 264.408 28.0032Z" fill="#EF4E23"/>
<path d="M155.905 120.094C155.905 120.094 147.311 156.194 144.059 169.594C140.469 184.262 126.395 232.943 126.395 232.943L118 231.125C118 231.125 127.123 189.3 130.712 168.833C133.469 153.12 139.696 120.094 139.696 120.094H155.905Z" fill="#263238"/>
<path opacity="0.3" d="M150.954 136.825C145.004 137.611 143.927 158.461 143.788 170.691L144.059 169.587C145.844 162.275 149.209 148.175 151.906 136.891C151.597 136.798 151.272 136.775 150.954 136.825Z" fill="black"/>
<path d="M164.823 120.094C164.823 120.094 162.529 155.249 161.518 169.561C160.454 184.448 156.229 233.273 156.229 233.273H148.211C148.211 233.273 147.371 185.34 147.14 170.698C146.882 154.74 148.29 120.094 148.29 120.094H164.823Z" fill="#263238"/>
<path d="M142.592 86.2807C141.309 88.8786 140.007 91.6088 138.804 94.2927C137.601 96.9766 136.417 99.6935 135.498 102.404L135.142 103.415L134.824 104.42L134.679 104.876C134.69 104.769 134.69 104.66 134.679 104.552C134.634 104.107 134.421 103.696 134.084 103.402C133.826 103.23 133.819 103.303 133.919 103.356C134.103 103.441 134.295 103.505 134.494 103.547C135.086 103.672 135.687 103.754 136.292 103.792C139.185 103.881 142.082 103.795 144.965 103.534H145.044C145.471 103.502 145.895 103.625 146.238 103.88C146.582 104.135 146.822 104.506 146.914 104.923C147.007 105.341 146.945 105.778 146.741 106.155C146.538 106.531 146.205 106.821 145.804 106.972C142.803 108.182 139.656 108.996 136.444 109.391C135.521 109.486 134.592 109.495 133.667 109.418C133.109 109.372 132.555 109.275 132.015 109.127C131.22 108.92 130.484 108.536 129.86 108.003C129.408 107.616 129.038 107.145 128.769 106.615C128.499 106.065 128.337 105.468 128.293 104.856C128.266 104.369 128.303 103.88 128.405 103.402L128.551 102.741L128.828 101.544L129.146 100.374C130.014 97.3334 131.063 94.3468 132.286 91.4303C133.502 88.5349 134.791 85.7518 136.292 82.9357C136.732 82.1117 137.479 81.4938 138.371 81.2151C139.263 80.9364 140.229 81.0193 141.06 81.4458C141.892 81.8724 142.522 82.6085 142.816 83.4955C143.11 84.3826 143.044 85.3495 142.631 86.1881L142.592 86.2807Z" fill="#CF7A64"/>
<path d="M145.097 103.713L148.019 102.562L147.874 107.996C146.694 107.914 145.556 107.529 144.568 106.879C144.326 106.704 144.144 106.458 144.046 106.176C143.948 105.893 143.939 105.587 144.02 105.299L144.185 104.704C144.247 104.478 144.363 104.271 144.521 104.098C144.68 103.926 144.877 103.794 145.097 103.713Z" fill="#CE7A63"/>
<path d="M152.831 101.948L151.78 106.654L147.873 107.99L148.018 102.563L152.831 101.948Z" fill="#CE7A63"/>
<path d="M158.272 61.967C158.351 62.3372 158.609 62.595 158.847 62.5487C159.085 62.5025 159.23 62.1587 159.151 61.7885C159.072 61.4183 158.821 61.1275 158.576 61.2002C158.331 61.2729 158.199 61.5902 158.272 61.967Z" fill="#263238"/>
<path d="M158.569 62.6013C159.243 63.6481 160.06 64.5959 160.995 65.4174C160.778 65.6506 160.512 65.8335 160.216 65.9534C159.92 66.0733 159.602 66.1272 159.283 66.1115L158.569 62.6013Z" fill="#BA4D3C"/>
<path d="M156.494 60.1758C156.437 60.1751 156.383 60.154 156.342 60.1163C156.321 60.096 156.305 60.0719 156.294 60.0452C156.282 60.0185 156.277 59.9899 156.277 59.961C156.277 59.9321 156.282 59.9035 156.294 59.8768C156.305 59.8501 156.321 59.8259 156.342 59.8056C156.576 59.5399 156.87 59.334 157.2 59.2052C157.53 59.0764 157.886 59.0284 158.239 59.0653C158.296 59.0765 158.347 59.1098 158.38 59.1579C158.414 59.2061 158.427 59.2653 158.417 59.3231C158.413 59.3519 158.404 59.3796 158.389 59.4045C158.374 59.4295 158.354 59.4513 158.331 59.4685C158.307 59.4857 158.281 59.4981 158.252 59.5049C158.224 59.5118 158.195 59.5129 158.166 59.5082C157.887 59.4811 157.606 59.5216 157.346 59.6263C157.086 59.731 156.855 59.8968 156.672 60.1097C156.649 60.1328 156.621 60.1506 156.59 60.162C156.559 60.1734 156.526 60.1781 156.494 60.1758Z" fill="#263238"/>
<path d="M147.96 68.7227C148.621 72.1601 149.037 76.9264 146.638 79.2202C146.638 79.2202 147.583 82.704 153.969 82.704C160.989 82.704 157.347 79.6433 157.347 79.6433C154.425 78.7377 154.451 75.4125 155.119 72.7419L147.96 68.7227Z" fill="#CE7A63"/>
<path d="M138.222 79.2345C133.813 80.2459 130.911 92.1317 130.911 92.1317L138.295 97.6581C141.028 95.696 142.966 92.8176 143.755 89.547C145.236 83.6371 142.724 78.2033 138.222 79.2345Z" fill="#EF4E23"/>
<path opacity="0.2" d="M141.997 87.5039C139.48 90.1831 138.016 93.6807 137.872 97.3536L138.262 97.6577C140.993 95.6935 142.93 92.816 143.722 89.5466C143.808 89.1962 143.888 88.8392 143.954 88.4955L141.997 87.5039Z" fill="black"/>
<path d="M166.059 83.9478C167.011 88.9784 168.445 100.917 165.762 121.211C165.737 121.378 165.659 121.532 165.54 121.651C165.421 121.77 165.267 121.848 165.1 121.873C162.797 122.145 160.468 122.113 158.173 121.78C153.545 121.119 149.704 121.403 145.216 121.78C143.237 121.934 141.249 121.962 139.266 121.866C139.16 121.86 139.056 121.833 138.96 121.785C138.865 121.738 138.78 121.671 138.712 121.589C138.644 121.507 138.593 121.412 138.563 121.309C138.534 121.207 138.525 121.099 138.539 120.993C139.233 115.771 141.752 96.3558 138.255 79.2543C141.032 78.7218 143.841 78.3685 146.664 78.1966C150.224 77.9882 153.793 77.9882 157.353 78.1966C158.53 78.3023 159.686 78.4742 160.718 78.6527C162.038 78.8948 163.254 79.5298 164.207 80.4746C165.16 81.4194 165.805 82.6299 166.059 83.9478Z" fill="#EF4E23"/>
<path d="M145.725 63.6924C146.928 68.2008 147.411 70.8979 150.187 72.7687C154.372 75.5914 159.574 72.3522 159.739 67.5794C159.885 63.2825 157.888 56.6389 153.056 55.7267C151.991 55.5203 150.891 55.5899 149.86 55.9289C148.829 56.268 147.902 56.8651 147.167 57.6635C146.433 58.4619 145.914 59.435 145.662 60.4903C145.409 61.5456 145.431 62.6479 145.725 63.6924Z" fill="#CE7A63"/>
<path d="M156.269 65.0739C157.677 68.1808 157.234 71.0234 155.482 72.3455C153.499 73.8527 147.94 74.0841 145.831 71.9489C146.631 71.149 147.074 70.1508 146.049 68.7295C145.025 67.3082 141.263 65.1003 141.19 62.0661C141.118 59.0318 143.127 58.6881 143.008 58.6881C141.23 57.8948 141.342 55.0391 143.299 53.4657C145.375 51.7933 148.746 51.3305 152.759 52.1436C155.291 52.646 157.776 52.5998 157.34 51C160.321 52.7121 158.841 59.0517 155.958 59.8846C156.415 61.0282 158.411 62.8461 158.411 62.8461C158.411 62.8461 157.922 64.7367 156.269 65.0739Z" fill="#263238"/>
<path d="M143.299 58.0732C143.299 58.0732 142.214 58.7343 139.365 57.9014C140.132 59.3226 142.981 59.3755 143.669 59.0516C144.356 58.7277 143.299 58.0732 143.299 58.0732Z" fill="#263238"/>
<path d="M154.457 63.9369C154.716 64.9993 155.321 65.9456 156.176 66.6274C157.306 67.5198 158.159 66.7001 158.159 65.3912C158.113 64.2145 157.498 62.3371 156.216 61.9537C154.933 61.5703 154.16 62.6544 154.457 63.9369Z" fill="#CE7A63"/>
<path d="M166.238 83.2594C166.826 84.6278 167.381 86.0094 167.95 87.3844C168.518 88.7594 169.074 90.141 169.622 91.5226L172.888 99.7792C173.437 101.141 173.985 102.496 174.54 103.798L174.964 104.737L175.069 104.968V105.021C175.069 105.021 175.069 105.021 175.03 104.955C174.935 104.79 174.827 104.633 174.706 104.486C174.46 104.215 174.166 103.991 173.84 103.825C173.6 103.691 173.342 103.595 173.073 103.541C172.908 103.504 172.74 103.482 172.571 103.475C172.467 103.468 172.363 103.468 172.26 103.475C172.157 103.481 172.055 103.499 171.956 103.527C171.9 103.538 171.846 103.558 171.797 103.587C171.995 103.549 172.187 103.482 172.366 103.389C172.63 103.27 172.928 103.124 173.218 102.965C174.422 102.304 175.691 101.584 176.953 100.85C178.216 100.116 179.525 99.376 180.834 98.6752H180.873C181.24 98.4773 181.665 98.4136 182.074 98.4951C182.483 98.5765 182.85 98.798 183.113 99.1214C183.377 99.4448 183.519 99.8499 183.515 100.267C183.512 100.684 183.363 101.086 183.095 101.405C181.117 103.804 178.902 105.997 176.484 107.95C176.16 108.201 175.823 108.452 175.446 108.71C174.998 109.025 174.519 109.295 174.018 109.517C173.804 109.608 173.583 109.683 173.357 109.741C173.169 109.791 172.976 109.824 172.782 109.84C172.63 109.85 172.478 109.85 172.326 109.84C172.103 109.837 171.882 109.81 171.665 109.761C171.354 109.692 171.054 109.581 170.772 109.431C170.401 109.233 170.072 108.966 169.801 108.644C169.663 108.48 169.54 108.305 169.431 108.122L169.371 108.009L169.331 107.943L169.186 107.672C168.981 107.309 168.809 106.965 168.617 106.608C167.897 105.22 167.242 103.851 166.634 102.476C165.358 99.7329 164.162 96.9962 162.992 94.2462C162.41 92.8712 161.837 91.4918 161.273 90.108C160.711 88.7263 160.149 87.3447 159.614 85.9565C159.257 85.0799 159.263 84.0975 159.631 83.2253C159.998 82.3532 160.697 81.6628 161.574 81.306C162.451 80.9492 163.433 80.9553 164.305 81.3229C165.177 81.6904 165.868 82.3894 166.224 83.266L166.238 83.2594Z" fill="#CF7A64"/>
<path d="M183.491 95.9389C182.647 96.4225 181.906 97.0679 181.312 97.8381C180.718 98.6083 180.281 99.4882 180.027 100.427L181.66 102.523L185.23 101.419C185.512 101.33 185.757 101.148 185.924 100.903L187.755 98.1997C187.898 97.9365 187.962 97.6381 187.941 97.3395C187.92 97.0409 187.814 96.7545 187.636 96.514L185.699 93.9094L183.491 95.9389Z" fill="#CE7A63"/>
<path d="M156.533 86.5587C156.943 91.8008 162.714 98.6494 162.714 98.6494L170.851 92.5478C170.851 92.5478 169.615 85.1771 165.398 81.1777C160.182 76.2396 156.143 81.6536 156.533 86.5587Z" fill="#EF4E23"/>
<path d="M158.51 78.1763C157.756 75.9684 149.09 75.585 143.867 76.1138C138.645 76.6427 141.276 80.7082 142.155 81.2767C139.789 82.1559 141.051 86.3338 145.461 88.383C149.87 90.4323 159.449 80.8404 158.51 78.1763Z" fill="#F29356"/>
</g>
<defs>
<linearGradient id="paint0_linear_8732_57620" x1="161" y1="59" x2="161" y2="227.5" gradientUnits="userSpaceOnUse">
<stop stop-color="#FAF7F2"/>
<stop offset="1" stop-color="white"/>
</linearGradient>
<clipPath id="clip0_8732_57620">
<rect width="322" height="200" fill="white"/>
</clipPath>
</defs>
</svg>
